<?xml version="1.0" encoding="utf-8" standalone="no"?>
<!DOCTYPE svg PUBLIC "-//W3C//DTD SVG 1.1//EN"
  "http://www.w3.org/Graphics/SVG/1.1/DTD/svg11.dtd">
<svg xmlns:xlink="http://www.w3.org/1999/xlink" width="648pt" height="432pt" viewBox="0 0 648 432" xmlns="http://www.w3.org/2000/svg" version="1.1">
 <metadata>
  <rdf:RDF xmlns:dc="http://purl.org/dc/elements/1.1/" xmlns:cc="http://creativecommons.org/ns#" xmlns:rdf="http://www.w3.org/1999/02/22-rdf-syntax-ns#">
   <cc:Work>
    <dc:type rdf:resource="http://purl.org/dc/dcmitype/StillImage"/>
    <dc:date>2024-12-13T14:33:33.563347</dc:date>
    <dc:format>image/svg+xml</dc:format>
    <dc:creator>
     <cc:Agent>
      <dc:title>Matplotlib v3.5.1, https://matplotlib.org/</dc:title>
     </cc:Agent>
    </dc:creator>
   </cc:Work>
  </rdf:RDF>
 </metadata>
 <defs>
  <style type="text/css">*{stroke-linejoin: round; stroke-linecap: butt}</style>
 </defs>
 <g id="figure_1">
  <g id="patch_1">
   <path d="M 0 432 
L 648 432 
L 648 0 
L 0 0 
z
" style="fill: #ffffff"/>
  </g>
  <g id="axes_1">
   <g id="patch_2">
    <path d="M 64.96 172.02 
L 635.04 172.02 
L 635.04 47.96 
L 64.96 47.96 
z
" style="fill: #ffffff"/>
   </g>
   <g id="matplotlib.axis_1">
    <g id="xtick_1">
     <g id="line2d_1">
      <path d="M 90.872727 172.02 
L 90.872727 47.96 
" clip-path="url(#p24ad394f4a)" style="fill: none; stroke: #cccccc; stroke-linecap: round"/>
     </g>
     <g id="text_1">
      <!-- 0 -->
      <g style="fill: #262626" transform="translate(87.814212 189.393594)scale(0.11 -0.11)">
       <defs>
        <path id="ArialMT-30" d="M 266 2259 
Q 266 3072 433 3567 
Q 600 4063 929 4331 
Q 1259 4600 1759 4600 
Q 2128 4600 2406 4451 
Q 2684 4303 2865 4023 
Q 3047 3744 3150 3342 
Q 3253 2941 3253 2259 
Q 3253 1453 3087 958 
Q 2922 463 2592 192 
Q 2263 -78 1759 -78 
Q 1097 -78 719 397 
Q 266 969 266 2259 
z
M 844 2259 
Q 844 1131 1108 757 
Q 1372 384 1759 384 
Q 2147 384 2411 759 
Q 2675 1134 2675 2259 
Q 2675 3391 2411 3762 
Q 2147 4134 1753 4134 
Q 1366 4134 1134 3806 
Q 844 3388 844 2259 
z
" transform="scale(0.015625)"/>
       </defs>
       <use xlink:href="#ArialMT-30"/>
      </g>
     </g>
    </g>
    <g id="xtick_2">
     <g id="line2d_2">
      <path d="M 194.726476 172.02 
L 194.726476 47.96 
" clip-path="url(#p24ad394f4a)" style="fill: none; stroke: #cccccc; stroke-linecap: round"/>
     </g>
     <g id="text_2">
      <!-- 100 -->
      <g style="fill: #262626" transform="translate(185.550929 189.393594)scale(0.11 -0.11)">
       <defs>
        <path id="ArialMT-31" d="M 2384 0 
L 1822 0 
L 1822 3584 
Q 1619 3391 1289 3197 
Q 959 3003 697 2906 
L 697 3450 
Q 1169 3672 1522 3987 
Q 1875 4303 2022 4600 
L 2384 4600 
L 2384 0 
z
" transform="scale(0.015625)"/>
       </defs>
       <use xlink:href="#ArialMT-31"/>
       <use xlink:href="#ArialMT-30" x="55.615234"/>
       <use xlink:href="#ArialMT-30" x="111.230469"/>
      </g>
     </g>
    </g>
    <g id="xtick_3">
     <g id="line2d_3">
      <path d="M 298.580224 172.02 
L 298.580224 47.96 
" clip-path="url(#p24ad394f4a)" style="fill: none; stroke: #cccccc; stroke-linecap: round"/>
     </g>
     <g id="text_3">
      <!-- 200 -->
      <g style="fill: #262626" transform="translate(289.404677 189.393594)scale(0.11 -0.11)">
       <defs>
        <path id="ArialMT-32" d="M 3222 541 
L 3222 0 
L 194 0 
Q 188 203 259 391 
Q 375 700 629 1000 
Q 884 1300 1366 1694 
Q 2113 2306 2375 2664 
Q 2638 3022 2638 3341 
Q 2638 3675 2398 3904 
Q 2159 4134 1775 4134 
Q 1369 4134 1125 3890 
Q 881 3647 878 3216 
L 300 3275 
Q 359 3922 746 4261 
Q 1134 4600 1788 4600 
Q 2447 4600 2831 4234 
Q 3216 3869 3216 3328 
Q 3216 3053 3103 2787 
Q 2991 2522 2730 2228 
Q 2469 1934 1863 1422 
Q 1356 997 1212 845 
Q 1069 694 975 541 
L 3222 541 
z
" transform="scale(0.015625)"/>
       </defs>
       <use xlink:href="#ArialMT-32"/>
       <use xlink:href="#ArialMT-30" x="55.615234"/>
       <use xlink:href="#ArialMT-30" x="111.230469"/>
      </g>
     </g>
    </g>
    <g id="xtick_4">
     <g id="line2d_4">
      <path d="M 402.433973 172.02 
L 402.433973 47.96 
" clip-path="url(#p24ad394f4a)" style="fill: none; stroke: #cccccc; stroke-linecap: round"/>
     </g>
     <g id="text_4">
      <!-- 300 -->
      <g style="fill: #262626" transform="translate(393.258426 189.393594)scale(0.11 -0.11)">
       <defs>
        <path id="ArialMT-33" d="M 269 1209 
L 831 1284 
Q 928 806 1161 595 
Q 1394 384 1728 384 
Q 2125 384 2398 659 
Q 2672 934 2672 1341 
Q 2672 1728 2419 1979 
Q 2166 2231 1775 2231 
Q 1616 2231 1378 2169 
L 1441 2663 
Q 1497 2656 1531 2656 
Q 1891 2656 2178 2843 
Q 2466 3031 2466 3422 
Q 2466 3731 2256 3934 
Q 2047 4138 1716 4138 
Q 1388 4138 1169 3931 
Q 950 3725 888 3313 
L 325 3413 
Q 428 3978 793 4289 
Q 1159 4600 1703 4600 
Q 2078 4600 2393 4439 
Q 2709 4278 2876 4000 
Q 3044 3722 3044 3409 
Q 3044 3113 2884 2869 
Q 2725 2625 2413 2481 
Q 2819 2388 3044 2092 
Q 3269 1797 3269 1353 
Q 3269 753 2831 336 
Q 2394 -81 1725 -81 
Q 1122 -81 723 278 
Q 325 638 269 1209 
z
" transform="scale(0.015625)"/>
       </defs>
       <use xlink:href="#ArialMT-33"/>
       <use xlink:href="#ArialMT-30" x="55.615234"/>
       <use xlink:href="#ArialMT-30" x="111.230469"/>
      </g>
     </g>
    </g>
    <g id="xtick_5">
     <g id="line2d_5">
      <path d="M 506.287721 172.02 
L 506.287721 47.96 
" clip-path="url(#p24ad394f4a)" style="fill: none; stroke: #cccccc; stroke-linecap: round"/>
     </g>
     <g id="text_5">
      <!-- 400 -->
      <g style="fill: #262626" transform="translate(497.112174 189.393594)scale(0.11 -0.11)">
       <defs>
        <path id="ArialMT-34" d="M 2069 0 
L 2069 1097 
L 81 1097 
L 81 1613 
L 2172 4581 
L 2631 4581 
L 2631 1613 
L 3250 1613 
L 3250 1097 
L 2631 1097 
L 2631 0 
L 2069 0 
z
M 2069 1613 
L 2069 3678 
L 634 1613 
L 2069 1613 
z
" transform="scale(0.015625)"/>
       </defs>
       <use xlink:href="#ArialMT-34"/>
       <use xlink:href="#ArialMT-30" x="55.615234"/>
       <use xlink:href="#ArialMT-30" x="111.230469"/>
      </g>
     </g>
    </g>
    <g id="xtick_6">
     <g id="line2d_6">
      <path d="M 610.141469 172.02 
L 610.141469 47.96 
" clip-path="url(#p24ad394f4a)" style="fill: none; stroke: #cccccc; stroke-linecap: round"/>
     </g>
     <g id="text_6">
      <!-- 500 -->
      <g style="fill: #262626" transform="translate(600.965923 189.393594)scale(0.11 -0.11)">
       <defs>
        <path id="ArialMT-35" d="M 266 1200 
L 856 1250 
Q 922 819 1161 601 
Q 1400 384 1738 384 
Q 2144 384 2425 690 
Q 2706 997 2706 1503 
Q 2706 1984 2436 2262 
Q 2166 2541 1728 2541 
Q 1456 2541 1237 2417 
Q 1019 2294 894 2097 
L 366 2166 
L 809 4519 
L 3088 4519 
L 3088 3981 
L 1259 3981 
L 1013 2750 
Q 1425 3038 1878 3038 
Q 2478 3038 2890 2622 
Q 3303 2206 3303 1553 
Q 3303 931 2941 478 
Q 2500 -78 1738 -78 
Q 1113 -78 717 272 
Q 322 622 266 1200 
z
" transform="scale(0.015625)"/>
       </defs>
       <use xlink:href="#ArialMT-35"/>
       <use xlink:href="#ArialMT-30" x="55.615234"/>
       <use xlink:href="#ArialMT-30" x="111.230469"/>
      </g>
     </g>
    </g>
    <g id="xtick_7"/>
    <g id="xtick_8"/>
    <g id="xtick_9"/>
    <g id="xtick_10"/>
    <g id="xtick_11"/>
    <g id="xtick_12"/>
    <g id="xtick_13"/>
    <g id="xtick_14"/>
    <g id="xtick_15"/>
    <g id="xtick_16"/>
    <g id="xtick_17"/>
    <g id="xtick_18"/>
    <g id="xtick_19"/>
    <g id="xtick_20"/>
    <g id="xtick_21"/>
    <g id="xtick_22"/>
    <g id="xtick_23"/>
    <g id="xtick_24"/>
    <g id="xtick_25"/>
    <g id="xtick_26"/>
    <g id="xtick_27"/>
    <g id="xtick_28"/>
    <g id="text_7">
     <!-- Frequency [Hz] -->
     <g style="fill: #262626" transform="translate(299.151172 206.316563)scale(0.15 -0.15)">
      <defs>
       <path id="ArialMT-46" d="M 525 0 
L 525 4581 
L 3616 4581 
L 3616 4041 
L 1131 4041 
L 1131 2622 
L 3281 2622 
L 3281 2081 
L 1131 2081 
L 1131 0 
L 525 0 
z
" transform="scale(0.015625)"/>
       <path id="ArialMT-72" d="M 416 0 
L 416 3319 
L 922 3319 
L 922 2816 
Q 1116 3169 1280 3281 
Q 1444 3394 1641 3394 
Q 1925 3394 2219 3213 
L 2025 2691 
Q 1819 2813 1613 2813 
Q 1428 2813 1281 2702 
Q 1134 2591 1072 2394 
Q 978 2094 978 1738 
L 978 0 
L 416 0 
z
" transform="scale(0.015625)"/>
       <path id="ArialMT-65" d="M 2694 1069 
L 3275 997 
Q 3138 488 2766 206 
Q 2394 -75 1816 -75 
Q 1088 -75 661 373 
Q 234 822 234 1631 
Q 234 2469 665 2931 
Q 1097 3394 1784 3394 
Q 2450 3394 2872 2941 
Q 3294 2488 3294 1666 
Q 3294 1616 3291 1516 
L 816 1516 
Q 847 969 1125 678 
Q 1403 388 1819 388 
Q 2128 388 2347 550 
Q 2566 713 2694 1069 
z
M 847 1978 
L 2700 1978 
Q 2663 2397 2488 2606 
Q 2219 2931 1791 2931 
Q 1403 2931 1139 2672 
Q 875 2413 847 1978 
z
" transform="scale(0.015625)"/>
       <path id="ArialMT-71" d="M 2538 -1272 
L 2538 353 
Q 2406 169 2170 47 
Q 1934 -75 1669 -75 
Q 1078 -75 651 397 
Q 225 869 225 1691 
Q 225 2191 398 2587 
Q 572 2984 901 3189 
Q 1231 3394 1625 3394 
Q 2241 3394 2594 2875 
L 2594 3319 
L 3100 3319 
L 3100 -1272 
L 2538 -1272 
z
M 803 1669 
Q 803 1028 1072 708 
Q 1341 388 1716 388 
Q 2075 388 2334 692 
Q 2594 997 2594 1619 
Q 2594 2281 2320 2615 
Q 2047 2950 1678 2950 
Q 1313 2950 1058 2639 
Q 803 2328 803 1669 
z
" transform="scale(0.015625)"/>
       <path id="ArialMT-75" d="M 2597 0 
L 2597 488 
Q 2209 -75 1544 -75 
Q 1250 -75 995 37 
Q 741 150 617 320 
Q 494 491 444 738 
Q 409 903 409 1263 
L 409 3319 
L 972 3319 
L 972 1478 
Q 972 1038 1006 884 
Q 1059 663 1231 536 
Q 1403 409 1656 409 
Q 1909 409 2131 539 
Q 2353 669 2445 892 
Q 2538 1116 2538 1541 
L 2538 3319 
L 3100 3319 
L 3100 0 
L 2597 0 
z
" transform="scale(0.015625)"/>
       <path id="ArialMT-6e" d="M 422 0 
L 422 3319 
L 928 3319 
L 928 2847 
Q 1294 3394 1984 3394 
Q 2284 3394 2536 3286 
Q 2788 3178 2913 3003 
Q 3038 2828 3088 2588 
Q 3119 2431 3119 2041 
L 3119 0 
L 2556 0 
L 2556 2019 
Q 2556 2363 2490 2533 
Q 2425 2703 2258 2804 
Q 2091 2906 1866 2906 
Q 1506 2906 1245 2678 
Q 984 2450 984 1813 
L 984 0 
L 422 0 
z
" transform="scale(0.015625)"/>
       <path id="ArialMT-63" d="M 2588 1216 
L 3141 1144 
Q 3050 572 2676 248 
Q 2303 -75 1759 -75 
Q 1078 -75 664 370 
Q 250 816 250 1647 
Q 250 2184 428 2587 
Q 606 2991 970 3192 
Q 1334 3394 1763 3394 
Q 2303 3394 2647 3120 
Q 2991 2847 3088 2344 
L 2541 2259 
Q 2463 2594 2264 2762 
Q 2066 2931 1784 2931 
Q 1359 2931 1093 2626 
Q 828 2322 828 1663 
Q 828 994 1084 691 
Q 1341 388 1753 388 
Q 2084 388 2306 591 
Q 2528 794 2588 1216 
z
" transform="scale(0.015625)"/>
       <path id="ArialMT-79" d="M 397 -1278 
L 334 -750 
Q 519 -800 656 -800 
Q 844 -800 956 -737 
Q 1069 -675 1141 -563 
Q 1194 -478 1313 -144 
Q 1328 -97 1363 -6 
L 103 3319 
L 709 3319 
L 1400 1397 
Q 1534 1031 1641 628 
Q 1738 1016 1872 1384 
L 2581 3319 
L 3144 3319 
L 1881 -56 
Q 1678 -603 1566 -809 
Q 1416 -1088 1222 -1217 
Q 1028 -1347 759 -1347 
Q 597 -1347 397 -1278 
z
" transform="scale(0.015625)"/>
       <path id="ArialMT-20" transform="scale(0.015625)"/>
       <path id="ArialMT-5b" d="M 434 -1272 
L 434 4581 
L 1675 4581 
L 1675 4116 
L 997 4116 
L 997 -806 
L 1675 -806 
L 1675 -1272 
L 434 -1272 
z
" transform="scale(0.015625)"/>
       <path id="ArialMT-48" d="M 513 0 
L 513 4581 
L 1119 4581 
L 1119 2700 
L 3500 2700 
L 3500 4581 
L 4106 4581 
L 4106 0 
L 3500 0 
L 3500 2159 
L 1119 2159 
L 1119 0 
L 513 0 
z
" transform="scale(0.015625)"/>
       <path id="ArialMT-7a" d="M 125 0 
L 125 456 
L 2238 2881 
Q 1878 2863 1603 2863 
L 250 2863 
L 250 3319 
L 2963 3319 
L 2963 2947 
L 1166 841 
L 819 456 
Q 1197 484 1528 484 
L 3063 484 
L 3063 0 
L 125 0 
z
" transform="scale(0.015625)"/>
       <path id="ArialMT-5d" d="M 1363 -1272 
L 122 -1272 
L 122 -806 
L 800 -806 
L 800 4116 
L 122 4116 
L 122 4581 
L 1363 4581 
L 1363 -1272 
z
" transform="scale(0.015625)"/>
      </defs>
      <use xlink:href="#ArialMT-46"/>
      <use xlink:href="#ArialMT-72" x="61.083984"/>
      <use xlink:href="#ArialMT-65" x="94.384766"/>
      <use xlink:href="#ArialMT-71" x="150"/>
      <use xlink:href="#ArialMT-75" x="205.615234"/>
      <use xlink:href="#ArialMT-65" x="261.230469"/>
      <use xlink:href="#ArialMT-6e" x="316.845703"/>
      <use xlink:href="#ArialMT-63" x="372.460938"/>
      <use xlink:href="#ArialMT-79" x="422.460938"/>
      <use xlink:href="#ArialMT-20" x="472.460938"/>
      <use xlink:href="#ArialMT-5b" x="500.244141"/>
      <use xlink:href="#ArialMT-48" x="528.027344"/>
      <use xlink:href="#ArialMT-7a" x="600.244141"/>
      <use xlink:href="#ArialMT-5d" x="650.244141"/>
     </g>
    </g>
   </g>
   <g id="matplotlib.axis_2">
    <g id="ytick_1">
     <g id="line2d_7">
      <path d="M 64.96 166.380909 
L 635.04 166.380909 
" clip-path="url(#p24ad394f4a)" style="fill: none; stroke: #cccccc; stroke-linecap: round"/>
     </g>
     <g id="text_8">
      <!-- 0 -->
      <g style="fill: #262626" transform="translate(49.342969 170.317706)scale(0.11 -0.11)">
       <use xlink:href="#ArialMT-30"/>
      </g>
     </g>
    </g>
    <g id="ytick_2">
     <g id="line2d_8">
      <path d="M 64.96 136.342181 
L 635.04 136.342181 
" clip-path="url(#p24ad394f4a)" style="fill: none; stroke: #cccccc; stroke-linecap: round"/>
     </g>
     <g id="text_9">
      <!-- 1000 -->
      <g style="fill: #262626" transform="translate(30.991875 140.278978)scale(0.11 -0.11)">
       <use xlink:href="#ArialMT-31"/>
       <use xlink:href="#ArialMT-30" x="55.615234"/>
       <use xlink:href="#ArialMT-30" x="111.230469"/>
       <use xlink:href="#ArialMT-30" x="166.845703"/>
      </g>
     </g>
    </g>
    <g id="ytick_3">
     <g id="line2d_9">
      <path d="M 64.96 106.303454 
L 635.04 106.303454 
" clip-path="url(#p24ad394f4a)" style="fill: none; stroke: #cccccc; stroke-linecap: round"/>
     </g>
     <g id="text_10">
      <!-- 2000 -->
      <g style="fill: #262626" transform="translate(30.991875 110.240251)scale(0.11 -0.11)">
       <use xlink:href="#ArialMT-32"/>
       <use xlink:href="#ArialMT-30" x="55.615234"/>
       <use xlink:href="#ArialMT-30" x="111.230469"/>
       <use xlink:href="#ArialMT-30" x="166.845703"/>
      </g>
     </g>
    </g>
    <g id="ytick_4">
     <g id="line2d_10">
      <path d="M 64.96 76.264726 
L 635.04 76.264726 
" clip-path="url(#p24ad394f4a)" style="fill: none; stroke: #cccccc; stroke-linecap: round"/>
     </g>
     <g id="text_11">
      <!-- 3000 -->
      <g style="fill: #262626" transform="translate(30.991875 80.201523)scale(0.11 -0.11)">
       <use xlink:href="#ArialMT-33"/>
       <use xlink:href="#ArialMT-30" x="55.615234"/>
       <use xlink:href="#ArialMT-30" x="111.230469"/>
       <use xlink:href="#ArialMT-30" x="166.845703"/>
      </g>
     </g>
    </g>
    <g id="text_12">
     <!-- Magnitude -->
     <g style="fill: #262626" transform="translate(23.834844 145.011484)rotate(-90)scale(0.15 -0.15)">
      <defs>
       <path id="ArialMT-4d" d="M 475 0 
L 475 4581 
L 1388 4581 
L 2472 1338 
Q 2622 884 2691 659 
Q 2769 909 2934 1394 
L 4031 4581 
L 4847 4581 
L 4847 0 
L 4263 0 
L 4263 3834 
L 2931 0 
L 2384 0 
L 1059 3900 
L 1059 0 
L 475 0 
z
" transform="scale(0.015625)"/>
       <path id="ArialMT-61" d="M 2588 409 
Q 2275 144 1986 34 
Q 1697 -75 1366 -75 
Q 819 -75 525 192 
Q 231 459 231 875 
Q 231 1119 342 1320 
Q 453 1522 633 1644 
Q 813 1766 1038 1828 
Q 1203 1872 1538 1913 
Q 2219 1994 2541 2106 
Q 2544 2222 2544 2253 
Q 2544 2597 2384 2738 
Q 2169 2928 1744 2928 
Q 1347 2928 1158 2789 
Q 969 2650 878 2297 
L 328 2372 
Q 403 2725 575 2942 
Q 747 3159 1072 3276 
Q 1397 3394 1825 3394 
Q 2250 3394 2515 3294 
Q 2781 3194 2906 3042 
Q 3031 2891 3081 2659 
Q 3109 2516 3109 2141 
L 3109 1391 
Q 3109 606 3145 398 
Q 3181 191 3288 0 
L 2700 0 
Q 2613 175 2588 409 
z
M 2541 1666 
Q 2234 1541 1622 1453 
Q 1275 1403 1131 1340 
Q 988 1278 909 1158 
Q 831 1038 831 891 
Q 831 666 1001 516 
Q 1172 366 1500 366 
Q 1825 366 2078 508 
Q 2331 650 2450 897 
Q 2541 1088 2541 1459 
L 2541 1666 
z
" transform="scale(0.015625)"/>
       <path id="ArialMT-67" d="M 319 -275 
L 866 -356 
Q 900 -609 1056 -725 
Q 1266 -881 1628 -881 
Q 2019 -881 2231 -725 
Q 2444 -569 2519 -288 
Q 2563 -116 2559 434 
Q 2191 0 1641 0 
Q 956 0 581 494 
Q 206 988 206 1678 
Q 206 2153 378 2554 
Q 550 2956 876 3175 
Q 1203 3394 1644 3394 
Q 2231 3394 2613 2919 
L 2613 3319 
L 3131 3319 
L 3131 450 
Q 3131 -325 2973 -648 
Q 2816 -972 2473 -1159 
Q 2131 -1347 1631 -1347 
Q 1038 -1347 672 -1080 
Q 306 -813 319 -275 
z
M 784 1719 
Q 784 1066 1043 766 
Q 1303 466 1694 466 
Q 2081 466 2343 764 
Q 2606 1063 2606 1700 
Q 2606 2309 2336 2618 
Q 2066 2928 1684 2928 
Q 1309 2928 1046 2623 
Q 784 2319 784 1719 
z
" transform="scale(0.015625)"/>
       <path id="ArialMT-69" d="M 425 3934 
L 425 4581 
L 988 4581 
L 988 3934 
L 425 3934 
z
M 425 0 
L 425 3319 
L 988 3319 
L 988 0 
L 425 0 
z
" transform="scale(0.015625)"/>
       <path id="ArialMT-74" d="M 1650 503 
L 1731 6 
Q 1494 -44 1306 -44 
Q 1000 -44 831 53 
Q 663 150 594 308 
Q 525 466 525 972 
L 525 2881 
L 113 2881 
L 113 3319 
L 525 3319 
L 525 4141 
L 1084 4478 
L 1084 3319 
L 1650 3319 
L 1650 2881 
L 1084 2881 
L 1084 941 
Q 1084 700 1114 631 
Q 1144 563 1211 522 
Q 1278 481 1403 481 
Q 1497 481 1650 503 
z
" transform="scale(0.015625)"/>
       <path id="ArialMT-64" d="M 2575 0 
L 2575 419 
Q 2259 -75 1647 -75 
Q 1250 -75 917 144 
Q 584 363 401 755 
Q 219 1147 219 1656 
Q 219 2153 384 2558 
Q 550 2963 881 3178 
Q 1213 3394 1622 3394 
Q 1922 3394 2156 3267 
Q 2391 3141 2538 2938 
L 2538 4581 
L 3097 4581 
L 3097 0 
L 2575 0 
z
M 797 1656 
Q 797 1019 1065 703 
Q 1334 388 1700 388 
Q 2069 388 2326 689 
Q 2584 991 2584 1609 
Q 2584 2291 2321 2609 
Q 2059 2928 1675 2928 
Q 1300 2928 1048 2622 
Q 797 2316 797 1656 
z
" transform="scale(0.015625)"/>
      </defs>
      <use xlink:href="#ArialMT-4d"/>
      <use xlink:href="#ArialMT-61" x="83.300781"/>
      <use xlink:href="#ArialMT-67" x="138.916016"/>
      <use xlink:href="#ArialMT-6e" x="194.53125"/>
      <use xlink:href="#ArialMT-69" x="250.146484"/>
      <use xlink:href="#ArialMT-74" x="272.363281"/>
      <use xlink:href="#ArialMT-75" x="300.146484"/>
      <use xlink:href="#ArialMT-64" x="355.761719"/>
      <use xlink:href="#ArialMT-65" x="411.376953"/>
     </g>
    </g>
   </g>
   <g id="line2d_11">
    <path d="M 90.872727 166.380909 
L 91.886924 122.715168 
L 92.901121 122.647471 
L 93.915318 115.817045 
L 94.929514 100.738203 
L 95.943711 160.999358 
L 96.957908 156.367474 
L 97.972105 95.978838 
L 98.986301 112.651584 
L 100.000498 148.216425 
L 101.014695 164.607535 
L 102.028892 141.870678 
L 103.043088 124.710764 
L 104.057285 135.358391 
L 105.071482 154.150729 
L 106.085679 146.470919 
L 107.099875 110.737617 
L 108.114072 99.628137 
L 109.128269 135.483335 
L 110.142466 137.944394 
L 111.156663 125.098342 
L 112.170859 120.247372 
L 113.185056 97.380788 
L 114.199253 131.373897 
L 115.21345 141.055897 
L 116.227646 132.141711 
L 117.241843 144.802347 
L 118.25604 135.281719 
L 119.270237 121.965859 
L 120.284433 155.602576 
L 121.29863 150.646395 
L 122.312827 133.976547 
L 123.327024 138.281829 
L 124.34122 153.172979 
L 127.383811 105.225911 
L 128.398007 124.856656 
L 129.412204 139.513634 
L 130.426401 128.080705 
L 131.440598 96.852441 
L 132.454795 93.949931 
L 133.468991 125.282009 
L 134.483188 119.348722 
L 135.497385 130.907039 
L 136.511582 119.00464 
L 137.525778 117.961201 
L 138.539975 149.95981 
L 139.554172 150.751385 
L 140.568369 129.989509 
L 141.582565 136.800512 
L 142.596762 116.725996 
L 143.610959 150.110113 
L 144.625156 137.110388 
L 145.639352 144.482883 
L 146.653549 110.854471 
L 147.667746 144.22342 
L 148.681943 139.956747 
L 149.696139 116.736634 
L 150.710336 106.026393 
L 151.724533 104.221013 
L 152.73873 142.873311 
L 153.752927 156.246517 
L 154.767123 146.277488 
L 155.78132 120.201214 
L 156.795517 100.624914 
L 157.809714 115.465254 
L 158.82391 118.255786 
L 159.838107 148.223116 
L 160.852304 124.621895 
L 161.866501 124.899129 
L 162.880697 142.62352 
L 163.894894 137.072237 
L 164.909091 103.98386 
L 165.923288 107.109679 
L 166.937484 111.760613 
L 167.951681 134.578263 
L 168.965878 140.248579 
L 169.980075 144.222853 
L 170.994271 120.01864 
L 172.008468 141.17097 
L 173.022665 144.561684 
L 174.036862 144.001012 
L 175.051059 114.934588 
L 176.065255 78.519431 
L 177.079452 100.665282 
L 178.093649 108.424982 
L 179.107846 129.187039 
L 180.122042 138.316054 
L 181.136239 137.860595 
L 182.150436 150.51525 
L 183.164633 131.198404 
L 184.178829 135.290351 
L 185.193026 158.337298 
L 186.207223 127.884163 
L 187.22142 158.558646 
L 188.235616 148.065555 
L 189.249813 143.381047 
L 190.26401 128.081531 
L 191.278207 125.604275 
L 192.292403 119.672789 
L 193.3066 160.494081 
L 194.320797 99.728139 
L 195.334994 122.038997 
L 196.349191 135.530729 
L 197.363387 130.322298 
L 198.377584 133.009106 
L 199.391781 127.283391 
L 200.405978 102.453803 
L 201.420174 136.576007 
L 202.434371 139.347904 
L 203.448568 148.225448 
L 204.462765 149.208454 
L 205.476961 136.818578 
L 206.491158 145.415648 
L 208.519552 94.809585 
L 209.533748 106.24832 
L 210.547945 100.559393 
L 211.562142 143.683873 
L 212.576339 115.877258 
L 213.590535 120.663132 
L 214.604732 105.522036 
L 215.618929 121.990376 
L 216.633126 117.993671 
L 217.647323 135.444417 
L 218.661519 122.518744 
L 219.675716 130.395692 
L 220.689913 99.333645 
L 221.70411 145.405004 
L 222.718306 144.938013 
L 223.732503 137.031909 
L 224.7467 133.402652 
L 225.760897 151.824528 
L 226.775093 137.819704 
L 227.78929 152.427631 
L 228.803487 138.286293 
L 229.817684 105.949675 
L 230.83188 146.884219 
L 231.846077 104.32358 
L 232.860274 79.250308 
L 234.888667 115.632388 
L 235.902864 154.181948 
L 236.917061 134.718989 
L 237.931258 146.856814 
L 238.945455 142.383457 
L 239.959651 128.703441 
L 240.973848 132.636476 
L 241.988045 134.018937 
L 243.002242 102.457518 
L 244.016438 115.193571 
L 245.030635 120.556956 
L 246.044832 135.995796 
L 247.059029 104.077454 
L 248.073225 119.775646 
L 249.087422 118.535812 
L 250.101619 140.258785 
L 251.115816 132.85337 
L 252.130012 132.846335 
L 253.144209 152.669804 
L 254.158406 125.683328 
L 255.172603 148.865319 
L 256.1868 138.012699 
L 257.200996 152.451929 
L 258.215193 88.959123 
L 259.22939 75.861353 
L 260.243587 104.651577 
L 261.257783 125.751974 
L 262.27198 120.899017 
L 263.286177 135.919214 
L 264.300374 129.987048 
L 265.31457 137.720062 
L 266.328767 138.299028 
L 267.342964 130.063423 
L 268.357161 126.942669 
L 269.371357 129.281689 
L 270.385554 151.370105 
L 271.399751 91.497231 
L 272.413948 155.475472 
L 273.428144 96.094299 
L 274.442341 114.646868 
L 275.456538 100.57416 
L 276.470735 128.273263 
L 277.484932 122.106616 
L 278.499128 124.189886 
L 280.527522 150.481794 
L 281.541719 131.405188 
L 282.555915 144.646465 
L 283.570112 141.918671 
L 284.584309 147.664561 
L 285.598506 156.041949 
L 286.612702 163.068809 
L 287.626899 126.126502 
L 288.641096 133.876766 
L 289.655293 117.969127 
L 290.669489 126.527854 
L 291.683686 127.957184 
L 292.697883 133.187532 
L 293.71208 132.011302 
L 294.726276 100.635195 
L 295.740473 82.580171 
L 296.75467 107.409942 
L 297.768867 95.661456 
L 298.783064 125.150945 
L 299.79726 92.350269 
L 300.811457 152.459154 
L 301.825654 122.773267 
L 302.839851 124.27628 
L 304.868244 80.245703 
L 305.882441 148.74198 
L 306.896638 147.589083 
L 307.910834 134.825663 
L 308.925031 138.180951 
L 309.939228 161.844008 
L 311.967621 123.091993 
L 312.981818 134.271467 
L 313.996015 139.772051 
L 315.010212 84.130905 
L 316.024408 98.955247 
L 317.038605 104.359339 
L 318.052802 128.873533 
L 319.066999 141.071751 
L 320.081196 142.378991 
L 321.095392 157.902892 
L 322.109589 145.278341 
L 323.123786 142.285842 
L 324.137983 127.537072 
L 325.152179 151.643951 
L 326.166376 133.867438 
L 327.180573 127.07354 
L 328.19477 155.42102 
L 329.208966 119.37026 
L 330.223163 114.576233 
L 331.23736 68.366329 
L 332.251557 124.754224 
L 333.265753 122.691281 
L 334.27995 155.433824 
L 335.294147 143.39454 
L 336.308344 121.259366 
L 337.32254 156.917939 
L 338.336737 150.648223 
L 339.350934 152.239187 
L 340.365131 131.183804 
L 341.379328 87.120051 
L 342.393524 120.17477 
L 343.407721 145.353389 
L 345.436115 117.436733 
L 346.450311 149.119345 
L 347.464508 116.886982 
L 348.478705 101.667757 
L 349.492902 110.372494 
L 350.507098 135.449722 
L 351.521295 99.633176 
L 352.535492 97.368884 
L 353.549689 153.902915 
L 354.563885 143.323375 
L 355.578082 144.302195 
L 356.592279 153.651546 
L 357.606476 150.108982 
L 358.620672 159.672751 
L 359.634869 129.582511 
L 360.649066 121.22251 
L 361.663263 139.968274 
L 362.67746 140.697733 
L 363.691656 151.282059 
L 364.705853 143.485986 
L 365.72005 105.126958 
L 366.734247 139.782375 
L 367.748443 92.95731 
L 368.76264 93.938019 
L 369.776837 134.433209 
L 370.791034 141.923202 
L 371.80523 115.573599 
L 372.819427 137.393512 
L 374.847821 109.106353 
L 375.862017 125.493998 
L 376.876214 138.835977 
L 377.890411 95.528067 
L 378.904608 125.863319 
L 379.918804 149.523628 
L 380.933001 118.894998 
L 381.947198 149.473488 
L 382.961395 135.269075 
L 383.975592 147.697922 
L 384.989788 121.487987 
L 386.003985 104.292556 
L 387.018182 143.752324 
L 388.032379 141.954057 
L 389.046575 66.569495 
L 390.060772 114.6541 
L 391.074969 156.792548 
L 392.089166 89.720236 
L 393.103362 112.423278 
L 394.117559 152.784938 
L 395.131756 114.541959 
L 396.145953 157.909453 
L 397.160149 140.544343 
L 398.174346 93.965008 
L 399.188543 100.384396 
L 400.20274 99.953393 
L 401.216936 112.657595 
L 402.231133 129.12804 
L 403.24533 155.978273 
L 404.259527 115.992602 
L 405.273724 123.617759 
L 406.28792 153.650346 
L 407.302117 149.038201 
L 408.316314 138.119185 
L 409.330511 137.354809 
L 410.344707 121.109341 
L 411.358904 153.289705 
L 412.373101 138.984175 
L 413.387298 115.463724 
L 414.401494 132.573198 
L 415.415691 98.149858 
L 416.429888 150.900023 
L 417.444085 119.705417 
L 418.458281 111.332678 
L 419.472478 122.208942 
L 420.486675 122.286822 
L 421.500872 57.605836 
L 422.515068 100.045814 
L 423.529265 112.508715 
L 424.543462 101.675949 
L 425.557659 110.195793 
L 427.586052 152.934251 
L 429.614446 114.463092 
L 430.628643 124.339565 
L 431.642839 125.805262 
L 432.657036 133.053568 
L 433.671233 132.588227 
L 434.68543 107.00551 
L 435.699626 140.435448 
L 436.713823 137.205271 
L 437.72802 132.430256 
L 438.742217 124.768918 
L 439.756413 130.158023 
L 440.77061 117.255649 
L 441.784807 62.60073 
L 442.799004 53.599091 
L 443.8132 117.653449 
L 444.827397 157.029535 
L 445.841594 94.288404 
L 446.855791 144.383388 
L 447.869988 144.192668 
L 448.884184 158.886416 
L 449.898381 150.21793 
L 450.912578 147.382847 
L 451.926775 138.298543 
L 453.955168 103.626933 
L 454.969365 108.611657 
L 455.983562 123.899449 
L 456.997758 137.317393 
L 458.011955 112.269632 
L 459.026152 145.425126 
L 460.040349 138.772305 
L 461.054545 93.927754 
L 462.068742 114.674491 
L 463.082939 98.968292 
L 464.097136 150.41553 
L 465.111333 160.971479 
L 466.125529 139.950047 
L 467.139726 107.935013 
L 468.153923 108.329955 
L 469.16812 108.05135 
L 470.182316 125.76488 
L 471.196513 138.63532 
L 472.21071 128.010585 
L 473.224907 127.493024 
L 474.239103 102.999606 
L 475.2533 68.923664 
L 476.267497 101.875184 
L 477.281694 114.881643 
L 478.29589 149.030957 
L 479.310087 115.470085 
L 480.324284 139.311623 
L 481.338481 156.563419 
L 482.352677 121.289644 
L 483.366874 118.949705 
L 484.381071 113.071429 
L 485.395268 112.984915 
L 486.409465 105.309933 
L 487.423661 103.877288 
L 488.437858 123.65684 
L 489.452055 149.837074 
L 490.466252 141.755896 
L 491.480448 141.540408 
L 492.494645 151.270525 
L 493.508842 115.306238 
L 494.523039 123.350539 
L 495.537235 85.601086 
L 496.551432 140.198729 
L 497.565629 152.993758 
L 498.579826 143.181814 
L 499.594022 124.076778 
L 500.608219 134.772397 
L 501.622416 105.002992 
L 502.636613 139.815674 
L 503.650809 143.145554 
L 504.665006 123.892285 
L 507.707597 97.12555 
L 508.721793 79.561528 
L 509.73599 122.589866 
L 510.750187 144.623118 
L 511.764384 126.65647 
L 512.77858 150.245823 
L 513.792777 147.232188 
L 514.806974 83.325386 
L 515.821171 123.003356 
L 516.835367 102.906059 
L 517.849564 138.702995 
L 518.863761 149.43362 
L 519.877958 128.965308 
L 520.892154 140.885864 
L 521.906351 132.951974 
L 522.920548 156.921018 
L 523.934745 132.148016 
L 524.948941 132.629076 
L 525.963138 152.697936 
L 526.977335 136.776328 
L 527.991532 135.259914 
L 529.005729 85.586854 
L 530.019925 111.547891 
L 531.034122 143.396585 
L 532.048319 140.881895 
L 533.062516 120.942602 
L 534.076712 145.756819 
L 535.090909 133.39879 
L 536.105106 139.464537 
L 537.119303 129.991712 
L 538.133499 91.098929 
L 539.147696 96.395222 
L 540.161893 125.236214 
L 541.17609 87.996386 
L 542.190286 125.132262 
L 543.204483 131.977787 
L 544.21868 152.36092 
L 545.232877 160.70061 
L 546.247073 120.394539 
L 547.26127 99.626946 
L 548.275467 125.59855 
L 549.289664 124.258471 
L 550.303861 154.662735 
L 551.318057 122.802462 
L 552.332254 127.214345 
L 553.346451 123.54154 
L 554.360648 137.693497 
L 555.374844 100.515666 
L 556.389041 129.630951 
L 557.403238 134.123144 
L 558.417435 98.77835 
L 559.431631 114.405858 
L 560.445828 122.096644 
L 561.460025 120.723967 
L 562.474222 92.118633 
L 563.488418 130.788962 
L 564.502615 138.420098 
L 565.516812 156.874592 
L 566.531009 151.885444 
L 567.545205 143.534761 
L 568.559402 164.130662 
L 569.573599 156.378636 
L 570.587796 137.477037 
L 571.601993 139.253566 
L 572.616189 131.161902 
L 573.630386 96.797751 
L 574.644583 132.035326 
L 575.65878 156.090361 
L 576.672976 147.482401 
L 577.687173 136.461357 
L 578.70137 127.838732 
L 579.715567 145.504226 
L 580.729763 157.467745 
L 581.74396 164.484964 
L 582.758157 117.282416 
L 583.772354 111.917366 
L 584.78655 108.735465 
L 585.800747 131.778611 
L 586.814944 121.141041 
L 587.829141 118.651874 
L 588.843337 111.467445 
L 589.857534 155.326058 
L 590.871731 115.078217 
L 591.885928 96.589122 
L 592.900125 100.115885 
L 593.914321 122.406373 
L 594.928518 120.890466 
L 595.942715 152.557266 
L 596.956912 155.298399 
L 597.971108 121.164853 
L 598.985305 130.151821 
L 599.999502 150.492662 
L 601.013699 139.722034 
L 602.027895 151.909028 
L 603.042092 152.643177 
L 604.056289 150.734193 
L 605.070486 126.545373 
L 606.084682 128.218438 
L 607.098879 149.074525 
L 609.127273 139.91984 
L 609.127273 139.91984 
" clip-path="url(#p24ad394f4a)" style="fill: none; stroke: #1f77b4; stroke-width: 1.5; stroke-linecap: round"/>
   </g>
   <g id="line2d_12">
    <path d="M 90.872727 132.277603 
L 94.929514 132.569019 
L 98.986301 132.657004 
L 104.057285 132.519637 
L 109.128269 132.153773 
L 115.21345 131.483022 
L 123.327024 130.336342 
L 140.568369 127.814202 
L 141.582565 127.693201 
L 142.596762 127.78725 
L 143.610959 128.157088 
L 144.625156 128.15604 
L 145.639352 127.835953 
L 146.653549 127.341608 
L 148.681943 128.129456 
L 149.696139 127.997169 
L 150.710336 127.553009 
L 151.724533 127.60874 
L 152.73873 127.8356 
L 155.78132 127.600165 
L 156.795517 128.227202 
L 157.809714 129.104641 
L 158.82391 129.237844 
L 159.838107 129.217394 
L 160.852304 129.061518 
L 161.866501 129.36745 
L 162.880697 129.399186 
L 163.894894 129.551312 
L 164.909091 129.067119 
L 166.937484 129.050395 
L 168.965878 129.149994 
L 169.980075 129.557558 
L 170.994271 129.074098 
L 174.036862 129.298086 
L 175.051059 129.119845 
L 176.065255 129.420838 
L 178.093649 129.213167 
L 179.107846 129.319163 
L 180.122042 129.085395 
L 181.136239 129.702546 
L 182.150436 130.476447 
L 183.164633 130.431661 
L 184.178829 129.997162 
L 185.193026 129.437965 
L 189.249813 128.07261 
L 191.278207 128.454747 
L 193.3066 129.080451 
L 194.320797 128.942673 
L 195.334994 129.079091 
L 196.349191 129.507458 
L 197.363387 129.807652 
L 198.377584 129.613995 
L 200.405978 129.658527 
L 201.420174 129.385087 
L 202.434371 128.655762 
L 203.448568 128.282978 
L 204.462765 128.146052 
L 205.476961 128.422302 
L 206.491158 128.394406 
L 207.505355 128.918682 
L 208.519552 129.253583 
L 209.533748 129.29682 
L 210.547945 129.033555 
L 211.562142 129.289449 
L 213.590535 128.777875 
L 215.618929 128.637704 
L 217.647323 127.760133 
L 219.675716 126.978622 
L 220.689913 127.575766 
L 221.70411 127.295385 
L 223.732503 127.795596 
L 224.7467 128.303398 
L 225.760897 128.397688 
L 226.775093 128.152652 
L 229.817684 125.627379 
L 232.860274 124.783884 
L 233.874471 124.686646 
L 235.902864 123.783444 
L 236.917061 124.277544 
L 237.931258 124.227255 
L 238.945455 124.886992 
L 240.973848 125.6304 
L 243.002242 125.714745 
L 244.016438 126.103252 
L 245.030635 127.331934 
L 246.044832 127.245646 
L 247.059029 127.604299 
L 248.073225 127.703893 
L 249.087422 128.196397 
L 250.101619 127.837322 
L 251.115816 127.856075 
L 252.130012 127.46193 
L 253.144209 127.881049 
L 254.158406 128.624113 
L 256.1868 128.45594 
L 257.200996 128.474741 
L 258.215193 128.609929 
L 260.243587 127.433077 
L 261.257783 127.237181 
L 262.27198 126.759104 
L 263.286177 126.847751 
L 264.300374 127.332095 
L 265.31457 127.603084 
L 266.328767 127.512421 
L 267.342964 127.268937 
L 268.357161 126.78746 
L 269.371357 126.567894 
L 270.385554 125.96282 
L 271.399751 125.697336 
L 272.413948 125.02041 
L 273.428144 125.25022 
L 274.442341 125.158239 
L 277.484932 125.467534 
L 278.499128 125.88875 
L 279.513325 126.609096 
L 280.527522 127.780806 
L 281.541719 127.583502 
L 282.555915 128.021103 
L 283.570112 127.357018 
L 284.584309 126.480937 
L 285.598506 126.157329 
L 286.612702 125.5568 
L 287.626899 125.670424 
L 288.641096 125.529627 
L 289.655293 125.920634 
L 290.669489 126.896746 
L 291.683686 127.154808 
L 292.697883 127.109655 
L 293.71208 127.311989 
L 294.726276 127.239888 
L 295.740473 126.866631 
L 296.75467 127.044698 
L 297.768867 127.651459 
L 298.783064 127.611333 
L 299.79726 127.401529 
L 300.811457 127.677774 
L 301.825654 128.270252 
L 302.839851 127.923537 
L 303.854047 127.773061 
L 304.868244 127.949007 
L 305.882441 127.633632 
L 306.896638 127.765052 
L 307.910834 127.655928 
L 308.925031 128.258659 
L 309.939228 128.027966 
L 310.953425 127.260434 
L 311.967621 126.870603 
L 313.996015 126.474159 
L 315.010212 127.090881 
L 316.024408 127.099728 
L 318.052802 128.670043 
L 319.066999 128.695879 
L 320.081196 128.578244 
L 322.109589 129.21313 
L 323.123786 128.8589 
L 324.137983 129.633113 
L 326.166376 128.938314 
L 328.19477 128.978677 
L 329.208966 128.520264 
L 330.223163 128.547367 
L 331.23736 128.322763 
L 332.251557 128.549111 
L 333.265753 128.343433 
L 334.27995 128.745671 
L 335.294147 129.3609 
L 336.308344 129.492544 
L 337.32254 129.831267 
L 338.336737 131.405903 
L 339.350934 131.688033 
L 340.365131 131.475678 
L 341.379328 132.015665 
L 342.393524 132.29989 
L 343.407721 132.013995 
L 344.421918 132.388762 
L 345.436115 132.123017 
L 346.450311 131.66509 
L 347.464508 131.562762 
L 348.478705 131.640791 
L 349.492902 131.471472 
L 350.507098 131.494534 
L 351.521295 130.747364 
L 352.535492 130.507733 
L 354.563885 130.276535 
L 355.578082 129.316416 
L 356.592279 128.085445 
L 358.620672 128.018898 
L 359.634869 128.073293 
L 360.649066 127.722751 
L 362.67746 128.352906 
L 363.691656 128.173704 
L 364.705853 128.653113 
L 365.72005 128.437586 
L 366.734247 127.844766 
L 367.748443 127.522764 
L 368.76264 127.061742 
L 369.776837 126.935862 
L 370.791034 127.904422 
L 374.847821 129.046396 
L 376.876214 128.37089 
L 377.890411 128.141987 
L 378.904608 128.10464 
L 379.918804 128.35339 
L 380.933001 128.059504 
L 381.947198 127.577863 
L 382.961395 126.374384 
L 383.975592 126.334144 
L 384.989788 125.757171 
L 387.018182 125.680146 
L 388.032379 125.40606 
L 389.046575 125.601208 
L 390.060772 125.931073 
L 391.074969 127.081049 
L 392.089166 127.977266 
L 394.117559 126.289101 
L 395.131756 126.710687 
L 396.145953 126.197944 
L 397.160149 125.503738 
L 398.174346 125.113204 
L 399.188543 124.427227 
L 400.20274 123.567671 
L 401.216936 122.968204 
L 402.231133 123.01258 
L 403.24533 122.735049 
L 404.259527 122.27983 
L 405.273724 122.422354 
L 406.28792 122.248493 
L 407.302117 122.486466 
L 409.330511 122.443089 
L 410.344707 123.315366 
L 412.373101 123.63168 
L 414.401494 123.003206 
L 415.415691 123.189995 
L 416.429888 123.769684 
L 417.444085 123.749944 
L 418.458281 124.223494 
L 419.472478 123.716365 
L 420.486675 122.999058 
L 421.500872 123.039134 
L 423.529265 123.372075 
L 424.543462 124.29896 
L 425.557659 124.472462 
L 426.571856 124.21585 
L 427.586052 123.698604 
L 428.600249 123.903643 
L 429.614446 123.106954 
L 430.628643 122.520688 
L 431.642839 122.85203 
L 432.657036 122.772352 
L 433.671233 123.23808 
L 434.68543 123.506087 
L 435.699626 124.078747 
L 436.713823 124.273257 
L 437.72802 123.890366 
L 438.742217 123.726777 
L 439.756413 123.719312 
L 440.77061 122.594237 
L 441.784807 122.023934 
L 442.799004 122.6453 
L 443.8132 122.142902 
L 444.827397 122.476656 
L 445.841594 122.595796 
L 446.855791 122.004716 
L 448.884184 122.58791 
L 449.898381 122.065712 
L 450.912578 122.035646 
L 451.926775 121.443774 
L 452.940971 120.989308 
L 453.955168 121.072819 
L 454.969365 121.705032 
L 455.983562 121.873592 
L 456.997758 122.247994 
L 458.011955 123.298925 
L 459.026152 123.650171 
L 460.040349 123.557287 
L 461.054545 123.760082 
L 462.068742 123.402576 
L 463.082939 123.626157 
L 464.097136 124.609105 
L 465.111333 124.630516 
L 466.125529 125.192484 
L 467.139726 124.69767 
L 468.153923 124.861157 
L 469.16812 124.907558 
L 470.182316 124.658989 
L 471.196513 124.700679 
L 472.21071 124.417364 
L 473.224907 123.521821 
L 475.2533 122.753689 
L 476.267497 122.390612 
L 477.281694 122.163461 
L 479.310087 123.681884 
L 480.324284 123.674764 
L 481.338481 123.439026 
L 482.352677 123.646328 
L 483.366874 123.518355 
L 485.395268 123.829051 
L 486.409465 123.715246 
L 487.423661 124.651424 
L 488.437858 125.434616 
L 489.452055 125.712248 
L 490.466252 126.408657 
L 491.480448 126.611504 
L 492.494645 126.526133 
L 493.508842 125.300506 
L 494.523039 123.764038 
L 495.537235 123.739813 
L 496.551432 124.601577 
L 497.565629 124.124737 
L 498.579826 124.400641 
L 499.594022 124.268495 
L 500.608219 124.88449 
L 502.636613 125.856864 
L 503.650809 126.054653 
L 504.665006 126.530357 
L 506.6934 126.04867 
L 508.721793 126.95429 
L 509.73599 126.883594 
L 510.750187 127.326015 
L 511.764384 128.092765 
L 512.77858 127.586847 
L 513.792777 127.260032 
L 514.806974 126.431708 
L 515.821171 126.483203 
L 516.835367 126.892347 
L 517.849564 126.761203 
L 518.863761 126.317497 
L 520.892154 125.97148 
L 521.906351 126.159838 
L 522.920548 127.03927 
L 523.934745 127.229304 
L 524.948941 127.081734 
L 525.963138 126.717835 
L 526.977335 125.972213 
L 529.005729 125.518807 
L 530.019925 125.618075 
L 531.034122 125.167307 
L 532.048319 125.78775 
L 533.062516 126.751686 
L 534.076712 127.227571 
L 538.133499 127.621904 
L 539.147696 126.990112 
L 540.161893 127.237214 
L 541.17609 128.12575 
L 542.190286 128.822955 
L 543.204483 129.18092 
L 544.21868 129.724239 
L 546.247073 128.948391 
L 547.26127 128.538697 
L 550.303861 129.192949 
L 551.318057 129.001429 
L 552.332254 128.993729 
L 553.346451 128.592174 
L 555.374844 129.590319 
L 557.403238 129.428188 
L 559.431631 128.975501 
L 560.445828 128.120623 
L 561.460025 128.234269 
L 562.474222 128.216692 
L 564.502615 128.879398 
L 565.516812 129.674866 
L 566.531009 129.553717 
L 567.545205 129.688056 
L 568.559402 129.362967 
L 570.587796 130.782293 
L 571.601993 130.692986 
L 572.616189 131.139657 
L 573.630386 131.457316 
L 575.65878 133.034067 
L 576.672976 133.033654 
L 578.70137 133.83641 
L 579.715567 134.109272 
L 580.729763 133.512612 
L 581.74396 133.277062 
L 582.758157 133.416389 
L 583.772354 133.437235 
L 584.78655 133.046317 
L 585.800747 133.636169 
L 586.814944 133.941199 
L 587.829141 134.103976 
L 588.843337 133.979202 
L 590.871731 134.052656 
L 591.885928 133.986192 
L 592.900125 133.051959 
L 593.914321 132.84013 
L 594.928518 132.777787 
L 595.942715 132.906555 
L 596.956912 133.386171 
L 597.971108 133.194668 
L 598.985305 132.877442 
L 602.027895 133.13026 
L 604.056289 132.323529 
L 605.070486 132.559905 
L 606.084682 132.35788 
L 607.098879 131.911503 
L 609.127273 131.590142 
L 609.127273 131.590142 
" clip-path="url(#p24ad394f4a)" style="fill: none; stroke-dasharray: 5.55,2.4; stroke-dashoffset: 0; stroke: #ff7f0e; stroke-width: 1.5"/>
   </g>
   <g id="patch_3">
    <path d="M 64.96 172.02 
L 64.96 47.96 
" style="fill: none; stroke: #cccccc; stroke-width: 1.25; stroke-linejoin: miter; stroke-linecap: square"/>
   </g>
   <g id="patch_4">
    <path d="M 635.04 172.02 
L 635.04 47.96 
" style="fill: none; stroke: #cccccc; stroke-width: 1.25; stroke-linejoin: miter; stroke-linecap: square"/>
   </g>
   <g id="patch_5">
    <path d="M 64.96 172.02 
L 635.04 172.02 
" style="fill: none; stroke: #cccccc; stroke-width: 1.25; stroke-linejoin: miter; stroke-linecap: square"/>
   </g>
   <g id="patch_6">
    <path d="M 64.96 47.96 
L 635.04 47.96 
" style="fill: none; stroke: #cccccc; stroke-width: 1.25; stroke-linejoin: miter; stroke-linecap: square"/>
   </g>
   <g id="text_13">
    <!-- Original Spectrum and Baseline -->
    <g style="fill: #262626" transform="translate(198.85625 27.96)scale(0.2 -0.2)">
     <defs>
      <path id="Arial-BoldMT-4f" d="M 278 2263 
Q 278 2963 488 3438 
Q 644 3788 914 4066 
Q 1184 4344 1506 4478 
Q 1934 4659 2494 4659 
Q 3506 4659 4114 4031 
Q 4722 3403 4722 2284 
Q 4722 1175 4119 548 
Q 3516 -78 2506 -78 
Q 1484 -78 881 545 
Q 278 1169 278 2263 
z
M 1231 2294 
Q 1231 1516 1590 1114 
Q 1950 713 2503 713 
Q 3056 713 3411 1111 
Q 3766 1509 3766 2306 
Q 3766 3094 3420 3481 
Q 3075 3869 2503 3869 
Q 1931 3869 1581 3476 
Q 1231 3084 1231 2294 
z
" transform="scale(0.015625)"/>
      <path id="Arial-BoldMT-72" d="M 1300 0 
L 422 0 
L 422 3319 
L 1238 3319 
L 1238 2847 
Q 1447 3181 1614 3287 
Q 1781 3394 1994 3394 
Q 2294 3394 2572 3228 
L 2300 2463 
Q 2078 2606 1888 2606 
Q 1703 2606 1575 2504 
Q 1447 2403 1373 2137 
Q 1300 1872 1300 1025 
L 1300 0 
z
" transform="scale(0.015625)"/>
      <path id="Arial-BoldMT-69" d="M 459 3769 
L 459 4581 
L 1338 4581 
L 1338 3769 
L 459 3769 
z
M 459 0 
L 459 3319 
L 1338 3319 
L 1338 0 
L 459 0 
z
" transform="scale(0.015625)"/>
      <path id="Arial-BoldMT-67" d="M 378 -219 
L 1381 -341 
Q 1406 -516 1497 -581 
Q 1622 -675 1891 -675 
Q 2234 -675 2406 -572 
Q 2522 -503 2581 -350 
Q 2622 -241 2622 53 
L 2622 538 
Q 2228 0 1628 0 
Q 959 0 569 566 
Q 263 1013 263 1678 
Q 263 2513 664 2953 
Q 1066 3394 1663 3394 
Q 2278 3394 2678 2853 
L 2678 3319 
L 3500 3319 
L 3500 341 
Q 3500 -247 3403 -537 
Q 3306 -828 3131 -993 
Q 2956 -1159 2664 -1253 
Q 2372 -1347 1925 -1347 
Q 1081 -1347 728 -1058 
Q 375 -769 375 -325 
Q 375 -281 378 -219 
z
M 1163 1728 
Q 1163 1200 1367 954 
Q 1572 709 1872 709 
Q 2194 709 2416 961 
Q 2638 1213 2638 1706 
Q 2638 2222 2425 2472 
Q 2213 2722 1888 2722 
Q 1572 2722 1367 2476 
Q 1163 2231 1163 1728 
z
" transform="scale(0.015625)"/>
      <path id="Arial-BoldMT-6e" d="M 3478 0 
L 2600 0 
L 2600 1694 
Q 2600 2231 2544 2389 
Q 2488 2547 2361 2634 
Q 2234 2722 2056 2722 
Q 1828 2722 1647 2597 
Q 1466 2472 1398 2265 
Q 1331 2059 1331 1503 
L 1331 0 
L 453 0 
L 453 3319 
L 1269 3319 
L 1269 2831 
Q 1703 3394 2363 3394 
Q 2653 3394 2893 3289 
Q 3134 3184 3257 3021 
Q 3381 2859 3429 2653 
Q 3478 2447 3478 2063 
L 3478 0 
z
" transform="scale(0.015625)"/>
      <path id="Arial-BoldMT-61" d="M 1116 2306 
L 319 2450 
Q 453 2931 781 3162 
Q 1109 3394 1756 3394 
Q 2344 3394 2631 3255 
Q 2919 3116 3036 2902 
Q 3153 2688 3153 2116 
L 3144 1091 
Q 3144 653 3186 445 
Q 3228 238 3344 0 
L 2475 0 
Q 2441 88 2391 259 
Q 2369 338 2359 363 
Q 2134 144 1878 34 
Q 1622 -75 1331 -75 
Q 819 -75 523 203 
Q 228 481 228 906 
Q 228 1188 362 1408 
Q 497 1628 739 1745 
Q 981 1863 1438 1950 
Q 2053 2066 2291 2166 
L 2291 2253 
Q 2291 2506 2166 2614 
Q 2041 2722 1694 2722 
Q 1459 2722 1328 2630 
Q 1197 2538 1116 2306 
z
M 2291 1594 
Q 2122 1538 1756 1459 
Q 1391 1381 1278 1306 
Q 1106 1184 1106 997 
Q 1106 813 1243 678 
Q 1381 544 1594 544 
Q 1831 544 2047 700 
Q 2206 819 2256 991 
Q 2291 1103 2291 1419 
L 2291 1594 
z
" transform="scale(0.015625)"/>
      <path id="Arial-BoldMT-6c" d="M 459 0 
L 459 4581 
L 1338 4581 
L 1338 0 
L 459 0 
z
" transform="scale(0.015625)"/>
      <path id="Arial-BoldMT-20" transform="scale(0.015625)"/>
      <path id="Arial-BoldMT-53" d="M 231 1491 
L 1131 1578 
Q 1213 1125 1461 912 
Q 1709 700 2131 700 
Q 2578 700 2804 889 
Q 3031 1078 3031 1331 
Q 3031 1494 2936 1608 
Q 2841 1722 2603 1806 
Q 2441 1863 1863 2006 
Q 1119 2191 819 2459 
Q 397 2838 397 3381 
Q 397 3731 595 4036 
Q 794 4341 1167 4500 
Q 1541 4659 2069 4659 
Q 2931 4659 3367 4281 
Q 3803 3903 3825 3272 
L 2900 3231 
Q 2841 3584 2645 3739 
Q 2450 3894 2059 3894 
Q 1656 3894 1428 3728 
Q 1281 3622 1281 3444 
Q 1281 3281 1419 3166 
Q 1594 3019 2269 2859 
Q 2944 2700 3267 2529 
Q 3591 2359 3773 2064 
Q 3956 1769 3956 1334 
Q 3956 941 3737 597 
Q 3519 253 3119 86 
Q 2719 -81 2122 -81 
Q 1253 -81 787 320 
Q 322 722 231 1491 
z
" transform="scale(0.015625)"/>
      <path id="Arial-BoldMT-70" d="M 434 3319 
L 1253 3319 
L 1253 2831 
Q 1413 3081 1684 3237 
Q 1956 3394 2288 3394 
Q 2866 3394 3269 2941 
Q 3672 2488 3672 1678 
Q 3672 847 3265 386 
Q 2859 -75 2281 -75 
Q 2006 -75 1782 34 
Q 1559 144 1313 409 
L 1313 -1263 
L 434 -1263 
L 434 3319 
z
M 1303 1716 
Q 1303 1156 1525 889 
Q 1747 622 2066 622 
Q 2372 622 2575 867 
Q 2778 1113 2778 1672 
Q 2778 2194 2568 2447 
Q 2359 2700 2050 2700 
Q 1728 2700 1515 2451 
Q 1303 2203 1303 1716 
z
" transform="scale(0.015625)"/>
      <path id="Arial-BoldMT-65" d="M 2381 1056 
L 3256 909 
Q 3088 428 2723 176 
Q 2359 -75 1813 -75 
Q 947 -75 531 491 
Q 203 944 203 1634 
Q 203 2459 634 2926 
Q 1066 3394 1725 3394 
Q 2466 3394 2894 2905 
Q 3322 2416 3303 1406 
L 1103 1406 
Q 1113 1016 1316 798 
Q 1519 581 1822 581 
Q 2028 581 2168 693 
Q 2309 806 2381 1056 
z
M 2431 1944 
Q 2422 2325 2234 2523 
Q 2047 2722 1778 2722 
Q 1491 2722 1303 2513 
Q 1116 2303 1119 1944 
L 2431 1944 
z
" transform="scale(0.015625)"/>
      <path id="Arial-BoldMT-63" d="M 3353 2338 
L 2488 2181 
Q 2444 2441 2289 2572 
Q 2134 2703 1888 2703 
Q 1559 2703 1364 2476 
Q 1169 2250 1169 1719 
Q 1169 1128 1367 884 
Q 1566 641 1900 641 
Q 2150 641 2309 783 
Q 2469 925 2534 1272 
L 3397 1125 
Q 3263 531 2881 228 
Q 2500 -75 1859 -75 
Q 1131 -75 698 384 
Q 266 844 266 1656 
Q 266 2478 700 2936 
Q 1134 3394 1875 3394 
Q 2481 3394 2839 3133 
Q 3197 2872 3353 2338 
z
" transform="scale(0.015625)"/>
      <path id="Arial-BoldMT-74" d="M 1981 3319 
L 1981 2619 
L 1381 2619 
L 1381 1281 
Q 1381 875 1398 808 
Q 1416 741 1477 697 
Q 1538 653 1625 653 
Q 1747 653 1978 738 
L 2053 56 
Q 1747 -75 1359 -75 
Q 1122 -75 931 4 
Q 741 84 652 211 
Q 563 338 528 553 
Q 500 706 500 1172 
L 500 2619 
L 97 2619 
L 97 3319 
L 500 3319 
L 500 3978 
L 1381 4491 
L 1381 3319 
L 1981 3319 
z
" transform="scale(0.015625)"/>
      <path id="Arial-BoldMT-75" d="M 2644 0 
L 2644 497 
Q 2463 231 2167 78 
Q 1872 -75 1544 -75 
Q 1209 -75 943 72 
Q 678 219 559 484 
Q 441 750 441 1219 
L 441 3319 
L 1319 3319 
L 1319 1794 
Q 1319 1094 1367 936 
Q 1416 778 1544 686 
Q 1672 594 1869 594 
Q 2094 594 2272 717 
Q 2450 841 2515 1023 
Q 2581 1206 2581 1919 
L 2581 3319 
L 3459 3319 
L 3459 0 
L 2644 0 
z
" transform="scale(0.015625)"/>
      <path id="Arial-BoldMT-6d" d="M 394 3319 
L 1203 3319 
L 1203 2866 
Q 1638 3394 2238 3394 
Q 2556 3394 2790 3262 
Q 3025 3131 3175 2866 
Q 3394 3131 3647 3262 
Q 3900 3394 4188 3394 
Q 4553 3394 4806 3245 
Q 5059 3097 5184 2809 
Q 5275 2597 5275 2122 
L 5275 0 
L 4397 0 
L 4397 1897 
Q 4397 2391 4306 2534 
Q 4184 2722 3931 2722 
Q 3747 2722 3584 2609 
Q 3422 2497 3350 2280 
Q 3278 2063 3278 1594 
L 3278 0 
L 2400 0 
L 2400 1819 
Q 2400 2303 2353 2443 
Q 2306 2584 2207 2653 
Q 2109 2722 1941 2722 
Q 1738 2722 1575 2612 
Q 1413 2503 1342 2297 
Q 1272 2091 1272 1613 
L 1272 0 
L 394 0 
L 394 3319 
z
" transform="scale(0.015625)"/>
      <path id="Arial-BoldMT-64" d="M 3503 0 
L 2688 0 
L 2688 488 
Q 2484 203 2207 64 
Q 1931 -75 1650 -75 
Q 1078 -75 670 386 
Q 263 847 263 1672 
Q 263 2516 659 2955 
Q 1056 3394 1663 3394 
Q 2219 3394 2625 2931 
L 2625 4581 
L 3503 4581 
L 3503 0 
z
M 1159 1731 
Q 1159 1200 1306 963 
Q 1519 619 1900 619 
Q 2203 619 2415 876 
Q 2628 1134 2628 1647 
Q 2628 2219 2422 2470 
Q 2216 2722 1894 2722 
Q 1581 2722 1370 2473 
Q 1159 2225 1159 1731 
z
" transform="scale(0.015625)"/>
      <path id="Arial-BoldMT-42" d="M 469 4581 
L 2300 4581 
Q 2844 4581 3111 4536 
Q 3378 4491 3589 4347 
Q 3800 4203 3940 3964 
Q 4081 3725 4081 3428 
Q 4081 3106 3907 2837 
Q 3734 2569 3438 2434 
Q 3856 2313 4081 2019 
Q 4306 1725 4306 1328 
Q 4306 1016 4161 720 
Q 4016 425 3764 248 
Q 3513 72 3144 31 
Q 2913 6 2028 0 
L 469 0 
L 469 4581 
z
M 1394 3819 
L 1394 2759 
L 2000 2759 
Q 2541 2759 2672 2775 
Q 2909 2803 3045 2939 
Q 3181 3075 3181 3297 
Q 3181 3509 3064 3642 
Q 2947 3775 2716 3803 
Q 2578 3819 1925 3819 
L 1394 3819 
z
M 1394 1997 
L 1394 772 
L 2250 772 
Q 2750 772 2884 800 
Q 3091 838 3220 983 
Q 3350 1128 3350 1372 
Q 3350 1578 3250 1722 
Q 3150 1866 2961 1931 
Q 2772 1997 2141 1997 
L 1394 1997 
z
" transform="scale(0.015625)"/>
      <path id="Arial-BoldMT-73" d="M 150 947 
L 1031 1081 
Q 1088 825 1259 692 
Q 1431 559 1741 559 
Q 2081 559 2253 684 
Q 2369 772 2369 919 
Q 2369 1019 2306 1084 
Q 2241 1147 2013 1200 
Q 950 1434 666 1628 
Q 272 1897 272 2375 
Q 272 2806 612 3100 
Q 953 3394 1669 3394 
Q 2350 3394 2681 3172 
Q 3013 2950 3138 2516 
L 2309 2363 
Q 2256 2556 2107 2659 
Q 1959 2763 1684 2763 
Q 1338 2763 1188 2666 
Q 1088 2597 1088 2488 
Q 1088 2394 1175 2328 
Q 1294 2241 1995 2081 
Q 2697 1922 2975 1691 
Q 3250 1456 3250 1038 
Q 3250 581 2869 253 
Q 2488 -75 1741 -75 
Q 1063 -75 667 200 
Q 272 475 150 947 
z
" transform="scale(0.015625)"/>
     </defs>
     <use xlink:href="#Arial-BoldMT-4f"/>
     <use xlink:href="#Arial-BoldMT-72" x="77.783203"/>
     <use xlink:href="#Arial-BoldMT-69" x="116.699219"/>
     <use xlink:href="#Arial-BoldMT-67" x="144.482422"/>
     <use xlink:href="#Arial-BoldMT-69" x="205.566406"/>
     <use xlink:href="#Arial-BoldMT-6e" x="233.349609"/>
     <use xlink:href="#Arial-BoldMT-61" x="294.433594"/>
     <use xlink:href="#Arial-BoldMT-6c" x="350.048828"/>
     <use xlink:href="#Arial-BoldMT-20" x="377.832031"/>
     <use xlink:href="#Arial-BoldMT-53" x="405.615234"/>
     <use xlink:href="#Arial-BoldMT-70" x="472.314453"/>
     <use xlink:href="#Arial-BoldMT-65" x="533.398438"/>
     <use xlink:href="#Arial-BoldMT-63" x="589.013672"/>
     <use xlink:href="#Arial-BoldMT-74" x="644.628906"/>
     <use xlink:href="#Arial-BoldMT-72" x="677.929688"/>
     <use xlink:href="#Arial-BoldMT-75" x="716.845703"/>
     <use xlink:href="#Arial-BoldMT-6d" x="777.929688"/>
     <use xlink:href="#Arial-BoldMT-20" x="866.845703"/>
     <use xlink:href="#Arial-BoldMT-61" x="894.628906"/>
     <use xlink:href="#Arial-BoldMT-6e" x="950.244141"/>
     <use xlink:href="#Arial-BoldMT-64" x="1011.328125"/>
     <use xlink:href="#Arial-BoldMT-20" x="1072.412109"/>
     <use xlink:href="#Arial-BoldMT-42" x="1100.195312"/>
     <use xlink:href="#Arial-BoldMT-61" x="1172.412109"/>
     <use xlink:href="#Arial-BoldMT-73" x="1228.027344"/>
     <use xlink:href="#Arial-BoldMT-65" x="1283.642578"/>
     <use xlink:href="#Arial-BoldMT-6c" x="1339.257812"/>
     <use xlink:href="#Arial-BoldMT-69" x="1367.041016"/>
     <use xlink:href="#Arial-BoldMT-6e" x="1394.824219"/>
     <use xlink:href="#Arial-BoldMT-65" x="1455.908203"/>
    </g>
   </g>
   <g id="legend_1">
    <g id="patch_7">
     <path d="M 72.66 88.149531 
L 202.016563 88.149531 
Q 204.216563 88.149531 204.216563 85.949531 
L 204.216563 55.66 
Q 204.216563 53.46 202.016563 53.46 
L 72.66 53.46 
Q 70.46 53.46 70.46 55.66 
L 70.46 85.949531 
Q 70.46 88.149531 72.66 88.149531 
z
" style="fill: #ffffff; opacity: 0.8; stroke: #cccccc; stroke-linejoin: miter"/>
    </g>
    <g id="line2d_13">
     <path d="M 74.86 62.024531 
L 85.86 62.024531 
L 96.86 62.024531 
" style="fill: none; stroke: #1f77b4; stroke-width: 1.5; stroke-linecap: round"/>
    </g>
    <g id="text_14">
     <!-- Original Spectrum -->
     <g style="fill: #262626" transform="translate(105.66 65.874531)scale(0.11 -0.11)">
      <defs>
       <path id="ArialMT-4f" d="M 309 2231 
Q 309 3372 921 4017 
Q 1534 4663 2503 4663 
Q 3138 4663 3647 4359 
Q 4156 4056 4423 3514 
Q 4691 2972 4691 2284 
Q 4691 1588 4409 1038 
Q 4128 488 3612 205 
Q 3097 -78 2500 -78 
Q 1853 -78 1343 234 
Q 834 547 571 1087 
Q 309 1628 309 2231 
z
M 934 2222 
Q 934 1394 1379 917 
Q 1825 441 2497 441 
Q 3181 441 3623 922 
Q 4066 1403 4066 2288 
Q 4066 2847 3877 3264 
Q 3688 3681 3323 3911 
Q 2959 4141 2506 4141 
Q 1863 4141 1398 3698 
Q 934 3256 934 2222 
z
" transform="scale(0.015625)"/>
       <path id="ArialMT-6c" d="M 409 0 
L 409 4581 
L 972 4581 
L 972 0 
L 409 0 
z
" transform="scale(0.015625)"/>
       <path id="ArialMT-53" d="M 288 1472 
L 859 1522 
Q 900 1178 1048 958 
Q 1197 738 1509 602 
Q 1822 466 2213 466 
Q 2559 466 2825 569 
Q 3091 672 3220 851 
Q 3350 1031 3350 1244 
Q 3350 1459 3225 1620 
Q 3100 1781 2813 1891 
Q 2628 1963 1997 2114 
Q 1366 2266 1113 2400 
Q 784 2572 623 2826 
Q 463 3081 463 3397 
Q 463 3744 659 4045 
Q 856 4347 1234 4503 
Q 1613 4659 2075 4659 
Q 2584 4659 2973 4495 
Q 3363 4331 3572 4012 
Q 3781 3694 3797 3291 
L 3216 3247 
Q 3169 3681 2898 3903 
Q 2628 4125 2100 4125 
Q 1550 4125 1298 3923 
Q 1047 3722 1047 3438 
Q 1047 3191 1225 3031 
Q 1400 2872 2139 2705 
Q 2878 2538 3153 2413 
Q 3553 2228 3743 1945 
Q 3934 1663 3934 1294 
Q 3934 928 3725 604 
Q 3516 281 3123 101 
Q 2731 -78 2241 -78 
Q 1619 -78 1198 103 
Q 778 284 539 648 
Q 300 1013 288 1472 
z
" transform="scale(0.015625)"/>
       <path id="ArialMT-70" d="M 422 -1272 
L 422 3319 
L 934 3319 
L 934 2888 
Q 1116 3141 1344 3267 
Q 1572 3394 1897 3394 
Q 2322 3394 2647 3175 
Q 2972 2956 3137 2557 
Q 3303 2159 3303 1684 
Q 3303 1175 3120 767 
Q 2938 359 2589 142 
Q 2241 -75 1856 -75 
Q 1575 -75 1351 44 
Q 1128 163 984 344 
L 984 -1272 
L 422 -1272 
z
M 931 1641 
Q 931 1000 1190 694 
Q 1450 388 1819 388 
Q 2194 388 2461 705 
Q 2728 1022 2728 1688 
Q 2728 2322 2467 2637 
Q 2206 2953 1844 2953 
Q 1484 2953 1207 2617 
Q 931 2281 931 1641 
z
" transform="scale(0.015625)"/>
       <path id="ArialMT-6d" d="M 422 0 
L 422 3319 
L 925 3319 
L 925 2853 
Q 1081 3097 1340 3245 
Q 1600 3394 1931 3394 
Q 2300 3394 2536 3241 
Q 2772 3088 2869 2813 
Q 3263 3394 3894 3394 
Q 4388 3394 4653 3120 
Q 4919 2847 4919 2278 
L 4919 0 
L 4359 0 
L 4359 2091 
Q 4359 2428 4304 2576 
Q 4250 2725 4106 2815 
Q 3963 2906 3769 2906 
Q 3419 2906 3187 2673 
Q 2956 2441 2956 1928 
L 2956 0 
L 2394 0 
L 2394 2156 
Q 2394 2531 2256 2718 
Q 2119 2906 1806 2906 
Q 1569 2906 1367 2781 
Q 1166 2656 1075 2415 
Q 984 2175 984 1722 
L 984 0 
L 422 0 
z
" transform="scale(0.015625)"/>
      </defs>
      <use xlink:href="#ArialMT-4f"/>
      <use xlink:href="#ArialMT-72" x="77.783203"/>
      <use xlink:href="#ArialMT-69" x="111.083984"/>
      <use xlink:href="#ArialMT-67" x="133.300781"/>
      <use xlink:href="#ArialMT-69" x="188.916016"/>
      <use xlink:href="#ArialMT-6e" x="211.132812"/>
      <use xlink:href="#ArialMT-61" x="266.748047"/>
      <use xlink:href="#ArialMT-6c" x="322.363281"/>
      <use xlink:href="#ArialMT-20" x="344.580078"/>
      <use xlink:href="#ArialMT-53" x="372.363281"/>
      <use xlink:href="#ArialMT-70" x="439.0625"/>
      <use xlink:href="#ArialMT-65" x="494.677734"/>
      <use xlink:href="#ArialMT-63" x="550.292969"/>
      <use xlink:href="#ArialMT-74" x="600.292969"/>
      <use xlink:href="#ArialMT-72" x="628.076172"/>
      <use xlink:href="#ArialMT-75" x="661.376953"/>
      <use xlink:href="#ArialMT-6d" x="716.992188"/>
     </g>
    </g>
    <g id="line2d_14">
     <path d="M 74.86 77.713281 
L 85.86 77.713281 
L 96.86 77.713281 
" style="fill: none; stroke-dasharray: 5.55,2.4; stroke-dashoffset: 0; stroke: #ff7f0e; stroke-width: 1.5"/>
    </g>
    <g id="text_15">
     <!-- Estimated Baseline -->
     <g style="fill: #262626" transform="translate(105.66 81.563281)scale(0.11 -0.11)">
      <defs>
       <path id="ArialMT-45" d="M 506 0 
L 506 4581 
L 3819 4581 
L 3819 4041 
L 1113 4041 
L 1113 2638 
L 3647 2638 
L 3647 2100 
L 1113 2100 
L 1113 541 
L 3925 541 
L 3925 0 
L 506 0 
z
" transform="scale(0.015625)"/>
       <path id="ArialMT-73" d="M 197 991 
L 753 1078 
Q 800 744 1014 566 
Q 1228 388 1613 388 
Q 2000 388 2187 545 
Q 2375 703 2375 916 
Q 2375 1106 2209 1216 
Q 2094 1291 1634 1406 
Q 1016 1563 777 1677 
Q 538 1791 414 1992 
Q 291 2194 291 2438 
Q 291 2659 392 2848 
Q 494 3038 669 3163 
Q 800 3259 1026 3326 
Q 1253 3394 1513 3394 
Q 1903 3394 2198 3281 
Q 2494 3169 2634 2976 
Q 2775 2784 2828 2463 
L 2278 2388 
Q 2241 2644 2061 2787 
Q 1881 2931 1553 2931 
Q 1166 2931 1000 2803 
Q 834 2675 834 2503 
Q 834 2394 903 2306 
Q 972 2216 1119 2156 
Q 1203 2125 1616 2013 
Q 2213 1853 2448 1751 
Q 2684 1650 2818 1456 
Q 2953 1263 2953 975 
Q 2953 694 2789 445 
Q 2625 197 2315 61 
Q 2006 -75 1616 -75 
Q 969 -75 630 194 
Q 291 463 197 991 
z
" transform="scale(0.015625)"/>
       <path id="ArialMT-42" d="M 469 0 
L 469 4581 
L 2188 4581 
Q 2713 4581 3030 4442 
Q 3347 4303 3526 4014 
Q 3706 3725 3706 3409 
Q 3706 3116 3547 2856 
Q 3388 2597 3066 2438 
Q 3481 2316 3704 2022 
Q 3928 1728 3928 1328 
Q 3928 1006 3792 729 
Q 3656 453 3456 303 
Q 3256 153 2954 76 
Q 2653 0 2216 0 
L 469 0 
z
M 1075 2656 
L 2066 2656 
Q 2469 2656 2644 2709 
Q 2875 2778 2992 2937 
Q 3109 3097 3109 3338 
Q 3109 3566 3000 3739 
Q 2891 3913 2687 3977 
Q 2484 4041 1991 4041 
L 1075 4041 
L 1075 2656 
z
M 1075 541 
L 2216 541 
Q 2509 541 2628 563 
Q 2838 600 2978 687 
Q 3119 775 3209 942 
Q 3300 1109 3300 1328 
Q 3300 1584 3169 1773 
Q 3038 1963 2805 2039 
Q 2572 2116 2134 2116 
L 1075 2116 
L 1075 541 
z
" transform="scale(0.015625)"/>
      </defs>
      <use xlink:href="#ArialMT-45"/>
      <use xlink:href="#ArialMT-73" x="66.699219"/>
      <use xlink:href="#ArialMT-74" x="116.699219"/>
      <use xlink:href="#ArialMT-69" x="144.482422"/>
      <use xlink:href="#ArialMT-6d" x="166.699219"/>
      <use xlink:href="#ArialMT-61" x="250"/>
      <use xlink:href="#ArialMT-74" x="305.615234"/>
      <use xlink:href="#ArialMT-65" x="333.398438"/>
      <use xlink:href="#ArialMT-64" x="389.013672"/>
      <use xlink:href="#ArialMT-20" x="444.628906"/>
      <use xlink:href="#ArialMT-42" x="472.412109"/>
      <use xlink:href="#ArialMT-61" x="539.111328"/>
      <use xlink:href="#ArialMT-73" x="594.726562"/>
      <use xlink:href="#ArialMT-65" x="644.726562"/>
      <use xlink:href="#ArialMT-6c" x="700.341797"/>
      <use xlink:href="#ArialMT-69" x="722.558594"/>
      <use xlink:href="#ArialMT-6e" x="744.775391"/>
      <use xlink:href="#ArialMT-65" x="800.390625"/>
     </g>
    </g>
   </g>
  </g>
  <g id="axes_2">
   <g id="patch_8">
    <path d="M 64.96 381.54 
L 635.04 381.54 
L 635.04 257.48 
L 64.96 257.48 
z
" style="fill: #ffffff"/>
   </g>
   <g id="matplotlib.axis_3">
    <g id="xtick_29">
     <g id="line2d_15">
      <path d="M 90.872727 381.54 
L 90.872727 257.48 
" clip-path="url(#p022594a5e4)" style="fill: none; stroke: #cccccc; stroke-linecap: round"/>
     </g>
     <g id="text_16">
      <!-- 0 -->
      <g style="fill: #262626" transform="translate(87.814212 398.913594)scale(0.11 -0.11)">
       <use xlink:href="#ArialMT-30"/>
      </g>
     </g>
    </g>
    <g id="xtick_30">
     <g id="line2d_16">
      <path d="M 194.726476 381.54 
L 194.726476 257.48 
" clip-path="url(#p022594a5e4)" style="fill: none; stroke: #cccccc; stroke-linecap: round"/>
     </g>
     <g id="text_17">
      <!-- 100 -->
      <g style="fill: #262626" transform="translate(185.550929 398.913594)scale(0.11 -0.11)">
       <use xlink:href="#ArialMT-31"/>
       <use xlink:href="#ArialMT-30" x="55.615234"/>
       <use xlink:href="#ArialMT-30" x="111.230469"/>
      </g>
     </g>
    </g>
    <g id="xtick_31">
     <g id="line2d_17">
      <path d="M 298.580224 381.54 
L 298.580224 257.48 
" clip-path="url(#p022594a5e4)" style="fill: none; stroke: #cccccc; stroke-linecap: round"/>
     </g>
     <g id="text_18">
      <!-- 200 -->
      <g style="fill: #262626" transform="translate(289.404677 398.913594)scale(0.11 -0.11)">
       <use xlink:href="#ArialMT-32"/>
       <use xlink:href="#ArialMT-30" x="55.615234"/>
       <use xlink:href="#ArialMT-30" x="111.230469"/>
      </g>
     </g>
    </g>
    <g id="xtick_32">
     <g id="line2d_18">
      <path d="M 402.433973 381.54 
L 402.433973 257.48 
" clip-path="url(#p022594a5e4)" style="fill: none; stroke: #cccccc; stroke-linecap: round"/>
     </g>
     <g id="text_19">
      <!-- 300 -->
      <g style="fill: #262626" transform="translate(393.258426 398.913594)scale(0.11 -0.11)">
       <use xlink:href="#ArialMT-33"/>
       <use xlink:href="#ArialMT-30" x="55.615234"/>
       <use xlink:href="#ArialMT-30" x="111.230469"/>
      </g>
     </g>
    </g>
    <g id="xtick_33">
     <g id="line2d_19">
      <path d="M 506.287721 381.54 
L 506.287721 257.48 
" clip-path="url(#p022594a5e4)" style="fill: none; stroke: #cccccc; stroke-linecap: round"/>
     </g>
     <g id="text_20">
      <!-- 400 -->
      <g style="fill: #262626" transform="translate(497.112174 398.913594)scale(0.11 -0.11)">
       <use xlink:href="#ArialMT-34"/>
       <use xlink:href="#ArialMT-30" x="55.615234"/>
       <use xlink:href="#ArialMT-30" x="111.230469"/>
      </g>
     </g>
    </g>
    <g id="xtick_34">
     <g id="line2d_20">
      <path d="M 610.141469 381.54 
L 610.141469 257.48 
" clip-path="url(#p022594a5e4)" style="fill: none; stroke: #cccccc; stroke-linecap: round"/>
     </g>
     <g id="text_21">
      <!-- 500 -->
      <g style="fill: #262626" transform="translate(600.965923 398.913594)scale(0.11 -0.11)">
       <use xlink:href="#ArialMT-35"/>
       <use xlink:href="#ArialMT-30" x="55.615234"/>
       <use xlink:href="#ArialMT-30" x="111.230469"/>
      </g>
     </g>
    </g>
    <g id="xtick_35"/>
    <g id="xtick_36"/>
    <g id="xtick_37"/>
    <g id="xtick_38"/>
    <g id="xtick_39"/>
    <g id="xtick_40"/>
    <g id="xtick_41"/>
    <g id="xtick_42"/>
    <g id="xtick_43"/>
    <g id="xtick_44"/>
    <g id="xtick_45"/>
    <g id="xtick_46"/>
    <g id="xtick_47"/>
    <g id="xtick_48"/>
    <g id="xtick_49"/>
    <g id="xtick_50"/>
    <g id="xtick_51"/>
    <g id="xtick_52"/>
    <g id="xtick_53"/>
    <g id="xtick_54"/>
    <g id="xtick_55"/>
    <g id="xtick_56"/>
    <g id="text_22">
     <!-- Frequency [Hz] -->
     <g style="fill: #262626" transform="translate(299.151172 415.836563)scale(0.15 -0.15)">
      <use xlink:href="#ArialMT-46"/>
      <use xlink:href="#ArialMT-72" x="61.083984"/>
      <use xlink:href="#ArialMT-65" x="94.384766"/>
      <use xlink:href="#ArialMT-71" x="150"/>
      <use xlink:href="#ArialMT-75" x="205.615234"/>
      <use xlink:href="#ArialMT-65" x="261.230469"/>
      <use xlink:href="#ArialMT-6e" x="316.845703"/>
      <use xlink:href="#ArialMT-63" x="372.460938"/>
      <use xlink:href="#ArialMT-79" x="422.460938"/>
      <use xlink:href="#ArialMT-20" x="472.460938"/>
      <use xlink:href="#ArialMT-5b" x="500.244141"/>
      <use xlink:href="#ArialMT-48" x="528.027344"/>
      <use xlink:href="#ArialMT-7a" x="600.244141"/>
      <use xlink:href="#ArialMT-5d" x="650.244141"/>
     </g>
    </g>
   </g>
   <g id="matplotlib.axis_4">
    <g id="ytick_5">
     <g id="line2d_21">
      <path d="M 64.96 375.900909 
L 635.04 375.900909 
" clip-path="url(#p022594a5e4)" style="fill: none; stroke: #cccccc; stroke-linecap: round"/>
     </g>
     <g id="text_23">
      <!-- 0 -->
      <g style="fill: #262626" transform="translate(49.342969 379.837706)scale(0.11 -0.11)">
       <use xlink:href="#ArialMT-30"/>
      </g>
     </g>
    </g>
    <g id="ytick_6">
     <g id="line2d_22">
      <path d="M 64.96 326.834894 
L 635.04 326.834894 
" clip-path="url(#p022594a5e4)" style="fill: none; stroke: #cccccc; stroke-linecap: round"/>
     </g>
     <g id="text_24">
      <!-- 1000 -->
      <g style="fill: #262626" transform="translate(30.991875 330.771691)scale(0.11 -0.11)">
       <use xlink:href="#ArialMT-31"/>
       <use xlink:href="#ArialMT-30" x="55.615234"/>
       <use xlink:href="#ArialMT-30" x="111.230469"/>
       <use xlink:href="#ArialMT-30" x="166.845703"/>
      </g>
     </g>
    </g>
    <g id="ytick_7">
     <g id="line2d_23">
      <path d="M 64.96 277.768879 
L 635.04 277.768879 
" clip-path="url(#p022594a5e4)" style="fill: none; stroke: #cccccc; stroke-linecap: round"/>
     </g>
     <g id="text_25">
      <!-- 2000 -->
      <g style="fill: #262626" transform="translate(30.991875 281.705676)scale(0.11 -0.11)">
       <use xlink:href="#ArialMT-32"/>
       <use xlink:href="#ArialMT-30" x="55.615234"/>
       <use xlink:href="#ArialMT-30" x="111.230469"/>
       <use xlink:href="#ArialMT-30" x="166.845703"/>
      </g>
     </g>
    </g>
    <g id="text_26">
     <!-- Magnitude -->
     <g style="fill: #262626" transform="translate(23.834844 354.531484)rotate(-90)scale(0.15 -0.15)">
      <use xlink:href="#ArialMT-4d"/>
      <use xlink:href="#ArialMT-61" x="83.300781"/>
      <use xlink:href="#ArialMT-67" x="138.916016"/>
      <use xlink:href="#ArialMT-6e" x="194.53125"/>
      <use xlink:href="#ArialMT-69" x="250.146484"/>
      <use xlink:href="#ArialMT-74" x="272.363281"/>
      <use xlink:href="#ArialMT-75" x="300.146484"/>
      <use xlink:href="#ArialMT-64" x="355.761719"/>
      <use xlink:href="#ArialMT-65" x="411.376953"/>
     </g>
    </g>
   </g>
   <g id="line2d_24">
    <path d="M 90.872727 375.900909 
L 91.886924 360.128962 
L 92.901121 359.888674 
L 93.915318 348.62404 
L 94.929514 323.907652 
L 95.943711 375.900909 
L 96.957908 375.900909 
L 97.972105 315.996915 
L 98.986301 343.223552 
L 100.000498 375.900909 
L 102.028892 375.900909 
L 103.043088 363.06837 
L 104.057285 375.900909 
L 106.085679 375.900909 
L 107.099875 340.640578 
L 108.114072 322.627228 
L 109.128269 375.900909 
L 110.142466 375.900909 
L 111.156663 364.701776 
L 112.170859 356.956678 
L 113.185056 319.794161 
L 114.199253 375.516791 
L 115.21345 375.900909 
L 118.25604 375.900909 
L 119.270237 361.250259 
L 120.284433 375.900909 
L 125.355417 375.900909 
L 126.369614 362.084019 
L 127.383811 335.904639 
L 128.398007 368.226569 
L 129.412204 375.900909 
L 130.426401 374.003397 
L 131.440598 323.247072 
L 132.454795 318.756161 
L 133.468991 370.181653 
L 134.483188 360.733075 
L 135.497385 375.900909 
L 136.511582 360.642796 
L 137.525778 359.165873 
L 138.539975 375.900909 
L 141.582565 375.900909 
L 142.596762 357.833178 
L 143.610959 375.900909 
L 145.639352 375.900909 
L 146.653549 348.970404 
L 147.667746 375.900909 
L 148.681943 375.900909 
L 150.710336 340.738792 
L 151.724533 337.698806 
L 152.73873 375.900909 
L 154.767123 375.900909 
L 155.78132 363.815275 
L 156.795517 330.814636 
L 157.809714 353.621989 
L 158.82391 357.962539 
L 159.838107 375.900909 
L 160.852304 368.649118 
L 161.866501 368.602242 
L 162.880697 375.900909 
L 163.894894 375.900909 
L 164.909091 334.929281 
L 165.923288 339.960521 
L 166.937484 347.659343 
L 167.951681 375.900909 
L 169.980075 375.900909 
L 170.994271 361.109495 
L 172.008468 375.900909 
L 174.036862 375.900909 
L 175.051059 352.730353 
L 176.065255 292.757267 
L 177.079452 329.103099 
L 178.093649 341.944964 
L 179.107846 375.685094 
L 180.122042 375.900909 
L 185.193026 375.900909 
L 186.207223 373.924116 
L 187.22142 375.900909 
L 189.249813 375.900909 
L 190.26401 375.627213 
L 191.278207 371.244876 
L 192.292403 360.955521 
L 193.3066 375.900909 
L 194.320797 328.181153 
L 195.334994 364.401443 
L 196.349191 375.900909 
L 198.377584 375.900909 
L 199.391781 372.123828 
L 200.405978 331.464028 
L 201.420174 375.900909 
L 206.491158 375.900909 
L 207.505355 360.550286 
L 208.519552 319.639215 
L 209.533748 338.252907 
L 210.547945 329.390495 
L 211.562142 375.900909 
L 212.576339 354.489298 
L 213.590535 362.646083 
L 214.604732 337.981484 
L 215.618929 365.042995 
L 216.633126 359.281159 
L 217.647323 375.900909 
L 218.661519 367.99502 
L 219.675716 375.900909 
L 220.689913 329.769516 
L 221.70411 375.900909 
L 228.803487 375.900909 
L 229.817684 343.758852 
L 230.83188 375.900909 
L 231.846077 342.076518 
L 232.860274 301.525218 
L 234.888667 361.856256 
L 235.902864 375.900909 
L 241.988045 375.900909 
L 243.002242 337.911969 
L 244.016438 358.080761 
L 245.030635 364.834489 
L 246.044832 375.900909 
L 247.059029 337.471568 
L 248.073225 362.950711 
L 249.087422 360.121066 
L 250.101619 375.900909 
L 253.144209 375.900909 
L 254.158406 371.097355 
L 255.172603 375.900909 
L 257.200996 375.900909 
L 258.215193 311.134283 
L 259.22939 290.647782 
L 260.243587 338.689033 
L 261.257783 373.474934 
L 262.27198 366.328895 
L 263.286177 375.900909 
L 270.385554 375.900909 
L 271.399751 320.037596 
L 272.413948 375.900909 
L 273.428144 328.276893 
L 274.442341 358.731369 
L 275.456538 335.586895 
L 276.470735 375.900909 
L 277.484932 370.411102 
L 279.513325 375.900909 
L 288.641096 375.900909 
L 289.655293 362.912716 
L 290.669489 375.298352 
L 291.683686 375.900909 
L 293.71208 375.900909 
L 294.726276 332.444132 
L 295.740473 303.562288 
L 296.75467 343.829003 
L 297.768867 323.647632 
L 298.783064 371.88205 
L 299.79726 318.647297 
L 300.811457 375.900909 
L 301.825654 366.921995 
L 302.839851 369.943388 
L 304.868244 297.981129 
L 305.882441 375.900909 
L 310.953425 375.900909 
L 311.967621 369.728833 
L 312.981818 375.900909 
L 313.996015 375.900909 
L 315.010212 305.729001 
L 316.024408 329.929004 
L 317.038605 337.437194 
L 318.052802 375.900909 
L 323.123786 375.900909 
L 324.137983 372.477182 
L 325.152179 375.900909 
L 326.166376 375.900909 
L 327.180573 372.751195 
L 328.19477 375.900909 
L 329.208966 360.955063 
L 330.223163 353.080107 
L 331.23736 277.966558 
L 332.251557 369.702245 
L 333.265753 366.668542 
L 334.27995 375.900909 
L 335.294147 375.900909 
L 336.308344 362.452629 
L 337.32254 375.900909 
L 339.350934 375.900909 
L 340.365131 375.424155 
L 341.379328 302.567282 
L 342.393524 356.095432 
L 343.407721 375.900909 
L 344.421918 374.853898 
L 345.436115 351.911963 
L 346.450311 375.900909 
L 348.478705 326.9422 
L 349.492902 341.437305 
L 350.507098 375.900909 
L 351.521295 325.07821 
L 352.535492 321.771079 
L 353.549689 375.900909 
L 359.634869 375.900909 
L 360.649066 365.28325 
L 361.663263 375.900909 
L 364.705853 375.900909 
L 365.72005 337.824741 
L 366.734247 375.900909 
L 367.748443 319.440824 
L 368.76264 321.795785 
L 369.776837 375.900909 
L 370.791034 375.900909 
L 371.80523 355.261836 
L 372.819427 375.900909 
L 373.833624 365.962113 
L 374.847821 343.330339 
L 375.862017 370.719665 
L 376.876214 375.900909 
L 377.890411 322.62851 
L 378.904608 372.239878 
L 379.918804 375.900909 
L 380.933001 360.931374 
L 381.947198 375.900909 
L 383.975592 375.900909 
L 384.989788 368.927516 
L 386.003985 340.851558 
L 387.018182 375.900909 
L 388.032379 375.900909 
L 389.046575 279.47702 
L 390.060772 357.480818 
L 391.074969 375.900909 
L 392.089166 313.410911 
L 393.103362 351.786319 
L 394.117559 375.900909 
L 395.131756 356.0242 
L 396.145953 375.900909 
L 397.160149 375.900909 
L 398.174346 325.02266 
L 399.188543 336.628743 
L 400.20274 337.328752 
L 401.216936 359.0593 
L 402.231133 375.900909 
L 403.24533 375.900909 
L 404.259527 365.631192 
L 405.273724 375.900909 
L 409.330511 375.900909 
L 410.344707 372.297532 
L 411.358904 375.900909 
L 412.373101 375.900909 
L 413.387298 363.009864 
L 414.401494 375.900909 
L 415.415691 334.999718 
L 416.429888 375.900909 
L 417.444085 369.294477 
L 418.458281 354.844726 
L 419.472478 373.438647 
L 420.486675 374.737524 
L 421.500872 269.020511 
L 422.515068 338.042764 
L 423.529265 358.156423 
L 424.543462 338.947911 
L 425.557659 352.581038 
L 426.571856 375.900909 
L 428.600249 375.900909 
L 429.614446 361.781807 
L 430.628643 375.900909 
L 433.671233 375.900909 
L 434.68543 348.948452 
L 435.699626 375.900909 
L 439.756413 375.900909 
L 440.77061 367.180725 
L 441.784807 278.83755 
L 442.799004 263.119091 
L 443.8132 368.567724 
L 444.827397 375.900909 
L 445.841594 329.662901 
L 446.855791 375.900909 
L 451.926775 375.900909 
L 452.940971 374.344026 
L 453.955168 347.40436 
L 454.969365 354.51386 
L 455.983562 375.900909 
L 456.997758 375.900909 
L 458.011955 357.885384 
L 459.026152 375.900909 
L 460.040349 375.900909 
L 461.054545 327.172032 
L 462.068742 361.644234 
L 463.082939 335.624131 
L 464.097136 375.900909 
L 466.125529 375.900909 
L 467.139726 348.520362 
L 468.153923 348.898427 
L 469.16812 348.367555 
L 470.182316 375.900909 
L 473.224907 375.900909 
L 474.239103 342.913747 
L 475.2533 287.973589 
L 476.267497 342.390491 
L 477.281694 364.006604 
L 478.29589 375.900909 
L 479.310087 362.48755 
L 480.324284 375.900909 
L 481.338481 375.900909 
L 483.366874 368.438361 
L 484.381071 358.525778 
L 485.395268 358.187825 
L 486.409465 345.837206 
L 487.423661 341.967911 
L 488.437858 372.997045 
L 489.452055 375.900909 
L 492.494645 375.900909 
L 493.508842 359.576019 
L 494.523039 375.22549 
L 495.537235 313.604151 
L 496.551432 375.900909 
L 498.579826 375.900909 
L 499.594022 375.587754 
L 500.608219 375.900909 
L 501.622416 342.669851 
L 502.636613 375.900909 
L 503.650809 375.900909 
L 504.665006 371.591816 
L 506.6934 343.218528 
L 507.707597 327.874552 
L 508.721793 298.488377 
L 509.73599 368.887426 
L 510.750187 375.900909 
L 511.764384 373.554829 
L 512.77858 375.900909 
L 513.792777 375.900909 
L 514.806974 305.489956 
L 515.821171 370.216838 
L 516.835367 336.721102 
L 517.849564 375.900909 
L 527.991532 375.900909 
L 529.005729 310.67505 
L 530.019925 352.918316 
L 531.034122 375.900909 
L 532.048319 375.900909 
L 533.062516 366.412204 
L 534.076712 375.900909 
L 537.119303 375.900909 
L 538.133499 316.24336 
L 539.147696 325.926444 
L 540.161893 372.632424 
L 541.17609 310.352595 
L 542.190286 369.872438 
L 543.204483 375.900909 
L 545.232877 375.900909 
L 546.247073 361.928831 
L 547.26127 328.675726 
L 548.275467 370.704793 
L 549.289664 368.233554 
L 550.303861 375.900909 
L 551.318057 365.775362 
L 552.332254 372.994418 
L 553.346451 367.651076 
L 554.360648 375.900909 
L 555.374844 328.409638 
L 556.389041 375.900909 
L 557.403238 375.900909 
L 558.417435 326.137743 
L 559.431631 352.102487 
L 560.445828 366.061189 
L 561.460025 363.633393 
L 562.474222 316.93743 
L 563.488418 375.900909 
L 572.616189 375.900909 
L 573.630386 319.287102 
L 574.644583 375.555126 
L 575.65878 375.900909 
L 577.687173 375.900909 
L 578.70137 366.104151 
L 579.715567 375.900909 
L 581.74396 375.900909 
L 582.758157 349.54727 
L 583.772354 340.749812 
L 584.78655 336.190949 
L 585.800747 372.866726 
L 586.814944 354.992808 
L 587.829141 350.661058 
L 588.843337 339.129638 
L 589.857534 375.900909 
L 591.885928 314.815593 
L 592.900125 322.102296 
L 593.914321 358.858148 
L 594.928518 356.483859 
L 595.942715 375.900909 
L 596.956912 375.900909 
L 597.971108 356.251107 
L 598.985305 371.448811 
L 599.999502 375.900909 
L 604.056289 375.900909 
L 605.070486 366.07662 
L 606.084682 369.13944 
L 607.098879 375.900909 
L 609.127273 375.900909 
L 609.127273 375.900909 
" clip-path="url(#p022594a5e4)" style="fill: none; stroke: #1f77b4; stroke-linecap: round"/>
   </g>
   <g id="line2d_25">
    <defs>
     <path id="m6c510d541f" d="M 0 1.25 
C 0.331504 1.25 0.649475 1.118292 0.883883 0.883883 
C 1.118292 0.649475 1.25 0.331504 1.25 0 
C 1.25 -0.331504 1.118292 -0.649475 0.883883 -0.883883 
C 0.649475 -1.118292 0.331504 -1.25 0 -1.25 
C -0.331504 -1.25 -0.649475 -1.118292 -0.883883 -0.883883 
C -1.118292 -0.649475 -1.25 -0.331504 -1.25 0 
C -1.25 0.331504 -1.118292 0.649475 -0.883883 0.883883 
C -0.649475 1.118292 -0.331504 1.25 0 1.25 
z
" style="stroke: #ff6d00; stroke-width: 2"/>
    </defs>
    <g clip-path="url(#p022594a5e4)">
     <use xlink:href="#m6c510d541f" x="176.065255" y="292.757267" style="fill: #ff6d00; stroke: #ff6d00; stroke-width: 2"/>
     <use xlink:href="#m6c510d541f" x="232.860274" y="301.525218" style="fill: #ff6d00; stroke: #ff6d00; stroke-width: 2"/>
     <use xlink:href="#m6c510d541f" x="259.22939" y="290.647782" style="fill: #ff6d00; stroke: #ff6d00; stroke-width: 2"/>
     <use xlink:href="#m6c510d541f" x="304.868244" y="297.981129" style="fill: #ff6d00; stroke: #ff6d00; stroke-width: 2"/>
     <use xlink:href="#m6c510d541f" x="331.23736" y="277.966558" style="fill: #ff6d00; stroke: #ff6d00; stroke-width: 2"/>
     <use xlink:href="#m6c510d541f" x="389.046575" y="279.47702" style="fill: #ff6d00; stroke: #ff6d00; stroke-width: 2"/>
     <use xlink:href="#m6c510d541f" x="421.500872" y="269.020511" style="fill: #ff6d00; stroke: #ff6d00; stroke-width: 2"/>
     <use xlink:href="#m6c510d541f" x="442.799004" y="263.119091" style="fill: #ff6d00; stroke: #ff6d00; stroke-width: 2"/>
     <use xlink:href="#m6c510d541f" x="475.2533" y="287.973589" style="fill: #ff6d00; stroke: #ff6d00; stroke-width: 2"/>
     <use xlink:href="#m6c510d541f" x="508.721793" y="298.488377" style="fill: #ff6d00; stroke: #ff6d00; stroke-width: 2"/>
    </g>
   </g>
   <g id="patch_9">
    <path d="M 64.96 381.54 
L 64.96 257.48 
" style="fill: none; stroke: #cccccc; stroke-width: 1.25; stroke-linejoin: miter; stroke-linecap: square"/>
   </g>
   <g id="patch_10">
    <path d="M 635.04 381.54 
L 635.04 257.48 
" style="fill: none; stroke: #cccccc; stroke-width: 1.25; stroke-linejoin: miter; stroke-linecap: square"/>
   </g>
   <g id="patch_11">
    <path d="M 64.96 381.54 
L 635.04 381.54 
" style="fill: none; stroke: #cccccc; stroke-width: 1.25; stroke-linejoin: miter; stroke-linecap: square"/>
   </g>
   <g id="patch_12">
    <path d="M 64.96 257.48 
L 635.04 257.48 
" style="fill: none; stroke: #cccccc; stroke-width: 1.25; stroke-linejoin: miter; stroke-linecap: square"/>
   </g>
   <g id="text_27">
    <!-- Spectrum After Baseline Removal -->
    <g style="fill: #262626" transform="translate(189.771875 237.48)scale(0.2 -0.2)">
     <defs>
      <path id="Arial-BoldMT-41" d="M 4597 0 
L 3591 0 
L 3191 1041 
L 1359 1041 
L 981 0 
L 0 0 
L 1784 4581 
L 2763 4581 
L 4597 0 
z
M 2894 1813 
L 2263 3513 
L 1644 1813 
L 2894 1813 
z
" transform="scale(0.015625)"/>
      <path id="Arial-BoldMT-66" d="M 75 3319 
L 563 3319 
L 563 3569 
Q 563 3988 652 4194 
Q 741 4400 980 4529 
Q 1219 4659 1584 4659 
Q 1959 4659 2319 4547 
L 2200 3934 
Q 1991 3984 1797 3984 
Q 1606 3984 1523 3895 
Q 1441 3806 1441 3553 
L 1441 3319 
L 2097 3319 
L 2097 2628 
L 1441 2628 
L 1441 0 
L 563 0 
L 563 2628 
L 75 2628 
L 75 3319 
z
" transform="scale(0.015625)"/>
      <path id="Arial-BoldMT-52" d="M 469 0 
L 469 4581 
L 2416 4581 
Q 3150 4581 3483 4457 
Q 3816 4334 4016 4018 
Q 4216 3703 4216 3297 
Q 4216 2781 3912 2445 
Q 3609 2109 3006 2022 
Q 3306 1847 3501 1637 
Q 3697 1428 4028 894 
L 4588 0 
L 3481 0 
L 2813 997 
Q 2456 1531 2325 1670 
Q 2194 1809 2047 1861 
Q 1900 1913 1581 1913 
L 1394 1913 
L 1394 0 
L 469 0 
z
M 1394 2644 
L 2078 2644 
Q 2744 2644 2909 2700 
Q 3075 2756 3169 2893 
Q 3263 3031 3263 3238 
Q 3263 3469 3139 3611 
Q 3016 3753 2791 3791 
Q 2678 3806 2116 3806 
L 1394 3806 
L 1394 2644 
z
" transform="scale(0.015625)"/>
      <path id="Arial-BoldMT-6f" d="M 256 1706 
Q 256 2144 472 2553 
Q 688 2963 1083 3178 
Q 1478 3394 1966 3394 
Q 2719 3394 3200 2905 
Q 3681 2416 3681 1669 
Q 3681 916 3195 420 
Q 2709 -75 1972 -75 
Q 1516 -75 1102 131 
Q 688 338 472 736 
Q 256 1134 256 1706 
z
M 1156 1659 
Q 1156 1166 1390 903 
Q 1625 641 1969 641 
Q 2313 641 2545 903 
Q 2778 1166 2778 1666 
Q 2778 2153 2545 2415 
Q 2313 2678 1969 2678 
Q 1625 2678 1390 2415 
Q 1156 2153 1156 1659 
z
" transform="scale(0.015625)"/>
      <path id="Arial-BoldMT-76" d="M 1372 0 
L 34 3319 
L 956 3319 
L 1581 1625 
L 1763 1059 
Q 1834 1275 1853 1344 
Q 1897 1484 1947 1625 
L 2578 3319 
L 3481 3319 
L 2163 0 
L 1372 0 
z
" transform="scale(0.015625)"/>
     </defs>
     <use xlink:href="#Arial-BoldMT-53"/>
     <use xlink:href="#Arial-BoldMT-70" x="66.699219"/>
     <use xlink:href="#Arial-BoldMT-65" x="127.783203"/>
     <use xlink:href="#Arial-BoldMT-63" x="183.398438"/>
     <use xlink:href="#Arial-BoldMT-74" x="239.013672"/>
     <use xlink:href="#Arial-BoldMT-72" x="272.314453"/>
     <use xlink:href="#Arial-BoldMT-75" x="311.230469"/>
     <use xlink:href="#Arial-BoldMT-6d" x="372.314453"/>
     <use xlink:href="#Arial-BoldMT-20" x="461.230469"/>
     <use xlink:href="#Arial-BoldMT-41" x="485.263672"/>
     <use xlink:href="#Arial-BoldMT-66" x="557.480469"/>
     <use xlink:href="#Arial-BoldMT-74" x="590.78125"/>
     <use xlink:href="#Arial-BoldMT-65" x="624.082031"/>
     <use xlink:href="#Arial-BoldMT-72" x="679.697266"/>
     <use xlink:href="#Arial-BoldMT-20" x="718.613281"/>
     <use xlink:href="#Arial-BoldMT-42" x="746.396484"/>
     <use xlink:href="#Arial-BoldMT-61" x="818.613281"/>
     <use xlink:href="#Arial-BoldMT-73" x="874.228516"/>
     <use xlink:href="#Arial-BoldMT-65" x="929.84375"/>
     <use xlink:href="#Arial-BoldMT-6c" x="985.458984"/>
     <use xlink:href="#Arial-BoldMT-69" x="1013.242188"/>
     <use xlink:href="#Arial-BoldMT-6e" x="1041.025391"/>
     <use xlink:href="#Arial-BoldMT-65" x="1102.109375"/>
     <use xlink:href="#Arial-BoldMT-20" x="1157.724609"/>
     <use xlink:href="#Arial-BoldMT-52" x="1185.507812"/>
     <use xlink:href="#Arial-BoldMT-65" x="1257.724609"/>
     <use xlink:href="#Arial-BoldMT-6d" x="1313.339844"/>
     <use xlink:href="#Arial-BoldMT-6f" x="1402.255859"/>
     <use xlink:href="#Arial-BoldMT-76" x="1463.339844"/>
     <use xlink:href="#Arial-BoldMT-61" x="1518.955078"/>
     <use xlink:href="#Arial-BoldMT-6c" x="1574.570312"/>
    </g>
   </g>
   <g id="legend_2">
    <g id="patch_13">
     <path d="M 493.720937 297.796719 
L 627.34 297.796719 
Q 629.54 297.796719 629.54 295.596719 
L 629.54 265.18 
Q 629.54 262.98 627.34 262.98 
L 493.720937 262.98 
Q 491.520937 262.98 491.520937 265.18 
L 491.520937 295.596719 
Q 491.520937 297.796719 493.720937 297.796719 
z
" style="fill: #ffffff; opacity: 0.8; stroke: #cccccc; stroke-linejoin: miter"/>
    </g>
    <g id="line2d_26">
     <path d="M 495.920937 271.537656 
L 506.920937 271.537656 
L 517.920937 271.537656 
" style="fill: none; stroke: #1f77b4; stroke-linecap: round"/>
    </g>
    <g id="text_28">
     <!-- Corrected Spectrum -->
     <g style="fill: #262626" transform="translate(526.720937 275.387656)scale(0.11 -0.11)">
      <defs>
       <path id="ArialMT-43" d="M 3763 1606 
L 4369 1453 
Q 4178 706 3683 314 
Q 3188 -78 2472 -78 
Q 1731 -78 1267 223 
Q 803 525 561 1097 
Q 319 1669 319 2325 
Q 319 3041 592 3573 
Q 866 4106 1370 4382 
Q 1875 4659 2481 4659 
Q 3169 4659 3637 4309 
Q 4106 3959 4291 3325 
L 3694 3184 
Q 3534 3684 3231 3912 
Q 2928 4141 2469 4141 
Q 1941 4141 1586 3887 
Q 1231 3634 1087 3207 
Q 944 2781 944 2328 
Q 944 1744 1114 1308 
Q 1284 872 1643 656 
Q 2003 441 2422 441 
Q 2931 441 3284 734 
Q 3638 1028 3763 1606 
z
" transform="scale(0.015625)"/>
       <path id="ArialMT-6f" d="M 213 1659 
Q 213 2581 725 3025 
Q 1153 3394 1769 3394 
Q 2453 3394 2887 2945 
Q 3322 2497 3322 1706 
Q 3322 1066 3130 698 
Q 2938 331 2570 128 
Q 2203 -75 1769 -75 
Q 1072 -75 642 372 
Q 213 819 213 1659 
z
M 791 1659 
Q 791 1022 1069 705 
Q 1347 388 1769 388 
Q 2188 388 2466 706 
Q 2744 1025 2744 1678 
Q 2744 2294 2464 2611 
Q 2184 2928 1769 2928 
Q 1347 2928 1069 2612 
Q 791 2297 791 1659 
z
" transform="scale(0.015625)"/>
      </defs>
      <use xlink:href="#ArialMT-43"/>
      <use xlink:href="#ArialMT-6f" x="72.216797"/>
      <use xlink:href="#ArialMT-72" x="127.832031"/>
      <use xlink:href="#ArialMT-72" x="161.132812"/>
      <use xlink:href="#ArialMT-65" x="194.433594"/>
      <use xlink:href="#ArialMT-63" x="250.048828"/>
      <use xlink:href="#ArialMT-74" x="300.048828"/>
      <use xlink:href="#ArialMT-65" x="327.832031"/>
      <use xlink:href="#ArialMT-64" x="383.447266"/>
      <use xlink:href="#ArialMT-20" x="439.0625"/>
      <use xlink:href="#ArialMT-53" x="466.845703"/>
      <use xlink:href="#ArialMT-70" x="533.544922"/>
      <use xlink:href="#ArialMT-65" x="589.160156"/>
      <use xlink:href="#ArialMT-63" x="644.775391"/>
      <use xlink:href="#ArialMT-74" x="694.775391"/>
      <use xlink:href="#ArialMT-72" x="722.558594"/>
      <use xlink:href="#ArialMT-75" x="755.859375"/>
      <use xlink:href="#ArialMT-6d" x="811.474609"/>
     </g>
    </g>
    <g id="line2d_27">
     <g>
      <use xlink:href="#m6c510d541f" x="506.920937" y="287.231562" style="fill: #ff6d00; stroke: #ff6d00; stroke-width: 2"/>
     </g>
    </g>
    <g id="text_29">
     <!-- Snoring Peaks -->
     <g style="fill: #262626" transform="translate(526.720937 291.081563)scale(0.11 -0.11)">
      <defs>
       <path id="ArialMT-50" d="M 494 0 
L 494 4581 
L 2222 4581 
Q 2678 4581 2919 4538 
Q 3256 4481 3484 4323 
Q 3713 4166 3852 3881 
Q 3991 3597 3991 3256 
Q 3991 2672 3619 2267 
Q 3247 1863 2275 1863 
L 1100 1863 
L 1100 0 
L 494 0 
z
M 1100 2403 
L 2284 2403 
Q 2872 2403 3119 2622 
Q 3366 2841 3366 3238 
Q 3366 3525 3220 3729 
Q 3075 3934 2838 4000 
Q 2684 4041 2272 4041 
L 1100 4041 
L 1100 2403 
z
" transform="scale(0.015625)"/>
       <path id="ArialMT-6b" d="M 425 0 
L 425 4581 
L 988 4581 
L 988 1969 
L 2319 3319 
L 3047 3319 
L 1778 2088 
L 3175 0 
L 2481 0 
L 1384 1697 
L 988 1316 
L 988 0 
L 425 0 
z
" transform="scale(0.015625)"/>
      </defs>
      <use xlink:href="#ArialMT-53"/>
      <use xlink:href="#ArialMT-6e" x="66.699219"/>
      <use xlink:href="#ArialMT-6f" x="122.314453"/>
      <use xlink:href="#ArialMT-72" x="177.929688"/>
      <use xlink:href="#ArialMT-69" x="211.230469"/>
      <use xlink:href="#ArialMT-6e" x="233.447266"/>
      <use xlink:href="#ArialMT-67" x="289.0625"/>
      <use xlink:href="#ArialMT-20" x="344.677734"/>
      <use xlink:href="#ArialMT-50" x="372.460938"/>
      <use xlink:href="#ArialMT-65" x="439.160156"/>
      <use xlink:href="#ArialMT-61" x="494.775391"/>
      <use xlink:href="#ArialMT-6b" x="550.390625"/>
      <use xlink:href="#ArialMT-73" x="600.390625"/>
     </g>
    </g>
   </g>
  </g>
 </g>
 <defs>
  <clipPath id="p24ad394f4a">
   <rect x="64.96" y="47.96" width="570.08" height="124.06"/>
  </clipPath>
  <clipPath id="p022594a5e4">
   <rect x="64.96" y="257.48" width="570.08" height="124.06"/>
  </clipPath>
 </defs>
</svg>
