<?xml version="1.0" encoding="utf-8" standalone="no"?>
<!DOCTYPE svg PUBLIC "-//W3C//DTD SVG 1.1//EN"
  "http://www.w3.org/Graphics/SVG/1.1/DTD/svg11.dtd">
<svg xmlns:xlink="http://www.w3.org/1999/xlink" width="864pt" height="432pt" viewBox="0 0 864 432" xmlns="http://www.w3.org/2000/svg" version="1.1">
 <metadata>
  <rdf:RDF xmlns:dc="http://purl.org/dc/elements/1.1/" xmlns:cc="http://creativecommons.org/ns#" xmlns:rdf="http://www.w3.org/1999/02/22-rdf-syntax-ns#">
   <cc:Work>
    <dc:type rdf:resource="http://purl.org/dc/dcmitype/StillImage"/>
    <dc:date>2024-12-04T10:33:03.518709</dc:date>
    <dc:format>image/svg+xml</dc:format>
    <dc:creator>
     <cc:Agent>
      <dc:title>Matplotlib v3.5.1, https://matplotlib.org/</dc:title>
     </cc:Agent>
    </dc:creator>
   </cc:Work>
  </rdf:RDF>
 </metadata>
 <defs>
  <style type="text/css">*{stroke-linejoin: round; stroke-linecap: butt}</style>
 </defs>
 <g id="figure_1">
  <g id="patch_1">
   <path d="M 0 432 
L 864 432 
L 864 0 
L 0 0 
z
" style="fill: #ffffff"/>
  </g>
  <g id="axes_1">
   <g id="patch_2">
    <path d="M 108 378 
L 777.6 378 
L 777.6 51.84 
L 108 51.84 
z
" style="fill: #ffffff"/>
   </g>
   <g id="matplotlib.axis_1">
    <g id="xtick_1">
     <g id="line2d_1">
      <path d="M 138.432793 378 
L 138.432793 51.84 
" clip-path="url(#pb4d5add77a)" style="fill: none; stroke-dasharray: 1.85,0.8; stroke-dashoffset: 0; stroke: #cccccc; stroke-width: 0.5"/>
     </g>
     <g id="text_1">
      <!-- 0 -->
      <g style="fill: #262626" transform="translate(135.652324 394.657812)scale(0.1 -0.1)">
       <defs>
        <path id="ArialMT-30" d="M 266 2259 
Q 266 3072 433 3567 
Q 600 4063 929 4331 
Q 1259 4600 1759 4600 
Q 2128 4600 2406 4451 
Q 2684 4303 2865 4023 
Q 3047 3744 3150 3342 
Q 3253 2941 3253 2259 
Q 3253 1453 3087 958 
Q 2922 463 2592 192 
Q 2263 -78 1759 -78 
Q 1097 -78 719 397 
Q 266 969 266 2259 
z
M 844 2259 
Q 844 1131 1108 757 
Q 1372 384 1759 384 
Q 2147 384 2411 759 
Q 2675 1134 2675 2259 
Q 2675 3391 2411 3762 
Q 2147 4134 1753 4134 
Q 1366 4134 1134 3806 
Q 844 3388 844 2259 
z
" transform="scale(0.015625)"/>
       </defs>
       <use xlink:href="#ArialMT-30"/>
      </g>
     </g>
    </g>
    <g id="xtick_2">
     <g id="line2d_2">
      <path d="M 239.896086 378 
L 239.896086 51.84 
" clip-path="url(#pb4d5add77a)" style="fill: none; stroke-dasharray: 1.85,0.8; stroke-dashoffset: 0; stroke: #cccccc; stroke-width: 0.5"/>
     </g>
     <g id="text_2">
      <!-- 10 -->
      <g style="fill: #262626" transform="translate(234.335149 394.657812)scale(0.1 -0.1)">
       <defs>
        <path id="ArialMT-31" d="M 2384 0 
L 1822 0 
L 1822 3584 
Q 1619 3391 1289 3197 
Q 959 3003 697 2906 
L 697 3450 
Q 1169 3672 1522 3987 
Q 1875 4303 2022 4600 
L 2384 4600 
L 2384 0 
z
" transform="scale(0.015625)"/>
       </defs>
       <use xlink:href="#ArialMT-31"/>
       <use xlink:href="#ArialMT-30" x="55.615234"/>
      </g>
     </g>
    </g>
    <g id="xtick_3">
     <g id="line2d_3">
      <path d="M 341.35938 378 
L 341.35938 51.84 
" clip-path="url(#pb4d5add77a)" style="fill: none; stroke-dasharray: 1.85,0.8; stroke-dashoffset: 0; stroke: #cccccc; stroke-width: 0.5"/>
     </g>
     <g id="text_3">
      <!-- 20 -->
      <g style="fill: #262626" transform="translate(335.798442 394.657812)scale(0.1 -0.1)">
       <defs>
        <path id="ArialMT-32" d="M 3222 541 
L 3222 0 
L 194 0 
Q 188 203 259 391 
Q 375 700 629 1000 
Q 884 1300 1366 1694 
Q 2113 2306 2375 2664 
Q 2638 3022 2638 3341 
Q 2638 3675 2398 3904 
Q 2159 4134 1775 4134 
Q 1369 4134 1125 3890 
Q 881 3647 878 3216 
L 300 3275 
Q 359 3922 746 4261 
Q 1134 4600 1788 4600 
Q 2447 4600 2831 4234 
Q 3216 3869 3216 3328 
Q 3216 3053 3103 2787 
Q 2991 2522 2730 2228 
Q 2469 1934 1863 1422 
Q 1356 997 1212 845 
Q 1069 694 975 541 
L 3222 541 
z
" transform="scale(0.015625)"/>
       </defs>
       <use xlink:href="#ArialMT-32"/>
       <use xlink:href="#ArialMT-30" x="55.615234"/>
      </g>
     </g>
    </g>
    <g id="xtick_4">
     <g id="line2d_4">
      <path d="M 442.822673 378 
L 442.822673 51.84 
" clip-path="url(#pb4d5add77a)" style="fill: none; stroke-dasharray: 1.85,0.8; stroke-dashoffset: 0; stroke: #cccccc; stroke-width: 0.5"/>
     </g>
     <g id="text_4">
      <!-- 30 -->
      <g style="fill: #262626" transform="translate(437.261735 394.657812)scale(0.1 -0.1)">
       <defs>
        <path id="ArialMT-33" d="M 269 1209 
L 831 1284 
Q 928 806 1161 595 
Q 1394 384 1728 384 
Q 2125 384 2398 659 
Q 2672 934 2672 1341 
Q 2672 1728 2419 1979 
Q 2166 2231 1775 2231 
Q 1616 2231 1378 2169 
L 1441 2663 
Q 1497 2656 1531 2656 
Q 1891 2656 2178 2843 
Q 2466 3031 2466 3422 
Q 2466 3731 2256 3934 
Q 2047 4138 1716 4138 
Q 1388 4138 1169 3931 
Q 950 3725 888 3313 
L 325 3413 
Q 428 3978 793 4289 
Q 1159 4600 1703 4600 
Q 2078 4600 2393 4439 
Q 2709 4278 2876 4000 
Q 3044 3722 3044 3409 
Q 3044 3113 2884 2869 
Q 2725 2625 2413 2481 
Q 2819 2388 3044 2092 
Q 3269 1797 3269 1353 
Q 3269 753 2831 336 
Q 2394 -81 1725 -81 
Q 1122 -81 723 278 
Q 325 638 269 1209 
z
" transform="scale(0.015625)"/>
       </defs>
       <use xlink:href="#ArialMT-33"/>
       <use xlink:href="#ArialMT-30" x="55.615234"/>
      </g>
     </g>
    </g>
    <g id="xtick_5">
     <g id="line2d_5">
      <path d="M 544.285966 378 
L 544.285966 51.84 
" clip-path="url(#pb4d5add77a)" style="fill: none; stroke-dasharray: 1.85,0.8; stroke-dashoffset: 0; stroke: #cccccc; stroke-width: 0.5"/>
     </g>
     <g id="text_5">
      <!-- 40 -->
      <g style="fill: #262626" transform="translate(538.725028 394.657812)scale(0.1 -0.1)">
       <defs>
        <path id="ArialMT-34" d="M 2069 0 
L 2069 1097 
L 81 1097 
L 81 1613 
L 2172 4581 
L 2631 4581 
L 2631 1613 
L 3250 1613 
L 3250 1097 
L 2631 1097 
L 2631 0 
L 2069 0 
z
M 2069 1613 
L 2069 3678 
L 634 1613 
L 2069 1613 
z
" transform="scale(0.015625)"/>
       </defs>
       <use xlink:href="#ArialMT-34"/>
       <use xlink:href="#ArialMT-30" x="55.615234"/>
      </g>
     </g>
    </g>
    <g id="xtick_6">
     <g id="line2d_6">
      <path d="M 645.749259 378 
L 645.749259 51.84 
" clip-path="url(#pb4d5add77a)" style="fill: none; stroke-dasharray: 1.85,0.8; stroke-dashoffset: 0; stroke: #cccccc; stroke-width: 0.5"/>
     </g>
     <g id="text_6">
      <!-- 50 -->
      <g style="fill: #262626" transform="translate(640.188322 394.657812)scale(0.1 -0.1)">
       <defs>
        <path id="ArialMT-35" d="M 266 1200 
L 856 1250 
Q 922 819 1161 601 
Q 1400 384 1738 384 
Q 2144 384 2425 690 
Q 2706 997 2706 1503 
Q 2706 1984 2436 2262 
Q 2166 2541 1728 2541 
Q 1456 2541 1237 2417 
Q 1019 2294 894 2097 
L 366 2166 
L 809 4519 
L 3088 4519 
L 3088 3981 
L 1259 3981 
L 1013 2750 
Q 1425 3038 1878 3038 
Q 2478 3038 2890 2622 
Q 3303 2206 3303 1553 
Q 3303 931 2941 478 
Q 2500 -78 1738 -78 
Q 1113 -78 717 272 
Q 322 622 266 1200 
z
" transform="scale(0.015625)"/>
       </defs>
       <use xlink:href="#ArialMT-35"/>
       <use xlink:href="#ArialMT-30" x="55.615234"/>
      </g>
     </g>
    </g>
    <g id="xtick_7">
     <g id="line2d_7">
      <path d="M 747.212552 378 
L 747.212552 51.84 
" clip-path="url(#pb4d5add77a)" style="fill: none; stroke-dasharray: 1.85,0.8; stroke-dashoffset: 0; stroke: #cccccc; stroke-width: 0.5"/>
     </g>
     <g id="text_7">
      <!-- 60 -->
      <g style="fill: #262626" transform="translate(741.651615 394.657812)scale(0.1 -0.1)">
       <defs>
        <path id="ArialMT-36" d="M 3184 3459 
L 2625 3416 
Q 2550 3747 2413 3897 
Q 2184 4138 1850 4138 
Q 1581 4138 1378 3988 
Q 1113 3794 959 3422 
Q 806 3050 800 2363 
Q 1003 2672 1297 2822 
Q 1591 2972 1913 2972 
Q 2475 2972 2870 2558 
Q 3266 2144 3266 1488 
Q 3266 1056 3080 686 
Q 2894 316 2569 119 
Q 2244 -78 1831 -78 
Q 1128 -78 684 439 
Q 241 956 241 2144 
Q 241 3472 731 4075 
Q 1159 4600 1884 4600 
Q 2425 4600 2770 4297 
Q 3116 3994 3184 3459 
z
M 888 1484 
Q 888 1194 1011 928 
Q 1134 663 1356 523 
Q 1578 384 1822 384 
Q 2178 384 2434 671 
Q 2691 959 2691 1453 
Q 2691 1928 2437 2201 
Q 2184 2475 1800 2475 
Q 1419 2475 1153 2201 
Q 888 1928 888 1484 
z
" transform="scale(0.015625)"/>
       </defs>
       <use xlink:href="#ArialMT-36"/>
       <use xlink:href="#ArialMT-30" x="55.615234"/>
      </g>
     </g>
    </g>
    <g id="text_8">
     <!-- Time [s] -->
     <g style="fill: #262626" transform="translate(421.692187 415.234688)scale(0.12 -0.12)">
      <defs>
       <path id="ArialMT-54" d="M 1659 0 
L 1659 4041 
L 150 4041 
L 150 4581 
L 3781 4581 
L 3781 4041 
L 2266 4041 
L 2266 0 
L 1659 0 
z
" transform="scale(0.015625)"/>
       <path id="ArialMT-69" d="M 425 3934 
L 425 4581 
L 988 4581 
L 988 3934 
L 425 3934 
z
M 425 0 
L 425 3319 
L 988 3319 
L 988 0 
L 425 0 
z
" transform="scale(0.015625)"/>
       <path id="ArialMT-6d" d="M 422 0 
L 422 3319 
L 925 3319 
L 925 2853 
Q 1081 3097 1340 3245 
Q 1600 3394 1931 3394 
Q 2300 3394 2536 3241 
Q 2772 3088 2869 2813 
Q 3263 3394 3894 3394 
Q 4388 3394 4653 3120 
Q 4919 2847 4919 2278 
L 4919 0 
L 4359 0 
L 4359 2091 
Q 4359 2428 4304 2576 
Q 4250 2725 4106 2815 
Q 3963 2906 3769 2906 
Q 3419 2906 3187 2673 
Q 2956 2441 2956 1928 
L 2956 0 
L 2394 0 
L 2394 2156 
Q 2394 2531 2256 2718 
Q 2119 2906 1806 2906 
Q 1569 2906 1367 2781 
Q 1166 2656 1075 2415 
Q 984 2175 984 1722 
L 984 0 
L 422 0 
z
" transform="scale(0.015625)"/>
       <path id="ArialMT-65" d="M 2694 1069 
L 3275 997 
Q 3138 488 2766 206 
Q 2394 -75 1816 -75 
Q 1088 -75 661 373 
Q 234 822 234 1631 
Q 234 2469 665 2931 
Q 1097 3394 1784 3394 
Q 2450 3394 2872 2941 
Q 3294 2488 3294 1666 
Q 3294 1616 3291 1516 
L 816 1516 
Q 847 969 1125 678 
Q 1403 388 1819 388 
Q 2128 388 2347 550 
Q 2566 713 2694 1069 
z
M 847 1978 
L 2700 1978 
Q 2663 2397 2488 2606 
Q 2219 2931 1791 2931 
Q 1403 2931 1139 2672 
Q 875 2413 847 1978 
z
" transform="scale(0.015625)"/>
       <path id="ArialMT-20" transform="scale(0.015625)"/>
       <path id="ArialMT-5b" d="M 434 -1272 
L 434 4581 
L 1675 4581 
L 1675 4116 
L 997 4116 
L 997 -806 
L 1675 -806 
L 1675 -1272 
L 434 -1272 
z
" transform="scale(0.015625)"/>
       <path id="ArialMT-73" d="M 197 991 
L 753 1078 
Q 800 744 1014 566 
Q 1228 388 1613 388 
Q 2000 388 2187 545 
Q 2375 703 2375 916 
Q 2375 1106 2209 1216 
Q 2094 1291 1634 1406 
Q 1016 1563 777 1677 
Q 538 1791 414 1992 
Q 291 2194 291 2438 
Q 291 2659 392 2848 
Q 494 3038 669 3163 
Q 800 3259 1026 3326 
Q 1253 3394 1513 3394 
Q 1903 3394 2198 3281 
Q 2494 3169 2634 2976 
Q 2775 2784 2828 2463 
L 2278 2388 
Q 2241 2644 2061 2787 
Q 1881 2931 1553 2931 
Q 1166 2931 1000 2803 
Q 834 2675 834 2503 
Q 834 2394 903 2306 
Q 972 2216 1119 2156 
Q 1203 2125 1616 2013 
Q 2213 1853 2448 1751 
Q 2684 1650 2818 1456 
Q 2953 1263 2953 975 
Q 2953 694 2789 445 
Q 2625 197 2315 61 
Q 2006 -75 1616 -75 
Q 969 -75 630 194 
Q 291 463 197 991 
z
" transform="scale(0.015625)"/>
       <path id="ArialMT-5d" d="M 1363 -1272 
L 122 -1272 
L 122 -806 
L 800 -806 
L 800 4116 
L 122 4116 
L 122 4581 
L 1363 4581 
L 1363 -1272 
z
" transform="scale(0.015625)"/>
      </defs>
      <use xlink:href="#ArialMT-54"/>
      <use xlink:href="#ArialMT-69" x="57.333984"/>
      <use xlink:href="#ArialMT-6d" x="79.550781"/>
      <use xlink:href="#ArialMT-65" x="162.851562"/>
      <use xlink:href="#ArialMT-20" x="218.466797"/>
      <use xlink:href="#ArialMT-5b" x="246.25"/>
      <use xlink:href="#ArialMT-73" x="274.033203"/>
      <use xlink:href="#ArialMT-5d" x="324.033203"/>
     </g>
    </g>
   </g>
   <g id="matplotlib.axis_2">
    <g id="ytick_1">
     <g id="line2d_8">
      <path d="M 108 365.063138 
L 777.6 365.063138 
" clip-path="url(#pb4d5add77a)" style="fill: none; stroke-dasharray: 1.85,0.8; stroke-dashoffset: 0; stroke: #cccccc; stroke-width: 0.5"/>
     </g>
     <g id="text_9">
      <!-- 200 -->
      <g style="fill: #262626" transform="translate(81.817188 368.642045)scale(0.1 -0.1)">
       <use xlink:href="#ArialMT-32"/>
       <use xlink:href="#ArialMT-30" x="55.615234"/>
       <use xlink:href="#ArialMT-30" x="111.230469"/>
      </g>
     </g>
    </g>
    <g id="ytick_2">
     <g id="line2d_9">
      <path d="M 108 317.848315 
L 777.6 317.848315 
" clip-path="url(#pb4d5add77a)" style="fill: none; stroke-dasharray: 1.85,0.8; stroke-dashoffset: 0; stroke: #cccccc; stroke-width: 0.5"/>
     </g>
     <g id="text_10">
      <!-- 300 -->
      <g style="fill: #262626" transform="translate(81.817188 321.427221)scale(0.1 -0.1)">
       <use xlink:href="#ArialMT-33"/>
       <use xlink:href="#ArialMT-30" x="55.615234"/>
       <use xlink:href="#ArialMT-30" x="111.230469"/>
      </g>
     </g>
    </g>
    <g id="ytick_3">
     <g id="line2d_10">
      <path d="M 108 270.633492 
L 777.6 270.633492 
" clip-path="url(#pb4d5add77a)" style="fill: none; stroke-dasharray: 1.85,0.8; stroke-dashoffset: 0; stroke: #cccccc; stroke-width: 0.5"/>
     </g>
     <g id="text_11">
      <!-- 400 -->
      <g style="fill: #262626" transform="translate(81.817188 274.212398)scale(0.1 -0.1)">
       <use xlink:href="#ArialMT-34"/>
       <use xlink:href="#ArialMT-30" x="55.615234"/>
       <use xlink:href="#ArialMT-30" x="111.230469"/>
      </g>
     </g>
    </g>
    <g id="ytick_4">
     <g id="line2d_11">
      <path d="M 108 223.418668 
L 777.6 223.418668 
" clip-path="url(#pb4d5add77a)" style="fill: none; stroke-dasharray: 1.85,0.8; stroke-dashoffset: 0; stroke: #cccccc; stroke-width: 0.5"/>
     </g>
     <g id="text_12">
      <!-- 500 -->
      <g style="fill: #262626" transform="translate(81.817188 226.997574)scale(0.1 -0.1)">
       <use xlink:href="#ArialMT-35"/>
       <use xlink:href="#ArialMT-30" x="55.615234"/>
       <use xlink:href="#ArialMT-30" x="111.230469"/>
      </g>
     </g>
    </g>
    <g id="ytick_5">
     <g id="line2d_12">
      <path d="M 108 176.203845 
L 777.6 176.203845 
" clip-path="url(#pb4d5add77a)" style="fill: none; stroke-dasharray: 1.85,0.8; stroke-dashoffset: 0; stroke: #cccccc; stroke-width: 0.5"/>
     </g>
     <g id="text_13">
      <!-- 600 -->
      <g style="fill: #262626" transform="translate(81.817188 179.782751)scale(0.1 -0.1)">
       <use xlink:href="#ArialMT-36"/>
       <use xlink:href="#ArialMT-30" x="55.615234"/>
       <use xlink:href="#ArialMT-30" x="111.230469"/>
      </g>
     </g>
    </g>
    <g id="ytick_6">
     <g id="line2d_13">
      <path d="M 108 128.989021 
L 777.6 128.989021 
" clip-path="url(#pb4d5add77a)" style="fill: none; stroke-dasharray: 1.85,0.8; stroke-dashoffset: 0; stroke: #cccccc; stroke-width: 0.5"/>
     </g>
     <g id="text_14">
      <!-- 700 -->
      <g style="fill: #262626" transform="translate(81.817188 132.567928)scale(0.1 -0.1)">
       <defs>
        <path id="ArialMT-37" d="M 303 3981 
L 303 4522 
L 3269 4522 
L 3269 4084 
Q 2831 3619 2401 2847 
Q 1972 2075 1738 1259 
Q 1569 684 1522 0 
L 944 0 
Q 953 541 1156 1306 
Q 1359 2072 1739 2783 
Q 2119 3494 2547 3981 
L 303 3981 
z
" transform="scale(0.015625)"/>
       </defs>
       <use xlink:href="#ArialMT-37"/>
       <use xlink:href="#ArialMT-30" x="55.615234"/>
       <use xlink:href="#ArialMT-30" x="111.230469"/>
      </g>
     </g>
    </g>
    <g id="ytick_7">
     <g id="line2d_14">
      <path d="M 108 81.774198 
L 777.6 81.774198 
" clip-path="url(#pb4d5add77a)" style="fill: none; stroke-dasharray: 1.85,0.8; stroke-dashoffset: 0; stroke: #cccccc; stroke-width: 0.5"/>
     </g>
     <g id="text_15">
      <!-- 800 -->
      <g style="fill: #262626" transform="translate(81.817188 85.353104)scale(0.1 -0.1)">
       <defs>
        <path id="ArialMT-38" d="M 1131 2484 
Q 781 2613 612 2850 
Q 444 3088 444 3419 
Q 444 3919 803 4259 
Q 1163 4600 1759 4600 
Q 2359 4600 2725 4251 
Q 3091 3903 3091 3403 
Q 3091 3084 2923 2848 
Q 2756 2613 2416 2484 
Q 2838 2347 3058 2040 
Q 3278 1734 3278 1309 
Q 3278 722 2862 322 
Q 2447 -78 1769 -78 
Q 1091 -78 675 323 
Q 259 725 259 1325 
Q 259 1772 486 2073 
Q 713 2375 1131 2484 
z
M 1019 3438 
Q 1019 3113 1228 2906 
Q 1438 2700 1772 2700 
Q 2097 2700 2305 2904 
Q 2513 3109 2513 3406 
Q 2513 3716 2298 3927 
Q 2084 4138 1766 4138 
Q 1444 4138 1231 3931 
Q 1019 3725 1019 3438 
z
M 838 1322 
Q 838 1081 952 856 
Q 1066 631 1291 507 
Q 1516 384 1775 384 
Q 2178 384 2440 643 
Q 2703 903 2703 1303 
Q 2703 1709 2433 1975 
Q 2163 2241 1756 2241 
Q 1359 2241 1098 1978 
Q 838 1716 838 1322 
z
" transform="scale(0.015625)"/>
       </defs>
       <use xlink:href="#ArialMT-38"/>
       <use xlink:href="#ArialMT-30" x="55.615234"/>
       <use xlink:href="#ArialMT-30" x="111.230469"/>
      </g>
     </g>
    </g>
    <g id="text_16">
     <!-- Sound Level (Raw) -->
     <g style="fill: #262626" transform="translate(69.291562 265.943437)rotate(-90)scale(0.12 -0.12)">
      <defs>
       <path id="ArialMT-53" d="M 288 1472 
L 859 1522 
Q 900 1178 1048 958 
Q 1197 738 1509 602 
Q 1822 466 2213 466 
Q 2559 466 2825 569 
Q 3091 672 3220 851 
Q 3350 1031 3350 1244 
Q 3350 1459 3225 1620 
Q 3100 1781 2813 1891 
Q 2628 1963 1997 2114 
Q 1366 2266 1113 2400 
Q 784 2572 623 2826 
Q 463 3081 463 3397 
Q 463 3744 659 4045 
Q 856 4347 1234 4503 
Q 1613 4659 2075 4659 
Q 2584 4659 2973 4495 
Q 3363 4331 3572 4012 
Q 3781 3694 3797 3291 
L 3216 3247 
Q 3169 3681 2898 3903 
Q 2628 4125 2100 4125 
Q 1550 4125 1298 3923 
Q 1047 3722 1047 3438 
Q 1047 3191 1225 3031 
Q 1400 2872 2139 2705 
Q 2878 2538 3153 2413 
Q 3553 2228 3743 1945 
Q 3934 1663 3934 1294 
Q 3934 928 3725 604 
Q 3516 281 3123 101 
Q 2731 -78 2241 -78 
Q 1619 -78 1198 103 
Q 778 284 539 648 
Q 300 1013 288 1472 
z
" transform="scale(0.015625)"/>
       <path id="ArialMT-6f" d="M 213 1659 
Q 213 2581 725 3025 
Q 1153 3394 1769 3394 
Q 2453 3394 2887 2945 
Q 3322 2497 3322 1706 
Q 3322 1066 3130 698 
Q 2938 331 2570 128 
Q 2203 -75 1769 -75 
Q 1072 -75 642 372 
Q 213 819 213 1659 
z
M 791 1659 
Q 791 1022 1069 705 
Q 1347 388 1769 388 
Q 2188 388 2466 706 
Q 2744 1025 2744 1678 
Q 2744 2294 2464 2611 
Q 2184 2928 1769 2928 
Q 1347 2928 1069 2612 
Q 791 2297 791 1659 
z
" transform="scale(0.015625)"/>
       <path id="ArialMT-75" d="M 2597 0 
L 2597 488 
Q 2209 -75 1544 -75 
Q 1250 -75 995 37 
Q 741 150 617 320 
Q 494 491 444 738 
Q 409 903 409 1263 
L 409 3319 
L 972 3319 
L 972 1478 
Q 972 1038 1006 884 
Q 1059 663 1231 536 
Q 1403 409 1656 409 
Q 1909 409 2131 539 
Q 2353 669 2445 892 
Q 2538 1116 2538 1541 
L 2538 3319 
L 3100 3319 
L 3100 0 
L 2597 0 
z
" transform="scale(0.015625)"/>
       <path id="ArialMT-6e" d="M 422 0 
L 422 3319 
L 928 3319 
L 928 2847 
Q 1294 3394 1984 3394 
Q 2284 3394 2536 3286 
Q 2788 3178 2913 3003 
Q 3038 2828 3088 2588 
Q 3119 2431 3119 2041 
L 3119 0 
L 2556 0 
L 2556 2019 
Q 2556 2363 2490 2533 
Q 2425 2703 2258 2804 
Q 2091 2906 1866 2906 
Q 1506 2906 1245 2678 
Q 984 2450 984 1813 
L 984 0 
L 422 0 
z
" transform="scale(0.015625)"/>
       <path id="ArialMT-64" d="M 2575 0 
L 2575 419 
Q 2259 -75 1647 -75 
Q 1250 -75 917 144 
Q 584 363 401 755 
Q 219 1147 219 1656 
Q 219 2153 384 2558 
Q 550 2963 881 3178 
Q 1213 3394 1622 3394 
Q 1922 3394 2156 3267 
Q 2391 3141 2538 2938 
L 2538 4581 
L 3097 4581 
L 3097 0 
L 2575 0 
z
M 797 1656 
Q 797 1019 1065 703 
Q 1334 388 1700 388 
Q 2069 388 2326 689 
Q 2584 991 2584 1609 
Q 2584 2291 2321 2609 
Q 2059 2928 1675 2928 
Q 1300 2928 1048 2622 
Q 797 2316 797 1656 
z
" transform="scale(0.015625)"/>
       <path id="ArialMT-4c" d="M 469 0 
L 469 4581 
L 1075 4581 
L 1075 541 
L 3331 541 
L 3331 0 
L 469 0 
z
" transform="scale(0.015625)"/>
       <path id="ArialMT-76" d="M 1344 0 
L 81 3319 
L 675 3319 
L 1388 1331 
Q 1503 1009 1600 663 
Q 1675 925 1809 1294 
L 2547 3319 
L 3125 3319 
L 1869 0 
L 1344 0 
z
" transform="scale(0.015625)"/>
       <path id="ArialMT-6c" d="M 409 0 
L 409 4581 
L 972 4581 
L 972 0 
L 409 0 
z
" transform="scale(0.015625)"/>
       <path id="ArialMT-28" d="M 1497 -1347 
Q 1031 -759 709 28 
Q 388 816 388 1659 
Q 388 2403 628 3084 
Q 909 3875 1497 4659 
L 1900 4659 
Q 1522 4009 1400 3731 
Q 1209 3300 1100 2831 
Q 966 2247 966 1656 
Q 966 153 1900 -1347 
L 1497 -1347 
z
" transform="scale(0.015625)"/>
       <path id="ArialMT-52" d="M 503 0 
L 503 4581 
L 2534 4581 
Q 3147 4581 3465 4457 
Q 3784 4334 3975 4021 
Q 4166 3709 4166 3331 
Q 4166 2844 3850 2509 
Q 3534 2175 2875 2084 
Q 3116 1969 3241 1856 
Q 3506 1613 3744 1247 
L 4541 0 
L 3778 0 
L 3172 953 
Q 2906 1366 2734 1584 
Q 2563 1803 2427 1890 
Q 2291 1978 2150 2013 
Q 2047 2034 1813 2034 
L 1109 2034 
L 1109 0 
L 503 0 
z
M 1109 2559 
L 2413 2559 
Q 2828 2559 3062 2645 
Q 3297 2731 3419 2920 
Q 3541 3109 3541 3331 
Q 3541 3656 3305 3865 
Q 3069 4075 2559 4075 
L 1109 4075 
L 1109 2559 
z
" transform="scale(0.015625)"/>
       <path id="ArialMT-61" d="M 2588 409 
Q 2275 144 1986 34 
Q 1697 -75 1366 -75 
Q 819 -75 525 192 
Q 231 459 231 875 
Q 231 1119 342 1320 
Q 453 1522 633 1644 
Q 813 1766 1038 1828 
Q 1203 1872 1538 1913 
Q 2219 1994 2541 2106 
Q 2544 2222 2544 2253 
Q 2544 2597 2384 2738 
Q 2169 2928 1744 2928 
Q 1347 2928 1158 2789 
Q 969 2650 878 2297 
L 328 2372 
Q 403 2725 575 2942 
Q 747 3159 1072 3276 
Q 1397 3394 1825 3394 
Q 2250 3394 2515 3294 
Q 2781 3194 2906 3042 
Q 3031 2891 3081 2659 
Q 3109 2516 3109 2141 
L 3109 1391 
Q 3109 606 3145 398 
Q 3181 191 3288 0 
L 2700 0 
Q 2613 175 2588 409 
z
M 2541 1666 
Q 2234 1541 1622 1453 
Q 1275 1403 1131 1340 
Q 988 1278 909 1158 
Q 831 1038 831 891 
Q 831 666 1001 516 
Q 1172 366 1500 366 
Q 1825 366 2078 508 
Q 2331 650 2450 897 
Q 2541 1088 2541 1459 
L 2541 1666 
z
" transform="scale(0.015625)"/>
       <path id="ArialMT-77" d="M 1034 0 
L 19 3319 
L 600 3319 
L 1128 1403 
L 1325 691 
Q 1338 744 1497 1375 
L 2025 3319 
L 2603 3319 
L 3100 1394 
L 3266 759 
L 3456 1400 
L 4025 3319 
L 4572 3319 
L 3534 0 
L 2950 0 
L 2422 1988 
L 2294 2553 
L 1622 0 
L 1034 0 
z
" transform="scale(0.015625)"/>
       <path id="ArialMT-29" d="M 791 -1347 
L 388 -1347 
Q 1322 153 1322 1656 
Q 1322 2244 1188 2822 
Q 1081 3291 891 3722 
Q 769 4003 388 4659 
L 791 4659 
Q 1378 3875 1659 3084 
Q 1900 2403 1900 1659 
Q 1900 816 1576 28 
Q 1253 -759 791 -1347 
z
" transform="scale(0.015625)"/>
      </defs>
      <use xlink:href="#ArialMT-53"/>
      <use xlink:href="#ArialMT-6f" x="66.699219"/>
      <use xlink:href="#ArialMT-75" x="122.314453"/>
      <use xlink:href="#ArialMT-6e" x="177.929688"/>
      <use xlink:href="#ArialMT-64" x="233.544922"/>
      <use xlink:href="#ArialMT-20" x="289.160156"/>
      <use xlink:href="#ArialMT-4c" x="316.943359"/>
      <use xlink:href="#ArialMT-65" x="372.558594"/>
      <use xlink:href="#ArialMT-76" x="428.173828"/>
      <use xlink:href="#ArialMT-65" x="478.173828"/>
      <use xlink:href="#ArialMT-6c" x="533.789062"/>
      <use xlink:href="#ArialMT-20" x="556.005859"/>
      <use xlink:href="#ArialMT-28" x="583.789062"/>
      <use xlink:href="#ArialMT-52" x="617.089844"/>
      <use xlink:href="#ArialMT-61" x="689.306641"/>
      <use xlink:href="#ArialMT-77" x="744.921875"/>
      <use xlink:href="#ArialMT-29" x="817.138672"/>
     </g>
    </g>
   </g>
   <g id="line2d_15">
    <path d="M 138.436364 228.612299 
L 138.484997 228.612299 
L 155.7424 223.890816 
L 156.034361 223.418668 
L 156.324473 223.418668 
L 157.44732 226.723706 
L 157.738213 225.779409 
L 158.030225 225.307261 
L 158.320238 226.723706 
L 158.611092 227.195854 
L 158.861157 226.251558 
L 159.152217 227.195854 
L 159.444117 227.195854 
L 159.735487 225.307261 
L 160.024001 226.251558 
L 160.314507 227.668002 
L 160.606013 228.140151 
L 160.855327 227.195854 
L 161.146913 227.668002 
L 161.435849 225.779409 
L 161.726157 226.251558 
L 162.02589 226.251558 
L 162.307807 226.723706 
L 162.600031 225.779409 
L 162.891686 227.195854 
L 163.141712 222.474372 
L 163.432586 222.474372 
L 163.723187 228.612299 
L 164.012358 225.779409 
L 164.304989 224.362965 
L 164.596057 225.779409 
L 164.887378 228.140151 
L 165.137395 226.723706 
L 165.718209 226.723706 
L 166.009347 227.195854 
L 166.297899 226.723706 
L 166.588652 225.779409 
L 167.131371 227.195854 
L 167.422548 226.251558 
L 167.713567 226.723706 
L 168.004055 226.723706 
L 168.295134 227.195854 
L 168.583725 226.723706 
L 168.876295 226.723706 
L 169.124647 227.195854 
L 169.41614 226.251558 
L 169.707656 226.723706 
L 169.997364 226.251558 
L 170.289607 226.251558 
L 170.580382 227.195854 
L 171.12114 226.251558 
L 171.411479 227.195854 
L 171.702668 227.195854 
L 171.993898 226.723706 
L 175.404373 226.723706 
L 175.692092 227.195854 
L 176.565506 227.195854 
L 176.854416 226.723706 
L 177.152543 227.195854 
L 177.397041 226.723706 
L 177.976752 226.723706 
L 178.270305 226.251558 
L 178.560143 226.723706 
L 180.844305 226.723706 
L 181.136164 227.195854 
L 181.426148 226.723706 
L 183.130995 226.723706 
L 183.424477 227.195854 
L 183.671996 228.140151 
L 183.963594 226.251558 
L 184.2541 226.723706 
L 184.543707 226.723706 
L 184.836553 228.140151 
L 185.127255 227.668002 
L 185.665569 227.668002 
L 185.95761 224.362965 
L 186.249347 226.251558 
L 186.540393 226.251558 
L 186.831403 225.779409 
L 187.122166 226.251558 
L 187.411973 227.195854 
L 187.66069 229.084447 
L 187.954448 225.779409 
L 188.243477 227.195854 
L 188.535081 225.779409 
L 188.826425 228.140151 
L 189.116486 229.084447 
L 189.408074 222.94652 
L 189.657682 226.723706 
L 189.947511 224.835113 
L 190.240995 228.612299 
L 190.530024 225.779409 
L 190.819608 229.556595 
L 191.110555 225.779409 
L 191.400984 226.723706 
L 191.694466 226.251558 
L 191.943733 225.307261 
L 192.526557 227.668002 
L 193.10789 223.418668 
L 193.398766 226.251558 
L 193.689721 225.779409 
L 193.938955 228.612299 
L 194.229721 230.028743 
L 194.521954 226.723706 
L 194.811803 228.612299 
L 195.103219 222.94652 
L 195.392296 228.140151 
L 195.933554 224.362965 
L 196.224305 228.612299 
L 196.513974 225.307261 
L 197.096819 227.195854 
L 197.38754 226.723706 
L 198.510191 226.723706 
L 198.801402 226.251558 
L 199.091434 226.723706 
L 201.086814 226.723706 
L 201.377959 227.195854 
L 201.666959 226.723706 
L 202.207372 226.723706 
L 202.498145 227.668002 
L 202.789428 226.723706 
L 203.661797 226.723706 
L 203.953547 228.140151 
L 204.204018 228.612299 
L 204.49531 226.251558 
L 204.784409 226.723706 
L 205.365763 226.723706 
L 205.656669 227.195854 
L 205.947524 228.140151 
L 206.199589 226.723706 
L 215.049815 226.723706 
L 215.34072 225.779409 
L 215.632173 224.362965 
L 215.922268 230.97304 
L 216.463657 236.638819 
L 216.753089 217.280741 
L 217.043985 238.055263 
L 217.334738 182.341772 
L 217.833409 221.530075 
L 218.082573 266.384157 
L 218.374035 241.360301 
L 218.665468 233.805929 
L 218.955297 254.108303 
L 219.537394 191.784737 
L 219.995847 234.750226 
L 220.286192 230.028743 
L 220.577395 207.365628 
L 220.86839 239.471708 
L 221.158089 216.336445 
L 221.410691 213.031407 
L 221.701749 230.028743 
L 221.992188 236.166671 
L 222.282452 235.694522 
L 222.57277 236.166671 
L 222.864731 229.556595 
L 223.155868 233.333781 
L 223.698058 222.94652 
L 223.988499 225.307261 
L 224.278265 223.890816 
L 224.570339 227.195854 
L 224.859569 225.779409 
L 225.693101 227.195854 
L 225.983052 227.195854 
L 226.272842 226.723706 
L 226.564994 227.195854 
L 226.854104 226.723706 
L 227.142992 226.723706 
L 227.436564 227.195854 
L 227.687444 226.723706 
L 227.977123 227.195854 
L 228.269236 226.723706 
L 228.558731 226.723706 
L 228.851178 227.195854 
L 229.141648 227.195854 
L 229.428981 226.723706 
L 230.260951 226.723706 
L 230.552079 227.195854 
L 230.842728 227.195854 
L 231.133825 226.723706 
L 231.424012 227.195854 
L 231.679691 227.195854 
L 231.965023 226.723706 
L 232.255566 227.195854 
L 232.547679 226.723706 
L 232.838084 227.195854 
L 233.418831 227.195854 
L 233.668431 226.723706 
L 235.415072 226.723706 
L 235.663564 227.195854 
L 235.955769 232.389485 
L 236.245213 205.949184 
L 236.535754 248.914673 
L 236.827867 243.721042 
L 237.40985 209.726369 
L 237.70047 228.612299 
L 237.951795 207.365628 
L 238.243085 199.811257 
L 238.742437 281.492901 
L 239.28356 208.309925 
L 239.574458 257.413341 
L 239.864167 188.951847 
L 240.362309 238.527412 
L 240.611726 241.832449 
L 240.904588 279.13216 
L 241.485263 204.532739 
L 241.775764 255.524748 
L 242.06676 196.506219 
L 242.523517 194.617626 
L 243.022901 238.527412 
L 243.27245 221.530075 
L 243.563406 236.638819 
L 243.854999 219.169334 
L 244.144403 233.805929 
L 244.436702 235.222374 
L 244.727373 231.917336 
L 245.01779 230.97304 
L 245.309465 223.890816 
L 245.557686 232.861633 
L 245.852082 238.99956 
L 246.139945 229.084447 
L 246.431083 223.890816 
L 246.722383 226.251558 
L 247.012611 227.668002 
L 247.303819 225.307261 
L 247.553772 228.140151 
L 247.843928 227.195854 
L 248.135837 226.723706 
L 248.426743 227.195854 
L 248.715305 227.195854 
L 249.007205 226.723706 
L 249.298812 227.195854 
L 249.549111 226.723706 
L 249.838514 229.084447 
L 250.129814 226.723706 
L 250.422051 227.195854 
L 250.713077 226.723706 
L 251.003018 227.195854 
L 251.294339 226.723706 
L 251.54331 227.195854 
L 251.834693 226.723706 
L 252.125211 228.612299 
L 252.706771 226.251558 
L 253.28776 227.195854 
L 253.828761 227.195854 
L 254.119677 228.612299 
L 254.410541 227.195854 
L 254.99354 227.195854 
L 255.283999 226.723706 
L 255.821509 226.723706 
L 256.114181 227.668002 
L 256.405464 228.140151 
L 256.696885 226.723706 
L 256.987029 227.195854 
L 257.277579 226.251558 
L 257.569084 227.195854 
L 258.110988 227.195854 
L 258.398413 228.140151 
L 258.691026 226.723706 
L 259.564694 226.723706 
L 259.813605 227.668002 
L 260.105848 228.140151 
L 260.396814 224.835113 
L 260.687367 227.195854 
L 260.975824 225.779409 
L 261.267584 226.723706 
L 261.559331 227.195854 
L 261.809793 226.723706 
L 262.390731 226.723706 
L 262.681992 241.832449 
L 262.972593 233.333781 
L 263.263276 208.309925 
L 263.554109 266.856306 
L 263.844456 186.591106 
L 264.301508 145.042061 
L 264.634346 277.243567 
L 264.925719 272.049936 
L 265.217152 304.628164 
L 265.507816 202.644146 
L 265.799196 249.386821 
L 266.088785 150.70784 
L 266.422569 279.604308 
L 267.003628 218.697186 
L 267.29508 251.275414 
L 267.544559 206.89348 
L 267.836348 239.471708 
L 268.127343 198.86696 
L 268.625041 230.500892 
L 268.874793 234.278078 
L 269.456839 211.614962 
L 269.747053 248.914673 
L 270.038873 188.951847 
L 270.496047 243.248894 
L 270.786889 226.723706 
L 271.077154 230.028743 
L 271.368902 222.94652 
L 271.657942 226.723706 
L 271.948816 224.362965 
L 272.240806 227.195854 
L 272.780987 226.251558 
L 273.363367 227.195854 
L 273.654689 228.612299 
L 273.944944 227.195854 
L 279.34882 227.195854 
L 279.638729 228.612299 
L 279.929857 226.723706 
L 280.220833 227.668002 
L 280.510471 227.195854 
L 281.343445 227.195854 
L 281.633528 228.612299 
L 281.921115 227.195854 
L 282.215117 226.723706 
L 282.506267 226.723706 
L 282.755995 227.195854 
L 283.047114 227.195854 
L 283.33735 229.084447 
L 283.629999 227.668002 
L 283.919405 232.389485 
L 284.207672 229.556595 
L 284.500355 228.140151 
L 285.415684 144.569913 
L 285.747722 165.816584 
L 286.081537 321.625501 
L 286.3714 95.466497 
L 296.18031 226.251558 
L 296.721374 226.251558 
L 297.012401 226.723706 
L 297.302576 226.723706 
L 297.594243 227.195854 
L 297.884914 226.723706 
L 298.175261 227.668002 
L 298.715075 226.723706 
L 299.006003 227.195854 
L 299.297864 226.723706 
L 299.587458 227.195854 
L 301.001946 227.195854 
L 301.292092 226.723706 
L 301.581394 228.140151 
L 301.873507 233.333781 
L 302.164555 304.156016 
L 302.455754 173.843104 
L 302.787924 204.532739 
L 303.079115 242.304598 
L 303.37003 181.869624 
L 303.827458 173.843104 
L 304.160076 228.140151 
L 304.450592 199.811257 
L 304.94881 291.408014 
L 305.239645 149.291395 
L 305.572829 279.13216 
L 305.863328 197.450515 
L 306.322055 208.782073 
L 306.612738 225.307261 
L 306.903368 264.023416 
L 307.194547 130.877614 
L 307.527123 264.967713 
L 307.816851 202.644146 
L 308.107737 265.439861 
L 308.399717 283.853642 
L 308.981112 188.479699 
L 309.729535 224.362965 
L 310.020634 224.835113 
L 310.31012 228.140151 
L 310.561222 225.307261 
L 310.85108 228.140151 
L 311.142707 228.612299 
L 311.434038 227.668002 
L 311.72415 227.195854 
L 312.01456 227.668002 
L 312.306056 227.195854 
L 314.007361 227.195854 
L 314.298185 229.084447 
L 314.588837 227.195854 
L 316.002879 227.195854 
L 316.293887 228.140151 
L 316.8337 226.723706 
L 317.124142 227.195854 
L 317.706224 227.195854 
L 317.996745 229.556595 
L 318.828531 227.195854 
L 322.568549 227.195854 
L 322.860186 226.723706 
L 323.109766 227.195854 
L 323.691493 227.195854 
L 323.981912 226.251558 
L 324.564089 205.004887 
L 324.855239 223.890816 
L 325.104786 248.914673 
L 325.395984 224.362965 
L 325.9808 209.254221 
L 326.271229 239.943856 
L 326.56183 206.89348 
L 326.851275 211.142814 
L 327.394591 252.21971 
L 327.683496 222.94652 
L 327.975529 231.917336 
L 328.26485 236.166671 
L 328.847707 213.975704 
L 329.097733 221.530075 
L 329.38805 223.890816 
L 329.679544 230.97304 
L 329.970733 222.002224 
L 330.260511 224.362965 
L 330.552046 228.612299 
L 330.842506 228.612299 
L 331.132773 229.084447 
L 331.384492 227.668002 
L 331.674626 227.195854 
L 332.25608 227.195854 
L 332.545771 227.668002 
L 332.834424 227.195854 
L 333.375312 229.084447 
L 333.66847 227.195854 
L 333.959001 227.668002 
L 334.250819 227.195854 
L 334.831474 227.195854 
L 335.123494 229.084447 
L 335.373571 226.723706 
L 335.664356 227.195854 
L 336.246269 227.195854 
L 336.536848 227.668002 
L 336.827845 228.612299 
L 337.116985 229.084447 
L 337.368482 226.723706 
L 337.658323 227.195854 
L 338.530692 227.195854 
L 338.822766 228.140151 
L 339.111896 226.723706 
L 339.404546 226.723706 
L 339.653355 227.195854 
L 342.228485 227.195854 
L 342.519429 226.723706 
L 342.812333 227.195854 
L 343.102772 226.723706 
L 343.393605 226.723706 
L 343.9348 208.309925 
L 344.225553 222.474372 
L 344.516125 259.301934 
L 344.807902 204.532739 
L 345.097712 264.967713 
L 345.638188 185.646809 
L 346.136179 187.063254 
L 346.594172 215.864296 
L 346.885455 190.368292 
L 347.383013 212.087111 
L 347.67418 292.824459 
L 347.924072 250.331118 
L 348.215121 266.856306 
L 348.506017 217.752889 
L 348.796153 248.442525 
L 349.088568 246.553932 
L 349.379169 221.530075 
L 349.669901 227.195854 
L 349.918874 229.084447 
L 350.210631 226.251558 
L 350.501779 225.779409 
L 350.79238 225.779409 
L 351.083346 226.251558 
L 351.664843 228.140151 
L 351.914351 226.723706 
L 352.205873 226.723706 
L 352.494539 227.195854 
L 352.786511 226.723706 
L 353.368971 226.723706 
L 353.659023 227.668002 
L 353.909433 226.723706 
L 354.200351 226.251558 
L 354.491387 226.723706 
L 355.072974 226.723706 
L 355.654858 227.668002 
L 355.904874 226.723706 
L 357.649766 226.723706 
L 357.940176 226.251558 
L 358.190678 226.723706 
L 361.056245 226.723706 
L 361.345883 226.251558 
L 361.637316 210.670666 
L 361.929216 224.362965 
L 362.180855 223.418668 
L 362.468797 177.148141 
L 362.969354 274.882826 
L 363.26025 191.784737 
L 363.717029 352.315136 
L 364.008179 144.097765 
L 364.341119 193.673329 
L 364.839436 231.917336 
L 365.13024 264.023416 
L 365.377849 318.320463 
L 365.670441 267.328454 
L 365.961913 114.352426 
L 375.728648 225.779409 
L 376.310602 225.779409 
L 376.60161 226.251558 
L 376.892769 226.251558 
L 377.183643 227.195854 
L 377.474365 227.668002 
L 377.724391 226.723706 
L 378.59593 226.723706 
L 378.888135 227.195854 
L 379.178126 226.723706 
L 379.469641 228.140151 
L 379.760223 226.251558 
L 380.009842 228.140151 
L 380.302685 226.723706 
L 380.592181 226.723706 
L 380.88201 222.94652 
L 381.173878 229.084447 
L 381.464438 221.530075 
L 381.754816 225.307261 
L 382.005636 206.421332 
L 382.296488 230.500892 
L 382.586066 228.140151 
L 382.875167 231.917336 
L 383.168658 222.94652 
L 383.459196 233.805929 
L 383.749739 231.445188 
L 383.999692 223.418668 
L 384.290862 217.752889 
L 384.872337 234.278078 
L 385.162858 224.835113 
L 385.453785 229.084447 
L 385.742853 228.140151 
L 385.995365 225.307261 
L 386.285214 226.251558 
L 386.86807 226.251558 
L 387.158497 226.723706 
L 387.449831 226.251558 
L 390.025832 226.251558 
L 390.276242 228.140151 
L 390.567087 226.251558 
L 393.724573 226.251558 
L 394.017286 228.140151 
L 394.263637 226.251558 
L 394.556575 225.779409 
L 394.847611 226.251558 
L 395.720621 226.251558 
L 396.010339 227.668002 
L 396.261127 229.556595 
L 396.551461 222.94652 
L 396.841394 212.087111 
L 397.134117 208.309925 
L 397.424524 316.904019 
L 397.714789 141.737024 
L 398.048127 270.161343 
L 398.628529 199.811257 
L 399.086118 210.670666 
L 399.377945 185.646809 
L 399.875573 181.869624 
L 400.333375 328.707724 
L 400.624525 270.633492 
L 400.914647 281.492901 
L 401.205371 323.041946 
L 401.49709 215.392148 
L 401.747307 255.996896 
L 402.037472 205.949184 
L 402.328966 225.307261 
L 402.619852 226.251558 
L 402.909418 226.723706 
L 403.201175 224.362965 
L 403.49121 224.835113 
L 403.740442 224.362965 
L 404.032526 225.779409 
L 404.323228 226.251558 
L 404.613575 227.668002 
L 404.904977 227.195854 
L 405.195507 226.251558 
L 406.609722 226.251558 
L 406.900243 227.668002 
L 407.190752 226.251558 
L 408.603638 226.251558 
L 408.895751 228.140151 
L 409.186231 225.779409 
L 409.475736 225.779409 
L 409.767941 227.668002 
L 410.018586 226.723706 
L 410.30737 226.251558 
L 410.598346 227.668002 
L 410.890875 225.779409 
L 411.470939 225.779409 
L 411.762912 226.251558 
L 412.012461 225.779409 
L 412.303558 226.251558 
L 412.884477 226.251558 
L 413.173972 225.779409 
L 413.46719 227.195854 
L 413.756654 227.195854 
L 414.006651 238.055263 
L 414.302324 229.556595 
L 414.877621 238.055263 
L 415.170322 228.140151 
L 415.461116 232.861633 
L 416.00221 221.057927 
L 416.293229 225.307261 
L 416.582761 225.307261 
L 416.872481 221.530075 
L 417.163406 230.500892 
L 417.454261 231.917336 
L 417.744801 231.917336 
L 417.994421 222.002224 
L 418.285481 228.612299 
L 418.57661 226.251558 
L 418.866935 228.612299 
L 419.157618 225.779409 
L 419.449019 225.307261 
L 419.739835 226.251558 
L 420.029989 225.779409 
L 420.279782 226.251558 
L 420.570768 225.779409 
L 420.861865 226.251558 
L 422.0257 226.251558 
L 422.27531 225.779409 
L 423.148027 225.779409 
L 423.439237 227.668002 
L 423.729652 227.195854 
L 424.020265 225.779409 
L 424.270037 225.779409 
L 424.561378 226.251558 
L 424.852073 225.779409 
L 425.142996 226.251558 
L 425.433933 228.140151 
L 425.724889 225.779409 
L 426.265172 225.779409 
L 426.559547 226.251558 
L 426.848972 226.251558 
L 427.139967 225.779409 
L 427.431623 227.668002 
L 428.013434 225.307261 
L 428.554254 226.251558 
L 428.846094 270.161343 
L 429.136044 275.354974 
L 429.426292 363.174545 
L 429.717043 349.954395 
L 430.007208 200.283405 
L 430.549397 322.097649 
L 430.839369 319.26476 
L 431.419345 163.455843 
L 431.753148 221.530075 
L 432.044085 169.121621 
L 432.418311 263.07912 
L 432.669147 251.747562 
L 432.958886 266.856306 
L 433.250888 216.336445 
L 433.539297 218.225038 
L 433.832515 230.028743 
L 434.122064 224.835113 
L 434.703854 224.835113 
L 435.245849 226.723706 
L 435.533458 226.723706 
L 435.824262 227.195854 
L 436.408255 226.251558 
L 436.699069 226.723706 
L 436.948526 226.723706 
L 437.240598 226.251558 
L 439.817816 226.251558 
L 440.107362 226.723706 
L 440.398754 226.251558 
L 444.969605 226.251558 
L 445.220454 226.723706 
L 445.510991 226.251558 
L 445.801379 226.723706 
L 446.092592 226.251558 
L 448.087917 226.251558 
L 448.66923 227.195854 
L 448.960348 227.195854 
L 449.209929 226.251558 
L 449.501147 226.251558 
L 449.792207 226.723706 
L 450.082351 225.307261 
L 450.372659 205.477035 
L 450.664944 308.40535 
L 450.954306 245.137487 
L 451.203986 286.214383 
L 451.495044 72.803382 
L 461.30332 225.779409 
L 461.844108 225.779409 
L 462.136282 225.307261 
L 462.717341 226.251558 
L 463.008377 226.251558 
L 463.298937 228.140151 
L 463.589937 226.251558 
L 463.840023 226.251558 
L 464.13104 225.779409 
L 464.419357 226.251558 
L 464.999574 226.251558 
L 465.293291 226.723706 
L 465.834254 225.779409 
L 466.125319 226.251558 
L 466.416075 226.251558 
L 466.705101 226.723706 
L 467.829721 226.723706 
L 468.120392 226.251558 
L 468.41137 226.723706 
L 468.701797 226.251558 
L 468.992642 226.723706 
L 469.57553 226.723706 
L 469.825098 226.251558 
L 470.115668 226.251558 
L 470.405671 228.612299 
L 470.69745 226.251558 
L 470.988293 226.723706 
L 472.982829 226.723706 
L 473.274252 224.835113 
L 473.564993 226.251558 
L 473.854977 274.882826 
L 474.107064 267.328454 
L 474.395664 221.057927 
L 474.68798 359.869508 
L 474.978305 141.737024 
L 475.311056 66.665455 
L 485.115851 226.251558 
L 486.241148 226.251558 
L 486.532197 226.723706 
L 486.822553 228.140151 
L 487.11365 226.251558 
L 487.40331 226.723706 
L 489.109436 226.723706 
L 489.399377 226.251558 
L 489.648196 226.723706 
L 489.940976 226.251558 
L 490.231618 226.723706 
L 490.520852 226.723706 
L 490.812467 227.195854 
L 491.103909 226.723706 
L 495.676241 226.723706 
L 495.925619 227.195854 
L 496.215854 226.723706 
L 497.378814 226.723706 
L 497.669831 227.195854 
L 497.920549 227.195854 
L 498.211626 226.723706 
L 498.501608 227.195854 
L 498.793205 226.723706 
L 499.083845 226.723706 
L 499.373502 227.195854 
L 499.66525 226.723706 
L 499.915498 226.723706 
L 500.206353 227.195854 
L 500.496905 227.195854 
L 500.788072 226.723706 
L 501.077884 226.723706 
L 501.369407 227.195854 
L 501.660373 228.612299 
L 501.910561 226.723706 
L 502.200066 226.723706 
L 502.490819 227.195854 
L 503.073857 227.195854 
L 503.364458 228.612299 
L 503.655303 229.084447 
L 503.945955 227.195854 
L 504.195098 226.723706 
L 504.487252 227.195854 
L 504.775845 230.500892 
L 505.069002 224.362965 
L 505.358924 221.057927 
L 505.649829 211.614962 
L 505.939862 210.670666 
L 506.190862 240.416005 
L 506.481502 216.808593 
L 506.772582 247.970376 
L 507.354209 216.336445 
L 507.643867 214.92 
L 507.934903 221.530075 
L 508.186351 221.057927 
L 508.476383 220.113631 
L 508.767969 238.99956 
L 509.348592 227.195854 
L 509.640146 226.251558 
L 509.93097 227.195854 
L 510.180408 226.723706 
L 514.211586 226.723706 
L 514.461783 226.251558 
L 514.75281 226.723706 
L 515.91344 226.723706 
L 516.206395 228.612299 
L 516.454635 226.723706 
L 516.746129 226.251558 
L 517.038273 226.723706 
L 517.91039 226.723706 
L 518.201801 228.612299 
L 518.450944 226.723706 
L 518.74178 226.251558 
L 519.032765 226.723706 
L 519.323468 226.251558 
L 519.614068 226.723706 
L 519.903392 226.723706 
L 520.195464 228.140151 
L 520.445714 226.251558 
L 521.319039 226.251558 
L 521.610147 226.723706 
L 521.899967 228.140151 
L 522.191632 226.251558 
L 523.023114 226.251558 
L 523.314823 226.723706 
L 523.896377 226.723706 
L 524.186749 226.251558 
L 524.476839 226.251558 
L 524.727697 226.723706 
L 525.017376 226.251558 
L 525.307297 226.723706 
L 527.01128 226.723706 
L 527.304136 238.055263 
L 527.594674 218.697186 
L 527.885548 214.447852 
L 528.176384 233.333781 
L 528.465666 239.471708 
L 528.716251 206.89348 
L 529.008637 253.164007 
L 529.300191 248.442525 
L 529.590083 247.970376 
L 529.880846 195.089774 
L 530.338851 246.081783 
L 530.629027 242.304598 
L 530.919659 214.447852 
L 531.211089 226.723706 
L 531.500607 224.362965 
L 531.791989 224.835113 
L 532.333152 229.556595 
L 532.624211 226.723706 
L 532.915148 226.251558 
L 533.204672 226.251558 
L 533.496886 227.195854 
L 533.787964 226.723706 
L 534.077958 226.723706 
L 534.32852 226.251558 
L 534.61901 226.251558 
L 535.20071 228.140151 
L 535.492344 227.195854 
L 535.782142 226.723706 
L 536.904998 226.723706 
L 537.19572 227.668002 
L 537.485965 227.668002 
L 537.774517 226.251558 
L 538.065747 226.723706 
L 538.315357 226.723706 
L 538.606294 227.195854 
L 538.898769 228.140151 
L 539.190732 227.668002 
L 539.480462 228.140151 
L 539.772553 226.251558 
L 540.06208 226.723706 
L 541.185897 226.723706 
L 541.476519 226.251558 
L 541.766774 226.723706 
L 548.333284 226.723706 
L 548.584033 225.307261 
L 548.874997 219.169334 
L 549.16433 224.362965 
L 549.456685 226.723706 
L 549.747743 221.530075 
L 550.038547 238.99956 
L 550.328601 231.917336 
L 550.618643 230.500892 
L 550.869015 235.222374 
L 551.16054 224.362965 
L 551.451557 234.750226 
L 551.741236 223.418668 
L 552.323664 227.195854 
L 552.612934 226.723706 
L 552.864758 226.723706 
L 553.155958 227.668002 
L 553.445238 225.779409 
L 553.73731 227.668002 
L 554.028097 226.723706 
L 554.318098 226.251558 
L 554.609582 226.251558 
L 554.860084 226.723706 
L 555.15038 226.723706 
L 555.439844 228.140151 
L 555.730832 227.668002 
L 556.021665 227.668002 
L 556.313698 226.251558 
L 556.605102 226.723706 
L 557.145189 226.723706 
L 557.436368 227.668002 
L 557.726715 227.195854 
L 558.017643 226.251558 
L 558.598956 226.251558 
L 558.890561 226.723706 
L 559.721048 226.723706 
L 560.01229 226.251558 
L 560.303933 226.251558 
L 560.594454 226.723706 
L 564.875496 226.723706 
L 565.124549 226.251558 
L 565.416488 226.723706 
L 567.992315 226.723706 
L 568.280825 223.418668 
L 568.573093 218.697186 
L 568.863834 217.752889 
L 569.155388 231.917336 
L 569.404695 223.890816 
L 569.696685 235.694522 
L 569.98747 206.421332 
L 570.278687 192.256885 
L 570.735435 227.668002 
L 571.027033 231.917336 
L 571.317713 191.784737 
L 571.816405 253.164007 
L 572.065335 250.803266 
L 572.357104 215.392148 
L 572.647889 223.418668 
L 572.937801 222.94652 
L 573.229333 228.140151 
L 573.520217 227.195854 
L 573.810302 228.140151 
L 574.061322 227.668002 
L 574.352675 227.668002 
L 574.641835 226.723706 
L 574.933703 227.195854 
L 575.223249 227.195854 
L 575.514774 227.668002 
L 575.805982 226.723706 
L 576.054416 226.723706 
L 576.346691 228.140151 
L 576.636673 226.723706 
L 577.510437 226.723706 
L 577.801007 227.195854 
L 578.090543 226.723706 
L 578.632578 226.723706 
L 578.923058 227.195854 
L 579.212959 226.723706 
L 579.505079 226.723706 
L 579.795054 227.195854 
L 580.336766 227.195854 
L 580.627691 226.723706 
L 581.500338 226.723706 
L 581.790632 227.195854 
L 582.082484 226.723706 
L 582.331849 226.723706 
L 582.622815 227.195854 
L 582.912298 226.251558 
L 583.204484 226.723706 
L 585.48895 226.723706 
L 585.781469 226.251558 
L 586.361645 227.195854 
L 586.612322 226.723706 
L 587.775691 226.723706 
L 588.066127 227.668002 
L 588.606979 226.723706 
L 589.770023 226.723706 
L 590.060389 227.668002 
L 590.352642 227.668002 
L 590.602702 226.251558 
L 590.893666 226.723706 
L 591.76617 226.723706 
L 592.054995 227.195854 
L 592.346428 226.251558 
L 592.597702 226.251558 
L 592.888637 226.723706 
L 594.052076 226.723706 
L 594.341235 228.612299 
L 594.592937 211.142814 
L 594.883376 207.365628 
L 595.174281 259.774082 
L 595.465562 279.604308 
L 595.755899 226.723706 
L 596.044928 217.280741 
L 596.336068 247.02608 
L 596.628544 219.169334 
L 596.877384 219.641482 
L 597.167932 229.556595 
L 597.459631 263.551268 
L 597.750099 245.609635 
L 598.040992 241.360301 
L 598.331535 216.808593 
L 598.622845 224.835113 
L 598.872861 225.307261 
L 599.454926 227.195854 
L 599.744707 225.779409 
L 600.036738 226.723706 
L 600.327297 226.251558 
L 600.617238 226.251558 
L 600.868328 226.723706 
L 602.031515 226.723706 
L 602.321417 227.195854 
L 602.613164 226.723706 
L 606.31013 226.723706 
L 606.603402 228.140151 
L 606.89394 227.195854 
L 607.142983 228.612299 
L 607.434366 226.723706 
L 608.01646 226.723706 
L 608.307363 228.140151 
L 608.59757 227.195854 
L 608.888243 227.195854 
L 609.138562 226.723706 
L 610.302782 226.723706 
L 610.59323 227.195854 
L 610.883773 226.723706 
L 615.414867 226.723706 
L 615.70481 224.362965 
L 615.995169 219.641482 
L 616.286863 223.890816 
L 616.57638 243.248894 
L 616.869071 179.036734 
L 617.326479 289.991569 
L 617.616967 253.164007 
L 617.907843 199.811257 
L 618.364874 223.418668 
L 618.655942 206.421332 
L 618.946949 233.333781 
L 619.237366 213.031407 
L 619.52876 242.304598 
L 619.817869 237.583115 
L 620.068961 229.084447 
L 620.361072 227.668002 
L 620.649553 225.307261 
L 621.232816 226.251558 
L 621.523093 225.779409 
L 621.813481 226.251558 
L 622.064682 227.195854 
L 622.354248 226.723706 
L 622.937511 228.612299 
L 623.225228 226.723706 
L 623.515727 226.251558 
L 623.807059 226.723706 
L 624.097043 226.723706 
L 624.34716 227.668002 
L 624.638337 227.668002 
L 624.929395 226.251558 
L 625.219715 226.251558 
L 625.510742 226.723706 
L 625.801231 226.251558 
L 626.092217 228.140151 
L 626.342153 227.195854 
L 626.633148 227.668002 
L 626.924156 226.251558 
L 627.213791 226.251558 
L 627.505986 226.723706 
L 627.796161 226.723706 
L 628.087461 226.251558 
L 628.338179 226.723706 
L 628.628221 226.251558 
L 631.786977 226.251558 
L 632.077617 226.723706 
L 632.368624 226.251558 
L 634.364732 226.251558 
L 634.615101 225.779409 
L 634.907519 226.251558 
L 638.605796 226.251558 
L 638.896893 227.195854 
L 639.187394 226.251558 
L 640.598413 226.251558 
L 640.889633 228.140151 
L 641.182641 226.251558 
L 641.473636 225.779409 
L 641.763923 226.251558 
L 642.345894 226.251558 
L 642.637155 228.140151 
L 642.887082 226.251558 
L 643.467613 226.251558 
L 643.7593 225.779409 
L 644.050419 226.251558 
L 644.339365 226.251558 
L 644.630626 228.140151 
L 644.880217 225.779409 
L 645.171872 225.779409 
L 645.46363 226.723706 
L 645.753074 218.697186 
L 646.044069 205.004887 
L 646.334721 199.339108 
L 646.793682 186.591106 
L 647.291225 221.530075 
L 647.537893 206.421332 
L 647.832565 230.97304 
L 648.122455 215.392148 
L 648.412284 234.278078 
L 648.703949 235.694522 
L 648.995525 226.251558 
L 649.286796 204.060591 
L 649.536669 225.307261 
L 649.827473 222.002224 
L 650.11857 227.668002 
L 650.409386 225.307261 
L 650.700038 226.251558 
L 650.991045 226.251558 
L 651.28137 225.779409 
L 651.572612 226.251558 
L 651.822728 225.779409 
L 652.113887 226.251558 
L 652.986067 226.251558 
L 653.276758 227.195854 
L 653.567412 226.251558 
L 656.393913 226.251558 
L 656.685317 228.140151 
L 656.975867 226.251558 
L 658.388969 226.251558 
L 658.679741 227.668002 
L 658.970403 226.251558 
L 659.261195 225.779409 
L 659.842684 225.779409 
L 660.092212 227.195854 
L 660.382892 227.668002 
L 660.674122 226.251558 
L 661.255539 226.251558 
L 661.546455 225.779409 
L 661.837522 226.251558 
L 662.669207 226.251558 
L 662.960526 225.779409 
L 664.083037 225.779409 
L 664.373038 226.251558 
L 664.663985 225.779409 
L 667.240472 225.779409 
L 667.535538 240.416005 
L 667.822832 231.445188 
L 668.07302 266.856306 
L 668.363914 258.357638 
L 668.654435 204.532739 
L 668.945665 206.89348 
L 669.236224 193.673329 
L 669.690972 238.527412 
L 669.983259 213.975704 
L 670.275168 209.726369 
L 670.566064 221.057927 
L 670.85711 205.477035 
L 671.147012 227.195854 
L 671.438111 230.028743 
L 671.688502 222.474372 
L 671.979456 226.723706 
L 672.562201 225.779409 
L 672.851414 226.251558 
L 673.143028 225.307261 
L 673.433902 226.251558 
L 673.972969 225.307261 
L 674.265536 225.779409 
L 674.555733 225.307261 
L 674.847814 225.779409 
L 675.428358 225.779409 
L 675.679286 226.251558 
L 675.970018 225.307261 
L 676.257708 225.779409 
L 676.551648 225.307261 
L 676.84242 225.779409 
L 677.131267 225.779409 
L 677.423126 226.723706 
L 677.71401 225.307261 
L 677.963804 227.195854 
L 678.254383 225.307261 
L 678.545329 225.307261 
L 678.836559 225.779409 
L 679.418758 225.779409 
L 679.709835 226.251558 
L 679.960052 225.307261 
L 680.249731 225.779409 
L 689.683868 225.779409 
L 689.97505 226.251558 
L 690.225022 225.779409 
L 691.388531 225.779409 
L 691.679113 216.808593 
L 691.969128 233.333781 
L 692.220564 232.861633 
L 692.51021 222.002224 
L 692.801652 200.755553 
L 693.092701 198.394812 
L 693.549569 253.164007 
L 693.840182 259.774082 
L 694.132302 233.333781 
L 694.422814 241.832449 
L 694.71385 219.169334 
L 695.004482 241.360301 
L 695.545453 234.278078 
L 695.836024 217.280741 
L 696.12692 224.362965 
L 696.417652 223.418668 
L 696.709066 227.668002 
L 696.999819 225.779409 
L 697.290217 225.307261 
L 697.58103 225.779409 
L 697.828235 225.779409 
L 698.121983 226.251558 
L 698.411936 225.779409 
L 698.705162 226.251558 
L 698.994422 226.251558 
L 699.284762 225.779409 
L 699.575626 226.251558 
L 699.825611 225.779409 
L 700.115989 226.251558 
L 701.571045 226.251558 
L 701.82049 225.779409 
L 702.112238 225.779409 
L 702.40271 226.251558 
L 702.984662 226.251558 
L 703.275505 225.779409 
L 706.392803 225.779409 
L 706.683416 226.251558 
L 707.266088 226.251558 
L 707.555959 225.779409 
L 707.844012 226.251558 
L 708.968925 226.251558 
L 709.259973 227.195854 
L 709.549965 227.195854 
L 709.841724 225.779409 
L 710.382024 226.723706 
L 710.67352 226.251558 
L 710.963349 226.723706 
L 711.255046 226.251558 
L 711.545698 227.195854 
L 711.836613 225.779409 
L 712.086813 226.251558 
L 712.668024 226.251558 
L 712.959578 227.668002 
L 713.250242 226.251558 
L 713.539837 226.251558 
L 713.831403 250.331118 
L 714.081772 237.583115 
L 714.371744 241.360301 
L 714.663511 239.471708 
L 714.953473 233.805929 
L 715.244076 193.201181 
L 715.701695 274.882826 
L 715.992095 177.148141 
L 716.491128 197.450515 
L 716.948447 207.365628 
L 717.240165 243.248894 
L 717.531037 230.028743 
L 717.82016 225.779409 
L 718.113407 228.140151 
L 718.653284 225.307261 
L 718.948592 226.723706 
L 719.231166 225.779409 
L 719.52536 226.251558 
L 719.815818 225.779409 
L 720.10713 227.668002 
L 720.357289 225.779409 
L 720.648223 225.779409 
L 720.93864 226.251558 
L 721.2304 225.779409 
L 721.519842 225.779409 
L 721.812028 227.668002 
L 722.102386 225.779409 
L 722.352514 225.307261 
L 722.642524 225.779409 
L 725.217519 225.779409 
L 725.507786 226.251558 
L 725.798968 227.668002 
L 726.089648 226.251558 
L 726.380443 227.195854 
L 726.630519 225.779409 
L 727.503135 225.779409 
L 727.793571 227.195854 
L 728.376977 225.307261 
L 728.625024 225.779409 
L 729.206542 225.779409 
L 729.498157 227.195854 
L 729.788209 226.251558 
L 730.078809 226.251558 
L 730.370639 225.779409 
L 733.487896 225.779409 
L 733.778497 226.251558 
L 735.191891 226.251558 
L 735.482683 232.861633 
L 735.773923 188.479699 
L 736.233636 205.949184 
L 736.524796 261.662675 
L 736.815515 203.588442 
L 737.106472 198.86696 
L 737.854977 275.354974 
L 738.146441 230.500892 
L 738.436534 287.630828 
L 738.726223 190.368292 
L 739.183861 233.333781 
L 739.473641 224.362965 
L 739.766272 228.140151 
L 740.056558 224.835113 
L 740.347597 228.140151 
L 740.638481 224.835113 
L 740.888173 225.307261 
L 741.179371 226.723706 
L 741.469454 225.779409 
L 741.761739 225.779409 
L 742.051438 226.251558 
L 742.342851 227.668002 
L 742.630936 225.779409 
L 744.047355 225.779409 
L 744.338604 227.668002 
L 744.627724 225.779409 
L 744.919793 225.307261 
L 745.168564 225.779409 
L 745.460597 225.779409 
L 745.751439 226.251558 
L 746.041917 227.668002 
L 746.332813 227.668002 
L 746.623893 225.779409 
L 746.914716 225.307261 
L 747.163636 225.779409 
L 747.163636 225.779409 
" clip-path="url(#pb4d5add77a)" style="fill: none; stroke: #1f77b4; stroke-linecap: round"/>
   </g>
   <g id="line2d_16">
    <defs>
     <path id="m035ca563cd" d="M 0 1.25 
C 0.331504 1.25 0.649475 1.118292 0.883883 0.883883 
C 1.118292 0.649475 1.25 0.331504 1.25 0 
C 1.25 -0.331504 1.118292 -0.649475 0.883883 -0.883883 
C 0.649475 -1.118292 0.331504 -1.25 0 -1.25 
C -0.331504 -1.25 -0.649475 -1.118292 -0.883883 -0.883883 
C -1.118292 -0.649475 -1.25 -0.331504 -1.25 0 
C -1.25 0.331504 -1.118292 0.649475 -0.883883 0.883883 
C -0.649475 1.118292 -0.331504 1.25 0 1.25 
z
" style="stroke: #ff6d00; stroke-width: 2"/>
    </defs>
    <g clip-path="url(#pb4d5add77a)">
     <use xlink:href="#m035ca563cd" x="217.334738" y="182.341772" style="fill: #ff6d00; stroke: #ff6d00; stroke-width: 2"/>
     <use xlink:href="#m035ca563cd" x="219.537394" y="191.784737" style="fill: #ff6d00; stroke: #ff6d00; stroke-width: 2"/>
     <use xlink:href="#m035ca563cd" x="238.243085" y="199.811257" style="fill: #ff6d00; stroke: #ff6d00; stroke-width: 2"/>
     <use xlink:href="#m035ca563cd" x="239.864167" y="188.951847" style="fill: #ff6d00; stroke: #ff6d00; stroke-width: 2"/>
     <use xlink:href="#m035ca563cd" x="242.523517" y="194.617626" style="fill: #ff6d00; stroke: #ff6d00; stroke-width: 2"/>
     <use xlink:href="#m035ca563cd" x="264.301508" y="145.042061" style="fill: #ff6d00; stroke: #ff6d00; stroke-width: 2"/>
     <use xlink:href="#m035ca563cd" x="266.088785" y="150.70784" style="fill: #ff6d00; stroke: #ff6d00; stroke-width: 2"/>
     <use xlink:href="#m035ca563cd" x="268.127343" y="198.86696" style="fill: #ff6d00; stroke: #ff6d00; stroke-width: 2"/>
     <use xlink:href="#m035ca563cd" x="270.038873" y="188.951847" style="fill: #ff6d00; stroke: #ff6d00; stroke-width: 2"/>
     <use xlink:href="#m035ca563cd" x="285.415684" y="144.569913" style="fill: #ff6d00; stroke: #ff6d00; stroke-width: 2"/>
     <use xlink:href="#m035ca563cd" x="286.3714" y="95.466497" style="fill: #ff6d00; stroke: #ff6d00; stroke-width: 2"/>
     <use xlink:href="#m035ca563cd" x="302.455754" y="173.843104" style="fill: #ff6d00; stroke: #ff6d00; stroke-width: 2"/>
     <use xlink:href="#m035ca563cd" x="303.827458" y="173.843104" style="fill: #ff6d00; stroke: #ff6d00; stroke-width: 2"/>
     <use xlink:href="#m035ca563cd" x="304.450592" y="199.811257" style="fill: #ff6d00; stroke: #ff6d00; stroke-width: 2"/>
     <use xlink:href="#m035ca563cd" x="305.239645" y="149.291395" style="fill: #ff6d00; stroke: #ff6d00; stroke-width: 2"/>
     <use xlink:href="#m035ca563cd" x="305.863328" y="197.450515" style="fill: #ff6d00; stroke: #ff6d00; stroke-width: 2"/>
     <use xlink:href="#m035ca563cd" x="307.194547" y="130.877614" style="fill: #ff6d00; stroke: #ff6d00; stroke-width: 2"/>
     <use xlink:href="#m035ca563cd" x="308.981112" y="188.479699" style="fill: #ff6d00; stroke: #ff6d00; stroke-width: 2"/>
     <use xlink:href="#m035ca563cd" x="345.638188" y="185.646809" style="fill: #ff6d00; stroke: #ff6d00; stroke-width: 2"/>
     <use xlink:href="#m035ca563cd" x="346.885455" y="190.368292" style="fill: #ff6d00; stroke: #ff6d00; stroke-width: 2"/>
     <use xlink:href="#m035ca563cd" x="362.468797" y="177.148141" style="fill: #ff6d00; stroke: #ff6d00; stroke-width: 2"/>
     <use xlink:href="#m035ca563cd" x="363.26025" y="191.784737" style="fill: #ff6d00; stroke: #ff6d00; stroke-width: 2"/>
     <use xlink:href="#m035ca563cd" x="364.008179" y="144.097765" style="fill: #ff6d00; stroke: #ff6d00; stroke-width: 2"/>
     <use xlink:href="#m035ca563cd" x="365.961913" y="114.352426" style="fill: #ff6d00; stroke: #ff6d00; stroke-width: 2"/>
     <use xlink:href="#m035ca563cd" x="397.714789" y="141.737024" style="fill: #ff6d00; stroke: #ff6d00; stroke-width: 2"/>
     <use xlink:href="#m035ca563cd" x="398.628529" y="199.811257" style="fill: #ff6d00; stroke: #ff6d00; stroke-width: 2"/>
     <use xlink:href="#m035ca563cd" x="399.875573" y="181.869624" style="fill: #ff6d00; stroke: #ff6d00; stroke-width: 2"/>
     <use xlink:href="#m035ca563cd" x="431.419345" y="163.455843" style="fill: #ff6d00; stroke: #ff6d00; stroke-width: 2"/>
     <use xlink:href="#m035ca563cd" x="432.044085" y="169.121621" style="fill: #ff6d00; stroke: #ff6d00; stroke-width: 2"/>
     <use xlink:href="#m035ca563cd" x="451.495044" y="72.803382" style="fill: #ff6d00; stroke: #ff6d00; stroke-width: 2"/>
     <use xlink:href="#m035ca563cd" x="475.311056" y="66.665455" style="fill: #ff6d00; stroke: #ff6d00; stroke-width: 2"/>
     <use xlink:href="#m035ca563cd" x="529.880846" y="195.089774" style="fill: #ff6d00; stroke: #ff6d00; stroke-width: 2"/>
     <use xlink:href="#m035ca563cd" x="570.278687" y="192.256885" style="fill: #ff6d00; stroke: #ff6d00; stroke-width: 2"/>
     <use xlink:href="#m035ca563cd" x="571.317713" y="191.784737" style="fill: #ff6d00; stroke: #ff6d00; stroke-width: 2"/>
     <use xlink:href="#m035ca563cd" x="616.869071" y="179.036734" style="fill: #ff6d00; stroke: #ff6d00; stroke-width: 2"/>
     <use xlink:href="#m035ca563cd" x="617.907843" y="199.811257" style="fill: #ff6d00; stroke: #ff6d00; stroke-width: 2"/>
     <use xlink:href="#m035ca563cd" x="646.793682" y="186.591106" style="fill: #ff6d00; stroke: #ff6d00; stroke-width: 2"/>
     <use xlink:href="#m035ca563cd" x="669.236224" y="193.673329" style="fill: #ff6d00; stroke: #ff6d00; stroke-width: 2"/>
     <use xlink:href="#m035ca563cd" x="693.092701" y="198.394812" style="fill: #ff6d00; stroke: #ff6d00; stroke-width: 2"/>
     <use xlink:href="#m035ca563cd" x="715.244076" y="193.201181" style="fill: #ff6d00; stroke: #ff6d00; stroke-width: 2"/>
     <use xlink:href="#m035ca563cd" x="715.992095" y="177.148141" style="fill: #ff6d00; stroke: #ff6d00; stroke-width: 2"/>
     <use xlink:href="#m035ca563cd" x="735.773923" y="188.479699" style="fill: #ff6d00; stroke: #ff6d00; stroke-width: 2"/>
     <use xlink:href="#m035ca563cd" x="737.106472" y="198.86696" style="fill: #ff6d00; stroke: #ff6d00; stroke-width: 2"/>
     <use xlink:href="#m035ca563cd" x="738.726223" y="190.368292" style="fill: #ff6d00; stroke: #ff6d00; stroke-width: 2"/>
    </g>
   </g>
   <g id="patch_3">
    <path d="M 108 378 
L 108 51.84 
" style="fill: none; stroke: #cccccc; stroke-width: 1.25; stroke-linejoin: miter; stroke-linecap: square"/>
   </g>
   <g id="patch_4">
    <path d="M 777.6 378 
L 777.6 51.84 
" style="fill: none; stroke: #cccccc; stroke-width: 1.25; stroke-linejoin: miter; stroke-linecap: square"/>
   </g>
   <g id="patch_5">
    <path d="M 108 378 
L 777.6 378 
" style="fill: none; stroke: #cccccc; stroke-width: 1.25; stroke-linejoin: miter; stroke-linecap: square"/>
   </g>
   <g id="patch_6">
    <path d="M 108 51.84 
L 777.6 51.84 
" style="fill: none; stroke: #cccccc; stroke-width: 1.25; stroke-linejoin: miter; stroke-linecap: square"/>
   </g>
   <g id="text_17">
    <!-- Sound Level (Raw) vs. Time  -->
    <g style="fill: #262626" transform="translate(348.408281 31.84)scale(0.14 -0.14)">
     <defs>
      <path id="Arial-BoldMT-53" d="M 231 1491 
L 1131 1578 
Q 1213 1125 1461 912 
Q 1709 700 2131 700 
Q 2578 700 2804 889 
Q 3031 1078 3031 1331 
Q 3031 1494 2936 1608 
Q 2841 1722 2603 1806 
Q 2441 1863 1863 2006 
Q 1119 2191 819 2459 
Q 397 2838 397 3381 
Q 397 3731 595 4036 
Q 794 4341 1167 4500 
Q 1541 4659 2069 4659 
Q 2931 4659 3367 4281 
Q 3803 3903 3825 3272 
L 2900 3231 
Q 2841 3584 2645 3739 
Q 2450 3894 2059 3894 
Q 1656 3894 1428 3728 
Q 1281 3622 1281 3444 
Q 1281 3281 1419 3166 
Q 1594 3019 2269 2859 
Q 2944 2700 3267 2529 
Q 3591 2359 3773 2064 
Q 3956 1769 3956 1334 
Q 3956 941 3737 597 
Q 3519 253 3119 86 
Q 2719 -81 2122 -81 
Q 1253 -81 787 320 
Q 322 722 231 1491 
z
" transform="scale(0.015625)"/>
      <path id="Arial-BoldMT-6f" d="M 256 1706 
Q 256 2144 472 2553 
Q 688 2963 1083 3178 
Q 1478 3394 1966 3394 
Q 2719 3394 3200 2905 
Q 3681 2416 3681 1669 
Q 3681 916 3195 420 
Q 2709 -75 1972 -75 
Q 1516 -75 1102 131 
Q 688 338 472 736 
Q 256 1134 256 1706 
z
M 1156 1659 
Q 1156 1166 1390 903 
Q 1625 641 1969 641 
Q 2313 641 2545 903 
Q 2778 1166 2778 1666 
Q 2778 2153 2545 2415 
Q 2313 2678 1969 2678 
Q 1625 2678 1390 2415 
Q 1156 2153 1156 1659 
z
" transform="scale(0.015625)"/>
      <path id="Arial-BoldMT-75" d="M 2644 0 
L 2644 497 
Q 2463 231 2167 78 
Q 1872 -75 1544 -75 
Q 1209 -75 943 72 
Q 678 219 559 484 
Q 441 750 441 1219 
L 441 3319 
L 1319 3319 
L 1319 1794 
Q 1319 1094 1367 936 
Q 1416 778 1544 686 
Q 1672 594 1869 594 
Q 2094 594 2272 717 
Q 2450 841 2515 1023 
Q 2581 1206 2581 1919 
L 2581 3319 
L 3459 3319 
L 3459 0 
L 2644 0 
z
" transform="scale(0.015625)"/>
      <path id="Arial-BoldMT-6e" d="M 3478 0 
L 2600 0 
L 2600 1694 
Q 2600 2231 2544 2389 
Q 2488 2547 2361 2634 
Q 2234 2722 2056 2722 
Q 1828 2722 1647 2597 
Q 1466 2472 1398 2265 
Q 1331 2059 1331 1503 
L 1331 0 
L 453 0 
L 453 3319 
L 1269 3319 
L 1269 2831 
Q 1703 3394 2363 3394 
Q 2653 3394 2893 3289 
Q 3134 3184 3257 3021 
Q 3381 2859 3429 2653 
Q 3478 2447 3478 2063 
L 3478 0 
z
" transform="scale(0.015625)"/>
      <path id="Arial-BoldMT-64" d="M 3503 0 
L 2688 0 
L 2688 488 
Q 2484 203 2207 64 
Q 1931 -75 1650 -75 
Q 1078 -75 670 386 
Q 263 847 263 1672 
Q 263 2516 659 2955 
Q 1056 3394 1663 3394 
Q 2219 3394 2625 2931 
L 2625 4581 
L 3503 4581 
L 3503 0 
z
M 1159 1731 
Q 1159 1200 1306 963 
Q 1519 619 1900 619 
Q 2203 619 2415 876 
Q 2628 1134 2628 1647 
Q 2628 2219 2422 2470 
Q 2216 2722 1894 2722 
Q 1581 2722 1370 2473 
Q 1159 2225 1159 1731 
z
" transform="scale(0.015625)"/>
      <path id="Arial-BoldMT-20" transform="scale(0.015625)"/>
      <path id="Arial-BoldMT-4c" d="M 491 0 
L 491 4544 
L 1416 4544 
L 1416 772 
L 3716 772 
L 3716 0 
L 491 0 
z
" transform="scale(0.015625)"/>
      <path id="Arial-BoldMT-65" d="M 2381 1056 
L 3256 909 
Q 3088 428 2723 176 
Q 2359 -75 1813 -75 
Q 947 -75 531 491 
Q 203 944 203 1634 
Q 203 2459 634 2926 
Q 1066 3394 1725 3394 
Q 2466 3394 2894 2905 
Q 3322 2416 3303 1406 
L 1103 1406 
Q 1113 1016 1316 798 
Q 1519 581 1822 581 
Q 2028 581 2168 693 
Q 2309 806 2381 1056 
z
M 2431 1944 
Q 2422 2325 2234 2523 
Q 2047 2722 1778 2722 
Q 1491 2722 1303 2513 
Q 1116 2303 1119 1944 
L 2431 1944 
z
" transform="scale(0.015625)"/>
      <path id="Arial-BoldMT-76" d="M 1372 0 
L 34 3319 
L 956 3319 
L 1581 1625 
L 1763 1059 
Q 1834 1275 1853 1344 
Q 1897 1484 1947 1625 
L 2578 3319 
L 3481 3319 
L 2163 0 
L 1372 0 
z
" transform="scale(0.015625)"/>
      <path id="Arial-BoldMT-6c" d="M 459 0 
L 459 4581 
L 1338 4581 
L 1338 0 
L 459 0 
z
" transform="scale(0.015625)"/>
      <path id="Arial-BoldMT-28" d="M 1916 -1347 
L 1313 -1347 
Q 834 -625 584 153 
Q 334 931 334 1659 
Q 334 2563 644 3369 
Q 913 4069 1325 4659 
L 1925 4659 
Q 1497 3713 1336 3048 
Q 1175 2384 1175 1641 
Q 1175 1128 1270 590 
Q 1366 53 1531 -431 
Q 1641 -750 1916 -1347 
z
" transform="scale(0.015625)"/>
      <path id="Arial-BoldMT-52" d="M 469 0 
L 469 4581 
L 2416 4581 
Q 3150 4581 3483 4457 
Q 3816 4334 4016 4018 
Q 4216 3703 4216 3297 
Q 4216 2781 3912 2445 
Q 3609 2109 3006 2022 
Q 3306 1847 3501 1637 
Q 3697 1428 4028 894 
L 4588 0 
L 3481 0 
L 2813 997 
Q 2456 1531 2325 1670 
Q 2194 1809 2047 1861 
Q 1900 1913 1581 1913 
L 1394 1913 
L 1394 0 
L 469 0 
z
M 1394 2644 
L 2078 2644 
Q 2744 2644 2909 2700 
Q 3075 2756 3169 2893 
Q 3263 3031 3263 3238 
Q 3263 3469 3139 3611 
Q 3016 3753 2791 3791 
Q 2678 3806 2116 3806 
L 1394 3806 
L 1394 2644 
z
" transform="scale(0.015625)"/>
      <path id="Arial-BoldMT-61" d="M 1116 2306 
L 319 2450 
Q 453 2931 781 3162 
Q 1109 3394 1756 3394 
Q 2344 3394 2631 3255 
Q 2919 3116 3036 2902 
Q 3153 2688 3153 2116 
L 3144 1091 
Q 3144 653 3186 445 
Q 3228 238 3344 0 
L 2475 0 
Q 2441 88 2391 259 
Q 2369 338 2359 363 
Q 2134 144 1878 34 
Q 1622 -75 1331 -75 
Q 819 -75 523 203 
Q 228 481 228 906 
Q 228 1188 362 1408 
Q 497 1628 739 1745 
Q 981 1863 1438 1950 
Q 2053 2066 2291 2166 
L 2291 2253 
Q 2291 2506 2166 2614 
Q 2041 2722 1694 2722 
Q 1459 2722 1328 2630 
Q 1197 2538 1116 2306 
z
M 2291 1594 
Q 2122 1538 1756 1459 
Q 1391 1381 1278 1306 
Q 1106 1184 1106 997 
Q 1106 813 1243 678 
Q 1381 544 1594 544 
Q 1831 544 2047 700 
Q 2206 819 2256 991 
Q 2291 1103 2291 1419 
L 2291 1594 
z
" transform="scale(0.015625)"/>
      <path id="Arial-BoldMT-77" d="M 1078 0 
L 28 3319 
L 881 3319 
L 1503 1144 
L 2075 3319 
L 2922 3319 
L 3475 1144 
L 4109 3319 
L 4975 3319 
L 3909 0 
L 3066 0 
L 2494 2134 
L 1931 0 
L 1078 0 
z
" transform="scale(0.015625)"/>
      <path id="Arial-BoldMT-29" d="M 216 -1347 
Q 475 -791 581 -494 
Q 688 -197 778 190 
Q 869 578 912 926 
Q 956 1275 956 1641 
Q 956 2384 797 3048 
Q 638 3713 209 4659 
L 806 4659 
Q 1278 3988 1539 3234 
Q 1800 2481 1800 1706 
Q 1800 1053 1594 306 
Q 1359 -531 822 -1347 
L 216 -1347 
z
" transform="scale(0.015625)"/>
      <path id="Arial-BoldMT-73" d="M 150 947 
L 1031 1081 
Q 1088 825 1259 692 
Q 1431 559 1741 559 
Q 2081 559 2253 684 
Q 2369 772 2369 919 
Q 2369 1019 2306 1084 
Q 2241 1147 2013 1200 
Q 950 1434 666 1628 
Q 272 1897 272 2375 
Q 272 2806 612 3100 
Q 953 3394 1669 3394 
Q 2350 3394 2681 3172 
Q 3013 2950 3138 2516 
L 2309 2363 
Q 2256 2556 2107 2659 
Q 1959 2763 1684 2763 
Q 1338 2763 1188 2666 
Q 1088 2597 1088 2488 
Q 1088 2394 1175 2328 
Q 1294 2241 1995 2081 
Q 2697 1922 2975 1691 
Q 3250 1456 3250 1038 
Q 3250 581 2869 253 
Q 2488 -75 1741 -75 
Q 1063 -75 667 200 
Q 272 475 150 947 
z
" transform="scale(0.015625)"/>
      <path id="Arial-BoldMT-2e" d="M 459 0 
L 459 878 
L 1338 878 
L 1338 0 
L 459 0 
z
" transform="scale(0.015625)"/>
      <path id="Arial-BoldMT-54" d="M 1497 0 
L 1497 3806 
L 138 3806 
L 138 4581 
L 3778 4581 
L 3778 3806 
L 2422 3806 
L 2422 0 
L 1497 0 
z
" transform="scale(0.015625)"/>
      <path id="Arial-BoldMT-69" d="M 459 3769 
L 459 4581 
L 1338 4581 
L 1338 3769 
L 459 3769 
z
M 459 0 
L 459 3319 
L 1338 3319 
L 1338 0 
L 459 0 
z
" transform="scale(0.015625)"/>
      <path id="Arial-BoldMT-6d" d="M 394 3319 
L 1203 3319 
L 1203 2866 
Q 1638 3394 2238 3394 
Q 2556 3394 2790 3262 
Q 3025 3131 3175 2866 
Q 3394 3131 3647 3262 
Q 3900 3394 4188 3394 
Q 4553 3394 4806 3245 
Q 5059 3097 5184 2809 
Q 5275 2597 5275 2122 
L 5275 0 
L 4397 0 
L 4397 1897 
Q 4397 2391 4306 2534 
Q 4184 2722 3931 2722 
Q 3747 2722 3584 2609 
Q 3422 2497 3350 2280 
Q 3278 2063 3278 1594 
L 3278 0 
L 2400 0 
L 2400 1819 
Q 2400 2303 2353 2443 
Q 2306 2584 2207 2653 
Q 2109 2722 1941 2722 
Q 1738 2722 1575 2612 
Q 1413 2503 1342 2297 
Q 1272 2091 1272 1613 
L 1272 0 
L 394 0 
L 394 3319 
z
" transform="scale(0.015625)"/>
     </defs>
     <use xlink:href="#Arial-BoldMT-53"/>
     <use xlink:href="#Arial-BoldMT-6f" x="66.699219"/>
     <use xlink:href="#Arial-BoldMT-75" x="127.783203"/>
     <use xlink:href="#Arial-BoldMT-6e" x="188.867188"/>
     <use xlink:href="#Arial-BoldMT-64" x="249.951172"/>
     <use xlink:href="#Arial-BoldMT-20" x="311.035156"/>
     <use xlink:href="#Arial-BoldMT-4c" x="338.818359"/>
     <use xlink:href="#Arial-BoldMT-65" x="399.902344"/>
     <use xlink:href="#Arial-BoldMT-76" x="455.517578"/>
     <use xlink:href="#Arial-BoldMT-65" x="511.132812"/>
     <use xlink:href="#Arial-BoldMT-6c" x="566.748047"/>
     <use xlink:href="#Arial-BoldMT-20" x="594.53125"/>
     <use xlink:href="#Arial-BoldMT-28" x="622.314453"/>
     <use xlink:href="#Arial-BoldMT-52" x="655.615234"/>
     <use xlink:href="#Arial-BoldMT-61" x="727.832031"/>
     <use xlink:href="#Arial-BoldMT-77" x="783.447266"/>
     <use xlink:href="#Arial-BoldMT-29" x="861.230469"/>
     <use xlink:href="#Arial-BoldMT-20" x="894.53125"/>
     <use xlink:href="#Arial-BoldMT-76" x="922.314453"/>
     <use xlink:href="#Arial-BoldMT-73" x="977.929688"/>
     <use xlink:href="#Arial-BoldMT-2e" x="1033.544922"/>
     <use xlink:href="#Arial-BoldMT-20" x="1061.328125"/>
     <use xlink:href="#Arial-BoldMT-54" x="1089.111328"/>
     <use xlink:href="#Arial-BoldMT-69" x="1148.445312"/>
     <use xlink:href="#Arial-BoldMT-6d" x="1176.228516"/>
     <use xlink:href="#Arial-BoldMT-65" x="1265.144531"/>
     <use xlink:href="#Arial-BoldMT-20" x="1320.759766"/>
    </g>
   </g>
   <g id="legend_1">
    <g id="patch_7">
     <path d="M 683.003125 88.130625 
L 770.6 88.130625 
Q 772.6 88.130625 772.6 86.130625 
L 772.6 58.84 
Q 772.6 56.84 770.6 56.84 
L 683.003125 56.84 
Q 681.003125 56.84 681.003125 58.84 
L 681.003125 86.130625 
Q 681.003125 88.130625 683.003125 88.130625 
z
" style="fill: #ffffff; opacity: 0.8; stroke: #cccccc; stroke-linejoin: miter"/>
    </g>
    <g id="line2d_17">
     <path d="M 685.003125 64.497813 
L 695.003125 64.497813 
L 705.003125 64.497813 
" style="fill: none; stroke: #1f77b4; stroke-linecap: round"/>
    </g>
    <g id="text_18">
     <!-- Sound Level -->
     <g style="fill: #262626" transform="translate(713.003125 67.997813)scale(0.1 -0.1)">
      <use xlink:href="#ArialMT-53"/>
      <use xlink:href="#ArialMT-6f" x="66.699219"/>
      <use xlink:href="#ArialMT-75" x="122.314453"/>
      <use xlink:href="#ArialMT-6e" x="177.929688"/>
      <use xlink:href="#ArialMT-64" x="233.544922"/>
      <use xlink:href="#ArialMT-20" x="289.160156"/>
      <use xlink:href="#ArialMT-4c" x="316.943359"/>
      <use xlink:href="#ArialMT-65" x="372.558594"/>
      <use xlink:href="#ArialMT-76" x="428.173828"/>
      <use xlink:href="#ArialMT-65" x="478.173828"/>
      <use xlink:href="#ArialMT-6c" x="533.789062"/>
     </g>
    </g>
    <g id="line2d_18">
     <g>
      <use xlink:href="#m035ca563cd" x="695.003125" y="78.643125" style="fill: #ff6d00; stroke: #ff6d00; stroke-width: 2"/>
     </g>
    </g>
    <g id="text_19">
     <!-- Peaks -->
     <g style="fill: #262626" transform="translate(713.003125 82.143125)scale(0.1 -0.1)">
      <defs>
       <path id="ArialMT-50" d="M 494 0 
L 494 4581 
L 2222 4581 
Q 2678 4581 2919 4538 
Q 3256 4481 3484 4323 
Q 3713 4166 3852 3881 
Q 3991 3597 3991 3256 
Q 3991 2672 3619 2267 
Q 3247 1863 2275 1863 
L 1100 1863 
L 1100 0 
L 494 0 
z
M 1100 2403 
L 2284 2403 
Q 2872 2403 3119 2622 
Q 3366 2841 3366 3238 
Q 3366 3525 3220 3729 
Q 3075 3934 2838 4000 
Q 2684 4041 2272 4041 
L 1100 4041 
L 1100 2403 
z
" transform="scale(0.015625)"/>
       <path id="ArialMT-6b" d="M 425 0 
L 425 4581 
L 988 4581 
L 988 1969 
L 2319 3319 
L 3047 3319 
L 1778 2088 
L 3175 0 
L 2481 0 
L 1384 1697 
L 988 1316 
L 988 0 
L 425 0 
z
" transform="scale(0.015625)"/>
      </defs>
      <use xlink:href="#ArialMT-50"/>
      <use xlink:href="#ArialMT-65" x="66.699219"/>
      <use xlink:href="#ArialMT-61" x="122.314453"/>
      <use xlink:href="#ArialMT-6b" x="177.929688"/>
      <use xlink:href="#ArialMT-73" x="227.929688"/>
     </g>
    </g>
   </g>
  </g>
 </g>
 <defs>
  <clipPath id="pb4d5add77a">
   <rect x="108" y="51.84" width="669.6" height="326.16"/>
  </clipPath>
 </defs>
</svg>
