<?xml version="1.0" encoding="utf-8" standalone="no"?>
<!DOCTYPE svg PUBLIC "-//W3C//DTD SVG 1.1//EN"
  "http://www.w3.org/Graphics/SVG/1.1/DTD/svg11.dtd">
<svg xmlns:xlink="http://www.w3.org/1999/xlink" width="720pt" height="432pt" viewBox="0 0 720 432" xmlns="http://www.w3.org/2000/svg" version="1.1">
 <metadata>
  <rdf:RDF xmlns:dc="http://purl.org/dc/elements/1.1/" xmlns:cc="http://creativecommons.org/ns#" xmlns:rdf="http://www.w3.org/1999/02/22-rdf-syntax-ns#">
   <cc:Work>
    <dc:type rdf:resource="http://purl.org/dc/dcmitype/StillImage"/>
    <dc:date>2024-12-13T14:25:21.700857</dc:date>
    <dc:format>image/svg+xml</dc:format>
    <dc:creator>
     <cc:Agent>
      <dc:title>Matplotlib v3.5.1, https://matplotlib.org/</dc:title>
     </cc:Agent>
    </dc:creator>
   </cc:Work>
  </rdf:RDF>
 </metadata>
 <defs>
  <style type="text/css">*{stroke-linejoin: round; stroke-linecap: butt}</style>
 </defs>
 <g id="figure_1">
  <g id="patch_1">
   <path d="M 0 432 
L 720 432 
L 720 0 
L 0 0 
z
" style="fill: #ffffff"/>
  </g>
  <g id="axes_1">
   <g id="patch_2">
    <path d="M 90 378 
L 648 378 
L 648 51.84 
L 90 51.84 
z
" style="fill: #ffffff"/>
   </g>
   <g id="matplotlib.axis_1">
    <g id="xtick_1">
     <g id="line2d_1">
      <path d="M 115.363636 378 
L 115.363636 51.84 
" clip-path="url(#p2196418639)" style="fill: none; stroke-dasharray: 1.85,0.8; stroke-dashoffset: 0; stroke: #cccccc; stroke-opacity: 0.7; stroke-width: 0.5"/>
     </g>
     <g id="text_1">
      <!-- 0 -->
      <g style="fill: #262626" transform="translate(112.305121 395.373594)scale(0.11 -0.11)">
       <defs>
        <path id="ArialMT-30" d="M 266 2259 
Q 266 3072 433 3567 
Q 600 4063 929 4331 
Q 1259 4600 1759 4600 
Q 2128 4600 2406 4451 
Q 2684 4303 2865 4023 
Q 3047 3744 3150 3342 
Q 3253 2941 3253 2259 
Q 3253 1453 3087 958 
Q 2922 463 2592 192 
Q 2263 -78 1759 -78 
Q 1097 -78 719 397 
Q 266 969 266 2259 
z
M 844 2259 
Q 844 1131 1108 757 
Q 1372 384 1759 384 
Q 2147 384 2411 759 
Q 2675 1134 2675 2259 
Q 2675 3391 2411 3762 
Q 2147 4134 1753 4134 
Q 1366 4134 1134 3806 
Q 844 3388 844 2259 
z
" transform="scale(0.015625)"/>
       </defs>
       <use xlink:href="#ArialMT-30"/>
      </g>
     </g>
    </g>
    <g id="xtick_2">
     <g id="line2d_2">
      <path d="M 216.818182 378 
L 216.818182 51.84 
" clip-path="url(#p2196418639)" style="fill: none; stroke-dasharray: 1.85,0.8; stroke-dashoffset: 0; stroke: #cccccc; stroke-opacity: 0.7; stroke-width: 0.5"/>
     </g>
     <g id="text_2">
      <!-- 200 -->
      <g style="fill: #262626" transform="translate(207.642635 395.373594)scale(0.11 -0.11)">
       <defs>
        <path id="ArialMT-32" d="M 3222 541 
L 3222 0 
L 194 0 
Q 188 203 259 391 
Q 375 700 629 1000 
Q 884 1300 1366 1694 
Q 2113 2306 2375 2664 
Q 2638 3022 2638 3341 
Q 2638 3675 2398 3904 
Q 2159 4134 1775 4134 
Q 1369 4134 1125 3890 
Q 881 3647 878 3216 
L 300 3275 
Q 359 3922 746 4261 
Q 1134 4600 1788 4600 
Q 2447 4600 2831 4234 
Q 3216 3869 3216 3328 
Q 3216 3053 3103 2787 
Q 2991 2522 2730 2228 
Q 2469 1934 1863 1422 
Q 1356 997 1212 845 
Q 1069 694 975 541 
L 3222 541 
z
" transform="scale(0.015625)"/>
       </defs>
       <use xlink:href="#ArialMT-32"/>
       <use xlink:href="#ArialMT-30" x="55.615234"/>
       <use xlink:href="#ArialMT-30" x="111.230469"/>
      </g>
     </g>
    </g>
    <g id="xtick_3">
     <g id="line2d_3">
      <path d="M 318.272727 378 
L 318.272727 51.84 
" clip-path="url(#p2196418639)" style="fill: none; stroke-dasharray: 1.85,0.8; stroke-dashoffset: 0; stroke: #cccccc; stroke-opacity: 0.7; stroke-width: 0.5"/>
     </g>
     <g id="text_3">
      <!-- 400 -->
      <g style="fill: #262626" transform="translate(309.09718 395.373594)scale(0.11 -0.11)">
       <defs>
        <path id="ArialMT-34" d="M 2069 0 
L 2069 1097 
L 81 1097 
L 81 1613 
L 2172 4581 
L 2631 4581 
L 2631 1613 
L 3250 1613 
L 3250 1097 
L 2631 1097 
L 2631 0 
L 2069 0 
z
M 2069 1613 
L 2069 3678 
L 634 1613 
L 2069 1613 
z
" transform="scale(0.015625)"/>
       </defs>
       <use xlink:href="#ArialMT-34"/>
       <use xlink:href="#ArialMT-30" x="55.615234"/>
       <use xlink:href="#ArialMT-30" x="111.230469"/>
      </g>
     </g>
    </g>
    <g id="xtick_4">
     <g id="line2d_4">
      <path d="M 419.727273 378 
L 419.727273 51.84 
" clip-path="url(#p2196418639)" style="fill: none; stroke-dasharray: 1.85,0.8; stroke-dashoffset: 0; stroke: #cccccc; stroke-opacity: 0.7; stroke-width: 0.5"/>
     </g>
     <g id="text_4">
      <!-- 600 -->
      <g style="fill: #262626" transform="translate(410.551726 395.373594)scale(0.11 -0.11)">
       <defs>
        <path id="ArialMT-36" d="M 3184 3459 
L 2625 3416 
Q 2550 3747 2413 3897 
Q 2184 4138 1850 4138 
Q 1581 4138 1378 3988 
Q 1113 3794 959 3422 
Q 806 3050 800 2363 
Q 1003 2672 1297 2822 
Q 1591 2972 1913 2972 
Q 2475 2972 2870 2558 
Q 3266 2144 3266 1488 
Q 3266 1056 3080 686 
Q 2894 316 2569 119 
Q 2244 -78 1831 -78 
Q 1128 -78 684 439 
Q 241 956 241 2144 
Q 241 3472 731 4075 
Q 1159 4600 1884 4600 
Q 2425 4600 2770 4297 
Q 3116 3994 3184 3459 
z
M 888 1484 
Q 888 1194 1011 928 
Q 1134 663 1356 523 
Q 1578 384 1822 384 
Q 2178 384 2434 671 
Q 2691 959 2691 1453 
Q 2691 1928 2437 2201 
Q 2184 2475 1800 2475 
Q 1419 2475 1153 2201 
Q 888 1928 888 1484 
z
" transform="scale(0.015625)"/>
       </defs>
       <use xlink:href="#ArialMT-36"/>
       <use xlink:href="#ArialMT-30" x="55.615234"/>
       <use xlink:href="#ArialMT-30" x="111.230469"/>
      </g>
     </g>
    </g>
    <g id="xtick_5">
     <g id="line2d_5">
      <path d="M 521.181818 378 
L 521.181818 51.84 
" clip-path="url(#p2196418639)" style="fill: none; stroke-dasharray: 1.85,0.8; stroke-dashoffset: 0; stroke: #cccccc; stroke-opacity: 0.7; stroke-width: 0.5"/>
     </g>
     <g id="text_5">
      <!-- 800 -->
      <g style="fill: #262626" transform="translate(512.006271 395.373594)scale(0.11 -0.11)">
       <defs>
        <path id="ArialMT-38" d="M 1131 2484 
Q 781 2613 612 2850 
Q 444 3088 444 3419 
Q 444 3919 803 4259 
Q 1163 4600 1759 4600 
Q 2359 4600 2725 4251 
Q 3091 3903 3091 3403 
Q 3091 3084 2923 2848 
Q 2756 2613 2416 2484 
Q 2838 2347 3058 2040 
Q 3278 1734 3278 1309 
Q 3278 722 2862 322 
Q 2447 -78 1769 -78 
Q 1091 -78 675 323 
Q 259 725 259 1325 
Q 259 1772 486 2073 
Q 713 2375 1131 2484 
z
M 1019 3438 
Q 1019 3113 1228 2906 
Q 1438 2700 1772 2700 
Q 2097 2700 2305 2904 
Q 2513 3109 2513 3406 
Q 2513 3716 2298 3927 
Q 2084 4138 1766 4138 
Q 1444 4138 1231 3931 
Q 1019 3725 1019 3438 
z
M 838 1322 
Q 838 1081 952 856 
Q 1066 631 1291 507 
Q 1516 384 1775 384 
Q 2178 384 2440 643 
Q 2703 903 2703 1303 
Q 2703 1709 2433 1975 
Q 2163 2241 1756 2241 
Q 1359 2241 1098 1978 
Q 838 1716 838 1322 
z
" transform="scale(0.015625)"/>
       </defs>
       <use xlink:href="#ArialMT-38"/>
       <use xlink:href="#ArialMT-30" x="55.615234"/>
       <use xlink:href="#ArialMT-30" x="111.230469"/>
      </g>
     </g>
    </g>
    <g id="xtick_6">
     <g id="line2d_6">
      <path d="M 622.636364 378 
L 622.636364 51.84 
" clip-path="url(#p2196418639)" style="fill: none; stroke-dasharray: 1.85,0.8; stroke-dashoffset: 0; stroke: #cccccc; stroke-opacity: 0.7; stroke-width: 0.5"/>
     </g>
     <g id="text_6">
      <!-- 1000 -->
      <g style="fill: #262626" transform="translate(610.402301 395.373594)scale(0.11 -0.11)">
       <defs>
        <path id="ArialMT-31" d="M 2384 0 
L 1822 0 
L 1822 3584 
Q 1619 3391 1289 3197 
Q 959 3003 697 2906 
L 697 3450 
Q 1169 3672 1522 3987 
Q 1875 4303 2022 4600 
L 2384 4600 
L 2384 0 
z
" transform="scale(0.015625)"/>
       </defs>
       <use xlink:href="#ArialMT-31"/>
       <use xlink:href="#ArialMT-30" x="55.615234"/>
       <use xlink:href="#ArialMT-30" x="111.230469"/>
       <use xlink:href="#ArialMT-30" x="166.845703"/>
      </g>
     </g>
    </g>
    <g id="xtick_7">
     <g id="line2d_7">
      <path d="M 140.727273 378 
L 140.727273 51.84 
" clip-path="url(#p2196418639)" style="fill: none; stroke-dasharray: 1.85,0.8; stroke-dashoffset: 0; stroke: #cccccc; stroke-opacity: 0.7; stroke-width: 0.5"/>
     </g>
    </g>
    <g id="xtick_8">
     <g id="line2d_8">
      <path d="M 166.090909 378 
L 166.090909 51.84 
" clip-path="url(#p2196418639)" style="fill: none; stroke-dasharray: 1.85,0.8; stroke-dashoffset: 0; stroke: #cccccc; stroke-opacity: 0.7; stroke-width: 0.5"/>
     </g>
    </g>
    <g id="xtick_9">
     <g id="line2d_9">
      <path d="M 191.454545 378 
L 191.454545 51.84 
" clip-path="url(#p2196418639)" style="fill: none; stroke-dasharray: 1.85,0.8; stroke-dashoffset: 0; stroke: #cccccc; stroke-opacity: 0.7; stroke-width: 0.5"/>
     </g>
    </g>
    <g id="xtick_10">
     <g id="line2d_10">
      <path d="M 242.181818 378 
L 242.181818 51.84 
" clip-path="url(#p2196418639)" style="fill: none; stroke-dasharray: 1.85,0.8; stroke-dashoffset: 0; stroke: #cccccc; stroke-opacity: 0.7; stroke-width: 0.5"/>
     </g>
    </g>
    <g id="xtick_11">
     <g id="line2d_11">
      <path d="M 267.545455 378 
L 267.545455 51.84 
" clip-path="url(#p2196418639)" style="fill: none; stroke-dasharray: 1.85,0.8; stroke-dashoffset: 0; stroke: #cccccc; stroke-opacity: 0.7; stroke-width: 0.5"/>
     </g>
    </g>
    <g id="xtick_12">
     <g id="line2d_12">
      <path d="M 292.909091 378 
L 292.909091 51.84 
" clip-path="url(#p2196418639)" style="fill: none; stroke-dasharray: 1.85,0.8; stroke-dashoffset: 0; stroke: #cccccc; stroke-opacity: 0.7; stroke-width: 0.5"/>
     </g>
    </g>
    <g id="xtick_13">
     <g id="line2d_13">
      <path d="M 343.636364 378 
L 343.636364 51.84 
" clip-path="url(#p2196418639)" style="fill: none; stroke-dasharray: 1.85,0.8; stroke-dashoffset: 0; stroke: #cccccc; stroke-opacity: 0.7; stroke-width: 0.5"/>
     </g>
    </g>
    <g id="xtick_14">
     <g id="line2d_14">
      <path d="M 369 378 
L 369 51.84 
" clip-path="url(#p2196418639)" style="fill: none; stroke-dasharray: 1.85,0.8; stroke-dashoffset: 0; stroke: #cccccc; stroke-opacity: 0.7; stroke-width: 0.5"/>
     </g>
    </g>
    <g id="xtick_15">
     <g id="line2d_15">
      <path d="M 394.363636 378 
L 394.363636 51.84 
" clip-path="url(#p2196418639)" style="fill: none; stroke-dasharray: 1.85,0.8; stroke-dashoffset: 0; stroke: #cccccc; stroke-opacity: 0.7; stroke-width: 0.5"/>
     </g>
    </g>
    <g id="xtick_16">
     <g id="line2d_16">
      <path d="M 445.090909 378 
L 445.090909 51.84 
" clip-path="url(#p2196418639)" style="fill: none; stroke-dasharray: 1.85,0.8; stroke-dashoffset: 0; stroke: #cccccc; stroke-opacity: 0.7; stroke-width: 0.5"/>
     </g>
    </g>
    <g id="xtick_17">
     <g id="line2d_17">
      <path d="M 470.454545 378 
L 470.454545 51.84 
" clip-path="url(#p2196418639)" style="fill: none; stroke-dasharray: 1.85,0.8; stroke-dashoffset: 0; stroke: #cccccc; stroke-opacity: 0.7; stroke-width: 0.5"/>
     </g>
    </g>
    <g id="xtick_18">
     <g id="line2d_18">
      <path d="M 495.818182 378 
L 495.818182 51.84 
" clip-path="url(#p2196418639)" style="fill: none; stroke-dasharray: 1.85,0.8; stroke-dashoffset: 0; stroke: #cccccc; stroke-opacity: 0.7; stroke-width: 0.5"/>
     </g>
    </g>
    <g id="xtick_19">
     <g id="line2d_19">
      <path d="M 546.545455 378 
L 546.545455 51.84 
" clip-path="url(#p2196418639)" style="fill: none; stroke-dasharray: 1.85,0.8; stroke-dashoffset: 0; stroke: #cccccc; stroke-opacity: 0.7; stroke-width: 0.5"/>
     </g>
    </g>
    <g id="xtick_20">
     <g id="line2d_20">
      <path d="M 571.909091 378 
L 571.909091 51.84 
" clip-path="url(#p2196418639)" style="fill: none; stroke-dasharray: 1.85,0.8; stroke-dashoffset: 0; stroke: #cccccc; stroke-opacity: 0.7; stroke-width: 0.5"/>
     </g>
    </g>
    <g id="xtick_21">
     <g id="line2d_21">
      <path d="M 597.272727 378 
L 597.272727 51.84 
" clip-path="url(#p2196418639)" style="fill: none; stroke-dasharray: 1.85,0.8; stroke-dashoffset: 0; stroke: #cccccc; stroke-opacity: 0.7; stroke-width: 0.5"/>
     </g>
    </g>
    <g id="xtick_22">
     <g id="line2d_22">
      <path d="M 648 378 
L 648 51.84 
" clip-path="url(#p2196418639)" style="fill: none; stroke-dasharray: 1.85,0.8; stroke-dashoffset: 0; stroke: #cccccc; stroke-opacity: 0.7; stroke-width: 0.5"/>
     </g>
    </g>
    <g id="text_7">
     <!-- Frequency [Hz] -->
     <g style="fill: #262626" transform="translate(301.201563 415.875469)scale(0.2 -0.2)">
      <defs>
       <path id="ArialMT-46" d="M 525 0 
L 525 4581 
L 3616 4581 
L 3616 4041 
L 1131 4041 
L 1131 2622 
L 3281 2622 
L 3281 2081 
L 1131 2081 
L 1131 0 
L 525 0 
z
" transform="scale(0.015625)"/>
       <path id="ArialMT-72" d="M 416 0 
L 416 3319 
L 922 3319 
L 922 2816 
Q 1116 3169 1280 3281 
Q 1444 3394 1641 3394 
Q 1925 3394 2219 3213 
L 2025 2691 
Q 1819 2813 1613 2813 
Q 1428 2813 1281 2702 
Q 1134 2591 1072 2394 
Q 978 2094 978 1738 
L 978 0 
L 416 0 
z
" transform="scale(0.015625)"/>
       <path id="ArialMT-65" d="M 2694 1069 
L 3275 997 
Q 3138 488 2766 206 
Q 2394 -75 1816 -75 
Q 1088 -75 661 373 
Q 234 822 234 1631 
Q 234 2469 665 2931 
Q 1097 3394 1784 3394 
Q 2450 3394 2872 2941 
Q 3294 2488 3294 1666 
Q 3294 1616 3291 1516 
L 816 1516 
Q 847 969 1125 678 
Q 1403 388 1819 388 
Q 2128 388 2347 550 
Q 2566 713 2694 1069 
z
M 847 1978 
L 2700 1978 
Q 2663 2397 2488 2606 
Q 2219 2931 1791 2931 
Q 1403 2931 1139 2672 
Q 875 2413 847 1978 
z
" transform="scale(0.015625)"/>
       <path id="ArialMT-71" d="M 2538 -1272 
L 2538 353 
Q 2406 169 2170 47 
Q 1934 -75 1669 -75 
Q 1078 -75 651 397 
Q 225 869 225 1691 
Q 225 2191 398 2587 
Q 572 2984 901 3189 
Q 1231 3394 1625 3394 
Q 2241 3394 2594 2875 
L 2594 3319 
L 3100 3319 
L 3100 -1272 
L 2538 -1272 
z
M 803 1669 
Q 803 1028 1072 708 
Q 1341 388 1716 388 
Q 2075 388 2334 692 
Q 2594 997 2594 1619 
Q 2594 2281 2320 2615 
Q 2047 2950 1678 2950 
Q 1313 2950 1058 2639 
Q 803 2328 803 1669 
z
" transform="scale(0.015625)"/>
       <path id="ArialMT-75" d="M 2597 0 
L 2597 488 
Q 2209 -75 1544 -75 
Q 1250 -75 995 37 
Q 741 150 617 320 
Q 494 491 444 738 
Q 409 903 409 1263 
L 409 3319 
L 972 3319 
L 972 1478 
Q 972 1038 1006 884 
Q 1059 663 1231 536 
Q 1403 409 1656 409 
Q 1909 409 2131 539 
Q 2353 669 2445 892 
Q 2538 1116 2538 1541 
L 2538 3319 
L 3100 3319 
L 3100 0 
L 2597 0 
z
" transform="scale(0.015625)"/>
       <path id="ArialMT-6e" d="M 422 0 
L 422 3319 
L 928 3319 
L 928 2847 
Q 1294 3394 1984 3394 
Q 2284 3394 2536 3286 
Q 2788 3178 2913 3003 
Q 3038 2828 3088 2588 
Q 3119 2431 3119 2041 
L 3119 0 
L 2556 0 
L 2556 2019 
Q 2556 2363 2490 2533 
Q 2425 2703 2258 2804 
Q 2091 2906 1866 2906 
Q 1506 2906 1245 2678 
Q 984 2450 984 1813 
L 984 0 
L 422 0 
z
" transform="scale(0.015625)"/>
       <path id="ArialMT-63" d="M 2588 1216 
L 3141 1144 
Q 3050 572 2676 248 
Q 2303 -75 1759 -75 
Q 1078 -75 664 370 
Q 250 816 250 1647 
Q 250 2184 428 2587 
Q 606 2991 970 3192 
Q 1334 3394 1763 3394 
Q 2303 3394 2647 3120 
Q 2991 2847 3088 2344 
L 2541 2259 
Q 2463 2594 2264 2762 
Q 2066 2931 1784 2931 
Q 1359 2931 1093 2626 
Q 828 2322 828 1663 
Q 828 994 1084 691 
Q 1341 388 1753 388 
Q 2084 388 2306 591 
Q 2528 794 2588 1216 
z
" transform="scale(0.015625)"/>
       <path id="ArialMT-79" d="M 397 -1278 
L 334 -750 
Q 519 -800 656 -800 
Q 844 -800 956 -737 
Q 1069 -675 1141 -563 
Q 1194 -478 1313 -144 
Q 1328 -97 1363 -6 
L 103 3319 
L 709 3319 
L 1400 1397 
Q 1534 1031 1641 628 
Q 1738 1016 1872 1384 
L 2581 3319 
L 3144 3319 
L 1881 -56 
Q 1678 -603 1566 -809 
Q 1416 -1088 1222 -1217 
Q 1028 -1347 759 -1347 
Q 597 -1347 397 -1278 
z
" transform="scale(0.015625)"/>
       <path id="ArialMT-20" transform="scale(0.015625)"/>
       <path id="ArialMT-5b" d="M 434 -1272 
L 434 4581 
L 1675 4581 
L 1675 4116 
L 997 4116 
L 997 -806 
L 1675 -806 
L 1675 -1272 
L 434 -1272 
z
" transform="scale(0.015625)"/>
       <path id="ArialMT-48" d="M 513 0 
L 513 4581 
L 1119 4581 
L 1119 2700 
L 3500 2700 
L 3500 4581 
L 4106 4581 
L 4106 0 
L 3500 0 
L 3500 2159 
L 1119 2159 
L 1119 0 
L 513 0 
z
" transform="scale(0.015625)"/>
       <path id="ArialMT-7a" d="M 125 0 
L 125 456 
L 2238 2881 
Q 1878 2863 1603 2863 
L 250 2863 
L 250 3319 
L 2963 3319 
L 2963 2947 
L 1166 841 
L 819 456 
Q 1197 484 1528 484 
L 3063 484 
L 3063 0 
L 125 0 
z
" transform="scale(0.015625)"/>
       <path id="ArialMT-5d" d="M 1363 -1272 
L 122 -1272 
L 122 -806 
L 800 -806 
L 800 4116 
L 122 4116 
L 122 4581 
L 1363 4581 
L 1363 -1272 
z
" transform="scale(0.015625)"/>
      </defs>
      <use xlink:href="#ArialMT-46"/>
      <use xlink:href="#ArialMT-72" x="61.083984"/>
      <use xlink:href="#ArialMT-65" x="94.384766"/>
      <use xlink:href="#ArialMT-71" x="150"/>
      <use xlink:href="#ArialMT-75" x="205.615234"/>
      <use xlink:href="#ArialMT-65" x="261.230469"/>
      <use xlink:href="#ArialMT-6e" x="316.845703"/>
      <use xlink:href="#ArialMT-63" x="372.460938"/>
      <use xlink:href="#ArialMT-79" x="422.460938"/>
      <use xlink:href="#ArialMT-20" x="472.460938"/>
      <use xlink:href="#ArialMT-5b" x="500.244141"/>
      <use xlink:href="#ArialMT-48" x="528.027344"/>
      <use xlink:href="#ArialMT-7a" x="600.244141"/>
      <use xlink:href="#ArialMT-5d" x="650.244141"/>
     </g>
    </g>
   </g>
   <g id="matplotlib.axis_2">
    <g id="ytick_1">
     <g id="line2d_23">
      <path d="M 90 363.174545 
L 648 363.174545 
" clip-path="url(#p2196418639)" style="fill: none; stroke-dasharray: 1.85,0.8; stroke-dashoffset: 0; stroke: #cccccc; stroke-opacity: 0.7; stroke-width: 0.5"/>
     </g>
     <g id="text_8">
      <!-- 0 -->
      <g style="fill: #262626" transform="translate(74.382969 367.111342)scale(0.11 -0.11)">
       <use xlink:href="#ArialMT-30"/>
      </g>
     </g>
    </g>
    <g id="ytick_2">
     <g id="line2d_24">
      <path d="M 90 324.754821 
L 648 324.754821 
" clip-path="url(#p2196418639)" style="fill: none; stroke-dasharray: 1.85,0.8; stroke-dashoffset: 0; stroke: #cccccc; stroke-opacity: 0.7; stroke-width: 0.5"/>
     </g>
     <g id="text_9">
      <!-- 500 -->
      <g style="fill: #262626" transform="translate(62.148906 328.691618)scale(0.11 -0.11)">
       <defs>
        <path id="ArialMT-35" d="M 266 1200 
L 856 1250 
Q 922 819 1161 601 
Q 1400 384 1738 384 
Q 2144 384 2425 690 
Q 2706 997 2706 1503 
Q 2706 1984 2436 2262 
Q 2166 2541 1728 2541 
Q 1456 2541 1237 2417 
Q 1019 2294 894 2097 
L 366 2166 
L 809 4519 
L 3088 4519 
L 3088 3981 
L 1259 3981 
L 1013 2750 
Q 1425 3038 1878 3038 
Q 2478 3038 2890 2622 
Q 3303 2206 3303 1553 
Q 3303 931 2941 478 
Q 2500 -78 1738 -78 
Q 1113 -78 717 272 
Q 322 622 266 1200 
z
" transform="scale(0.015625)"/>
       </defs>
       <use xlink:href="#ArialMT-35"/>
       <use xlink:href="#ArialMT-30" x="55.615234"/>
       <use xlink:href="#ArialMT-30" x="111.230469"/>
      </g>
     </g>
    </g>
    <g id="ytick_3">
     <g id="line2d_25">
      <path d="M 90 286.335096 
L 648 286.335096 
" clip-path="url(#p2196418639)" style="fill: none; stroke-dasharray: 1.85,0.8; stroke-dashoffset: 0; stroke: #cccccc; stroke-opacity: 0.7; stroke-width: 0.5"/>
     </g>
     <g id="text_10">
      <!-- 1000 -->
      <g style="fill: #262626" transform="translate(56.031875 290.271893)scale(0.11 -0.11)">
       <use xlink:href="#ArialMT-31"/>
       <use xlink:href="#ArialMT-30" x="55.615234"/>
       <use xlink:href="#ArialMT-30" x="111.230469"/>
       <use xlink:href="#ArialMT-30" x="166.845703"/>
      </g>
     </g>
    </g>
    <g id="ytick_4">
     <g id="line2d_26">
      <path d="M 90 247.915371 
L 648 247.915371 
" clip-path="url(#p2196418639)" style="fill: none; stroke-dasharray: 1.85,0.8; stroke-dashoffset: 0; stroke: #cccccc; stroke-opacity: 0.7; stroke-width: 0.5"/>
     </g>
     <g id="text_11">
      <!-- 1500 -->
      <g style="fill: #262626" transform="translate(56.031875 251.852168)scale(0.11 -0.11)">
       <use xlink:href="#ArialMT-31"/>
       <use xlink:href="#ArialMT-35" x="55.615234"/>
       <use xlink:href="#ArialMT-30" x="111.230469"/>
       <use xlink:href="#ArialMT-30" x="166.845703"/>
      </g>
     </g>
    </g>
    <g id="ytick_5">
     <g id="line2d_27">
      <path d="M 90 209.495646 
L 648 209.495646 
" clip-path="url(#p2196418639)" style="fill: none; stroke-dasharray: 1.85,0.8; stroke-dashoffset: 0; stroke: #cccccc; stroke-opacity: 0.7; stroke-width: 0.5"/>
     </g>
     <g id="text_12">
      <!-- 2000 -->
      <g style="fill: #262626" transform="translate(56.031875 213.432443)scale(0.11 -0.11)">
       <use xlink:href="#ArialMT-32"/>
       <use xlink:href="#ArialMT-30" x="55.615234"/>
       <use xlink:href="#ArialMT-30" x="111.230469"/>
       <use xlink:href="#ArialMT-30" x="166.845703"/>
      </g>
     </g>
    </g>
    <g id="ytick_6">
     <g id="line2d_28">
      <path d="M 90 171.075922 
L 648 171.075922 
" clip-path="url(#p2196418639)" style="fill: none; stroke-dasharray: 1.85,0.8; stroke-dashoffset: 0; stroke: #cccccc; stroke-opacity: 0.7; stroke-width: 0.5"/>
     </g>
     <g id="text_13">
      <!-- 2500 -->
      <g style="fill: #262626" transform="translate(56.031875 175.012719)scale(0.11 -0.11)">
       <use xlink:href="#ArialMT-32"/>
       <use xlink:href="#ArialMT-35" x="55.615234"/>
       <use xlink:href="#ArialMT-30" x="111.230469"/>
       <use xlink:href="#ArialMT-30" x="166.845703"/>
      </g>
     </g>
    </g>
    <g id="ytick_7">
     <g id="line2d_29">
      <path d="M 90 132.656197 
L 648 132.656197 
" clip-path="url(#p2196418639)" style="fill: none; stroke-dasharray: 1.85,0.8; stroke-dashoffset: 0; stroke: #cccccc; stroke-opacity: 0.7; stroke-width: 0.5"/>
     </g>
     <g id="text_14">
      <!-- 3000 -->
      <g style="fill: #262626" transform="translate(56.031875 136.592994)scale(0.11 -0.11)">
       <defs>
        <path id="ArialMT-33" d="M 269 1209 
L 831 1284 
Q 928 806 1161 595 
Q 1394 384 1728 384 
Q 2125 384 2398 659 
Q 2672 934 2672 1341 
Q 2672 1728 2419 1979 
Q 2166 2231 1775 2231 
Q 1616 2231 1378 2169 
L 1441 2663 
Q 1497 2656 1531 2656 
Q 1891 2656 2178 2843 
Q 2466 3031 2466 3422 
Q 2466 3731 2256 3934 
Q 2047 4138 1716 4138 
Q 1388 4138 1169 3931 
Q 950 3725 888 3313 
L 325 3413 
Q 428 3978 793 4289 
Q 1159 4600 1703 4600 
Q 2078 4600 2393 4439 
Q 2709 4278 2876 4000 
Q 3044 3722 3044 3409 
Q 3044 3113 2884 2869 
Q 2725 2625 2413 2481 
Q 2819 2388 3044 2092 
Q 3269 1797 3269 1353 
Q 3269 753 2831 336 
Q 2394 -81 1725 -81 
Q 1122 -81 723 278 
Q 325 638 269 1209 
z
" transform="scale(0.015625)"/>
       </defs>
       <use xlink:href="#ArialMT-33"/>
       <use xlink:href="#ArialMT-30" x="55.615234"/>
       <use xlink:href="#ArialMT-30" x="111.230469"/>
       <use xlink:href="#ArialMT-30" x="166.845703"/>
      </g>
     </g>
    </g>
    <g id="ytick_8">
     <g id="line2d_30">
      <path d="M 90 94.236472 
L 648 94.236472 
" clip-path="url(#p2196418639)" style="fill: none; stroke-dasharray: 1.85,0.8; stroke-dashoffset: 0; stroke: #cccccc; stroke-opacity: 0.7; stroke-width: 0.5"/>
     </g>
     <g id="text_15">
      <!-- 3500 -->
      <g style="fill: #262626" transform="translate(56.031875 98.173269)scale(0.11 -0.11)">
       <use xlink:href="#ArialMT-33"/>
       <use xlink:href="#ArialMT-35" x="55.615234"/>
       <use xlink:href="#ArialMT-30" x="111.230469"/>
       <use xlink:href="#ArialMT-30" x="166.845703"/>
      </g>
     </g>
    </g>
    <g id="ytick_9">
     <g id="line2d_31">
      <path d="M 90 55.816747 
L 648 55.816747 
" clip-path="url(#p2196418639)" style="fill: none; stroke-dasharray: 1.85,0.8; stroke-dashoffset: 0; stroke: #cccccc; stroke-opacity: 0.7; stroke-width: 0.5"/>
     </g>
     <g id="text_16">
      <!-- 4000 -->
      <g style="fill: #262626" transform="translate(56.031875 59.753544)scale(0.11 -0.11)">
       <use xlink:href="#ArialMT-34"/>
       <use xlink:href="#ArialMT-30" x="55.615234"/>
       <use xlink:href="#ArialMT-30" x="111.230469"/>
       <use xlink:href="#ArialMT-30" x="166.845703"/>
      </g>
     </g>
    </g>
    <g id="text_17">
     <!-- Magnitude -->
     <g style="fill: #262626" transform="translate(47.8225 261.615312)rotate(-90)scale(0.2 -0.2)">
      <defs>
       <path id="ArialMT-4d" d="M 475 0 
L 475 4581 
L 1388 4581 
L 2472 1338 
Q 2622 884 2691 659 
Q 2769 909 2934 1394 
L 4031 4581 
L 4847 4581 
L 4847 0 
L 4263 0 
L 4263 3834 
L 2931 0 
L 2384 0 
L 1059 3900 
L 1059 0 
L 475 0 
z
" transform="scale(0.015625)"/>
       <path id="ArialMT-61" d="M 2588 409 
Q 2275 144 1986 34 
Q 1697 -75 1366 -75 
Q 819 -75 525 192 
Q 231 459 231 875 
Q 231 1119 342 1320 
Q 453 1522 633 1644 
Q 813 1766 1038 1828 
Q 1203 1872 1538 1913 
Q 2219 1994 2541 2106 
Q 2544 2222 2544 2253 
Q 2544 2597 2384 2738 
Q 2169 2928 1744 2928 
Q 1347 2928 1158 2789 
Q 969 2650 878 2297 
L 328 2372 
Q 403 2725 575 2942 
Q 747 3159 1072 3276 
Q 1397 3394 1825 3394 
Q 2250 3394 2515 3294 
Q 2781 3194 2906 3042 
Q 3031 2891 3081 2659 
Q 3109 2516 3109 2141 
L 3109 1391 
Q 3109 606 3145 398 
Q 3181 191 3288 0 
L 2700 0 
Q 2613 175 2588 409 
z
M 2541 1666 
Q 2234 1541 1622 1453 
Q 1275 1403 1131 1340 
Q 988 1278 909 1158 
Q 831 1038 831 891 
Q 831 666 1001 516 
Q 1172 366 1500 366 
Q 1825 366 2078 508 
Q 2331 650 2450 897 
Q 2541 1088 2541 1459 
L 2541 1666 
z
" transform="scale(0.015625)"/>
       <path id="ArialMT-67" d="M 319 -275 
L 866 -356 
Q 900 -609 1056 -725 
Q 1266 -881 1628 -881 
Q 2019 -881 2231 -725 
Q 2444 -569 2519 -288 
Q 2563 -116 2559 434 
Q 2191 0 1641 0 
Q 956 0 581 494 
Q 206 988 206 1678 
Q 206 2153 378 2554 
Q 550 2956 876 3175 
Q 1203 3394 1644 3394 
Q 2231 3394 2613 2919 
L 2613 3319 
L 3131 3319 
L 3131 450 
Q 3131 -325 2973 -648 
Q 2816 -972 2473 -1159 
Q 2131 -1347 1631 -1347 
Q 1038 -1347 672 -1080 
Q 306 -813 319 -275 
z
M 784 1719 
Q 784 1066 1043 766 
Q 1303 466 1694 466 
Q 2081 466 2343 764 
Q 2606 1063 2606 1700 
Q 2606 2309 2336 2618 
Q 2066 2928 1684 2928 
Q 1309 2928 1046 2623 
Q 784 2319 784 1719 
z
" transform="scale(0.015625)"/>
       <path id="ArialMT-69" d="M 425 3934 
L 425 4581 
L 988 4581 
L 988 3934 
L 425 3934 
z
M 425 0 
L 425 3319 
L 988 3319 
L 988 0 
L 425 0 
z
" transform="scale(0.015625)"/>
       <path id="ArialMT-74" d="M 1650 503 
L 1731 6 
Q 1494 -44 1306 -44 
Q 1000 -44 831 53 
Q 663 150 594 308 
Q 525 466 525 972 
L 525 2881 
L 113 2881 
L 113 3319 
L 525 3319 
L 525 4141 
L 1084 4478 
L 1084 3319 
L 1650 3319 
L 1650 2881 
L 1084 2881 
L 1084 941 
Q 1084 700 1114 631 
Q 1144 563 1211 522 
Q 1278 481 1403 481 
Q 1497 481 1650 503 
z
" transform="scale(0.015625)"/>
       <path id="ArialMT-64" d="M 2575 0 
L 2575 419 
Q 2259 -75 1647 -75 
Q 1250 -75 917 144 
Q 584 363 401 755 
Q 219 1147 219 1656 
Q 219 2153 384 2558 
Q 550 2963 881 3178 
Q 1213 3394 1622 3394 
Q 1922 3394 2156 3267 
Q 2391 3141 2538 2938 
L 2538 4581 
L 3097 4581 
L 3097 0 
L 2575 0 
z
M 797 1656 
Q 797 1019 1065 703 
Q 1334 388 1700 388 
Q 2069 388 2326 689 
Q 2584 991 2584 1609 
Q 2584 2291 2321 2609 
Q 2059 2928 1675 2928 
Q 1300 2928 1048 2622 
Q 797 2316 797 1656 
z
" transform="scale(0.015625)"/>
      </defs>
      <use xlink:href="#ArialMT-4d"/>
      <use xlink:href="#ArialMT-61" x="83.300781"/>
      <use xlink:href="#ArialMT-67" x="138.916016"/>
      <use xlink:href="#ArialMT-6e" x="194.53125"/>
      <use xlink:href="#ArialMT-69" x="250.146484"/>
      <use xlink:href="#ArialMT-74" x="272.363281"/>
      <use xlink:href="#ArialMT-75" x="300.146484"/>
      <use xlink:href="#ArialMT-64" x="355.761719"/>
      <use xlink:href="#ArialMT-65" x="411.376953"/>
     </g>
    </g>
   </g>
   <g id="line2d_32">
    <path d="M 125.76669 245.164369 
L 126.262074 186.671354 
L 126.757457 273.626161 
L 127.252841 298.392841 
L 127.748224 275.59024 
L 128.243608 307.976307 
L 128.738991 283.622419 
L 129.234375 249.560281 
L 129.729759 335.603431 
L 130.225142 322.925457 
L 130.720526 280.283773 
L 131.215909 291.296739 
L 131.711293 329.388491 
L 133.197443 206.739278 
L 133.692827 256.954974 
L 134.18821 294.447712 
L 134.683594 265.202134 
L 135.178977 185.319835 
L 135.674361 177.895178 
L 136.169744 258.043034 
L 136.665128 242.865611 
L 137.160511 272.431932 
L 137.655895 241.985442 
L 138.151278 239.316313 
L 138.646662 321.169163 
L 139.142045 323.194023 
L 139.637429 270.08488 
L 140.132812 287.507512 
L 140.628196 236.156644 
L 141.12358 321.553642 
L 141.618963 288.300179 
L 142.114347 307.159116 
L 142.60973 221.137208 
L 143.105114 306.495406 
L 143.600497 295.5812 
L 144.095881 236.183854 
L 144.591264 208.786921 
L 145.086648 204.168735 
L 145.582031 303.041808 
L 146.077415 337.250642 
L 146.572798 311.749737 
L 147.068182 245.046294 
L 147.563565 194.969868 
L 148.058949 232.931648 
L 148.554332 240.069865 
L 149.049716 316.726679 
L 149.545099 256.354454 
L 150.040483 257.063623 
L 150.535866 302.402842 
L 151.03125 288.202588 
L 151.526634 203.562096 
L 152.022017 211.557981 
L 152.517401 223.455129 
L 153.012784 281.82297 
L 153.508168 296.32771 
L 154.003551 306.493954 
L 154.498935 244.579268 
L 154.994318 298.6872 
L 155.489702 307.36069 
L 155.985085 305.926483 
L 156.480469 231.574199 
L 156.975852 138.42376 
L 157.471236 195.073131 
L 157.966619 214.922543 
L 158.462003 268.03215 
L 158.957386 291.384287 
L 159.45277 290.219217 
L 159.948153 322.589987 
L 160.443537 273.177247 
L 160.93892 283.644501 
L 161.434304 342.598886 
L 161.929688 264.699377 
L 162.425071 343.165096 
L 162.920455 316.323636 
L 163.415838 304.340603 
L 163.911222 265.204245 
L 164.406605 258.867394 
L 164.901989 243.694577 
L 165.397372 348.115963 
L 165.892756 192.675907 
L 166.388139 249.747368 
L 166.883523 284.259391 
L 167.378906 270.936158 
L 167.87429 277.809047 
L 168.369673 263.162595 
L 168.865057 199.648192 
L 169.36044 286.933226 
L 169.855824 294.023771 
L 170.351207 316.732643 
L 170.846591 319.247187 
L 171.341974 287.553724 
L 171.837358 309.545139 
L 172.828125 180.094184 
L 173.323509 209.354613 
L 173.818892 194.802266 
L 174.314276 305.115238 
L 174.809659 233.98556 
L 175.305043 246.227888 
L 175.800426 207.496771 
L 176.29581 249.622993 
L 176.791193 239.399371 
L 177.286577 284.038602 
L 177.78196 250.974565 
L 178.277344 271.1239 
L 178.772727 191.666786 
L 179.268111 309.517912 
L 179.763494 308.323343 
L 180.258878 288.099428 
L 180.754261 278.815742 
L 181.249645 325.939136 
L 181.745028 290.114618 
L 182.240412 327.481881 
L 182.735795 291.308159 
L 183.231179 208.590676 
L 183.726562 313.301762 
L 184.221946 204.431103 
L 184.71733 140.293354 
L 185.708097 233.35918 
L 186.20348 331.969446 
L 186.698864 282.182949 
L 187.194247 313.231662 
L 187.689631 301.788757 
L 188.185014 266.795099 
L 188.680398 276.855855 
L 189.175781 280.392207 
L 189.671165 199.657695 
L 190.166548 232.23668 
L 190.661932 245.956287 
L 191.157315 285.449039 
L 191.652699 203.801511 
L 192.148082 243.957687 
L 192.643466 240.786176 
L 193.138849 296.353817 
L 193.634233 277.410671 
L 194.129616 277.392675 
L 194.625 328.101364 
L 195.120384 259.069612 
L 195.615767 318.369442 
L 196.111151 290.608302 
L 196.606534 327.544035 
L 197.101918 165.128627 
L 197.597301 131.624364 
L 198.092685 205.270125 
L 198.588068 259.24521 
L 199.083452 246.831284 
L 199.578835 285.253139 
L 200.074219 270.078582 
L 200.569602 289.859732 
L 201.064986 291.340734 
L 201.560369 270.273952 
L 202.055753 262.291024 
L 202.551136 268.274266 
L 203.04652 324.776718 
L 203.541903 171.621141 
L 204.037287 335.278297 
L 204.53267 183.380498 
L 205.028054 230.838206 
L 205.523438 194.840041 
L 206.018821 265.694698 
L 206.514205 249.920339 
L 207.009588 255.249369 
L 208.000355 322.504406 
L 208.495739 273.706205 
L 208.991122 307.57756 
L 209.486506 300.599829 
L 209.981889 315.297888 
L 210.972656 354.70215 
L 211.46804 260.203256 
L 211.963423 280.028532 
L 212.458807 239.336587 
L 212.95419 261.229921 
L 213.449574 264.886166 
L 213.944957 278.265462 
L 214.440341 275.256652 
L 214.935724 194.996168 
L 215.431108 148.811185 
L 215.926491 212.326056 
L 216.421875 182.27328 
L 216.917259 257.707771 
L 217.412642 173.803222 
L 217.908026 327.562519 
L 218.403409 251.625641 
L 218.898793 255.470366 
L 219.88956 142.839587 
L 220.384943 318.05394 
L 220.880327 315.104814 
L 221.37571 282.455822 
L 221.871094 291.038693 
L 222.366477 351.569095 
L 223.357244 252.440946 
L 223.852628 281.038182 
L 224.348011 295.108746 
L 224.843395 152.777983 
L 225.338778 190.698839 
L 225.834162 204.522576 
L 226.329545 267.230197 
L 226.824929 298.433396 
L 227.320312 301.777333 
L 227.815696 341.487669 
L 228.31108 309.193907 
L 228.806463 301.539056 
L 229.301847 263.811514 
L 229.79723 325.477218 
L 230.292614 280.004671 
L 230.787997 262.625792 
L 231.283381 335.13901 
L 231.778764 242.920705 
L 232.274148 230.657522 
L 232.769531 112.451995 
L 233.264915 256.692954 
L 233.760298 251.415919 
L 234.255682 335.171762 
L 234.751065 304.37512 
L 235.246449 247.753062 
L 235.741832 338.968147 
L 236.237216 322.930132 
L 236.732599 326.99984 
L 237.227983 273.139901 
L 237.723366 160.424257 
L 238.21875 244.97865 
L 238.714134 309.385881 
L 239.704901 237.974718 
L 240.200284 319.019244 
L 240.695668 236.568447 
L 241.191051 197.637475 
L 241.686435 219.904302 
L 242.181818 284.052173 
L 242.677202 192.432992 
L 243.172585 186.640904 
L 243.667969 331.255676 
L 244.163352 304.193079 
L 244.658736 306.696913 
L 245.154119 330.612671 
L 245.649503 321.550748 
L 246.144886 346.014991 
L 246.64027 269.043772 
L 247.135653 247.658782 
L 247.631037 295.610686 
L 248.12642 297.476654 
L 248.621804 324.551493 
L 249.117188 304.609039 
L 249.612571 206.486155 
L 250.107955 295.135155 
L 250.603338 175.356039 
L 251.098722 177.864706 
L 251.594105 281.451921 
L 252.089489 300.611417 
L 252.584872 233.208796 
L 253.080256 289.024413 
L 254.071023 216.665498 
L 255.06179 292.714256 
L 255.557173 181.932069 
L 256.54794 320.053405 
L 257.043324 241.704978 
L 257.538707 319.925146 
L 258.034091 283.590075 
L 258.529474 315.383227 
L 259.024858 248.337877 
L 259.520241 204.351746 
L 260.015625 305.290337 
L 260.511009 300.690344 
L 261.006392 107.855671 
L 261.997159 338.647394 
L 262.492543 167.075563 
L 262.987926 225.150236 
L 263.48331 328.395877 
L 263.978693 230.569847 
L 264.474077 341.504452 
L 264.96946 297.084278 
L 265.464844 177.933744 
L 265.960227 194.354621 
L 266.455611 193.25211 
L 266.950994 225.74962 
L 267.446378 267.881231 
L 267.941761 336.564469 
L 268.437145 234.280611 
L 268.932528 253.785861 
L 269.427912 330.609602 
L 269.923295 318.811676 
L 270.418679 290.880695 
L 270.914062 288.925411 
L 271.409446 247.369294 
L 271.90483 329.687077 
L 272.400213 293.093348 
L 272.895597 232.927735 
L 273.39098 276.693988 
L 273.886364 188.638645 
L 274.381747 323.57424 
L 274.877131 243.778041 
L 275.372514 222.360467 
L 275.867898 250.18209 
L 276.363281 250.381306 
L 276.858665 84.926518 
L 277.354048 193.488524 
L 277.849432 225.368785 
L 278.344815 197.658429 
L 278.840199 219.452299 
L 279.830966 328.777823 
L 280.821733 230.368104 
L 281.317116 255.632248 
L 281.8125 259.381522 
L 282.307884 277.922781 
L 282.803267 276.732434 
L 283.298651 211.291516 
L 283.794034 296.805725 
L 284.289418 288.542889 
L 284.784801 276.32834 
L 285.280185 256.73054 
L 285.775568 270.51594 
L 286.270952 237.511502 
L 286.766335 97.70352 
L 287.261719 74.677212 
L 287.757102 238.529081 
L 288.252486 339.253611 
L 288.747869 178.760996 
L 289.243253 306.904605 
L 289.738636 306.416741 
L 290.23402 344.003535 
L 290.729403 321.829438 
L 291.224787 314.577259 
L 291.72017 291.339495 
L 292.710938 202.649073 
L 293.206321 215.40006 
L 294.197088 288.829699 
L 294.692472 224.757208 
L 295.187855 309.569384 
L 295.683239 292.551383 
L 296.178622 177.838448 
L 296.674006 230.908866 
L 297.169389 190.732209 
L 297.664773 322.334901 
L 298.160156 349.337155 
L 298.65554 295.564062 
L 299.150923 213.669195 
L 299.646307 214.679463 
L 300.14169 213.966788 
L 300.637074 259.278224 
L 301.132457 292.200975 
L 301.627841 265.022766 
L 302.123224 263.698838 
L 302.618608 201.044362 
L 303.113991 113.877666 
L 303.609375 198.168075 
L 304.104759 231.438765 
L 304.600142 318.793146 
L 305.095526 232.944007 
L 305.590909 293.930966 
L 306.086293 338.06128 
L 306.581676 247.830512 
L 307.07706 241.844918 
L 307.572443 226.808213 
L 308.067827 226.58691 
L 308.56321 206.954207 
L 309.058594 203.289483 
L 309.553977 253.885829 
L 310.049361 320.855203 
L 310.544744 300.183448 
L 311.040128 299.632225 
L 311.535511 324.52199 
L 312.030895 232.524884 
L 312.526278 253.102309 
L 313.021662 156.538726 
L 313.517045 296.200194 
L 314.012429 328.930042 
L 314.507812 303.830964 
L 315.003196 254.960037 
L 315.49858 282.319567 
L 315.993963 206.169048 
L 316.489347 295.220335 
L 316.98473 303.738209 
L 317.480114 254.488102 
L 318.966264 186.018451 
L 319.461648 141.089458 
L 319.957031 251.156496 
L 320.452415 307.517838 
L 320.947798 261.558923 
L 321.443182 321.900788 
L 321.938565 314.191871 
L 322.433949 150.717456 
L 322.929332 252.214209 
L 323.424716 200.805068 
L 323.920099 292.374089 
L 324.415483 319.823163 
L 324.910866 267.46496 
L 325.40625 297.957894 
L 325.901634 277.662903 
L 326.397017 338.976024 
L 326.892401 275.606368 
L 327.387784 276.836925 
L 327.883168 328.173324 
L 328.378551 287.445648 
L 328.873935 283.566642 
L 329.369318 156.502319 
L 329.864702 222.910983 
L 330.360085 304.380351 
L 330.855469 297.947741 
L 331.350852 246.942775 
L 331.846236 310.417859 
L 332.341619 278.805862 
L 332.837003 294.322121 
L 333.332386 270.090514 
L 333.82777 170.602277 
L 334.323153 184.150263 
L 334.818537 257.925888 
L 335.31392 162.665933 
L 335.809304 257.659979 
L 336.304688 275.170919 
L 336.800071 327.311233 
L 337.295455 348.644268 
L 337.790838 245.540823 
L 338.286222 192.417054 
L 338.781605 258.852749 
L 339.276989 255.424811 
L 339.772372 333.199307 
L 340.267756 251.700322 
L 340.763139 262.985973 
L 341.258523 253.590892 
L 341.753906 289.79178 
L 342.24929 194.690412 
L 342.744673 269.167683 
L 343.240057 280.65877 
L 343.73544 190.246335 
L 344.230824 230.221699 
L 344.726207 249.894828 
L 345.221591 246.383504 
L 345.716974 173.210695 
L 346.212358 272.129889 
L 346.707741 291.650433 
L 347.203125 338.857264 
L 347.698509 326.09496 
L 348.193892 304.733807 
L 348.689276 357.418386 
L 349.184659 337.588604 
L 349.680043 289.238072 
L 350.175426 293.782455 
L 350.67081 273.083876 
L 351.166193 185.179936 
L 351.661577 275.318105 
L 352.15696 336.851193 
L 352.652344 314.831921 
L 353.643111 264.583164 
L 354.138494 309.771722 
L 354.633878 340.374557 
L 355.129261 358.324695 
L 355.624645 237.579972 
L 356.120028 223.856105 
L 356.615412 215.716761 
L 357.110795 274.661425 
L 357.606179 247.450385 
L 358.101562 241.083065 
L 358.596946 222.705203 
L 359.09233 334.896096 
L 359.587713 231.941602 
L 360.083097 184.646263 
L 360.57848 193.667767 
L 361.073864 250.687121 
L 361.569247 246.809411 
L 362.064631 327.813488 
L 362.560014 334.825342 
L 363.055398 247.511297 
L 363.550781 270.500074 
L 364.046165 322.532207 
L 364.541548 294.980803 
L 365.036932 326.155288 
L 365.532315 328.033251 
L 366.027699 323.150046 
L 366.523082 261.274734 
L 367.018466 265.554456 
L 367.513849 318.904593 
L 369 281.827439 
L 369 281.827439 
" clip-path="url(#p2196418639)" style="fill: none; stroke: #1f77b4; stroke-width: 0.7; stroke-linecap: round"/>
   </g>
   <g id="line2d_33">
    <path d="M 115.363636 363.174545 
L 115.85902 251.47702 
L 116.354403 251.303851 
L 116.849787 233.831534 
L 117.34517 195.259663 
L 117.840554 349.408468 
L 118.335938 337.56005 
L 118.831321 183.085147 
L 119.326705 225.734246 
L 119.822088 316.709564 
L 120.317472 358.638231 
L 120.812855 300.47706 
L 121.308239 256.581782 
L 121.803622 283.818547 
L 122.299006 331.889587 
L 122.794389 312.244537 
L 123.289773 220.838293 
L 123.785156 192.420101 
L 124.28054 284.138157 
L 124.775923 290.433577 
L 125.271307 257.573212 
L 125.76669 245.164369 
L 126.262074 186.671354 
L 126.757457 273.626161 
L 127.252841 298.392841 
L 127.748224 275.59024 
L 128.243608 307.976307 
L 128.738991 283.622419 
L 129.234375 249.560281 
L 129.729759 335.603431 
L 130.225142 322.925457 
L 130.720526 280.283773 
L 131.215909 291.296739 
L 131.711293 329.388491 
L 133.197443 206.739278 
L 133.692827 256.954974 
L 134.18821 294.447712 
L 134.683594 265.202134 
L 135.178977 185.319835 
L 135.674361 177.895178 
L 136.169744 258.043034 
L 136.665128 242.865611 
L 137.160511 272.431932 
L 137.655895 241.985442 
L 138.151278 239.316313 
L 138.646662 321.169163 
L 139.142045 323.194023 
L 139.637429 270.08488 
L 140.132812 287.507512 
L 140.628196 236.156644 
L 141.12358 321.553642 
L 141.618963 288.300179 
L 142.114347 307.159116 
L 142.60973 221.137208 
L 143.105114 306.495406 
L 143.600497 295.5812 
L 144.095881 236.183854 
L 144.591264 208.786921 
L 145.086648 204.168735 
L 145.582031 303.041808 
L 146.077415 337.250642 
L 146.572798 311.749737 
L 147.068182 245.046294 
L 147.563565 194.969868 
L 148.058949 232.931648 
L 148.554332 240.069865 
L 149.049716 316.726679 
L 149.545099 256.354454 
L 150.040483 257.063623 
L 150.535866 302.402842 
L 151.03125 288.202588 
L 151.526634 203.562096 
L 152.022017 211.557981 
L 152.517401 223.455129 
L 153.012784 281.82297 
L 153.508168 296.32771 
L 154.003551 306.493954 
L 154.498935 244.579268 
L 154.994318 298.6872 
L 155.489702 307.36069 
L 155.985085 305.926483 
L 156.480469 231.574199 
L 156.975852 138.42376 
L 157.471236 195.073131 
L 157.966619 214.922543 
L 158.462003 268.03215 
L 158.957386 291.384287 
L 159.45277 290.219217 
L 159.948153 322.589987 
L 160.443537 273.177247 
L 160.93892 283.644501 
L 161.434304 342.598886 
L 161.929688 264.699377 
L 162.425071 343.165096 
L 162.920455 316.323636 
L 163.415838 304.340603 
L 163.911222 265.204245 
L 164.406605 258.867394 
L 164.901989 243.694577 
L 165.397372 348.115963 
L 165.892756 192.675907 
L 166.388139 249.747368 
L 166.883523 284.259391 
L 167.378906 270.936158 
L 167.87429 277.809047 
L 168.369673 263.162595 
L 168.865057 199.648192 
L 169.36044 286.933226 
L 169.855824 294.023771 
L 170.351207 316.732643 
L 170.846591 319.247187 
L 171.341974 287.553724 
L 171.837358 309.545139 
L 172.828125 180.094184 
L 173.323509 209.354613 
L 173.818892 194.802266 
L 174.314276 305.115238 
L 174.809659 233.98556 
L 175.305043 246.227888 
L 175.800426 207.496771 
L 176.29581 249.622993 
L 176.791193 239.399371 
L 177.286577 284.038602 
L 177.78196 250.974565 
L 178.277344 271.1239 
L 178.772727 191.666786 
L 179.268111 309.517912 
L 179.763494 308.323343 
L 180.258878 288.099428 
L 180.754261 278.815742 
L 181.249645 325.939136 
L 181.745028 290.114618 
L 182.240412 327.481881 
L 182.735795 291.308159 
L 183.231179 208.590676 
L 183.726562 313.301762 
L 184.221946 204.431103 
L 184.71733 140.293354 
L 185.708097 233.35918 
L 186.20348 331.969446 
L 186.698864 282.182949 
L 187.194247 313.231662 
L 187.689631 301.788757 
L 188.185014 266.795099 
L 188.680398 276.855855 
L 189.175781 280.392207 
L 189.671165 199.657695 
L 190.166548 232.23668 
L 190.661932 245.956287 
L 191.157315 285.449039 
L 191.652699 203.801511 
L 192.148082 243.957687 
L 192.643466 240.786176 
L 193.138849 296.353817 
L 193.634233 277.410671 
L 194.129616 277.392675 
L 194.625 328.101364 
L 195.120384 259.069612 
L 195.615767 318.369442 
L 196.111151 290.608302 
L 196.606534 327.544035 
L 197.101918 165.128627 
L 197.597301 131.624364 
L 198.092685 205.270125 
L 198.588068 259.24521 
L 199.083452 246.831284 
L 199.578835 285.253139 
L 200.074219 270.078582 
L 200.569602 289.859732 
L 201.064986 291.340734 
L 201.560369 270.273952 
L 202.055753 262.291024 
L 202.551136 268.274266 
L 203.04652 324.776718 
L 203.541903 171.621141 
L 204.037287 335.278297 
L 204.53267 183.380498 
L 205.028054 230.838206 
L 205.523438 194.840041 
L 206.018821 265.694698 
L 206.514205 249.920339 
L 207.009588 255.249369 
L 208.000355 322.504406 
L 208.495739 273.706205 
L 208.991122 307.57756 
L 209.486506 300.599829 
L 209.981889 315.297888 
L 210.972656 354.70215 
L 211.46804 260.203256 
L 211.963423 280.028532 
L 212.458807 239.336587 
L 212.95419 261.229921 
L 213.449574 264.886166 
L 213.944957 278.265462 
L 214.440341 275.256652 
L 214.935724 194.996168 
L 215.431108 148.811185 
L 215.926491 212.326056 
L 216.421875 182.27328 
L 216.917259 257.707771 
L 217.412642 173.803222 
L 217.908026 327.562519 
L 218.403409 251.625641 
L 218.898793 255.470366 
L 219.88956 142.839587 
L 220.384943 318.05394 
L 220.880327 315.104814 
L 221.37571 282.455822 
L 221.871094 291.038693 
L 222.366477 351.569095 
L 223.357244 252.440946 
L 223.852628 281.038182 
L 224.348011 295.108746 
L 224.843395 152.777983 
L 225.338778 190.698839 
L 225.834162 204.522576 
L 226.329545 267.230197 
L 226.824929 298.433396 
L 227.320312 301.777333 
L 227.815696 341.487669 
L 228.31108 309.193907 
L 228.806463 301.539056 
L 229.301847 263.811514 
L 229.79723 325.477218 
L 230.292614 280.004671 
L 230.787997 262.625792 
L 231.283381 335.13901 
L 231.778764 242.920705 
L 232.274148 230.657522 
L 232.769531 112.451995 
L 233.264915 256.692954 
L 233.760298 251.415919 
L 234.255682 335.171762 
L 234.751065 304.37512 
L 235.246449 247.753062 
L 235.741832 338.968147 
L 236.237216 322.930132 
L 236.732599 326.99984 
L 237.227983 273.139901 
L 237.723366 160.424257 
L 238.21875 244.97865 
L 238.714134 309.385881 
L 239.704901 237.974718 
L 240.200284 319.019244 
L 240.695668 236.568447 
L 241.191051 197.637475 
L 241.686435 219.904302 
L 242.181818 284.052173 
L 242.677202 192.432992 
L 243.172585 186.640904 
L 243.667969 331.255676 
L 244.163352 304.193079 
L 244.658736 306.696913 
L 245.154119 330.612671 
L 245.649503 321.550748 
L 246.144886 346.014991 
L 246.64027 269.043772 
L 247.135653 247.658782 
L 247.631037 295.610686 
L 248.12642 297.476654 
L 248.621804 324.551493 
L 249.117188 304.609039 
L 249.612571 206.486155 
L 250.107955 295.135155 
L 250.603338 175.356039 
L 251.098722 177.864706 
L 251.594105 281.451921 
L 252.089489 300.611417 
L 252.584872 233.208796 
L 253.080256 289.024413 
L 254.071023 216.665498 
L 255.06179 292.714256 
L 255.557173 181.932069 
L 256.54794 320.053405 
L 257.043324 241.704978 
L 257.538707 319.925146 
L 258.034091 283.590075 
L 258.529474 315.383227 
L 259.024858 248.337877 
L 259.520241 204.351746 
L 260.015625 305.290337 
L 260.511009 300.690344 
L 261.006392 107.855671 
L 261.997159 338.647394 
L 262.492543 167.075563 
L 262.987926 225.150236 
L 263.48331 328.395877 
L 263.978693 230.569847 
L 264.474077 341.504452 
L 264.96946 297.084278 
L 265.464844 177.933744 
L 265.960227 194.354621 
L 266.455611 193.25211 
L 266.950994 225.74962 
L 267.446378 267.881231 
L 267.941761 336.564469 
L 268.437145 234.280611 
L 268.932528 253.785861 
L 269.427912 330.609602 
L 269.923295 318.811676 
L 270.418679 290.880695 
L 270.914062 288.925411 
L 271.409446 247.369294 
L 271.90483 329.687077 
L 272.400213 293.093348 
L 272.895597 232.927735 
L 273.39098 276.693988 
L 273.886364 188.638645 
L 274.381747 323.57424 
L 274.877131 243.778041 
L 275.372514 222.360467 
L 275.867898 250.18209 
L 276.363281 250.381306 
L 276.858665 84.926518 
L 277.354048 193.488524 
L 277.849432 225.368785 
L 278.344815 197.658429 
L 278.840199 219.452299 
L 279.830966 328.777823 
L 280.821733 230.368104 
L 281.317116 255.632248 
L 281.8125 259.381522 
L 282.307884 277.922781 
L 282.803267 276.732434 
L 283.298651 211.291516 
L 283.794034 296.805725 
L 284.289418 288.542889 
L 284.784801 276.32834 
L 285.280185 256.73054 
L 285.775568 270.51594 
L 286.270952 237.511502 
L 286.766335 97.70352 
L 287.261719 74.677212 
L 287.757102 238.529081 
L 288.252486 339.253611 
L 288.747869 178.760996 
L 289.243253 306.904605 
L 289.738636 306.416741 
L 290.23402 344.003535 
L 290.729403 321.829438 
L 291.224787 314.577259 
L 291.72017 291.339495 
L 292.710938 202.649073 
L 293.206321 215.40006 
L 294.197088 288.829699 
L 294.692472 224.757208 
L 295.187855 309.569384 
L 295.683239 292.551383 
L 296.178622 177.838448 
L 296.674006 230.908866 
L 297.169389 190.732209 
L 297.664773 322.334901 
L 298.160156 349.337155 
L 298.65554 295.564062 
L 299.150923 213.669195 
L 299.646307 214.679463 
L 300.14169 213.966788 
L 300.637074 259.278224 
L 301.132457 292.200975 
L 301.627841 265.022766 
L 302.123224 263.698838 
L 302.618608 201.044362 
L 303.113991 113.877666 
L 303.609375 198.168075 
L 304.104759 231.438765 
L 304.600142 318.793146 
L 305.095526 232.944007 
L 305.590909 293.930966 
L 306.086293 338.06128 
L 306.581676 247.830512 
L 307.07706 241.844918 
L 307.572443 226.808213 
L 308.067827 226.58691 
L 308.56321 206.954207 
L 309.058594 203.289483 
L 309.553977 253.885829 
L 310.049361 320.855203 
L 310.544744 300.183448 
L 311.040128 299.632225 
L 311.535511 324.52199 
L 312.030895 232.524884 
L 312.526278 253.102309 
L 313.021662 156.538726 
L 313.517045 296.200194 
L 314.012429 328.930042 
L 314.507812 303.830964 
L 315.003196 254.960037 
L 315.49858 282.319567 
L 315.993963 206.169048 
L 316.489347 295.220335 
L 316.98473 303.738209 
L 317.480114 254.488102 
L 318.966264 186.018451 
L 319.461648 141.089458 
L 319.957031 251.156496 
L 320.452415 307.517838 
L 320.947798 261.558923 
L 321.443182 321.900788 
L 321.938565 314.191871 
L 322.433949 150.717456 
L 322.929332 252.214209 
L 323.424716 200.805068 
L 323.920099 292.374089 
L 324.415483 319.823163 
L 324.910866 267.46496 
L 325.40625 297.957894 
L 325.901634 277.662903 
L 326.397017 338.976024 
L 326.892401 275.606368 
L 327.387784 276.836925 
L 327.883168 328.173324 
L 328.378551 287.445648 
L 328.873935 283.566642 
L 329.369318 156.502319 
L 329.864702 222.910983 
L 330.360085 304.380351 
L 330.855469 297.947741 
L 331.350852 246.942775 
L 331.846236 310.417859 
L 332.341619 278.805862 
L 332.837003 294.322121 
L 333.332386 270.090514 
L 333.82777 170.602277 
L 334.323153 184.150263 
L 334.818537 257.925888 
L 335.31392 162.665933 
L 335.809304 257.659979 
L 336.304688 275.170919 
L 336.800071 327.311233 
L 337.295455 348.644268 
L 337.790838 245.540823 
L 338.286222 192.417054 
L 338.781605 258.852749 
L 339.276989 255.424811 
L 339.772372 333.199307 
L 340.267756 251.700322 
L 340.763139 262.985973 
L 341.258523 253.590892 
L 341.753906 289.79178 
L 342.24929 194.690412 
L 342.744673 269.167683 
L 343.240057 280.65877 
L 343.73544 190.246335 
L 344.230824 230.221699 
L 344.726207 249.894828 
L 345.221591 246.383504 
L 345.716974 173.210695 
L 346.212358 272.129889 
L 346.707741 291.650433 
L 347.203125 338.857264 
L 347.698509 326.09496 
L 348.193892 304.733807 
L 348.689276 357.418386 
L 349.184659 337.588604 
L 349.680043 289.238072 
L 350.175426 293.782455 
L 350.67081 273.083876 
L 351.166193 185.179936 
L 351.661577 275.318105 
L 352.15696 336.851193 
L 352.652344 314.831921 
L 353.643111 264.583164 
L 354.138494 309.771722 
L 354.633878 340.374557 
L 355.129261 358.324695 
L 355.624645 237.579972 
L 356.120028 223.856105 
L 356.615412 215.716761 
L 357.110795 274.661425 
L 357.606179 247.450385 
L 358.101562 241.083065 
L 358.596946 222.705203 
L 359.09233 334.896096 
L 359.587713 231.941602 
L 360.083097 184.646263 
L 360.57848 193.667767 
L 361.073864 250.687121 
L 361.569247 246.809411 
L 362.064631 327.813488 
L 362.560014 334.825342 
L 363.055398 247.511297 
L 363.550781 270.500074 
L 364.046165 322.532207 
L 364.541548 294.980803 
L 365.036932 326.155288 
L 365.532315 328.033251 
L 366.027699 323.150046 
L 366.523082 261.274734 
L 367.018466 265.554456 
L 367.513849 318.904593 
L 369 281.827439 
L 369.495384 330.698713 
L 369.990767 269.219843 
L 370.486151 352.549252 
L 370.981534 259.2847 
L 371.476918 305.515851 
L 371.972301 230.270957 
L 372.467685 215.68308 
L 372.963068 262.796992 
L 373.458452 285.955282 
L 373.953835 200.912891 
L 374.449219 210.639978 
L 374.944602 303.603982 
L 375.439986 242.994422 
L 375.935369 243.668909 
L 376.430753 223.667349 
L 376.926136 156.474505 
L 377.42152 289.332701 
L 377.916903 270.327217 
L 378.412287 243.387831 
L 378.90767 255.950433 
L 379.403054 273.43852 
L 379.898438 270.114461 
L 380.889205 307.252437 
L 381.384588 332.366229 
L 381.879972 228.919825 
L 382.375355 245.601086 
L 382.870739 287.022022 
L 383.366122 316.802163 
L 383.861506 179.331963 
L 384.356889 181.266782 
L 384.852273 259.945559 
L 385.347656 309.618541 
L 385.84304 276.438067 
L 386.338423 267.8183 
L 386.833807 290.838468 
L 387.32919 258.827016 
L 387.824574 273.502511 
L 388.319957 235.365658 
L 388.815341 223.101644 
L 389.310724 224.49847 
L 389.806108 284.813143 
L 390.301491 301.028884 
L 390.796875 313.562257 
L 391.292259 191.685135 
L 391.787642 301.166302 
L 392.283026 245.690353 
L 392.778409 257.323667 
L 394.26456 338.869195 
L 395.255327 262.3096 
L 395.75071 349.070212 
L 396.246094 322.204769 
L 396.741477 322.110453 
L 397.236861 267.059022 
L 397.732244 275.226252 
L 398.227628 251.405796 
L 398.723011 216.385427 
L 399.218395 260.490472 
L 399.713778 291.492424 
L 400.209162 185.155157 
L 400.704545 240.450991 
L 401.199929 228.384667 
L 401.695313 266.166965 
L 402.190696 241.981466 
L 402.68608 328.912415 
L 403.181463 208.631559 
L 403.676847 182.711508 
L 404.17223 331.63727 
L 404.667614 279.984629 
L 405.162997 350.019684 
L 406.153764 278.179352 
L 406.649148 330.68807 
L 407.144531 302.919349 
L 407.639915 299.599792 
L 408.135298 273.145081 
L 408.630682 288.508118 
L 409.126065 307.365804 
L 409.621449 224.690645 
L 410.116832 271.308699 
L 410.612216 300.965738 
L 411.107599 292.072628 
L 411.602983 273.279693 
L 412.098366 295.0013 
L 412.59375 228.451346 
L 413.089134 220.695563 
L 413.584517 236.072234 
L 414.079901 259.909725 
L 414.575284 208.230627 
L 415.070668 333.602124 
L 415.566051 244.216985 
L 416.061435 318.723939 
L 416.556818 179.537878 
L 417.052202 185.881545 
L 417.547585 188.754498 
L 418.042969 298.824425 
L 418.538352 253.682569 
L 419.033736 122.369221 
L 419.529119 315.941 
L 420.024503 311.97952 
L 420.519886 322.474076 
L 421.01527 227.447557 
L 421.510653 345.075806 
L 422.006037 264.573877 
L 422.50142 225.133389 
L 422.996804 220.743318 
L 423.492188 275.44293 
L 424.482955 114.119399 
L 424.978338 228.765134 
L 425.473722 280.799177 
L 425.969105 168.219887 
L 426.464489 183.680094 
L 426.959872 271.814681 
L 427.455256 301.745371 
L 427.950639 304.050839 
L 428.446023 299.503826 
L 428.941406 239.987064 
L 429.43679 312.826533 
L 429.932173 328.729375 
L 430.427557 201.154223 
L 430.92294 259.292988 
L 431.418324 344.867274 
L 431.913707 201.643427 
L 432.409091 244.689224 
L 432.904474 245.018435 
L 433.399858 291.480394 
L 433.895241 284.98477 
L 434.390625 246.707397 
L 434.886009 345.876666 
L 435.381392 241.931929 
L 435.876776 287.044289 
L 436.372159 256.426435 
L 436.867543 319.614238 
L 437.362926 221.228846 
L 437.85831 282.358999 
L 438.353693 311.728658 
L 438.849077 222.115977 
L 439.34446 268.255526 
L 439.839844 274.31947 
L 440.335227 249.899208 
L 440.830611 239.142924 
L 441.325994 306.692346 
L 441.821378 216.608301 
L 442.316761 256.796524 
L 442.812145 166.597423 
L 443.802912 283.52229 
L 444.298295 244.867083 
L 444.793679 315.452481 
L 445.289063 317.883333 
L 445.784446 194.124208 
L 446.27983 271.024218 
L 446.775213 261.104851 
L 447.270597 279.000787 
L 447.76598 326.2049 
L 448.261364 188.301213 
L 449.252131 314.685284 
L 449.747514 331.248958 
L 450.242898 226.001418 
L 450.738281 286.648489 
L 451.233665 328.02302 
L 451.729048 260.95666 
L 452.224432 214.158221 
L 452.719815 212.584773 
L 453.710582 303.378132 
L 454.205966 315.696452 
L 454.701349 267.592478 
L 455.196733 336.796082 
L 455.692116 241.165158 
L 456.1875 279.811947 
L 456.682884 277.59475 
L 457.178267 301.000077 
L 457.673651 329.910844 
L 458.169034 216.26879 
L 458.664418 186.50096 
L 459.159801 273.043504 
L 459.655185 286.764567 
L 460.150568 230.98118 
L 460.645952 279.180731 
L 461.141335 248.965601 
L 461.636719 277.800286 
L 462.132102 319.294245 
L 462.627486 320.668886 
L 463.122869 294.116095 
L 463.618253 305.878109 
L 464.113636 221.436377 
L 464.60902 173.190347 
L 465.104403 154.692782 
L 465.599787 242.292137 
L 466.09517 294.8571 
L 466.590554 292.192911 
L 467.085938 306.14365 
L 467.581321 241.224705 
L 468.076705 191.572821 
L 468.572088 160.634069 
L 469.067472 220.980012 
L 469.562855 317.026868 
L 470.058239 304.041136 
L 470.553622 246.849201 
L 471.049006 340.569966 
L 471.544389 272.564878 
L 472.039773 171.710119 
L 472.535156 289.084169 
L 473.03054 181.191822 
L 473.525923 357.209043 
L 474.021307 251.426262 
L 474.51669 199.719155 
L 475.012074 232.797563 
L 475.507457 279.345387 
L 476.002841 268.676427 
L 476.498224 326.493616 
L 476.993608 313.835985 
L 477.488991 229.484153 
L 477.984375 109.08451 
L 478.479759 142.590205 
L 478.975142 186.394714 
L 479.470526 185.852542 
L 479.965909 302.290537 
L 480.461293 266.105101 
L 480.956676 199.424825 
L 481.45206 171.822573 
L 481.947443 214.645548 
L 482.442827 292.291764 
L 482.93821 307.336349 
L 483.433594 315.864826 
L 483.928977 313.379728 
L 484.424361 240.04725 
L 484.919744 272.186662 
L 485.415128 259.33676 
L 485.910511 188.104846 
L 486.405895 271.363685 
L 486.901278 283.160841 
L 487.396662 248.821829 
L 487.892045 301.445115 
L 488.387429 318.053946 
L 488.882813 284.728173 
L 489.378196 240.577771 
L 489.87358 207.295061 
L 490.368963 261.034532 
L 490.864347 193.783327 
L 491.35973 162.303736 
L 491.855114 276.088658 
L 492.350497 246.808857 
L 492.845881 293.611489 
L 493.341264 237.975142 
L 493.836648 194.948535 
L 494.332031 194.659817 
L 495.322798 326.848756 
L 495.818182 296.550224 
L 496.313565 340.34905 
L 496.808949 262.033473 
L 497.304332 306.426406 
L 497.799716 267.249726 
L 498.295099 285.044782 
L 499.285866 200.907597 
L 499.78125 109.957887 
L 500.276634 212.396558 
L 500.772017 270.794002 
L 501.267401 280.324637 
L 501.762784 307.732336 
L 502.258168 269.660385 
L 502.753551 139.606752 
L 503.248935 182.565193 
L 503.744318 138.747879 
L 504.239702 205.958134 
L 504.735085 332.23459 
L 505.230469 257.872306 
L 505.725852 294.064043 
L 506.221236 312.296975 
L 507.212003 150.376539 
L 507.707386 196.758132 
L 508.20277 258.624808 
L 508.698153 305.427059 
L 509.193537 282.198491 
L 509.68892 245.037695 
L 510.184304 258.846338 
L 510.679688 296.015796 
L 511.175071 184.990762 
L 511.670455 334.605687 
L 512.165838 263.136657 
L 512.661222 118.993228 
L 513.156605 94.6054 
L 513.651989 216.581637 
L 514.147372 272.369795 
L 514.642756 288.969287 
L 515.138139 331.191459 
L 515.633523 313.397793 
L 516.128906 286.291048 
L 516.62429 268.402568 
L 517.119673 227.775724 
L 517.615057 253.808303 
L 518.11044 271.604442 
L 518.605824 245.174167 
L 519.101207 318.885819 
L 519.596591 295.900951 
L 520.091974 306.075198 
L 520.587358 306.063158 
L 521.082741 295.911886 
L 521.578125 248.131564 
L 522.073509 319.888485 
L 522.568892 212.60693 
L 523.064276 253.703878 
L 523.559659 220.76198 
L 524.550426 289.039505 
L 525.04581 301.169998 
L 525.541193 220.725313 
L 526.036577 169.851349 
L 526.53196 327.400399 
L 527.027344 300.159186 
L 527.522727 326.638491 
L 528.018111 315.626664 
L 528.513494 263.876186 
L 529.008878 174.567701 
L 529.504261 231.221808 
L 529.999645 219.874035 
L 530.495028 275.275509 
L 530.990412 232.240603 
L 531.485795 258.422652 
L 531.981179 300.328789 
L 532.476562 313.181493 
L 532.971946 214.938015 
L 533.46733 173.275264 
L 534.458097 335.690989 
L 534.95348 255.017599 
L 535.448864 305.724339 
L 535.944247 303.294171 
L 536.439631 255.45248 
L 536.935014 281.021653 
L 537.430398 289.428319 
L 537.925781 264.500541 
L 538.421165 261.416534 
L 538.916548 198.351456 
L 539.907315 305.987929 
L 540.402699 289.736907 
L 540.898082 316.709921 
L 541.393466 306.764266 
L 541.888849 301.560632 
L 542.384233 342.390756 
L 542.879616 267.218795 
L 543.375 226.692727 
L 543.870384 163.714895 
L 544.861151 287.965326 
L 545.356534 214.186314 
L 545.851918 212.698561 
L 546.347301 267.382555 
L 546.842685 273.787429 
L 547.338068 256.872283 
L 547.833452 172.859467 
L 548.328835 325.973111 
L 548.824219 248.627495 
L 549.319602 293.793732 
L 549.814986 279.108679 
L 550.310369 259.390267 
L 550.805753 343.198084 
L 551.301136 272.476701 
L 551.79652 259.959053 
L 552.291903 207.047434 
L 552.787287 286.797914 
L 553.28267 257.425075 
L 553.778054 296.152391 
L 554.273438 258.635917 
L 554.768821 300.544552 
L 555.759588 215.656199 
L 556.254972 213.468585 
L 556.750355 279.792543 
L 557.245739 217.15025 
L 557.741122 257.754719 
L 558.236506 232.834767 
L 558.731889 328.957802 
L 559.227273 306.58122 
L 559.722656 254.94906 
L 560.21804 354.513444 
L 561.208807 235.972607 
L 561.70419 229.987455 
L 562.199574 220.479229 
L 562.694957 274.354175 
L 563.190341 220.597786 
L 563.685724 270.037749 
L 564.181108 284.784737 
L 564.676491 344.35162 
L 565.171875 285.624289 
L 565.667259 288.226907 
L 566.162642 334.050218 
L 566.658026 248.625302 
L 567.153409 273.900143 
L 567.648793 280.023615 
L 568.144176 249.458017 
L 568.63956 291.83385 
L 569.134943 275.404696 
L 569.630327 285.183301 
L 570.12571 232.63904 
L 570.621094 353.646742 
L 571.116477 260.139152 
L 571.611861 273.15618 
L 572.107244 248.526296 
L 572.602628 348.962072 
L 573.098011 194.596148 
L 573.593395 115.967297 
L 574.088778 66.665455 
L 574.584162 230.958476 
L 575.079545 299.989456 
L 575.574929 279.912058 
L 576.070312 319.079095 
L 576.565696 249.763549 
L 577.06108 290.397939 
L 577.556463 173.473795 
L 578.051847 253.406868 
L 578.54723 248.869589 
L 579.042614 330.531603 
L 579.537997 286.451627 
L 580.033381 310.669346 
L 580.528764 318.997259 
L 581.024148 232.185361 
L 581.519531 262.686242 
L 582.014915 270.024375 
L 582.510298 302.766436 
L 583.005682 281.804061 
L 583.501065 317.560901 
L 583.996449 169.236064 
L 584.491832 180.446614 
L 585.482599 262.466915 
L 585.977983 278.126199 
L 586.473366 287.521765 
L 586.96875 214.257741 
L 587.464134 252.61423 
L 587.959517 232.561607 
L 588.454901 162.623292 
L 588.950284 283.612453 
L 589.445668 186.234929 
L 589.941051 243.672157 
L 590.436435 245.499995 
L 590.931818 292.798253 
L 591.427202 232.628934 
L 591.922585 233.799559 
L 592.417969 279.682947 
L 592.913352 271.597956 
L 593.408736 276.893208 
L 593.904119 318.710812 
L 594.399503 252.568382 
L 594.894886 227.266709 
L 595.39027 192.323567 
L 596.381037 244.32357 
L 596.87642 265.894013 
L 597.371804 251.367227 
L 597.867188 356.460786 
L 598.362571 261.264378 
L 598.857955 317.61446 
L 599.353338 208.754688 
L 599.848722 184.656229 
L 600.344105 211.26122 
L 600.839489 208.4243 
L 601.334872 316.207 
L 601.830256 268.128302 
L 602.325639 191.035508 
L 602.821023 265.721343 
L 603.316406 240.872695 
L 603.81179 120.229703 
L 604.802557 206.444272 
L 605.29794 191.91151 
L 605.793324 237.478856 
L 606.288707 196.244613 
L 606.784091 199.776514 
L 607.279474 277.752656 
L 607.774858 249.379604 
L 608.270241 177.623082 
L 608.765625 214.504177 
L 609.261009 235.451634 
L 609.756392 212.396571 
L 610.747159 161.052305 
L 611.242543 190.524567 
L 611.737926 294.994584 
L 612.23331 264.40978 
L 612.728693 246.154722 
L 613.224077 194.83532 
L 613.71946 229.666708 
L 614.214844 218.850074 
L 614.710227 116.872221 
L 615.205611 181.636999 
L 615.700994 295.985941 
L 616.196378 276.607265 
L 616.691761 227.239888 
L 617.187145 340.455408 
L 617.682528 263.150331 
L 618.177912 268.062632 
L 618.673295 304.10503 
L 619.168679 213.514975 
L 619.664062 235.645219 
L 620.159446 305.958025 
L 620.65483 253.158208 
L 621.150213 269.010207 
L 621.645597 252.925176 
L 622.14098 240.969713 
L 622.636364 205.23755 
L 622.636364 205.23755 
" clip-path="url(#p2196418639)" style="fill: none; stroke: #1f77b4; stroke-opacity: 0.3; stroke-width: 0.3; stroke-linecap: round"/>
   </g>
   <g id="line2d_34">
    <defs>
     <path id="m3fb168e931" d="M 0 1.25 
C 0.331504 1.25 0.649475 1.118292 0.883883 0.883883 
C 1.118292 0.649475 1.25 0.331504 1.25 0 
C 1.25 -0.331504 1.118292 -0.649475 0.883883 -0.883883 
C 0.649475 -1.118292 0.331504 -1.25 0 -1.25 
C -0.331504 -1.25 -0.649475 -1.118292 -0.883883 -0.883883 
C -1.118292 -0.649475 -1.25 -0.331504 -1.25 0 
C -1.25 0.331504 -1.118292 0.649475 -0.883883 0.883883 
C -0.649475 1.118292 -0.331504 1.25 0 1.25 
z
" style="stroke: #ff6d00; stroke-width: 2"/>
    </defs>
    <g clip-path="url(#p2196418639)">
     <use xlink:href="#m3fb168e931" x="156.975852" y="138.42376" style="fill: #ff6d00; stroke: #ff6d00; stroke-width: 2"/>
     <use xlink:href="#m3fb168e931" x="184.71733" y="140.293354" style="fill: #ff6d00; stroke: #ff6d00; stroke-width: 2"/>
     <use xlink:href="#m3fb168e931" x="197.597301" y="131.624364" style="fill: #ff6d00; stroke: #ff6d00; stroke-width: 2"/>
     <use xlink:href="#m3fb168e931" x="215.431108" y="148.811185" style="fill: #ff6d00; stroke: #ff6d00; stroke-width: 2"/>
     <use xlink:href="#m3fb168e931" x="219.88956" y="142.839587" style="fill: #ff6d00; stroke: #ff6d00; stroke-width: 2"/>
     <use xlink:href="#m3fb168e931" x="224.843395" y="152.777983" style="fill: #ff6d00; stroke: #ff6d00; stroke-width: 2"/>
     <use xlink:href="#m3fb168e931" x="232.769531" y="112.451995" style="fill: #ff6d00; stroke: #ff6d00; stroke-width: 2"/>
     <use xlink:href="#m3fb168e931" x="237.723366" y="160.424257" style="fill: #ff6d00; stroke: #ff6d00; stroke-width: 2"/>
     <use xlink:href="#m3fb168e931" x="261.006392" y="107.855671" style="fill: #ff6d00; stroke: #ff6d00; stroke-width: 2"/>
     <use xlink:href="#m3fb168e931" x="276.858665" y="84.926518" style="fill: #ff6d00; stroke: #ff6d00; stroke-width: 2"/>
     <use xlink:href="#m3fb168e931" x="287.261719" y="74.677212" style="fill: #ff6d00; stroke: #ff6d00; stroke-width: 2"/>
     <use xlink:href="#m3fb168e931" x="303.113991" y="113.877666" style="fill: #ff6d00; stroke: #ff6d00; stroke-width: 2"/>
     <use xlink:href="#m3fb168e931" x="313.021662" y="156.538726" style="fill: #ff6d00; stroke: #ff6d00; stroke-width: 2"/>
     <use xlink:href="#m3fb168e931" x="319.461648" y="141.089458" style="fill: #ff6d00; stroke: #ff6d00; stroke-width: 2"/>
     <use xlink:href="#m3fb168e931" x="322.433949" y="150.717456" style="fill: #ff6d00; stroke: #ff6d00; stroke-width: 2"/>
     <use xlink:href="#m3fb168e931" x="329.369318" y="156.502319" style="fill: #ff6d00; stroke: #ff6d00; stroke-width: 2"/>
     <use xlink:href="#m3fb168e931" x="335.31392" y="162.665933" style="fill: #ff6d00; stroke: #ff6d00; stroke-width: 2"/>
    </g>
   </g>
   <g id="patch_3">
    <path d="M 90 378 
L 90 51.84 
" style="fill: none; stroke: #cccccc; stroke-width: 1.25; stroke-linejoin: miter; stroke-linecap: square"/>
   </g>
   <g id="patch_4">
    <path d="M 648 378 
L 648 51.84 
" style="fill: none; stroke: #cccccc; stroke-width: 1.25; stroke-linejoin: miter; stroke-linecap: square"/>
   </g>
   <g id="patch_5">
    <path d="M 90 378 
L 648 378 
" style="fill: none; stroke: #cccccc; stroke-width: 1.25; stroke-linejoin: miter; stroke-linecap: square"/>
   </g>
   <g id="patch_6">
    <path d="M 90 51.84 
L 648 51.84 
" style="fill: none; stroke: #cccccc; stroke-width: 1.25; stroke-linejoin: miter; stroke-linecap: square"/>
   </g>
   <g id="text_18">
    <!-- Frequency Spectrum  -->
    <g style="fill: #262626" transform="translate(266.754687 31.84)scale(0.2 -0.2)">
     <defs>
      <path id="Arial-BoldMT-46" d="M 472 0 
L 472 4581 
L 3613 4581 
L 3613 3806 
L 1397 3806 
L 1397 2722 
L 3309 2722 
L 3309 1947 
L 1397 1947 
L 1397 0 
L 472 0 
z
" transform="scale(0.015625)"/>
      <path id="Arial-BoldMT-72" d="M 1300 0 
L 422 0 
L 422 3319 
L 1238 3319 
L 1238 2847 
Q 1447 3181 1614 3287 
Q 1781 3394 1994 3394 
Q 2294 3394 2572 3228 
L 2300 2463 
Q 2078 2606 1888 2606 
Q 1703 2606 1575 2504 
Q 1447 2403 1373 2137 
Q 1300 1872 1300 1025 
L 1300 0 
z
" transform="scale(0.015625)"/>
      <path id="Arial-BoldMT-65" d="M 2381 1056 
L 3256 909 
Q 3088 428 2723 176 
Q 2359 -75 1813 -75 
Q 947 -75 531 491 
Q 203 944 203 1634 
Q 203 2459 634 2926 
Q 1066 3394 1725 3394 
Q 2466 3394 2894 2905 
Q 3322 2416 3303 1406 
L 1103 1406 
Q 1113 1016 1316 798 
Q 1519 581 1822 581 
Q 2028 581 2168 693 
Q 2309 806 2381 1056 
z
M 2431 1944 
Q 2422 2325 2234 2523 
Q 2047 2722 1778 2722 
Q 1491 2722 1303 2513 
Q 1116 2303 1119 1944 
L 2431 1944 
z
" transform="scale(0.015625)"/>
      <path id="Arial-BoldMT-71" d="M 2628 -1263 
L 2628 406 
Q 2456 184 2200 54 
Q 1944 -75 1647 -75 
Q 1081 -75 716 350 
Q 284 847 284 1697 
Q 284 2497 689 2945 
Q 1094 3394 1694 3394 
Q 2025 3394 2267 3253 
Q 2509 3113 2697 2828 
L 2697 3319 
L 3506 3319 
L 3506 -1263 
L 2628 -1263 
z
M 2656 1700 
Q 2656 2209 2448 2457 
Q 2241 2706 1928 2706 
Q 1609 2706 1395 2453 
Q 1181 2200 1181 1650 
Q 1181 1103 1387 861 
Q 1594 619 1897 619 
Q 2200 619 2428 891 
Q 2656 1163 2656 1700 
z
" transform="scale(0.015625)"/>
      <path id="Arial-BoldMT-75" d="M 2644 0 
L 2644 497 
Q 2463 231 2167 78 
Q 1872 -75 1544 -75 
Q 1209 -75 943 72 
Q 678 219 559 484 
Q 441 750 441 1219 
L 441 3319 
L 1319 3319 
L 1319 1794 
Q 1319 1094 1367 936 
Q 1416 778 1544 686 
Q 1672 594 1869 594 
Q 2094 594 2272 717 
Q 2450 841 2515 1023 
Q 2581 1206 2581 1919 
L 2581 3319 
L 3459 3319 
L 3459 0 
L 2644 0 
z
" transform="scale(0.015625)"/>
      <path id="Arial-BoldMT-6e" d="M 3478 0 
L 2600 0 
L 2600 1694 
Q 2600 2231 2544 2389 
Q 2488 2547 2361 2634 
Q 2234 2722 2056 2722 
Q 1828 2722 1647 2597 
Q 1466 2472 1398 2265 
Q 1331 2059 1331 1503 
L 1331 0 
L 453 0 
L 453 3319 
L 1269 3319 
L 1269 2831 
Q 1703 3394 2363 3394 
Q 2653 3394 2893 3289 
Q 3134 3184 3257 3021 
Q 3381 2859 3429 2653 
Q 3478 2447 3478 2063 
L 3478 0 
z
" transform="scale(0.015625)"/>
      <path id="Arial-BoldMT-63" d="M 3353 2338 
L 2488 2181 
Q 2444 2441 2289 2572 
Q 2134 2703 1888 2703 
Q 1559 2703 1364 2476 
Q 1169 2250 1169 1719 
Q 1169 1128 1367 884 
Q 1566 641 1900 641 
Q 2150 641 2309 783 
Q 2469 925 2534 1272 
L 3397 1125 
Q 3263 531 2881 228 
Q 2500 -75 1859 -75 
Q 1131 -75 698 384 
Q 266 844 266 1656 
Q 266 2478 700 2936 
Q 1134 3394 1875 3394 
Q 2481 3394 2839 3133 
Q 3197 2872 3353 2338 
z
" transform="scale(0.015625)"/>
      <path id="Arial-BoldMT-79" d="M 44 3319 
L 978 3319 
L 1772 963 
L 2547 3319 
L 3456 3319 
L 2284 125 
L 2075 -453 
Q 1959 -744 1854 -897 
Q 1750 -1050 1614 -1145 
Q 1478 -1241 1279 -1294 
Q 1081 -1347 831 -1347 
Q 578 -1347 334 -1294 
L 256 -606 
Q 463 -647 628 -647 
Q 934 -647 1081 -467 
Q 1228 -288 1306 -9 
L 44 3319 
z
" transform="scale(0.015625)"/>
      <path id="Arial-BoldMT-20" transform="scale(0.015625)"/>
      <path id="Arial-BoldMT-53" d="M 231 1491 
L 1131 1578 
Q 1213 1125 1461 912 
Q 1709 700 2131 700 
Q 2578 700 2804 889 
Q 3031 1078 3031 1331 
Q 3031 1494 2936 1608 
Q 2841 1722 2603 1806 
Q 2441 1863 1863 2006 
Q 1119 2191 819 2459 
Q 397 2838 397 3381 
Q 397 3731 595 4036 
Q 794 4341 1167 4500 
Q 1541 4659 2069 4659 
Q 2931 4659 3367 4281 
Q 3803 3903 3825 3272 
L 2900 3231 
Q 2841 3584 2645 3739 
Q 2450 3894 2059 3894 
Q 1656 3894 1428 3728 
Q 1281 3622 1281 3444 
Q 1281 3281 1419 3166 
Q 1594 3019 2269 2859 
Q 2944 2700 3267 2529 
Q 3591 2359 3773 2064 
Q 3956 1769 3956 1334 
Q 3956 941 3737 597 
Q 3519 253 3119 86 
Q 2719 -81 2122 -81 
Q 1253 -81 787 320 
Q 322 722 231 1491 
z
" transform="scale(0.015625)"/>
      <path id="Arial-BoldMT-70" d="M 434 3319 
L 1253 3319 
L 1253 2831 
Q 1413 3081 1684 3237 
Q 1956 3394 2288 3394 
Q 2866 3394 3269 2941 
Q 3672 2488 3672 1678 
Q 3672 847 3265 386 
Q 2859 -75 2281 -75 
Q 2006 -75 1782 34 
Q 1559 144 1313 409 
L 1313 -1263 
L 434 -1263 
L 434 3319 
z
M 1303 1716 
Q 1303 1156 1525 889 
Q 1747 622 2066 622 
Q 2372 622 2575 867 
Q 2778 1113 2778 1672 
Q 2778 2194 2568 2447 
Q 2359 2700 2050 2700 
Q 1728 2700 1515 2451 
Q 1303 2203 1303 1716 
z
" transform="scale(0.015625)"/>
      <path id="Arial-BoldMT-74" d="M 1981 3319 
L 1981 2619 
L 1381 2619 
L 1381 1281 
Q 1381 875 1398 808 
Q 1416 741 1477 697 
Q 1538 653 1625 653 
Q 1747 653 1978 738 
L 2053 56 
Q 1747 -75 1359 -75 
Q 1122 -75 931 4 
Q 741 84 652 211 
Q 563 338 528 553 
Q 500 706 500 1172 
L 500 2619 
L 97 2619 
L 97 3319 
L 500 3319 
L 500 3978 
L 1381 4491 
L 1381 3319 
L 1981 3319 
z
" transform="scale(0.015625)"/>
      <path id="Arial-BoldMT-6d" d="M 394 3319 
L 1203 3319 
L 1203 2866 
Q 1638 3394 2238 3394 
Q 2556 3394 2790 3262 
Q 3025 3131 3175 2866 
Q 3394 3131 3647 3262 
Q 3900 3394 4188 3394 
Q 4553 3394 4806 3245 
Q 5059 3097 5184 2809 
Q 5275 2597 5275 2122 
L 5275 0 
L 4397 0 
L 4397 1897 
Q 4397 2391 4306 2534 
Q 4184 2722 3931 2722 
Q 3747 2722 3584 2609 
Q 3422 2497 3350 2280 
Q 3278 2063 3278 1594 
L 3278 0 
L 2400 0 
L 2400 1819 
Q 2400 2303 2353 2443 
Q 2306 2584 2207 2653 
Q 2109 2722 1941 2722 
Q 1738 2722 1575 2612 
Q 1413 2503 1342 2297 
Q 1272 2091 1272 1613 
L 1272 0 
L 394 0 
L 394 3319 
z
" transform="scale(0.015625)"/>
     </defs>
     <use xlink:href="#Arial-BoldMT-46"/>
     <use xlink:href="#Arial-BoldMT-72" x="61.083984"/>
     <use xlink:href="#Arial-BoldMT-65" x="100"/>
     <use xlink:href="#Arial-BoldMT-71" x="155.615234"/>
     <use xlink:href="#Arial-BoldMT-75" x="216.699219"/>
     <use xlink:href="#Arial-BoldMT-65" x="277.783203"/>
     <use xlink:href="#Arial-BoldMT-6e" x="333.398438"/>
     <use xlink:href="#Arial-BoldMT-63" x="394.482422"/>
     <use xlink:href="#Arial-BoldMT-79" x="450.097656"/>
     <use xlink:href="#Arial-BoldMT-20" x="505.712891"/>
     <use xlink:href="#Arial-BoldMT-53" x="533.496094"/>
     <use xlink:href="#Arial-BoldMT-70" x="600.195312"/>
     <use xlink:href="#Arial-BoldMT-65" x="661.279297"/>
     <use xlink:href="#Arial-BoldMT-63" x="716.894531"/>
     <use xlink:href="#Arial-BoldMT-74" x="772.509766"/>
     <use xlink:href="#Arial-BoldMT-72" x="805.810547"/>
     <use xlink:href="#Arial-BoldMT-75" x="844.726562"/>
     <use xlink:href="#Arial-BoldMT-6d" x="905.810547"/>
     <use xlink:href="#Arial-BoldMT-20" x="994.726562"/>
    </g>
   </g>
   <g id="legend_1">
    <g id="patch_7">
     <path d="M 452.877187 108.108437 
L 640.3 108.108437 
Q 642.5 108.108437 642.5 105.908437 
L 642.5 59.54 
Q 642.5 57.34 640.3 57.34 
L 452.877187 57.34 
Q 450.677187 57.34 450.677187 59.54 
L 450.677187 105.908437 
Q 450.677187 108.108437 452.877187 108.108437 
z
" style="fill: #ffffff; opacity: 0.8; stroke: #cccccc; stroke-linejoin: miter"/>
    </g>
    <g id="line2d_35">
     <path d="M 455.077187 65.897656 
L 466.077187 65.897656 
L 477.077187 65.897656 
" style="fill: none; stroke: #1f77b4; stroke-width: 0.7; stroke-linecap: round"/>
    </g>
    <g id="text_19">
     <!-- Snoring Frequency Spectrum -->
     <g style="fill: #262626" transform="translate(485.877187 69.747656)scale(0.11 -0.11)">
      <defs>
       <path id="ArialMT-53" d="M 288 1472 
L 859 1522 
Q 900 1178 1048 958 
Q 1197 738 1509 602 
Q 1822 466 2213 466 
Q 2559 466 2825 569 
Q 3091 672 3220 851 
Q 3350 1031 3350 1244 
Q 3350 1459 3225 1620 
Q 3100 1781 2813 1891 
Q 2628 1963 1997 2114 
Q 1366 2266 1113 2400 
Q 784 2572 623 2826 
Q 463 3081 463 3397 
Q 463 3744 659 4045 
Q 856 4347 1234 4503 
Q 1613 4659 2075 4659 
Q 2584 4659 2973 4495 
Q 3363 4331 3572 4012 
Q 3781 3694 3797 3291 
L 3216 3247 
Q 3169 3681 2898 3903 
Q 2628 4125 2100 4125 
Q 1550 4125 1298 3923 
Q 1047 3722 1047 3438 
Q 1047 3191 1225 3031 
Q 1400 2872 2139 2705 
Q 2878 2538 3153 2413 
Q 3553 2228 3743 1945 
Q 3934 1663 3934 1294 
Q 3934 928 3725 604 
Q 3516 281 3123 101 
Q 2731 -78 2241 -78 
Q 1619 -78 1198 103 
Q 778 284 539 648 
Q 300 1013 288 1472 
z
" transform="scale(0.015625)"/>
       <path id="ArialMT-6f" d="M 213 1659 
Q 213 2581 725 3025 
Q 1153 3394 1769 3394 
Q 2453 3394 2887 2945 
Q 3322 2497 3322 1706 
Q 3322 1066 3130 698 
Q 2938 331 2570 128 
Q 2203 -75 1769 -75 
Q 1072 -75 642 372 
Q 213 819 213 1659 
z
M 791 1659 
Q 791 1022 1069 705 
Q 1347 388 1769 388 
Q 2188 388 2466 706 
Q 2744 1025 2744 1678 
Q 2744 2294 2464 2611 
Q 2184 2928 1769 2928 
Q 1347 2928 1069 2612 
Q 791 2297 791 1659 
z
" transform="scale(0.015625)"/>
       <path id="ArialMT-70" d="M 422 -1272 
L 422 3319 
L 934 3319 
L 934 2888 
Q 1116 3141 1344 3267 
Q 1572 3394 1897 3394 
Q 2322 3394 2647 3175 
Q 2972 2956 3137 2557 
Q 3303 2159 3303 1684 
Q 3303 1175 3120 767 
Q 2938 359 2589 142 
Q 2241 -75 1856 -75 
Q 1575 -75 1351 44 
Q 1128 163 984 344 
L 984 -1272 
L 422 -1272 
z
M 931 1641 
Q 931 1000 1190 694 
Q 1450 388 1819 388 
Q 2194 388 2461 705 
Q 2728 1022 2728 1688 
Q 2728 2322 2467 2637 
Q 2206 2953 1844 2953 
Q 1484 2953 1207 2617 
Q 931 2281 931 1641 
z
" transform="scale(0.015625)"/>
       <path id="ArialMT-6d" d="M 422 0 
L 422 3319 
L 925 3319 
L 925 2853 
Q 1081 3097 1340 3245 
Q 1600 3394 1931 3394 
Q 2300 3394 2536 3241 
Q 2772 3088 2869 2813 
Q 3263 3394 3894 3394 
Q 4388 3394 4653 3120 
Q 4919 2847 4919 2278 
L 4919 0 
L 4359 0 
L 4359 2091 
Q 4359 2428 4304 2576 
Q 4250 2725 4106 2815 
Q 3963 2906 3769 2906 
Q 3419 2906 3187 2673 
Q 2956 2441 2956 1928 
L 2956 0 
L 2394 0 
L 2394 2156 
Q 2394 2531 2256 2718 
Q 2119 2906 1806 2906 
Q 1569 2906 1367 2781 
Q 1166 2656 1075 2415 
Q 984 2175 984 1722 
L 984 0 
L 422 0 
z
" transform="scale(0.015625)"/>
      </defs>
      <use xlink:href="#ArialMT-53"/>
      <use xlink:href="#ArialMT-6e" x="66.699219"/>
      <use xlink:href="#ArialMT-6f" x="122.314453"/>
      <use xlink:href="#ArialMT-72" x="177.929688"/>
      <use xlink:href="#ArialMT-69" x="211.230469"/>
      <use xlink:href="#ArialMT-6e" x="233.447266"/>
      <use xlink:href="#ArialMT-67" x="289.0625"/>
      <use xlink:href="#ArialMT-20" x="344.677734"/>
      <use xlink:href="#ArialMT-46" x="372.460938"/>
      <use xlink:href="#ArialMT-72" x="433.544922"/>
      <use xlink:href="#ArialMT-65" x="466.845703"/>
      <use xlink:href="#ArialMT-71" x="522.460938"/>
      <use xlink:href="#ArialMT-75" x="578.076172"/>
      <use xlink:href="#ArialMT-65" x="633.691406"/>
      <use xlink:href="#ArialMT-6e" x="689.306641"/>
      <use xlink:href="#ArialMT-63" x="744.921875"/>
      <use xlink:href="#ArialMT-79" x="794.921875"/>
      <use xlink:href="#ArialMT-20" x="844.921875"/>
      <use xlink:href="#ArialMT-53" x="872.705078"/>
      <use xlink:href="#ArialMT-70" x="939.404297"/>
      <use xlink:href="#ArialMT-65" x="995.019531"/>
      <use xlink:href="#ArialMT-63" x="1050.634766"/>
      <use xlink:href="#ArialMT-74" x="1100.634766"/>
      <use xlink:href="#ArialMT-72" x="1128.417969"/>
      <use xlink:href="#ArialMT-75" x="1161.71875"/>
      <use xlink:href="#ArialMT-6d" x="1217.333984"/>
     </g>
    </g>
    <g id="line2d_36">
     <path d="M 455.077187 81.720469 
L 466.077187 81.720469 
L 477.077187 81.720469 
" style="fill: none; stroke: #1f77b4; stroke-opacity: 0.3; stroke-width: 0.3; stroke-linecap: round"/>
    </g>
    <g id="text_20">
     <!-- Complete Frequency Spectrum -->
     <g style="fill: #262626" transform="translate(485.877187 85.570469)scale(0.11 -0.11)">
      <defs>
       <path id="ArialMT-43" d="M 3763 1606 
L 4369 1453 
Q 4178 706 3683 314 
Q 3188 -78 2472 -78 
Q 1731 -78 1267 223 
Q 803 525 561 1097 
Q 319 1669 319 2325 
Q 319 3041 592 3573 
Q 866 4106 1370 4382 
Q 1875 4659 2481 4659 
Q 3169 4659 3637 4309 
Q 4106 3959 4291 3325 
L 3694 3184 
Q 3534 3684 3231 3912 
Q 2928 4141 2469 4141 
Q 1941 4141 1586 3887 
Q 1231 3634 1087 3207 
Q 944 2781 944 2328 
Q 944 1744 1114 1308 
Q 1284 872 1643 656 
Q 2003 441 2422 441 
Q 2931 441 3284 734 
Q 3638 1028 3763 1606 
z
" transform="scale(0.015625)"/>
       <path id="ArialMT-6c" d="M 409 0 
L 409 4581 
L 972 4581 
L 972 0 
L 409 0 
z
" transform="scale(0.015625)"/>
      </defs>
      <use xlink:href="#ArialMT-43"/>
      <use xlink:href="#ArialMT-6f" x="72.216797"/>
      <use xlink:href="#ArialMT-6d" x="127.832031"/>
      <use xlink:href="#ArialMT-70" x="211.132812"/>
      <use xlink:href="#ArialMT-6c" x="266.748047"/>
      <use xlink:href="#ArialMT-65" x="288.964844"/>
      <use xlink:href="#ArialMT-74" x="344.580078"/>
      <use xlink:href="#ArialMT-65" x="372.363281"/>
      <use xlink:href="#ArialMT-20" x="427.978516"/>
      <use xlink:href="#ArialMT-46" x="455.761719"/>
      <use xlink:href="#ArialMT-72" x="516.845703"/>
      <use xlink:href="#ArialMT-65" x="550.146484"/>
      <use xlink:href="#ArialMT-71" x="605.761719"/>
      <use xlink:href="#ArialMT-75" x="661.376953"/>
      <use xlink:href="#ArialMT-65" x="716.992188"/>
      <use xlink:href="#ArialMT-6e" x="772.607422"/>
      <use xlink:href="#ArialMT-63" x="828.222656"/>
      <use xlink:href="#ArialMT-79" x="878.222656"/>
      <use xlink:href="#ArialMT-20" x="928.222656"/>
      <use xlink:href="#ArialMT-53" x="956.005859"/>
      <use xlink:href="#ArialMT-70" x="1022.705078"/>
      <use xlink:href="#ArialMT-65" x="1078.320312"/>
      <use xlink:href="#ArialMT-63" x="1133.935547"/>
      <use xlink:href="#ArialMT-74" x="1183.935547"/>
      <use xlink:href="#ArialMT-72" x="1211.71875"/>
      <use xlink:href="#ArialMT-75" x="1245.019531"/>
      <use xlink:href="#ArialMT-6d" x="1300.634766"/>
     </g>
    </g>
    <g id="line2d_37">
     <g>
      <use xlink:href="#m3fb168e931" x="466.077187" y="97.543281" style="fill: #ff6d00; stroke: #ff6d00; stroke-width: 2"/>
     </g>
    </g>
    <g id="text_21">
     <!-- Snoring Peaks -->
     <g style="fill: #262626" transform="translate(485.877187 101.393281)scale(0.11 -0.11)">
      <defs>
       <path id="ArialMT-50" d="M 494 0 
L 494 4581 
L 2222 4581 
Q 2678 4581 2919 4538 
Q 3256 4481 3484 4323 
Q 3713 4166 3852 3881 
Q 3991 3597 3991 3256 
Q 3991 2672 3619 2267 
Q 3247 1863 2275 1863 
L 1100 1863 
L 1100 0 
L 494 0 
z
M 1100 2403 
L 2284 2403 
Q 2872 2403 3119 2622 
Q 3366 2841 3366 3238 
Q 3366 3525 3220 3729 
Q 3075 3934 2838 4000 
Q 2684 4041 2272 4041 
L 1100 4041 
L 1100 2403 
z
" transform="scale(0.015625)"/>
       <path id="ArialMT-6b" d="M 425 0 
L 425 4581 
L 988 4581 
L 988 1969 
L 2319 3319 
L 3047 3319 
L 1778 2088 
L 3175 0 
L 2481 0 
L 1384 1697 
L 988 1316 
L 988 0 
L 425 0 
z
" transform="scale(0.015625)"/>
       <path id="ArialMT-73" d="M 197 991 
L 753 1078 
Q 800 744 1014 566 
Q 1228 388 1613 388 
Q 2000 388 2187 545 
Q 2375 703 2375 916 
Q 2375 1106 2209 1216 
Q 2094 1291 1634 1406 
Q 1016 1563 777 1677 
Q 538 1791 414 1992 
Q 291 2194 291 2438 
Q 291 2659 392 2848 
Q 494 3038 669 3163 
Q 800 3259 1026 3326 
Q 1253 3394 1513 3394 
Q 1903 3394 2198 3281 
Q 2494 3169 2634 2976 
Q 2775 2784 2828 2463 
L 2278 2388 
Q 2241 2644 2061 2787 
Q 1881 2931 1553 2931 
Q 1166 2931 1000 2803 
Q 834 2675 834 2503 
Q 834 2394 903 2306 
Q 972 2216 1119 2156 
Q 1203 2125 1616 2013 
Q 2213 1853 2448 1751 
Q 2684 1650 2818 1456 
Q 2953 1263 2953 975 
Q 2953 694 2789 445 
Q 2625 197 2315 61 
Q 2006 -75 1616 -75 
Q 969 -75 630 194 
Q 291 463 197 991 
z
" transform="scale(0.015625)"/>
      </defs>
      <use xlink:href="#ArialMT-53"/>
      <use xlink:href="#ArialMT-6e" x="66.699219"/>
      <use xlink:href="#ArialMT-6f" x="122.314453"/>
      <use xlink:href="#ArialMT-72" x="177.929688"/>
      <use xlink:href="#ArialMT-69" x="211.230469"/>
      <use xlink:href="#ArialMT-6e" x="233.447266"/>
      <use xlink:href="#ArialMT-67" x="289.0625"/>
      <use xlink:href="#ArialMT-20" x="344.677734"/>
      <use xlink:href="#ArialMT-50" x="372.460938"/>
      <use xlink:href="#ArialMT-65" x="439.160156"/>
      <use xlink:href="#ArialMT-61" x="494.775391"/>
      <use xlink:href="#ArialMT-6b" x="550.390625"/>
      <use xlink:href="#ArialMT-73" x="600.390625"/>
     </g>
    </g>
   </g>
  </g>
 </g>
 <defs>
  <clipPath id="p2196418639">
   <rect x="90" y="51.84" width="558" height="326.16"/>
  </clipPath>
 </defs>
</svg>
