<?xml version="1.0" encoding="utf-8" standalone="no"?>
<!DOCTYPE svg PUBLIC "-//W3C//DTD SVG 1.1//EN"
  "http://www.w3.org/Graphics/SVG/1.1/DTD/svg11.dtd">
<svg xmlns:xlink="http://www.w3.org/1999/xlink" width="648pt" height="432pt" viewBox="0 0 648 432" xmlns="http://www.w3.org/2000/svg" version="1.1">
 <metadata>
  <rdf:RDF xmlns:dc="http://purl.org/dc/elements/1.1/" xmlns:cc="http://creativecommons.org/ns#" xmlns:rdf="http://www.w3.org/1999/02/22-rdf-syntax-ns#">
   <cc:Work>
    <dc:type rdf:resource="http://purl.org/dc/dcmitype/StillImage"/>
    <dc:date>2024-12-13T13:58:53.327421</dc:date>
    <dc:format>image/svg+xml</dc:format>
    <dc:creator>
     <cc:Agent>
      <dc:title>Matplotlib v3.5.1, https://matplotlib.org/</dc:title>
     </cc:Agent>
    </dc:creator>
   </cc:Work>
  </rdf:RDF>
 </metadata>
 <defs>
  <style type="text/css">*{stroke-linejoin: round; stroke-linecap: butt}</style>
 </defs>
 <g id="figure_1">
  <g id="patch_1">
   <path d="M 0 432 
L 648 432 
L 648 0 
L 0 0 
z
" style="fill: #ffffff"/>
  </g>
  <g id="axes_1">
   <g id="patch_2">
    <path d="M 81 378 
L 583.2 378 
L 583.2 51.84 
L 81 51.84 
z
" style="fill: #ffffff"/>
   </g>
   <g id="matplotlib.axis_1">
    <g id="xtick_1">
     <g id="line2d_1">
      <path d="M 103.827273 378 
L 103.827273 51.84 
" clip-path="url(#p734e76ea54)" style="fill: none; stroke-dasharray: 1.85,0.8; stroke-dashoffset: 0; stroke: #cccccc; stroke-opacity: 0.7; stroke-width: 0.5"/>
     </g>
     <g id="line2d_2">
      <defs>
       <path id="mdf78ebfd5c" d="M 0 0 
L 0 3 
" style="stroke: #262626; stroke-width: 3"/>
      </defs>
      <g>
       <use xlink:href="#mdf78ebfd5c" x="103.827273" y="51.84" style="fill: #262626; stroke: #262626; stroke-width: 3"/>
      </g>
     </g>
     <g id="text_1">
      <!-- 0 -->
      <g style="fill: #262626" transform="translate(99.65657 392.236719)scale(0.15 -0.15)">
       <defs>
        <path id="ArialMT-30" d="M 266 2259 
Q 266 3072 433 3567 
Q 600 4063 929 4331 
Q 1259 4600 1759 4600 
Q 2128 4600 2406 4451 
Q 2684 4303 2865 4023 
Q 3047 3744 3150 3342 
Q 3253 2941 3253 2259 
Q 3253 1453 3087 958 
Q 2922 463 2592 192 
Q 2263 -78 1759 -78 
Q 1097 -78 719 397 
Q 266 969 266 2259 
z
M 844 2259 
Q 844 1131 1108 757 
Q 1372 384 1759 384 
Q 2147 384 2411 759 
Q 2675 1134 2675 2259 
Q 2675 3391 2411 3762 
Q 2147 4134 1753 4134 
Q 1366 4134 1134 3806 
Q 844 3388 844 2259 
z
" transform="scale(0.015625)"/>
       </defs>
       <use xlink:href="#ArialMT-30"/>
      </g>
     </g>
    </g>
    <g id="xtick_2">
     <g id="line2d_3">
      <path d="M 195.315051 378 
L 195.315051 51.84 
" clip-path="url(#p734e76ea54)" style="fill: none; stroke-dasharray: 1.85,0.8; stroke-dashoffset: 0; stroke: #cccccc; stroke-opacity: 0.7; stroke-width: 0.5"/>
     </g>
     <g id="line2d_4">
      <g>
       <use xlink:href="#mdf78ebfd5c" x="195.315051" y="51.84" style="fill: #262626; stroke: #262626; stroke-width: 3"/>
      </g>
     </g>
     <g id="text_2">
      <!-- 100 -->
      <g style="fill: #262626" transform="translate(182.802941 392.236719)scale(0.15 -0.15)">
       <defs>
        <path id="ArialMT-31" d="M 2384 0 
L 1822 0 
L 1822 3584 
Q 1619 3391 1289 3197 
Q 959 3003 697 2906 
L 697 3450 
Q 1169 3672 1522 3987 
Q 1875 4303 2022 4600 
L 2384 4600 
L 2384 0 
z
" transform="scale(0.015625)"/>
       </defs>
       <use xlink:href="#ArialMT-31"/>
       <use xlink:href="#ArialMT-30" x="55.615234"/>
       <use xlink:href="#ArialMT-30" x="111.230469"/>
      </g>
     </g>
    </g>
    <g id="xtick_3">
     <g id="line2d_5">
      <path d="M 286.802829 378 
L 286.802829 51.84 
" clip-path="url(#p734e76ea54)" style="fill: none; stroke-dasharray: 1.85,0.8; stroke-dashoffset: 0; stroke: #cccccc; stroke-opacity: 0.7; stroke-width: 0.5"/>
     </g>
     <g id="line2d_6">
      <g>
       <use xlink:href="#mdf78ebfd5c" x="286.802829" y="51.84" style="fill: #262626; stroke: #262626; stroke-width: 3"/>
      </g>
     </g>
     <g id="text_3">
      <!-- 200 -->
      <g style="fill: #262626" transform="translate(274.290719 392.236719)scale(0.15 -0.15)">
       <defs>
        <path id="ArialMT-32" d="M 3222 541 
L 3222 0 
L 194 0 
Q 188 203 259 391 
Q 375 700 629 1000 
Q 884 1300 1366 1694 
Q 2113 2306 2375 2664 
Q 2638 3022 2638 3341 
Q 2638 3675 2398 3904 
Q 2159 4134 1775 4134 
Q 1369 4134 1125 3890 
Q 881 3647 878 3216 
L 300 3275 
Q 359 3922 746 4261 
Q 1134 4600 1788 4600 
Q 2447 4600 2831 4234 
Q 3216 3869 3216 3328 
Q 3216 3053 3103 2787 
Q 2991 2522 2730 2228 
Q 2469 1934 1863 1422 
Q 1356 997 1212 845 
Q 1069 694 975 541 
L 3222 541 
z
" transform="scale(0.015625)"/>
       </defs>
       <use xlink:href="#ArialMT-32"/>
       <use xlink:href="#ArialMT-30" x="55.615234"/>
       <use xlink:href="#ArialMT-30" x="111.230469"/>
      </g>
     </g>
    </g>
    <g id="xtick_4">
     <g id="line2d_7">
      <path d="M 378.290607 378 
L 378.290607 51.84 
" clip-path="url(#p734e76ea54)" style="fill: none; stroke-dasharray: 1.85,0.8; stroke-dashoffset: 0; stroke: #cccccc; stroke-opacity: 0.7; stroke-width: 0.5"/>
     </g>
     <g id="line2d_8">
      <g>
       <use xlink:href="#mdf78ebfd5c" x="378.290607" y="51.84" style="fill: #262626; stroke: #262626; stroke-width: 3"/>
      </g>
     </g>
     <g id="text_4">
      <!-- 300 -->
      <g style="fill: #262626" transform="translate(365.778497 392.236719)scale(0.15 -0.15)">
       <defs>
        <path id="ArialMT-33" d="M 269 1209 
L 831 1284 
Q 928 806 1161 595 
Q 1394 384 1728 384 
Q 2125 384 2398 659 
Q 2672 934 2672 1341 
Q 2672 1728 2419 1979 
Q 2166 2231 1775 2231 
Q 1616 2231 1378 2169 
L 1441 2663 
Q 1497 2656 1531 2656 
Q 1891 2656 2178 2843 
Q 2466 3031 2466 3422 
Q 2466 3731 2256 3934 
Q 2047 4138 1716 4138 
Q 1388 4138 1169 3931 
Q 950 3725 888 3313 
L 325 3413 
Q 428 3978 793 4289 
Q 1159 4600 1703 4600 
Q 2078 4600 2393 4439 
Q 2709 4278 2876 4000 
Q 3044 3722 3044 3409 
Q 3044 3113 2884 2869 
Q 2725 2625 2413 2481 
Q 2819 2388 3044 2092 
Q 3269 1797 3269 1353 
Q 3269 753 2831 336 
Q 2394 -81 1725 -81 
Q 1122 -81 723 278 
Q 325 638 269 1209 
z
" transform="scale(0.015625)"/>
       </defs>
       <use xlink:href="#ArialMT-33"/>
       <use xlink:href="#ArialMT-30" x="55.615234"/>
       <use xlink:href="#ArialMT-30" x="111.230469"/>
      </g>
     </g>
    </g>
    <g id="xtick_5">
     <g id="line2d_9">
      <path d="M 469.778385 378 
L 469.778385 51.84 
" clip-path="url(#p734e76ea54)" style="fill: none; stroke-dasharray: 1.85,0.8; stroke-dashoffset: 0; stroke: #cccccc; stroke-opacity: 0.7; stroke-width: 0.5"/>
     </g>
     <g id="line2d_10">
      <g>
       <use xlink:href="#mdf78ebfd5c" x="469.778385" y="51.84" style="fill: #262626; stroke: #262626; stroke-width: 3"/>
      </g>
     </g>
     <g id="text_5">
      <!-- 400 -->
      <g style="fill: #262626" transform="translate(457.266275 392.236719)scale(0.15 -0.15)">
       <defs>
        <path id="ArialMT-34" d="M 2069 0 
L 2069 1097 
L 81 1097 
L 81 1613 
L 2172 4581 
L 2631 4581 
L 2631 1613 
L 3250 1613 
L 3250 1097 
L 2631 1097 
L 2631 0 
L 2069 0 
z
M 2069 1613 
L 2069 3678 
L 634 1613 
L 2069 1613 
z
" transform="scale(0.015625)"/>
       </defs>
       <use xlink:href="#ArialMT-34"/>
       <use xlink:href="#ArialMT-30" x="55.615234"/>
       <use xlink:href="#ArialMT-30" x="111.230469"/>
      </g>
     </g>
    </g>
    <g id="xtick_6">
     <g id="line2d_11">
      <path d="M 561.266163 378 
L 561.266163 51.84 
" clip-path="url(#p734e76ea54)" style="fill: none; stroke-dasharray: 1.85,0.8; stroke-dashoffset: 0; stroke: #cccccc; stroke-opacity: 0.7; stroke-width: 0.5"/>
     </g>
     <g id="line2d_12">
      <g>
       <use xlink:href="#mdf78ebfd5c" x="561.266163" y="51.84" style="fill: #262626; stroke: #262626; stroke-width: 3"/>
      </g>
     </g>
     <g id="text_6">
      <!-- 500 -->
      <g style="fill: #262626" transform="translate(548.754053 392.236719)scale(0.15 -0.15)">
       <defs>
        <path id="ArialMT-35" d="M 266 1200 
L 856 1250 
Q 922 819 1161 601 
Q 1400 384 1738 384 
Q 2144 384 2425 690 
Q 2706 997 2706 1503 
Q 2706 1984 2436 2262 
Q 2166 2541 1728 2541 
Q 1456 2541 1237 2417 
Q 1019 2294 894 2097 
L 366 2166 
L 809 4519 
L 3088 4519 
L 3088 3981 
L 1259 3981 
L 1013 2750 
Q 1425 3038 1878 3038 
Q 2478 3038 2890 2622 
Q 3303 2206 3303 1553 
Q 3303 931 2941 478 
Q 2500 -78 1738 -78 
Q 1113 -78 717 272 
Q 322 622 266 1200 
z
" transform="scale(0.015625)"/>
       </defs>
       <use xlink:href="#ArialMT-35"/>
       <use xlink:href="#ArialMT-30" x="55.615234"/>
       <use xlink:href="#ArialMT-30" x="111.230469"/>
      </g>
     </g>
    </g>
    <g id="xtick_7">
     <g id="line2d_13">
      <path d="M 85.529717 378 
L 85.529717 51.84 
" clip-path="url(#p734e76ea54)" style="fill: none; stroke-dasharray: 1.85,0.8; stroke-dashoffset: 0; stroke: #cccccc; stroke-opacity: 0.7; stroke-width: 0.5"/>
     </g>
     <g id="line2d_14">
      <g>
       <use xlink:href="#mdf78ebfd5c" x="85.529717" y="51.84" style="fill: #262626; stroke: #262626; stroke-width: 3"/>
      </g>
     </g>
    </g>
    <g id="xtick_8">
     <g id="line2d_15">
      <path d="M 122.124828 378 
L 122.124828 51.84 
" clip-path="url(#p734e76ea54)" style="fill: none; stroke-dasharray: 1.85,0.8; stroke-dashoffset: 0; stroke: #cccccc; stroke-opacity: 0.7; stroke-width: 0.5"/>
     </g>
     <g id="line2d_16">
      <g>
       <use xlink:href="#mdf78ebfd5c" x="122.124828" y="51.84" style="fill: #262626; stroke: #262626; stroke-width: 3"/>
      </g>
     </g>
    </g>
    <g id="xtick_9">
     <g id="line2d_17">
      <path d="M 140.422384 378 
L 140.422384 51.84 
" clip-path="url(#p734e76ea54)" style="fill: none; stroke-dasharray: 1.85,0.8; stroke-dashoffset: 0; stroke: #cccccc; stroke-opacity: 0.7; stroke-width: 0.5"/>
     </g>
     <g id="line2d_18">
      <g>
       <use xlink:href="#mdf78ebfd5c" x="140.422384" y="51.84" style="fill: #262626; stroke: #262626; stroke-width: 3"/>
      </g>
     </g>
    </g>
    <g id="xtick_10">
     <g id="line2d_19">
      <path d="M 158.71994 378 
L 158.71994 51.84 
" clip-path="url(#p734e76ea54)" style="fill: none; stroke-dasharray: 1.85,0.8; stroke-dashoffset: 0; stroke: #cccccc; stroke-opacity: 0.7; stroke-width: 0.5"/>
     </g>
     <g id="line2d_20">
      <g>
       <use xlink:href="#mdf78ebfd5c" x="158.71994" y="51.84" style="fill: #262626; stroke: #262626; stroke-width: 3"/>
      </g>
     </g>
    </g>
    <g id="xtick_11">
     <g id="line2d_21">
      <path d="M 177.017495 378 
L 177.017495 51.84 
" clip-path="url(#p734e76ea54)" style="fill: none; stroke-dasharray: 1.85,0.8; stroke-dashoffset: 0; stroke: #cccccc; stroke-opacity: 0.7; stroke-width: 0.5"/>
     </g>
     <g id="line2d_22">
      <g>
       <use xlink:href="#mdf78ebfd5c" x="177.017495" y="51.84" style="fill: #262626; stroke: #262626; stroke-width: 3"/>
      </g>
     </g>
    </g>
    <g id="xtick_12">
     <g id="line2d_23">
      <path d="M 213.612606 378 
L 213.612606 51.84 
" clip-path="url(#p734e76ea54)" style="fill: none; stroke-dasharray: 1.85,0.8; stroke-dashoffset: 0; stroke: #cccccc; stroke-opacity: 0.7; stroke-width: 0.5"/>
     </g>
     <g id="line2d_24">
      <g>
       <use xlink:href="#mdf78ebfd5c" x="213.612606" y="51.84" style="fill: #262626; stroke: #262626; stroke-width: 3"/>
      </g>
     </g>
    </g>
    <g id="xtick_13">
     <g id="line2d_25">
      <path d="M 231.910162 378 
L 231.910162 51.84 
" clip-path="url(#p734e76ea54)" style="fill: none; stroke-dasharray: 1.85,0.8; stroke-dashoffset: 0; stroke: #cccccc; stroke-opacity: 0.7; stroke-width: 0.5"/>
     </g>
     <g id="line2d_26">
      <g>
       <use xlink:href="#mdf78ebfd5c" x="231.910162" y="51.84" style="fill: #262626; stroke: #262626; stroke-width: 3"/>
      </g>
     </g>
    </g>
    <g id="xtick_14">
     <g id="line2d_27">
      <path d="M 250.207717 378 
L 250.207717 51.84 
" clip-path="url(#p734e76ea54)" style="fill: none; stroke-dasharray: 1.85,0.8; stroke-dashoffset: 0; stroke: #cccccc; stroke-opacity: 0.7; stroke-width: 0.5"/>
     </g>
     <g id="line2d_28">
      <g>
       <use xlink:href="#mdf78ebfd5c" x="250.207717" y="51.84" style="fill: #262626; stroke: #262626; stroke-width: 3"/>
      </g>
     </g>
    </g>
    <g id="xtick_15">
     <g id="line2d_29">
      <path d="M 268.505273 378 
L 268.505273 51.84 
" clip-path="url(#p734e76ea54)" style="fill: none; stroke-dasharray: 1.85,0.8; stroke-dashoffset: 0; stroke: #cccccc; stroke-opacity: 0.7; stroke-width: 0.5"/>
     </g>
     <g id="line2d_30">
      <g>
       <use xlink:href="#mdf78ebfd5c" x="268.505273" y="51.84" style="fill: #262626; stroke: #262626; stroke-width: 3"/>
      </g>
     </g>
    </g>
    <g id="xtick_16">
     <g id="line2d_31">
      <path d="M 305.100384 378 
L 305.100384 51.84 
" clip-path="url(#p734e76ea54)" style="fill: none; stroke-dasharray: 1.85,0.8; stroke-dashoffset: 0; stroke: #cccccc; stroke-opacity: 0.7; stroke-width: 0.5"/>
     </g>
     <g id="line2d_32">
      <g>
       <use xlink:href="#mdf78ebfd5c" x="305.100384" y="51.84" style="fill: #262626; stroke: #262626; stroke-width: 3"/>
      </g>
     </g>
    </g>
    <g id="xtick_17">
     <g id="line2d_33">
      <path d="M 323.39794 378 
L 323.39794 51.84 
" clip-path="url(#p734e76ea54)" style="fill: none; stroke-dasharray: 1.85,0.8; stroke-dashoffset: 0; stroke: #cccccc; stroke-opacity: 0.7; stroke-width: 0.5"/>
     </g>
     <g id="line2d_34">
      <g>
       <use xlink:href="#mdf78ebfd5c" x="323.39794" y="51.84" style="fill: #262626; stroke: #262626; stroke-width: 3"/>
      </g>
     </g>
    </g>
    <g id="xtick_18">
     <g id="line2d_35">
      <path d="M 341.695495 378 
L 341.695495 51.84 
" clip-path="url(#p734e76ea54)" style="fill: none; stroke-dasharray: 1.85,0.8; stroke-dashoffset: 0; stroke: #cccccc; stroke-opacity: 0.7; stroke-width: 0.5"/>
     </g>
     <g id="line2d_36">
      <g>
       <use xlink:href="#mdf78ebfd5c" x="341.695495" y="51.84" style="fill: #262626; stroke: #262626; stroke-width: 3"/>
      </g>
     </g>
    </g>
    <g id="xtick_19">
     <g id="line2d_37">
      <path d="M 359.993051 378 
L 359.993051 51.84 
" clip-path="url(#p734e76ea54)" style="fill: none; stroke-dasharray: 1.85,0.8; stroke-dashoffset: 0; stroke: #cccccc; stroke-opacity: 0.7; stroke-width: 0.5"/>
     </g>
     <g id="line2d_38">
      <g>
       <use xlink:href="#mdf78ebfd5c" x="359.993051" y="51.84" style="fill: #262626; stroke: #262626; stroke-width: 3"/>
      </g>
     </g>
    </g>
    <g id="xtick_20">
     <g id="line2d_39">
      <path d="M 396.588162 378 
L 396.588162 51.84 
" clip-path="url(#p734e76ea54)" style="fill: none; stroke-dasharray: 1.85,0.8; stroke-dashoffset: 0; stroke: #cccccc; stroke-opacity: 0.7; stroke-width: 0.5"/>
     </g>
     <g id="line2d_40">
      <g>
       <use xlink:href="#mdf78ebfd5c" x="396.588162" y="51.84" style="fill: #262626; stroke: #262626; stroke-width: 3"/>
      </g>
     </g>
    </g>
    <g id="xtick_21">
     <g id="line2d_41">
      <path d="M 414.885718 378 
L 414.885718 51.84 
" clip-path="url(#p734e76ea54)" style="fill: none; stroke-dasharray: 1.85,0.8; stroke-dashoffset: 0; stroke: #cccccc; stroke-opacity: 0.7; stroke-width: 0.5"/>
     </g>
     <g id="line2d_42">
      <g>
       <use xlink:href="#mdf78ebfd5c" x="414.885718" y="51.84" style="fill: #262626; stroke: #262626; stroke-width: 3"/>
      </g>
     </g>
    </g>
    <g id="xtick_22">
     <g id="line2d_43">
      <path d="M 433.183273 378 
L 433.183273 51.84 
" clip-path="url(#p734e76ea54)" style="fill: none; stroke-dasharray: 1.85,0.8; stroke-dashoffset: 0; stroke: #cccccc; stroke-opacity: 0.7; stroke-width: 0.5"/>
     </g>
     <g id="line2d_44">
      <g>
       <use xlink:href="#mdf78ebfd5c" x="433.183273" y="51.84" style="fill: #262626; stroke: #262626; stroke-width: 3"/>
      </g>
     </g>
    </g>
    <g id="xtick_23">
     <g id="line2d_45">
      <path d="M 451.480829 378 
L 451.480829 51.84 
" clip-path="url(#p734e76ea54)" style="fill: none; stroke-dasharray: 1.85,0.8; stroke-dashoffset: 0; stroke: #cccccc; stroke-opacity: 0.7; stroke-width: 0.5"/>
     </g>
     <g id="line2d_46">
      <g>
       <use xlink:href="#mdf78ebfd5c" x="451.480829" y="51.84" style="fill: #262626; stroke: #262626; stroke-width: 3"/>
      </g>
     </g>
    </g>
    <g id="xtick_24">
     <g id="line2d_47">
      <path d="M 488.07594 378 
L 488.07594 51.84 
" clip-path="url(#p734e76ea54)" style="fill: none; stroke-dasharray: 1.85,0.8; stroke-dashoffset: 0; stroke: #cccccc; stroke-opacity: 0.7; stroke-width: 0.5"/>
     </g>
     <g id="line2d_48">
      <g>
       <use xlink:href="#mdf78ebfd5c" x="488.07594" y="51.84" style="fill: #262626; stroke: #262626; stroke-width: 3"/>
      </g>
     </g>
    </g>
    <g id="xtick_25">
     <g id="line2d_49">
      <path d="M 506.373496 378 
L 506.373496 51.84 
" clip-path="url(#p734e76ea54)" style="fill: none; stroke-dasharray: 1.85,0.8; stroke-dashoffset: 0; stroke: #cccccc; stroke-opacity: 0.7; stroke-width: 0.5"/>
     </g>
     <g id="line2d_50">
      <g>
       <use xlink:href="#mdf78ebfd5c" x="506.373496" y="51.84" style="fill: #262626; stroke: #262626; stroke-width: 3"/>
      </g>
     </g>
    </g>
    <g id="xtick_26">
     <g id="line2d_51">
      <path d="M 524.671051 378 
L 524.671051 51.84 
" clip-path="url(#p734e76ea54)" style="fill: none; stroke-dasharray: 1.85,0.8; stroke-dashoffset: 0; stroke: #cccccc; stroke-opacity: 0.7; stroke-width: 0.5"/>
     </g>
     <g id="line2d_52">
      <g>
       <use xlink:href="#mdf78ebfd5c" x="524.671051" y="51.84" style="fill: #262626; stroke: #262626; stroke-width: 3"/>
      </g>
     </g>
    </g>
    <g id="xtick_27">
     <g id="line2d_53">
      <path d="M 542.968607 378 
L 542.968607 51.84 
" clip-path="url(#p734e76ea54)" style="fill: none; stroke-dasharray: 1.85,0.8; stroke-dashoffset: 0; stroke: #cccccc; stroke-opacity: 0.7; stroke-width: 0.5"/>
     </g>
     <g id="line2d_54">
      <g>
       <use xlink:href="#mdf78ebfd5c" x="542.968607" y="51.84" style="fill: #262626; stroke: #262626; stroke-width: 3"/>
      </g>
     </g>
    </g>
    <g id="xtick_28">
     <g id="line2d_55">
      <path d="M 579.563718 378 
L 579.563718 51.84 
" clip-path="url(#p734e76ea54)" style="fill: none; stroke-dasharray: 1.85,0.8; stroke-dashoffset: 0; stroke: #cccccc; stroke-opacity: 0.7; stroke-width: 0.5"/>
     </g>
     <g id="line2d_56">
      <g>
       <use xlink:href="#mdf78ebfd5c" x="579.563718" y="51.84" style="fill: #262626; stroke: #262626; stroke-width: 3"/>
      </g>
     </g>
    </g>
    <g id="text_7">
     <!-- Frequency [Hz] -->
     <g style="fill: #262626" transform="translate(264.301563 413.533594)scale(0.2 -0.2)">
      <defs>
       <path id="ArialMT-46" d="M 525 0 
L 525 4581 
L 3616 4581 
L 3616 4041 
L 1131 4041 
L 1131 2622 
L 3281 2622 
L 3281 2081 
L 1131 2081 
L 1131 0 
L 525 0 
z
" transform="scale(0.015625)"/>
       <path id="ArialMT-72" d="M 416 0 
L 416 3319 
L 922 3319 
L 922 2816 
Q 1116 3169 1280 3281 
Q 1444 3394 1641 3394 
Q 1925 3394 2219 3213 
L 2025 2691 
Q 1819 2813 1613 2813 
Q 1428 2813 1281 2702 
Q 1134 2591 1072 2394 
Q 978 2094 978 1738 
L 978 0 
L 416 0 
z
" transform="scale(0.015625)"/>
       <path id="ArialMT-65" d="M 2694 1069 
L 3275 997 
Q 3138 488 2766 206 
Q 2394 -75 1816 -75 
Q 1088 -75 661 373 
Q 234 822 234 1631 
Q 234 2469 665 2931 
Q 1097 3394 1784 3394 
Q 2450 3394 2872 2941 
Q 3294 2488 3294 1666 
Q 3294 1616 3291 1516 
L 816 1516 
Q 847 969 1125 678 
Q 1403 388 1819 388 
Q 2128 388 2347 550 
Q 2566 713 2694 1069 
z
M 847 1978 
L 2700 1978 
Q 2663 2397 2488 2606 
Q 2219 2931 1791 2931 
Q 1403 2931 1139 2672 
Q 875 2413 847 1978 
z
" transform="scale(0.015625)"/>
       <path id="ArialMT-71" d="M 2538 -1272 
L 2538 353 
Q 2406 169 2170 47 
Q 1934 -75 1669 -75 
Q 1078 -75 651 397 
Q 225 869 225 1691 
Q 225 2191 398 2587 
Q 572 2984 901 3189 
Q 1231 3394 1625 3394 
Q 2241 3394 2594 2875 
L 2594 3319 
L 3100 3319 
L 3100 -1272 
L 2538 -1272 
z
M 803 1669 
Q 803 1028 1072 708 
Q 1341 388 1716 388 
Q 2075 388 2334 692 
Q 2594 997 2594 1619 
Q 2594 2281 2320 2615 
Q 2047 2950 1678 2950 
Q 1313 2950 1058 2639 
Q 803 2328 803 1669 
z
" transform="scale(0.015625)"/>
       <path id="ArialMT-75" d="M 2597 0 
L 2597 488 
Q 2209 -75 1544 -75 
Q 1250 -75 995 37 
Q 741 150 617 320 
Q 494 491 444 738 
Q 409 903 409 1263 
L 409 3319 
L 972 3319 
L 972 1478 
Q 972 1038 1006 884 
Q 1059 663 1231 536 
Q 1403 409 1656 409 
Q 1909 409 2131 539 
Q 2353 669 2445 892 
Q 2538 1116 2538 1541 
L 2538 3319 
L 3100 3319 
L 3100 0 
L 2597 0 
z
" transform="scale(0.015625)"/>
       <path id="ArialMT-6e" d="M 422 0 
L 422 3319 
L 928 3319 
L 928 2847 
Q 1294 3394 1984 3394 
Q 2284 3394 2536 3286 
Q 2788 3178 2913 3003 
Q 3038 2828 3088 2588 
Q 3119 2431 3119 2041 
L 3119 0 
L 2556 0 
L 2556 2019 
Q 2556 2363 2490 2533 
Q 2425 2703 2258 2804 
Q 2091 2906 1866 2906 
Q 1506 2906 1245 2678 
Q 984 2450 984 1813 
L 984 0 
L 422 0 
z
" transform="scale(0.015625)"/>
       <path id="ArialMT-63" d="M 2588 1216 
L 3141 1144 
Q 3050 572 2676 248 
Q 2303 -75 1759 -75 
Q 1078 -75 664 370 
Q 250 816 250 1647 
Q 250 2184 428 2587 
Q 606 2991 970 3192 
Q 1334 3394 1763 3394 
Q 2303 3394 2647 3120 
Q 2991 2847 3088 2344 
L 2541 2259 
Q 2463 2594 2264 2762 
Q 2066 2931 1784 2931 
Q 1359 2931 1093 2626 
Q 828 2322 828 1663 
Q 828 994 1084 691 
Q 1341 388 1753 388 
Q 2084 388 2306 591 
Q 2528 794 2588 1216 
z
" transform="scale(0.015625)"/>
       <path id="ArialMT-79" d="M 397 -1278 
L 334 -750 
Q 519 -800 656 -800 
Q 844 -800 956 -737 
Q 1069 -675 1141 -563 
Q 1194 -478 1313 -144 
Q 1328 -97 1363 -6 
L 103 3319 
L 709 3319 
L 1400 1397 
Q 1534 1031 1641 628 
Q 1738 1016 1872 1384 
L 2581 3319 
L 3144 3319 
L 1881 -56 
Q 1678 -603 1566 -809 
Q 1416 -1088 1222 -1217 
Q 1028 -1347 759 -1347 
Q 597 -1347 397 -1278 
z
" transform="scale(0.015625)"/>
       <path id="ArialMT-20" transform="scale(0.015625)"/>
       <path id="ArialMT-5b" d="M 434 -1272 
L 434 4581 
L 1675 4581 
L 1675 4116 
L 997 4116 
L 997 -806 
L 1675 -806 
L 1675 -1272 
L 434 -1272 
z
" transform="scale(0.015625)"/>
       <path id="ArialMT-48" d="M 513 0 
L 513 4581 
L 1119 4581 
L 1119 2700 
L 3500 2700 
L 3500 4581 
L 4106 4581 
L 4106 0 
L 3500 0 
L 3500 2159 
L 1119 2159 
L 1119 0 
L 513 0 
z
" transform="scale(0.015625)"/>
       <path id="ArialMT-7a" d="M 125 0 
L 125 456 
L 2238 2881 
Q 1878 2863 1603 2863 
L 250 2863 
L 250 3319 
L 2963 3319 
L 2963 2947 
L 1166 841 
L 819 456 
Q 1197 484 1528 484 
L 3063 484 
L 3063 0 
L 125 0 
z
" transform="scale(0.015625)"/>
       <path id="ArialMT-5d" d="M 1363 -1272 
L 122 -1272 
L 122 -806 
L 800 -806 
L 800 4116 
L 122 4116 
L 122 4581 
L 1363 4581 
L 1363 -1272 
z
" transform="scale(0.015625)"/>
      </defs>
      <use xlink:href="#ArialMT-46"/>
      <use xlink:href="#ArialMT-72" x="61.083984"/>
      <use xlink:href="#ArialMT-65" x="94.384766"/>
      <use xlink:href="#ArialMT-71" x="150"/>
      <use xlink:href="#ArialMT-75" x="205.615234"/>
      <use xlink:href="#ArialMT-65" x="261.230469"/>
      <use xlink:href="#ArialMT-6e" x="316.845703"/>
      <use xlink:href="#ArialMT-63" x="372.460938"/>
      <use xlink:href="#ArialMT-79" x="422.460938"/>
      <use xlink:href="#ArialMT-20" x="472.460938"/>
      <use xlink:href="#ArialMT-5b" x="500.244141"/>
      <use xlink:href="#ArialMT-48" x="528.027344"/>
      <use xlink:href="#ArialMT-7a" x="600.244141"/>
      <use xlink:href="#ArialMT-5d" x="650.244141"/>
     </g>
    </g>
   </g>
   <g id="matplotlib.axis_2">
    <g id="ytick_1">
     <g id="line2d_57">
      <path d="M 81 363.174545 
L 583.2 363.174545 
" clip-path="url(#p734e76ea54)" style="fill: none; stroke-dasharray: 1.85,0.8; stroke-dashoffset: 0; stroke: #cccccc; stroke-opacity: 0.7; stroke-width: 0.5"/>
     </g>
     <g id="line2d_58">
      <defs>
       <path id="m02f4da8553" d="M 0 0 
L -3 0 
" style="stroke: #262626; stroke-width: 3"/>
      </defs>
      <g>
       <use xlink:href="#m02f4da8553" x="583.2" y="363.174545" style="fill: #262626; stroke: #262626; stroke-width: 3"/>
      </g>
     </g>
     <g id="text_8">
      <!-- 0 -->
      <g style="fill: #262626" transform="translate(69.158594 368.542905)scale(0.15 -0.15)">
       <use xlink:href="#ArialMT-30"/>
      </g>
     </g>
    </g>
    <g id="ytick_2">
     <g id="line2d_59">
      <path d="M 81 298.676031 
L 583.2 298.676031 
" clip-path="url(#p734e76ea54)" style="fill: none; stroke-dasharray: 1.85,0.8; stroke-dashoffset: 0; stroke: #cccccc; stroke-opacity: 0.7; stroke-width: 0.5"/>
     </g>
     <g id="line2d_60">
      <g>
       <use xlink:href="#m02f4da8553" x="583.2" y="298.676031" style="fill: #262626; stroke: #262626; stroke-width: 3"/>
      </g>
     </g>
     <g id="text_9">
      <!-- 500 -->
      <g style="fill: #262626" transform="translate(52.475781 304.04439)scale(0.15 -0.15)">
       <use xlink:href="#ArialMT-35"/>
       <use xlink:href="#ArialMT-30" x="55.615234"/>
       <use xlink:href="#ArialMT-30" x="111.230469"/>
      </g>
     </g>
    </g>
    <g id="ytick_3">
     <g id="line2d_61">
      <path d="M 81 234.177516 
L 583.2 234.177516 
" clip-path="url(#p734e76ea54)" style="fill: none; stroke-dasharray: 1.85,0.8; stroke-dashoffset: 0; stroke: #cccccc; stroke-opacity: 0.7; stroke-width: 0.5"/>
     </g>
     <g id="line2d_62">
      <g>
       <use xlink:href="#m02f4da8553" x="583.2" y="234.177516" style="fill: #262626; stroke: #262626; stroke-width: 3"/>
      </g>
     </g>
     <g id="text_10">
      <!-- 1000 -->
      <g style="fill: #262626" transform="translate(44.134375 239.545875)scale(0.15 -0.15)">
       <use xlink:href="#ArialMT-31"/>
       <use xlink:href="#ArialMT-30" x="55.615234"/>
       <use xlink:href="#ArialMT-30" x="111.230469"/>
       <use xlink:href="#ArialMT-30" x="166.845703"/>
      </g>
     </g>
    </g>
    <g id="ytick_4">
     <g id="line2d_63">
      <path d="M 81 169.679001 
L 583.2 169.679001 
" clip-path="url(#p734e76ea54)" style="fill: none; stroke-dasharray: 1.85,0.8; stroke-dashoffset: 0; stroke: #cccccc; stroke-opacity: 0.7; stroke-width: 0.5"/>
     </g>
     <g id="line2d_64">
      <g>
       <use xlink:href="#m02f4da8553" x="583.2" y="169.679001" style="fill: #262626; stroke: #262626; stroke-width: 3"/>
      </g>
     </g>
     <g id="text_11">
      <!-- 1500 -->
      <g style="fill: #262626" transform="translate(44.134375 175.047361)scale(0.15 -0.15)">
       <use xlink:href="#ArialMT-31"/>
       <use xlink:href="#ArialMT-35" x="55.615234"/>
       <use xlink:href="#ArialMT-30" x="111.230469"/>
       <use xlink:href="#ArialMT-30" x="166.845703"/>
      </g>
     </g>
    </g>
    <g id="ytick_5">
     <g id="line2d_65">
      <path d="M 81 105.180486 
L 583.2 105.180486 
" clip-path="url(#p734e76ea54)" style="fill: none; stroke-dasharray: 1.85,0.8; stroke-dashoffset: 0; stroke: #cccccc; stroke-opacity: 0.7; stroke-width: 0.5"/>
     </g>
     <g id="line2d_66">
      <g>
       <use xlink:href="#m02f4da8553" x="583.2" y="105.180486" style="fill: #262626; stroke: #262626; stroke-width: 3"/>
      </g>
     </g>
     <g id="text_12">
      <!-- 2000 -->
      <g style="fill: #262626" transform="translate(44.134375 110.548846)scale(0.15 -0.15)">
       <use xlink:href="#ArialMT-32"/>
       <use xlink:href="#ArialMT-30" x="55.615234"/>
       <use xlink:href="#ArialMT-30" x="111.230469"/>
       <use xlink:href="#ArialMT-30" x="166.845703"/>
      </g>
     </g>
    </g>
    <g id="text_13">
     <!-- Magnitude -->
     <g style="fill: #262626" transform="translate(35.925 261.615312)rotate(-90)scale(0.2 -0.2)">
      <defs>
       <path id="ArialMT-4d" d="M 475 0 
L 475 4581 
L 1388 4581 
L 2472 1338 
Q 2622 884 2691 659 
Q 2769 909 2934 1394 
L 4031 4581 
L 4847 4581 
L 4847 0 
L 4263 0 
L 4263 3834 
L 2931 0 
L 2384 0 
L 1059 3900 
L 1059 0 
L 475 0 
z
" transform="scale(0.015625)"/>
       <path id="ArialMT-61" d="M 2588 409 
Q 2275 144 1986 34 
Q 1697 -75 1366 -75 
Q 819 -75 525 192 
Q 231 459 231 875 
Q 231 1119 342 1320 
Q 453 1522 633 1644 
Q 813 1766 1038 1828 
Q 1203 1872 1538 1913 
Q 2219 1994 2541 2106 
Q 2544 2222 2544 2253 
Q 2544 2597 2384 2738 
Q 2169 2928 1744 2928 
Q 1347 2928 1158 2789 
Q 969 2650 878 2297 
L 328 2372 
Q 403 2725 575 2942 
Q 747 3159 1072 3276 
Q 1397 3394 1825 3394 
Q 2250 3394 2515 3294 
Q 2781 3194 2906 3042 
Q 3031 2891 3081 2659 
Q 3109 2516 3109 2141 
L 3109 1391 
Q 3109 606 3145 398 
Q 3181 191 3288 0 
L 2700 0 
Q 2613 175 2588 409 
z
M 2541 1666 
Q 2234 1541 1622 1453 
Q 1275 1403 1131 1340 
Q 988 1278 909 1158 
Q 831 1038 831 891 
Q 831 666 1001 516 
Q 1172 366 1500 366 
Q 1825 366 2078 508 
Q 2331 650 2450 897 
Q 2541 1088 2541 1459 
L 2541 1666 
z
" transform="scale(0.015625)"/>
       <path id="ArialMT-67" d="M 319 -275 
L 866 -356 
Q 900 -609 1056 -725 
Q 1266 -881 1628 -881 
Q 2019 -881 2231 -725 
Q 2444 -569 2519 -288 
Q 2563 -116 2559 434 
Q 2191 0 1641 0 
Q 956 0 581 494 
Q 206 988 206 1678 
Q 206 2153 378 2554 
Q 550 2956 876 3175 
Q 1203 3394 1644 3394 
Q 2231 3394 2613 2919 
L 2613 3319 
L 3131 3319 
L 3131 450 
Q 3131 -325 2973 -648 
Q 2816 -972 2473 -1159 
Q 2131 -1347 1631 -1347 
Q 1038 -1347 672 -1080 
Q 306 -813 319 -275 
z
M 784 1719 
Q 784 1066 1043 766 
Q 1303 466 1694 466 
Q 2081 466 2343 764 
Q 2606 1063 2606 1700 
Q 2606 2309 2336 2618 
Q 2066 2928 1684 2928 
Q 1309 2928 1046 2623 
Q 784 2319 784 1719 
z
" transform="scale(0.015625)"/>
       <path id="ArialMT-69" d="M 425 3934 
L 425 4581 
L 988 4581 
L 988 3934 
L 425 3934 
z
M 425 0 
L 425 3319 
L 988 3319 
L 988 0 
L 425 0 
z
" transform="scale(0.015625)"/>
       <path id="ArialMT-74" d="M 1650 503 
L 1731 6 
Q 1494 -44 1306 -44 
Q 1000 -44 831 53 
Q 663 150 594 308 
Q 525 466 525 972 
L 525 2881 
L 113 2881 
L 113 3319 
L 525 3319 
L 525 4141 
L 1084 4478 
L 1084 3319 
L 1650 3319 
L 1650 2881 
L 1084 2881 
L 1084 941 
Q 1084 700 1114 631 
Q 1144 563 1211 522 
Q 1278 481 1403 481 
Q 1497 481 1650 503 
z
" transform="scale(0.015625)"/>
       <path id="ArialMT-64" d="M 2575 0 
L 2575 419 
Q 2259 -75 1647 -75 
Q 1250 -75 917 144 
Q 584 363 401 755 
Q 219 1147 219 1656 
Q 219 2153 384 2558 
Q 550 2963 881 3178 
Q 1213 3394 1622 3394 
Q 1922 3394 2156 3267 
Q 2391 3141 2538 2938 
L 2538 4581 
L 3097 4581 
L 3097 0 
L 2575 0 
z
M 797 1656 
Q 797 1019 1065 703 
Q 1334 388 1700 388 
Q 2069 388 2326 689 
Q 2584 991 2584 1609 
Q 2584 2291 2321 2609 
Q 2059 2928 1675 2928 
Q 1300 2928 1048 2622 
Q 797 2316 797 1656 
z
" transform="scale(0.015625)"/>
      </defs>
      <use xlink:href="#ArialMT-4d"/>
      <use xlink:href="#ArialMT-61" x="83.300781"/>
      <use xlink:href="#ArialMT-67" x="138.916016"/>
      <use xlink:href="#ArialMT-6e" x="194.53125"/>
      <use xlink:href="#ArialMT-69" x="250.146484"/>
      <use xlink:href="#ArialMT-74" x="272.363281"/>
      <use xlink:href="#ArialMT-75" x="300.146484"/>
      <use xlink:href="#ArialMT-64" x="355.761719"/>
      <use xlink:href="#ArialMT-65" x="411.376953"/>
     </g>
    </g>
   </g>
   <g id="line2d_67">
    <path d="M 103.827273 363.174545 
L 104.720708 321.709302 
L 105.614143 321.077573 
L 106.507579 291.46228 
L 107.401014 226.481648 
L 108.294449 363.174545 
L 109.187885 363.174545 
L 110.08132 205.683923 
L 110.974755 277.264124 
L 111.868191 363.174545 
L 113.655061 363.174545 
L 114.548497 329.437154 
L 115.441932 363.174545 
L 117.228803 363.174545 
L 118.122238 270.473357 
L 119.015673 223.115349 
L 119.909109 363.174545 
L 120.802544 363.174545 
L 121.695979 333.73146 
L 122.589415 313.369207 
L 123.48285 215.667074 
L 124.376285 362.164679 
L 125.269721 363.174545 
L 127.950027 363.174545 
L 128.843462 324.657248 
L 129.736897 363.174545 
L 134.204074 363.174545 
L 135.097509 326.849245 
L 135.990945 258.022333 
L 136.88438 342.998319 
L 137.777815 363.174545 
L 138.671251 358.185891 
L 139.564686 224.74495 
L 140.458121 212.93812 
L 141.351557 348.138334 
L 142.244992 323.297544 
L 143.138427 363.174545 
L 144.031863 323.060197 
L 144.925298 319.177292 
L 145.818733 363.174545 
L 148.499039 363.174545 
L 149.392475 315.673568 
L 150.28591 363.174545 
L 152.072781 363.174545 
L 152.966216 292.372888 
L 153.859651 363.174545 
L 154.753087 363.174545 
L 156.539957 270.731566 
L 157.433393 262.739288 
L 158.326828 363.174545 
L 160.113699 363.174545 
L 161.007134 331.400805 
L 161.900569 244.640458 
L 162.794005 304.602141 
L 163.68744 316.013666 
L 164.580875 363.174545 
L 165.474311 344.109221 
L 166.367746 343.98598 
L 167.261181 363.174545 
L 168.154617 363.174545 
L 169.048052 255.458068 
L 169.941487 268.685453 
L 170.834923 288.926042 
L 171.728358 363.174545 
L 173.515229 363.174545 
L 174.408664 324.287173 
L 175.302099 363.174545 
L 177.08897 363.174545 
L 177.982405 302.257984 
L 178.875841 144.585716 
L 179.769276 240.140741 
L 180.662711 273.902654 
L 181.556147 362.607156 
L 182.449582 363.174545 
L 186.916759 363.174545 
L 187.810194 357.977456 
L 188.703629 363.174545 
L 190.4905 363.174545 
L 191.383935 362.454983 
L 192.277371 350.9336 
L 193.170806 323.882366 
L 194.064241 363.174545 
L 194.957677 237.716898 
L 195.851112 332.94187 
L 196.744547 363.174545 
L 198.531418 363.174545 
L 199.424853 353.24441 
L 200.318289 246.347743 
L 201.211724 363.174545 
L 205.678901 363.174545 
L 206.572336 322.816982 
L 207.465771 215.259712 
L 208.359207 264.196048 
L 209.252642 240.896319 
L 210.146077 363.174545 
L 211.039513 306.88234 
L 211.932948 328.32694 
L 212.826383 263.482463 
L 213.719819 334.628541 
L 214.613254 319.480384 
L 215.506689 363.174545 
L 216.400125 342.389564 
L 217.29356 363.174545 
L 218.186995 241.892786 
L 219.080431 363.174545 
L 225.334478 363.174545 
L 226.227913 278.671454 
L 227.121349 363.174545 
L 228.014784 274.248514 
L 228.908219 167.6371 
L 230.69509 326.250444 
L 231.588525 363.174545 
L 236.949137 363.174545 
L 237.842572 263.299704 
L 238.736008 316.324478 
L 239.629443 334.08037 
L 240.522878 363.174545 
L 241.416314 262.141868 
L 242.309749 329.127822 
L 243.203184 321.688542 
L 244.09662 363.174545 
L 246.776926 363.174545 
L 247.670361 350.54576 
L 248.563796 363.174545 
L 250.350667 363.174545 
L 251.244102 192.899816 
L 252.137538 139.039771 
L 253.030973 265.342645 
L 253.924408 356.796536 
L 254.817844 338.009238 
L 255.711279 363.174545 
L 261.965326 363.174545 
L 262.858762 216.307076 
L 263.752197 363.174545 
L 264.645632 237.968604 
L 265.539068 318.034959 
L 266.432503 257.186968 
L 267.325938 363.174545 
L 268.219374 348.741565 
L 270.006244 363.174545 
L 278.047162 363.174545 
L 278.940598 329.02793 
L 279.834033 361.590391 
L 280.727468 363.174545 
L 282.514339 363.174545 
L 283.407774 248.924486 
L 284.30121 172.992661 
L 285.194645 278.855886 
L 286.08808 225.798043 
L 286.981516 352.608761 
L 287.874951 212.651911 
L 288.768386 363.174545 
L 289.661822 339.568529 
L 290.555257 347.511922 
L 292.342128 158.319512 
L 293.235563 363.174545 
L 297.70274 363.174545 
L 298.596175 346.947846 
L 299.48961 363.174545 
L 300.383046 363.174545 
L 301.276481 178.689058 
L 302.169916 242.312088 
L 303.063352 262.051499 
L 303.956787 363.174545 
L 308.423964 363.174545 
L 309.317399 354.173395 
L 310.210834 363.174545 
L 311.10427 363.174545 
L 311.997705 354.893788 
L 312.89114 363.174545 
L 313.784576 323.881161 
L 314.678011 303.177505 
L 315.571446 105.700194 
L 316.464882 346.877946 
L 317.358317 338.902186 
L 318.251752 363.174545 
L 319.145188 363.174545 
L 320.038623 327.818339 
L 320.932058 363.174545 
L 322.718929 363.174545 
L 323.612364 361.921135 
L 324.5058 170.376739 
L 325.399235 311.104948 
L 326.29267 363.174545 
L 327.186106 360.421901 
L 328.079541 300.106396 
L 328.972976 363.174545 
L 330.759847 234.459629 
L 331.653282 272.567992 
L 332.546718 363.174545 
L 333.440153 229.559106 
L 334.333588 220.864491 
L 335.227024 363.174545 
L 340.587636 363.174545 
L 341.481071 335.260185 
L 342.374506 363.174545 
L 345.054812 363.174545 
L 345.948248 263.070377 
L 346.841683 363.174545 
L 347.735118 214.738134 
L 348.628554 220.929444 
L 349.521989 363.174545 
L 350.415424 363.174545 
L 351.30886 308.91338 
L 352.202295 363.174545 
L 353.09573 337.044949 
L 353.989166 277.544874 
L 354.882601 349.552793 
L 355.776036 363.174545 
L 356.669472 223.118721 
L 357.562907 353.549509 
L 358.456342 363.174545 
L 359.349778 323.818884 
L 360.243213 363.174545 
L 362.030084 363.174545 
L 362.923519 344.841144 
L 363.816954 271.028033 
L 364.71039 363.174545 
L 365.603825 363.174545 
L 366.49726 109.671275 
L 367.390696 314.747197 
L 368.284131 363.174545 
L 369.177566 198.885188 
L 370.071002 299.776072 
L 370.964437 363.174545 
L 371.857872 310.917675 
L 372.751308 363.174545 
L 373.644743 363.174545 
L 374.538178 229.413061 
L 375.431614 259.92604 
L 376.325049 261.766398 
L 377.218484 318.897106 
L 378.11192 363.174545 
L 379.005355 363.174545 
L 379.89879 336.174941 
L 380.792226 363.174545 
L 384.365967 363.174545 
L 385.259402 353.701086 
L 386.152838 363.174545 
L 387.046273 363.174545 
L 387.939708 329.283338 
L 388.833144 363.174545 
L 389.726579 255.64325 
L 390.620014 363.174545 
L 391.51345 345.805902 
L 392.406885 307.816778 
L 393.30032 356.701134 
L 394.193756 360.115949 
L 395.087191 82.180587 
L 395.980626 263.64357 
L 396.874062 316.523396 
L 397.767497 266.02325 
L 398.660932 301.865427 
L 399.554368 363.174545 
L 401.341238 363.174545 
L 402.234674 326.054713 
L 403.128109 363.174545 
L 405.808415 363.174545 
L 406.70185 292.315175 
L 407.595286 363.174545 
L 411.169027 363.174545 
L 412.062462 340.248741 
L 412.955898 107.990076 
L 413.849333 66.665455 
L 414.742768 343.895232 
L 415.636204 363.174545 
L 416.529639 241.61249 
L 417.423074 363.174545 
L 421.890251 363.174545 
L 422.783686 359.081422 
L 423.677122 288.25568 
L 424.570557 306.946914 
L 425.463992 363.174545 
L 426.357428 363.174545 
L 427.250863 315.810822 
L 428.144298 363.174545 
L 429.037733 363.174545 
L 429.931169 235.063868 
L 430.824604 325.693027 
L 431.718039 257.284864 
L 432.611475 363.174545 
L 434.398345 363.174545 
L 435.291781 291.189706 
L 436.185216 292.183658 
L 437.078651 290.787969 
L 437.972087 363.174545 
L 440.652393 363.174545 
L 441.545828 276.449631 
L 442.439263 132.009185 
L 443.332699 275.073965 
L 444.226134 331.903817 
L 445.119569 363.174545 
L 446.013005 327.910147 
L 446.90644 363.174545 
L 447.799875 363.174545 
L 449.586746 343.555129 
L 450.480181 317.494448 
L 451.373617 316.605953 
L 452.267052 284.135553 
L 453.160487 273.962981 
L 454.053923 355.540139 
L 454.947358 363.174545 
L 457.627664 363.174545 
L 458.521099 320.255587 
L 459.414535 361.398833 
L 460.30797 199.393225 
L 461.201405 363.174545 
L 462.988276 363.174545 
L 463.881711 362.351245 
L 464.775147 363.174545 
L 465.668582 275.808416 
L 466.562017 363.174545 
L 467.455453 363.174545 
L 468.348888 351.845723 
L 471.029194 236.910829 
L 471.922629 159.653094 
L 472.816065 344.735743 
L 473.7095 363.174545 
L 474.602935 357.006582 
L 475.496371 363.174545 
L 476.389806 363.174545 
L 477.283241 178.060597 
L 478.176677 348.230836 
L 479.070112 260.168857 
L 479.963547 363.174545 
L 488.897901 363.174545 
L 489.791336 191.692471 
L 490.684771 302.752148 
L 491.578207 363.174545 
L 492.471642 363.174545 
L 493.365077 338.228261 
L 494.258513 363.174545 
L 496.938819 363.174545 
L 497.832254 206.331837 
L 498.725689 231.789155 
L 499.619125 354.581533 
L 500.51256 190.84472 
L 501.405995 347.32539 
L 502.299431 363.174545 
L 504.086301 363.174545 
L 504.979737 326.441248 
L 505.873172 239.017157 
L 506.766607 349.513693 
L 507.660043 343.016683 
L 508.553478 363.174545 
L 509.446913 336.55397 
L 510.340349 355.533234 
L 511.233784 341.485318 
L 512.127219 363.174545 
L 513.020655 238.317598 
L 513.91409 363.174545 
L 514.807525 363.174545 
L 515.700961 232.34467 
L 516.594396 300.607292 
L 517.487831 337.305425 
L 518.381267 330.922627 
L 519.274702 208.156584 
L 520.168137 363.174545 
L 528.209055 363.174545 
L 529.102491 214.333989 
L 529.995926 362.265465 
L 530.889361 363.174545 
L 532.676232 363.174545 
L 533.569667 337.418374 
L 534.463103 363.174545 
L 536.249973 363.174545 
L 537.143409 293.889498 
L 538.036844 270.760537 
L 538.930279 258.775057 
L 539.823715 355.197526 
L 540.71715 308.206093 
L 541.610585 296.817702 
L 542.504021 266.501017 
L 543.397456 363.174545 
L 545.184327 202.578168 
L 546.077762 221.735277 
L 546.971197 318.368267 
L 547.864633 312.126141 
L 548.758068 363.174545 
L 549.651503 363.174545 
L 550.544939 311.514225 
L 551.438374 351.469755 
L 552.331809 363.174545 
L 555.905551 363.174545 
L 556.798986 337.345994 
L 557.692421 345.398302 
L 558.585857 363.174545 
L 560.372727 363.174545 
L 560.372727 363.174545 
" clip-path="url(#p734e76ea54)" style="fill: none; stroke: #1f77b4; stroke-width: 1.5; stroke-linecap: round"/>
   </g>
   <g id="line2d_68">
    <defs>
     <path id="m5a30795188" d="M 0 1.75 
C 0.464105 1.75 0.909265 1.565609 1.237437 1.237437 
C 1.565609 0.909265 1.75 0.464105 1.75 0 
C 1.75 -0.464105 1.565609 -0.909265 1.237437 -1.237437 
C 0.909265 -1.565609 0.464105 -1.75 0 -1.75 
C -0.464105 -1.75 -0.909265 -1.565609 -1.237437 -1.237437 
C -1.565609 -0.909265 -1.75 -0.464105 -1.75 0 
C -1.75 0.464105 -1.565609 0.909265 -1.237437 1.237437 
C -0.909265 1.565609 -0.464105 1.75 0 1.75 
z
" style="stroke: #ff6d00; stroke-width: 2"/>
    </defs>
    <g clip-path="url(#p734e76ea54)">
     <use xlink:href="#m5a30795188" x="178.875841" y="144.585716" style="fill: #ff6d00; stroke: #ff6d00; stroke-width: 2"/>
     <use xlink:href="#m5a30795188" x="228.908219" y="167.6371" style="fill: #ff6d00; stroke: #ff6d00; stroke-width: 2"/>
     <use xlink:href="#m5a30795188" x="252.137538" y="139.039771" style="fill: #ff6d00; stroke: #ff6d00; stroke-width: 2"/>
     <use xlink:href="#m5a30795188" x="292.342128" y="158.319512" style="fill: #ff6d00; stroke: #ff6d00; stroke-width: 2"/>
     <use xlink:href="#m5a30795188" x="315.571446" y="105.700194" style="fill: #ff6d00; stroke: #ff6d00; stroke-width: 2"/>
     <use xlink:href="#m5a30795188" x="366.49726" y="109.671275" style="fill: #ff6d00; stroke: #ff6d00; stroke-width: 2"/>
     <use xlink:href="#m5a30795188" x="395.087191" y="82.180587" style="fill: #ff6d00; stroke: #ff6d00; stroke-width: 2"/>
     <use xlink:href="#m5a30795188" x="413.849333" y="66.665455" style="fill: #ff6d00; stroke: #ff6d00; stroke-width: 2"/>
     <use xlink:href="#m5a30795188" x="442.439263" y="132.009185" style="fill: #ff6d00; stroke: #ff6d00; stroke-width: 2"/>
     <use xlink:href="#m5a30795188" x="471.922629" y="159.653094" style="fill: #ff6d00; stroke: #ff6d00; stroke-width: 2"/>
    </g>
   </g>
   <g id="patch_3">
    <path d="M 81 378 
L 81 51.84 
" style="fill: none; stroke: #cccccc; stroke-width: 1.25; stroke-linejoin: miter; stroke-linecap: square"/>
   </g>
   <g id="patch_4">
    <path d="M 583.2 378 
L 583.2 51.84 
" style="fill: none; stroke: #cccccc; stroke-width: 1.25; stroke-linejoin: miter; stroke-linecap: square"/>
   </g>
   <g id="patch_5">
    <path d="M 81 378 
L 583.2 378 
" style="fill: none; stroke: #cccccc; stroke-width: 1.25; stroke-linejoin: miter; stroke-linecap: square"/>
   </g>
   <g id="patch_6">
    <path d="M 81 51.84 
L 583.2 51.84 
" style="fill: none; stroke: #cccccc; stroke-width: 1.25; stroke-linejoin: miter; stroke-linecap: square"/>
   </g>
   <g id="text_14">
    <!-- Frequency Spectrum  -->
    <g style="fill: #262626" transform="translate(229.854688 31.84)scale(0.2 -0.2)">
     <defs>
      <path id="Arial-BoldMT-46" d="M 472 0 
L 472 4581 
L 3613 4581 
L 3613 3806 
L 1397 3806 
L 1397 2722 
L 3309 2722 
L 3309 1947 
L 1397 1947 
L 1397 0 
L 472 0 
z
" transform="scale(0.015625)"/>
      <path id="Arial-BoldMT-72" d="M 1300 0 
L 422 0 
L 422 3319 
L 1238 3319 
L 1238 2847 
Q 1447 3181 1614 3287 
Q 1781 3394 1994 3394 
Q 2294 3394 2572 3228 
L 2300 2463 
Q 2078 2606 1888 2606 
Q 1703 2606 1575 2504 
Q 1447 2403 1373 2137 
Q 1300 1872 1300 1025 
L 1300 0 
z
" transform="scale(0.015625)"/>
      <path id="Arial-BoldMT-65" d="M 2381 1056 
L 3256 909 
Q 3088 428 2723 176 
Q 2359 -75 1813 -75 
Q 947 -75 531 491 
Q 203 944 203 1634 
Q 203 2459 634 2926 
Q 1066 3394 1725 3394 
Q 2466 3394 2894 2905 
Q 3322 2416 3303 1406 
L 1103 1406 
Q 1113 1016 1316 798 
Q 1519 581 1822 581 
Q 2028 581 2168 693 
Q 2309 806 2381 1056 
z
M 2431 1944 
Q 2422 2325 2234 2523 
Q 2047 2722 1778 2722 
Q 1491 2722 1303 2513 
Q 1116 2303 1119 1944 
L 2431 1944 
z
" transform="scale(0.015625)"/>
      <path id="Arial-BoldMT-71" d="M 2628 -1263 
L 2628 406 
Q 2456 184 2200 54 
Q 1944 -75 1647 -75 
Q 1081 -75 716 350 
Q 284 847 284 1697 
Q 284 2497 689 2945 
Q 1094 3394 1694 3394 
Q 2025 3394 2267 3253 
Q 2509 3113 2697 2828 
L 2697 3319 
L 3506 3319 
L 3506 -1263 
L 2628 -1263 
z
M 2656 1700 
Q 2656 2209 2448 2457 
Q 2241 2706 1928 2706 
Q 1609 2706 1395 2453 
Q 1181 2200 1181 1650 
Q 1181 1103 1387 861 
Q 1594 619 1897 619 
Q 2200 619 2428 891 
Q 2656 1163 2656 1700 
z
" transform="scale(0.015625)"/>
      <path id="Arial-BoldMT-75" d="M 2644 0 
L 2644 497 
Q 2463 231 2167 78 
Q 1872 -75 1544 -75 
Q 1209 -75 943 72 
Q 678 219 559 484 
Q 441 750 441 1219 
L 441 3319 
L 1319 3319 
L 1319 1794 
Q 1319 1094 1367 936 
Q 1416 778 1544 686 
Q 1672 594 1869 594 
Q 2094 594 2272 717 
Q 2450 841 2515 1023 
Q 2581 1206 2581 1919 
L 2581 3319 
L 3459 3319 
L 3459 0 
L 2644 0 
z
" transform="scale(0.015625)"/>
      <path id="Arial-BoldMT-6e" d="M 3478 0 
L 2600 0 
L 2600 1694 
Q 2600 2231 2544 2389 
Q 2488 2547 2361 2634 
Q 2234 2722 2056 2722 
Q 1828 2722 1647 2597 
Q 1466 2472 1398 2265 
Q 1331 2059 1331 1503 
L 1331 0 
L 453 0 
L 453 3319 
L 1269 3319 
L 1269 2831 
Q 1703 3394 2363 3394 
Q 2653 3394 2893 3289 
Q 3134 3184 3257 3021 
Q 3381 2859 3429 2653 
Q 3478 2447 3478 2063 
L 3478 0 
z
" transform="scale(0.015625)"/>
      <path id="Arial-BoldMT-63" d="M 3353 2338 
L 2488 2181 
Q 2444 2441 2289 2572 
Q 2134 2703 1888 2703 
Q 1559 2703 1364 2476 
Q 1169 2250 1169 1719 
Q 1169 1128 1367 884 
Q 1566 641 1900 641 
Q 2150 641 2309 783 
Q 2469 925 2534 1272 
L 3397 1125 
Q 3263 531 2881 228 
Q 2500 -75 1859 -75 
Q 1131 -75 698 384 
Q 266 844 266 1656 
Q 266 2478 700 2936 
Q 1134 3394 1875 3394 
Q 2481 3394 2839 3133 
Q 3197 2872 3353 2338 
z
" transform="scale(0.015625)"/>
      <path id="Arial-BoldMT-79" d="M 44 3319 
L 978 3319 
L 1772 963 
L 2547 3319 
L 3456 3319 
L 2284 125 
L 2075 -453 
Q 1959 -744 1854 -897 
Q 1750 -1050 1614 -1145 
Q 1478 -1241 1279 -1294 
Q 1081 -1347 831 -1347 
Q 578 -1347 334 -1294 
L 256 -606 
Q 463 -647 628 -647 
Q 934 -647 1081 -467 
Q 1228 -288 1306 -9 
L 44 3319 
z
" transform="scale(0.015625)"/>
      <path id="Arial-BoldMT-20" transform="scale(0.015625)"/>
      <path id="Arial-BoldMT-53" d="M 231 1491 
L 1131 1578 
Q 1213 1125 1461 912 
Q 1709 700 2131 700 
Q 2578 700 2804 889 
Q 3031 1078 3031 1331 
Q 3031 1494 2936 1608 
Q 2841 1722 2603 1806 
Q 2441 1863 1863 2006 
Q 1119 2191 819 2459 
Q 397 2838 397 3381 
Q 397 3731 595 4036 
Q 794 4341 1167 4500 
Q 1541 4659 2069 4659 
Q 2931 4659 3367 4281 
Q 3803 3903 3825 3272 
L 2900 3231 
Q 2841 3584 2645 3739 
Q 2450 3894 2059 3894 
Q 1656 3894 1428 3728 
Q 1281 3622 1281 3444 
Q 1281 3281 1419 3166 
Q 1594 3019 2269 2859 
Q 2944 2700 3267 2529 
Q 3591 2359 3773 2064 
Q 3956 1769 3956 1334 
Q 3956 941 3737 597 
Q 3519 253 3119 86 
Q 2719 -81 2122 -81 
Q 1253 -81 787 320 
Q 322 722 231 1491 
z
" transform="scale(0.015625)"/>
      <path id="Arial-BoldMT-70" d="M 434 3319 
L 1253 3319 
L 1253 2831 
Q 1413 3081 1684 3237 
Q 1956 3394 2288 3394 
Q 2866 3394 3269 2941 
Q 3672 2488 3672 1678 
Q 3672 847 3265 386 
Q 2859 -75 2281 -75 
Q 2006 -75 1782 34 
Q 1559 144 1313 409 
L 1313 -1263 
L 434 -1263 
L 434 3319 
z
M 1303 1716 
Q 1303 1156 1525 889 
Q 1747 622 2066 622 
Q 2372 622 2575 867 
Q 2778 1113 2778 1672 
Q 2778 2194 2568 2447 
Q 2359 2700 2050 2700 
Q 1728 2700 1515 2451 
Q 1303 2203 1303 1716 
z
" transform="scale(0.015625)"/>
      <path id="Arial-BoldMT-74" d="M 1981 3319 
L 1981 2619 
L 1381 2619 
L 1381 1281 
Q 1381 875 1398 808 
Q 1416 741 1477 697 
Q 1538 653 1625 653 
Q 1747 653 1978 738 
L 2053 56 
Q 1747 -75 1359 -75 
Q 1122 -75 931 4 
Q 741 84 652 211 
Q 563 338 528 553 
Q 500 706 500 1172 
L 500 2619 
L 97 2619 
L 97 3319 
L 500 3319 
L 500 3978 
L 1381 4491 
L 1381 3319 
L 1981 3319 
z
" transform="scale(0.015625)"/>
      <path id="Arial-BoldMT-6d" d="M 394 3319 
L 1203 3319 
L 1203 2866 
Q 1638 3394 2238 3394 
Q 2556 3394 2790 3262 
Q 3025 3131 3175 2866 
Q 3394 3131 3647 3262 
Q 3900 3394 4188 3394 
Q 4553 3394 4806 3245 
Q 5059 3097 5184 2809 
Q 5275 2597 5275 2122 
L 5275 0 
L 4397 0 
L 4397 1897 
Q 4397 2391 4306 2534 
Q 4184 2722 3931 2722 
Q 3747 2722 3584 2609 
Q 3422 2497 3350 2280 
Q 3278 2063 3278 1594 
L 3278 0 
L 2400 0 
L 2400 1819 
Q 2400 2303 2353 2443 
Q 2306 2584 2207 2653 
Q 2109 2722 1941 2722 
Q 1738 2722 1575 2612 
Q 1413 2503 1342 2297 
Q 1272 2091 1272 1613 
L 1272 0 
L 394 0 
L 394 3319 
z
" transform="scale(0.015625)"/>
     </defs>
     <use xlink:href="#Arial-BoldMT-46"/>
     <use xlink:href="#Arial-BoldMT-72" x="61.083984"/>
     <use xlink:href="#Arial-BoldMT-65" x="100"/>
     <use xlink:href="#Arial-BoldMT-71" x="155.615234"/>
     <use xlink:href="#Arial-BoldMT-75" x="216.699219"/>
     <use xlink:href="#Arial-BoldMT-65" x="277.783203"/>
     <use xlink:href="#Arial-BoldMT-6e" x="333.398438"/>
     <use xlink:href="#Arial-BoldMT-63" x="394.482422"/>
     <use xlink:href="#Arial-BoldMT-79" x="450.097656"/>
     <use xlink:href="#Arial-BoldMT-20" x="505.712891"/>
     <use xlink:href="#Arial-BoldMT-53" x="533.496094"/>
     <use xlink:href="#Arial-BoldMT-70" x="600.195312"/>
     <use xlink:href="#Arial-BoldMT-65" x="661.279297"/>
     <use xlink:href="#Arial-BoldMT-63" x="716.894531"/>
     <use xlink:href="#Arial-BoldMT-74" x="772.509766"/>
     <use xlink:href="#Arial-BoldMT-72" x="805.810547"/>
     <use xlink:href="#Arial-BoldMT-75" x="844.726562"/>
     <use xlink:href="#Arial-BoldMT-6d" x="905.810547"/>
     <use xlink:href="#Arial-BoldMT-20" x="994.726562"/>
    </g>
   </g>
   <g id="legend_1">
    <g id="patch_7">
     <path d="M 411.294063 92.156719 
L 575.5 92.156719 
Q 577.7 92.156719 577.7 89.956719 
L 577.7 59.54 
Q 577.7 57.34 575.5 57.34 
L 411.294063 57.34 
Q 409.094063 57.34 409.094063 59.54 
L 409.094063 89.956719 
Q 409.094063 92.156719 411.294063 92.156719 
z
" style="fill: #ffffff; opacity: 0.8; stroke: #cccccc; stroke-linejoin: miter"/>
    </g>
    <g id="line2d_69">
     <path d="M 413.494063 65.897656 
L 424.494063 65.897656 
L 435.494063 65.897656 
" style="fill: none; stroke: #1f77b4; stroke-width: 1.5; stroke-linecap: round"/>
    </g>
    <g id="text_15">
     <!-- Spectrum without baseline -->
     <g style="fill: #262626" transform="translate(444.294063 69.747656)scale(0.11 -0.11)">
      <defs>
       <path id="ArialMT-53" d="M 288 1472 
L 859 1522 
Q 900 1178 1048 958 
Q 1197 738 1509 602 
Q 1822 466 2213 466 
Q 2559 466 2825 569 
Q 3091 672 3220 851 
Q 3350 1031 3350 1244 
Q 3350 1459 3225 1620 
Q 3100 1781 2813 1891 
Q 2628 1963 1997 2114 
Q 1366 2266 1113 2400 
Q 784 2572 623 2826 
Q 463 3081 463 3397 
Q 463 3744 659 4045 
Q 856 4347 1234 4503 
Q 1613 4659 2075 4659 
Q 2584 4659 2973 4495 
Q 3363 4331 3572 4012 
Q 3781 3694 3797 3291 
L 3216 3247 
Q 3169 3681 2898 3903 
Q 2628 4125 2100 4125 
Q 1550 4125 1298 3923 
Q 1047 3722 1047 3438 
Q 1047 3191 1225 3031 
Q 1400 2872 2139 2705 
Q 2878 2538 3153 2413 
Q 3553 2228 3743 1945 
Q 3934 1663 3934 1294 
Q 3934 928 3725 604 
Q 3516 281 3123 101 
Q 2731 -78 2241 -78 
Q 1619 -78 1198 103 
Q 778 284 539 648 
Q 300 1013 288 1472 
z
" transform="scale(0.015625)"/>
       <path id="ArialMT-70" d="M 422 -1272 
L 422 3319 
L 934 3319 
L 934 2888 
Q 1116 3141 1344 3267 
Q 1572 3394 1897 3394 
Q 2322 3394 2647 3175 
Q 2972 2956 3137 2557 
Q 3303 2159 3303 1684 
Q 3303 1175 3120 767 
Q 2938 359 2589 142 
Q 2241 -75 1856 -75 
Q 1575 -75 1351 44 
Q 1128 163 984 344 
L 984 -1272 
L 422 -1272 
z
M 931 1641 
Q 931 1000 1190 694 
Q 1450 388 1819 388 
Q 2194 388 2461 705 
Q 2728 1022 2728 1688 
Q 2728 2322 2467 2637 
Q 2206 2953 1844 2953 
Q 1484 2953 1207 2617 
Q 931 2281 931 1641 
z
" transform="scale(0.015625)"/>
       <path id="ArialMT-6d" d="M 422 0 
L 422 3319 
L 925 3319 
L 925 2853 
Q 1081 3097 1340 3245 
Q 1600 3394 1931 3394 
Q 2300 3394 2536 3241 
Q 2772 3088 2869 2813 
Q 3263 3394 3894 3394 
Q 4388 3394 4653 3120 
Q 4919 2847 4919 2278 
L 4919 0 
L 4359 0 
L 4359 2091 
Q 4359 2428 4304 2576 
Q 4250 2725 4106 2815 
Q 3963 2906 3769 2906 
Q 3419 2906 3187 2673 
Q 2956 2441 2956 1928 
L 2956 0 
L 2394 0 
L 2394 2156 
Q 2394 2531 2256 2718 
Q 2119 2906 1806 2906 
Q 1569 2906 1367 2781 
Q 1166 2656 1075 2415 
Q 984 2175 984 1722 
L 984 0 
L 422 0 
z
" transform="scale(0.015625)"/>
       <path id="ArialMT-77" d="M 1034 0 
L 19 3319 
L 600 3319 
L 1128 1403 
L 1325 691 
Q 1338 744 1497 1375 
L 2025 3319 
L 2603 3319 
L 3100 1394 
L 3266 759 
L 3456 1400 
L 4025 3319 
L 4572 3319 
L 3534 0 
L 2950 0 
L 2422 1988 
L 2294 2553 
L 1622 0 
L 1034 0 
z
" transform="scale(0.015625)"/>
       <path id="ArialMT-68" d="M 422 0 
L 422 4581 
L 984 4581 
L 984 2938 
Q 1378 3394 1978 3394 
Q 2347 3394 2619 3248 
Q 2891 3103 3008 2847 
Q 3125 2591 3125 2103 
L 3125 0 
L 2563 0 
L 2563 2103 
Q 2563 2525 2380 2717 
Q 2197 2909 1863 2909 
Q 1613 2909 1392 2779 
Q 1172 2650 1078 2428 
Q 984 2206 984 1816 
L 984 0 
L 422 0 
z
" transform="scale(0.015625)"/>
       <path id="ArialMT-6f" d="M 213 1659 
Q 213 2581 725 3025 
Q 1153 3394 1769 3394 
Q 2453 3394 2887 2945 
Q 3322 2497 3322 1706 
Q 3322 1066 3130 698 
Q 2938 331 2570 128 
Q 2203 -75 1769 -75 
Q 1072 -75 642 372 
Q 213 819 213 1659 
z
M 791 1659 
Q 791 1022 1069 705 
Q 1347 388 1769 388 
Q 2188 388 2466 706 
Q 2744 1025 2744 1678 
Q 2744 2294 2464 2611 
Q 2184 2928 1769 2928 
Q 1347 2928 1069 2612 
Q 791 2297 791 1659 
z
" transform="scale(0.015625)"/>
       <path id="ArialMT-62" d="M 941 0 
L 419 0 
L 419 4581 
L 981 4581 
L 981 2947 
Q 1338 3394 1891 3394 
Q 2197 3394 2470 3270 
Q 2744 3147 2920 2923 
Q 3097 2700 3197 2384 
Q 3297 2069 3297 1709 
Q 3297 856 2875 390 
Q 2453 -75 1863 -75 
Q 1275 -75 941 416 
L 941 0 
z
M 934 1684 
Q 934 1088 1097 822 
Q 1363 388 1816 388 
Q 2184 388 2453 708 
Q 2722 1028 2722 1663 
Q 2722 2313 2464 2622 
Q 2206 2931 1841 2931 
Q 1472 2931 1203 2611 
Q 934 2291 934 1684 
z
" transform="scale(0.015625)"/>
       <path id="ArialMT-73" d="M 197 991 
L 753 1078 
Q 800 744 1014 566 
Q 1228 388 1613 388 
Q 2000 388 2187 545 
Q 2375 703 2375 916 
Q 2375 1106 2209 1216 
Q 2094 1291 1634 1406 
Q 1016 1563 777 1677 
Q 538 1791 414 1992 
Q 291 2194 291 2438 
Q 291 2659 392 2848 
Q 494 3038 669 3163 
Q 800 3259 1026 3326 
Q 1253 3394 1513 3394 
Q 1903 3394 2198 3281 
Q 2494 3169 2634 2976 
Q 2775 2784 2828 2463 
L 2278 2388 
Q 2241 2644 2061 2787 
Q 1881 2931 1553 2931 
Q 1166 2931 1000 2803 
Q 834 2675 834 2503 
Q 834 2394 903 2306 
Q 972 2216 1119 2156 
Q 1203 2125 1616 2013 
Q 2213 1853 2448 1751 
Q 2684 1650 2818 1456 
Q 2953 1263 2953 975 
Q 2953 694 2789 445 
Q 2625 197 2315 61 
Q 2006 -75 1616 -75 
Q 969 -75 630 194 
Q 291 463 197 991 
z
" transform="scale(0.015625)"/>
       <path id="ArialMT-6c" d="M 409 0 
L 409 4581 
L 972 4581 
L 972 0 
L 409 0 
z
" transform="scale(0.015625)"/>
      </defs>
      <use xlink:href="#ArialMT-53"/>
      <use xlink:href="#ArialMT-70" x="66.699219"/>
      <use xlink:href="#ArialMT-65" x="122.314453"/>
      <use xlink:href="#ArialMT-63" x="177.929688"/>
      <use xlink:href="#ArialMT-74" x="227.929688"/>
      <use xlink:href="#ArialMT-72" x="255.712891"/>
      <use xlink:href="#ArialMT-75" x="289.013672"/>
      <use xlink:href="#ArialMT-6d" x="344.628906"/>
      <use xlink:href="#ArialMT-20" x="427.929688"/>
      <use xlink:href="#ArialMT-77" x="455.712891"/>
      <use xlink:href="#ArialMT-69" x="527.929688"/>
      <use xlink:href="#ArialMT-74" x="550.146484"/>
      <use xlink:href="#ArialMT-68" x="577.929688"/>
      <use xlink:href="#ArialMT-6f" x="633.544922"/>
      <use xlink:href="#ArialMT-75" x="689.160156"/>
      <use xlink:href="#ArialMT-74" x="744.775391"/>
      <use xlink:href="#ArialMT-20" x="772.558594"/>
      <use xlink:href="#ArialMT-62" x="800.341797"/>
      <use xlink:href="#ArialMT-61" x="855.957031"/>
      <use xlink:href="#ArialMT-73" x="911.572266"/>
      <use xlink:href="#ArialMT-65" x="961.572266"/>
      <use xlink:href="#ArialMT-6c" x="1017.1875"/>
      <use xlink:href="#ArialMT-69" x="1039.404297"/>
      <use xlink:href="#ArialMT-6e" x="1061.621094"/>
      <use xlink:href="#ArialMT-65" x="1117.236328"/>
     </g>
    </g>
    <g id="line2d_70">
     <g>
      <use xlink:href="#m5a30795188" x="424.494063" y="81.591562" style="fill: #ff6d00; stroke: #ff6d00; stroke-width: 2"/>
     </g>
    </g>
    <g id="text_16">
     <!-- Snoring Peaks -->
     <g style="fill: #262626" transform="translate(444.294063 85.441562)scale(0.11 -0.11)">
      <defs>
       <path id="ArialMT-50" d="M 494 0 
L 494 4581 
L 2222 4581 
Q 2678 4581 2919 4538 
Q 3256 4481 3484 4323 
Q 3713 4166 3852 3881 
Q 3991 3597 3991 3256 
Q 3991 2672 3619 2267 
Q 3247 1863 2275 1863 
L 1100 1863 
L 1100 0 
L 494 0 
z
M 1100 2403 
L 2284 2403 
Q 2872 2403 3119 2622 
Q 3366 2841 3366 3238 
Q 3366 3525 3220 3729 
Q 3075 3934 2838 4000 
Q 2684 4041 2272 4041 
L 1100 4041 
L 1100 2403 
z
" transform="scale(0.015625)"/>
       <path id="ArialMT-6b" d="M 425 0 
L 425 4581 
L 988 4581 
L 988 1969 
L 2319 3319 
L 3047 3319 
L 1778 2088 
L 3175 0 
L 2481 0 
L 1384 1697 
L 988 1316 
L 988 0 
L 425 0 
z
" transform="scale(0.015625)"/>
      </defs>
      <use xlink:href="#ArialMT-53"/>
      <use xlink:href="#ArialMT-6e" x="66.699219"/>
      <use xlink:href="#ArialMT-6f" x="122.314453"/>
      <use xlink:href="#ArialMT-72" x="177.929688"/>
      <use xlink:href="#ArialMT-69" x="211.230469"/>
      <use xlink:href="#ArialMT-6e" x="233.447266"/>
      <use xlink:href="#ArialMT-67" x="289.0625"/>
      <use xlink:href="#ArialMT-20" x="344.677734"/>
      <use xlink:href="#ArialMT-50" x="372.460938"/>
      <use xlink:href="#ArialMT-65" x="439.160156"/>
      <use xlink:href="#ArialMT-61" x="494.775391"/>
      <use xlink:href="#ArialMT-6b" x="550.390625"/>
      <use xlink:href="#ArialMT-73" x="600.390625"/>
     </g>
    </g>
   </g>
  </g>
 </g>
 <defs>
  <clipPath id="p734e76ea54">
   <rect x="81" y="51.84" width="502.2" height="326.16"/>
  </clipPath>
 </defs>
</svg>
