<?xml version="1.0" encoding="utf-8" standalone="no"?>
<!DOCTYPE svg PUBLIC "-//W3C//DTD SVG 1.1//EN"
  "http://www.w3.org/Graphics/SVG/1.1/DTD/svg11.dtd">
<svg xmlns:xlink="http://www.w3.org/1999/xlink" width="864pt" height="576pt" viewBox="0 0 864 576" xmlns="http://www.w3.org/2000/svg" version="1.1">
 <metadata>
  <rdf:RDF xmlns:dc="http://purl.org/dc/elements/1.1/" xmlns:cc="http://creativecommons.org/ns#" xmlns:rdf="http://www.w3.org/1999/02/22-rdf-syntax-ns#">
   <cc:Work>
    <dc:type rdf:resource="http://purl.org/dc/dcmitype/StillImage"/>
    <dc:date>2024-11-27T15:58:40.465273</dc:date>
    <dc:format>image/svg+xml</dc:format>
    <dc:creator>
     <cc:Agent>
      <dc:title>Matplotlib v3.5.1, https://matplotlib.org/</dc:title>
     </cc:Agent>
    </dc:creator>
   </cc:Work>
  </rdf:RDF>
 </metadata>
 <defs>
  <style type="text/css">*{stroke-linejoin: round; stroke-linecap: butt}</style>
 </defs>
 <g id="figure_1">
  <g id="patch_1">
   <path d="M 0 576 
L 864 576 
L 864 0 
L 0 0 
z
" style="fill: #ffffff"/>
  </g>
  <g id="axes_1">
   <g id="patch_2">
    <path d="M 108 504 
L 777.6 504 
L 777.6 69.12 
L 108 69.12 
z
" style="fill: #ffffff"/>
   </g>
   <g id="matplotlib.axis_1">
    <g id="xtick_1">
     <g id="line2d_1">
      <path d="M 138.436364 504 
L 138.436364 69.12 
" clip-path="url(#p50b79f057c)" style="fill: none; stroke-dasharray: 1.85,0.8; stroke-dashoffset: 0; stroke: #cccccc; stroke-opacity: 0.7; stroke-width: 0.5"/>
     </g>
     <g id="text_1">
      <!-- 0 -->
      <g style="fill: #262626" transform="translate(135.377848 521.373594)scale(0.11 -0.11)">
       <defs>
        <path id="ArialMT-30" d="M 266 2259 
Q 266 3072 433 3567 
Q 600 4063 929 4331 
Q 1259 4600 1759 4600 
Q 2128 4600 2406 4451 
Q 2684 4303 2865 4023 
Q 3047 3744 3150 3342 
Q 3253 2941 3253 2259 
Q 3253 1453 3087 958 
Q 2922 463 2592 192 
Q 2263 -78 1759 -78 
Q 1097 -78 719 397 
Q 266 969 266 2259 
z
M 844 2259 
Q 844 1131 1108 757 
Q 1372 384 1759 384 
Q 2147 384 2411 759 
Q 2675 1134 2675 2259 
Q 2675 3391 2411 3762 
Q 2147 4134 1753 4134 
Q 1366 4134 1134 3806 
Q 844 3388 844 2259 
z
" transform="scale(0.015625)"/>
       </defs>
       <use xlink:href="#ArialMT-30"/>
      </g>
     </g>
    </g>
    <g id="xtick_2">
     <g id="line2d_2">
      <path d="M 260.181818 504 
L 260.181818 69.12 
" clip-path="url(#p50b79f057c)" style="fill: none; stroke-dasharray: 1.85,0.8; stroke-dashoffset: 0; stroke: #cccccc; stroke-opacity: 0.7; stroke-width: 0.5"/>
     </g>
     <g id="text_2">
      <!-- 200 -->
      <g style="fill: #262626" transform="translate(251.006271 521.373594)scale(0.11 -0.11)">
       <defs>
        <path id="ArialMT-32" d="M 3222 541 
L 3222 0 
L 194 0 
Q 188 203 259 391 
Q 375 700 629 1000 
Q 884 1300 1366 1694 
Q 2113 2306 2375 2664 
Q 2638 3022 2638 3341 
Q 2638 3675 2398 3904 
Q 2159 4134 1775 4134 
Q 1369 4134 1125 3890 
Q 881 3647 878 3216 
L 300 3275 
Q 359 3922 746 4261 
Q 1134 4600 1788 4600 
Q 2447 4600 2831 4234 
Q 3216 3869 3216 3328 
Q 3216 3053 3103 2787 
Q 2991 2522 2730 2228 
Q 2469 1934 1863 1422 
Q 1356 997 1212 845 
Q 1069 694 975 541 
L 3222 541 
z
" transform="scale(0.015625)"/>
       </defs>
       <use xlink:href="#ArialMT-32"/>
       <use xlink:href="#ArialMT-30" x="55.615234"/>
       <use xlink:href="#ArialMT-30" x="111.230469"/>
      </g>
     </g>
    </g>
    <g id="xtick_3">
     <g id="line2d_3">
      <path d="M 381.927273 504 
L 381.927273 69.12 
" clip-path="url(#p50b79f057c)" style="fill: none; stroke-dasharray: 1.85,0.8; stroke-dashoffset: 0; stroke: #cccccc; stroke-opacity: 0.7; stroke-width: 0.5"/>
     </g>
     <g id="text_3">
      <!-- 400 -->
      <g style="fill: #262626" transform="translate(372.751726 521.373594)scale(0.11 -0.11)">
       <defs>
        <path id="ArialMT-34" d="M 2069 0 
L 2069 1097 
L 81 1097 
L 81 1613 
L 2172 4581 
L 2631 4581 
L 2631 1613 
L 3250 1613 
L 3250 1097 
L 2631 1097 
L 2631 0 
L 2069 0 
z
M 2069 1613 
L 2069 3678 
L 634 1613 
L 2069 1613 
z
" transform="scale(0.015625)"/>
       </defs>
       <use xlink:href="#ArialMT-34"/>
       <use xlink:href="#ArialMT-30" x="55.615234"/>
       <use xlink:href="#ArialMT-30" x="111.230469"/>
      </g>
     </g>
    </g>
    <g id="xtick_4">
     <g id="line2d_4">
      <path d="M 503.672727 504 
L 503.672727 69.12 
" clip-path="url(#p50b79f057c)" style="fill: none; stroke-dasharray: 1.85,0.8; stroke-dashoffset: 0; stroke: #cccccc; stroke-opacity: 0.7; stroke-width: 0.5"/>
     </g>
     <g id="text_4">
      <!-- 600 -->
      <g style="fill: #262626" transform="translate(494.49718 521.373594)scale(0.11 -0.11)">
       <defs>
        <path id="ArialMT-36" d="M 3184 3459 
L 2625 3416 
Q 2550 3747 2413 3897 
Q 2184 4138 1850 4138 
Q 1581 4138 1378 3988 
Q 1113 3794 959 3422 
Q 806 3050 800 2363 
Q 1003 2672 1297 2822 
Q 1591 2972 1913 2972 
Q 2475 2972 2870 2558 
Q 3266 2144 3266 1488 
Q 3266 1056 3080 686 
Q 2894 316 2569 119 
Q 2244 -78 1831 -78 
Q 1128 -78 684 439 
Q 241 956 241 2144 
Q 241 3472 731 4075 
Q 1159 4600 1884 4600 
Q 2425 4600 2770 4297 
Q 3116 3994 3184 3459 
z
M 888 1484 
Q 888 1194 1011 928 
Q 1134 663 1356 523 
Q 1578 384 1822 384 
Q 2178 384 2434 671 
Q 2691 959 2691 1453 
Q 2691 1928 2437 2201 
Q 2184 2475 1800 2475 
Q 1419 2475 1153 2201 
Q 888 1928 888 1484 
z
" transform="scale(0.015625)"/>
       </defs>
       <use xlink:href="#ArialMT-36"/>
       <use xlink:href="#ArialMT-30" x="55.615234"/>
       <use xlink:href="#ArialMT-30" x="111.230469"/>
      </g>
     </g>
    </g>
    <g id="xtick_5">
     <g id="line2d_5">
      <path d="M 625.418182 504 
L 625.418182 69.12 
" clip-path="url(#p50b79f057c)" style="fill: none; stroke-dasharray: 1.85,0.8; stroke-dashoffset: 0; stroke: #cccccc; stroke-opacity: 0.7; stroke-width: 0.5"/>
     </g>
     <g id="text_5">
      <!-- 800 -->
      <g style="fill: #262626" transform="translate(616.242635 521.373594)scale(0.11 -0.11)">
       <defs>
        <path id="ArialMT-38" d="M 1131 2484 
Q 781 2613 612 2850 
Q 444 3088 444 3419 
Q 444 3919 803 4259 
Q 1163 4600 1759 4600 
Q 2359 4600 2725 4251 
Q 3091 3903 3091 3403 
Q 3091 3084 2923 2848 
Q 2756 2613 2416 2484 
Q 2838 2347 3058 2040 
Q 3278 1734 3278 1309 
Q 3278 722 2862 322 
Q 2447 -78 1769 -78 
Q 1091 -78 675 323 
Q 259 725 259 1325 
Q 259 1772 486 2073 
Q 713 2375 1131 2484 
z
M 1019 3438 
Q 1019 3113 1228 2906 
Q 1438 2700 1772 2700 
Q 2097 2700 2305 2904 
Q 2513 3109 2513 3406 
Q 2513 3716 2298 3927 
Q 2084 4138 1766 4138 
Q 1444 4138 1231 3931 
Q 1019 3725 1019 3438 
z
M 838 1322 
Q 838 1081 952 856 
Q 1066 631 1291 507 
Q 1516 384 1775 384 
Q 2178 384 2440 643 
Q 2703 903 2703 1303 
Q 2703 1709 2433 1975 
Q 2163 2241 1756 2241 
Q 1359 2241 1098 1978 
Q 838 1716 838 1322 
z
" transform="scale(0.015625)"/>
       </defs>
       <use xlink:href="#ArialMT-38"/>
       <use xlink:href="#ArialMT-30" x="55.615234"/>
       <use xlink:href="#ArialMT-30" x="111.230469"/>
      </g>
     </g>
    </g>
    <g id="xtick_6">
     <g id="line2d_6">
      <path d="M 747.163636 504 
L 747.163636 69.12 
" clip-path="url(#p50b79f057c)" style="fill: none; stroke-dasharray: 1.85,0.8; stroke-dashoffset: 0; stroke: #cccccc; stroke-opacity: 0.7; stroke-width: 0.5"/>
     </g>
     <g id="text_6">
      <!-- 1000 -->
      <g style="fill: #262626" transform="translate(734.929574 521.373594)scale(0.11 -0.11)">
       <defs>
        <path id="ArialMT-31" d="M 2384 0 
L 1822 0 
L 1822 3584 
Q 1619 3391 1289 3197 
Q 959 3003 697 2906 
L 697 3450 
Q 1169 3672 1522 3987 
Q 1875 4303 2022 4600 
L 2384 4600 
L 2384 0 
z
" transform="scale(0.015625)"/>
       </defs>
       <use xlink:href="#ArialMT-31"/>
       <use xlink:href="#ArialMT-30" x="55.615234"/>
       <use xlink:href="#ArialMT-30" x="111.230469"/>
       <use xlink:href="#ArialMT-30" x="166.845703"/>
      </g>
     </g>
    </g>
    <g id="text_7">
     <!-- Frequency [Hz] -->
     <g style="fill: #262626" transform="translate(402.120938 536.149219)scale(0.12 -0.12)">
      <defs>
       <path id="ArialMT-46" d="M 525 0 
L 525 4581 
L 3616 4581 
L 3616 4041 
L 1131 4041 
L 1131 2622 
L 3281 2622 
L 3281 2081 
L 1131 2081 
L 1131 0 
L 525 0 
z
" transform="scale(0.015625)"/>
       <path id="ArialMT-72" d="M 416 0 
L 416 3319 
L 922 3319 
L 922 2816 
Q 1116 3169 1280 3281 
Q 1444 3394 1641 3394 
Q 1925 3394 2219 3213 
L 2025 2691 
Q 1819 2813 1613 2813 
Q 1428 2813 1281 2702 
Q 1134 2591 1072 2394 
Q 978 2094 978 1738 
L 978 0 
L 416 0 
z
" transform="scale(0.015625)"/>
       <path id="ArialMT-65" d="M 2694 1069 
L 3275 997 
Q 3138 488 2766 206 
Q 2394 -75 1816 -75 
Q 1088 -75 661 373 
Q 234 822 234 1631 
Q 234 2469 665 2931 
Q 1097 3394 1784 3394 
Q 2450 3394 2872 2941 
Q 3294 2488 3294 1666 
Q 3294 1616 3291 1516 
L 816 1516 
Q 847 969 1125 678 
Q 1403 388 1819 388 
Q 2128 388 2347 550 
Q 2566 713 2694 1069 
z
M 847 1978 
L 2700 1978 
Q 2663 2397 2488 2606 
Q 2219 2931 1791 2931 
Q 1403 2931 1139 2672 
Q 875 2413 847 1978 
z
" transform="scale(0.015625)"/>
       <path id="ArialMT-71" d="M 2538 -1272 
L 2538 353 
Q 2406 169 2170 47 
Q 1934 -75 1669 -75 
Q 1078 -75 651 397 
Q 225 869 225 1691 
Q 225 2191 398 2587 
Q 572 2984 901 3189 
Q 1231 3394 1625 3394 
Q 2241 3394 2594 2875 
L 2594 3319 
L 3100 3319 
L 3100 -1272 
L 2538 -1272 
z
M 803 1669 
Q 803 1028 1072 708 
Q 1341 388 1716 388 
Q 2075 388 2334 692 
Q 2594 997 2594 1619 
Q 2594 2281 2320 2615 
Q 2047 2950 1678 2950 
Q 1313 2950 1058 2639 
Q 803 2328 803 1669 
z
" transform="scale(0.015625)"/>
       <path id="ArialMT-75" d="M 2597 0 
L 2597 488 
Q 2209 -75 1544 -75 
Q 1250 -75 995 37 
Q 741 150 617 320 
Q 494 491 444 738 
Q 409 903 409 1263 
L 409 3319 
L 972 3319 
L 972 1478 
Q 972 1038 1006 884 
Q 1059 663 1231 536 
Q 1403 409 1656 409 
Q 1909 409 2131 539 
Q 2353 669 2445 892 
Q 2538 1116 2538 1541 
L 2538 3319 
L 3100 3319 
L 3100 0 
L 2597 0 
z
" transform="scale(0.015625)"/>
       <path id="ArialMT-6e" d="M 422 0 
L 422 3319 
L 928 3319 
L 928 2847 
Q 1294 3394 1984 3394 
Q 2284 3394 2536 3286 
Q 2788 3178 2913 3003 
Q 3038 2828 3088 2588 
Q 3119 2431 3119 2041 
L 3119 0 
L 2556 0 
L 2556 2019 
Q 2556 2363 2490 2533 
Q 2425 2703 2258 2804 
Q 2091 2906 1866 2906 
Q 1506 2906 1245 2678 
Q 984 2450 984 1813 
L 984 0 
L 422 0 
z
" transform="scale(0.015625)"/>
       <path id="ArialMT-63" d="M 2588 1216 
L 3141 1144 
Q 3050 572 2676 248 
Q 2303 -75 1759 -75 
Q 1078 -75 664 370 
Q 250 816 250 1647 
Q 250 2184 428 2587 
Q 606 2991 970 3192 
Q 1334 3394 1763 3394 
Q 2303 3394 2647 3120 
Q 2991 2847 3088 2344 
L 2541 2259 
Q 2463 2594 2264 2762 
Q 2066 2931 1784 2931 
Q 1359 2931 1093 2626 
Q 828 2322 828 1663 
Q 828 994 1084 691 
Q 1341 388 1753 388 
Q 2084 388 2306 591 
Q 2528 794 2588 1216 
z
" transform="scale(0.015625)"/>
       <path id="ArialMT-79" d="M 397 -1278 
L 334 -750 
Q 519 -800 656 -800 
Q 844 -800 956 -737 
Q 1069 -675 1141 -563 
Q 1194 -478 1313 -144 
Q 1328 -97 1363 -6 
L 103 3319 
L 709 3319 
L 1400 1397 
Q 1534 1031 1641 628 
Q 1738 1016 1872 1384 
L 2581 3319 
L 3144 3319 
L 1881 -56 
Q 1678 -603 1566 -809 
Q 1416 -1088 1222 -1217 
Q 1028 -1347 759 -1347 
Q 597 -1347 397 -1278 
z
" transform="scale(0.015625)"/>
       <path id="ArialMT-20" transform="scale(0.015625)"/>
       <path id="ArialMT-5b" d="M 434 -1272 
L 434 4581 
L 1675 4581 
L 1675 4116 
L 997 4116 
L 997 -806 
L 1675 -806 
L 1675 -1272 
L 434 -1272 
z
" transform="scale(0.015625)"/>
       <path id="ArialMT-48" d="M 513 0 
L 513 4581 
L 1119 4581 
L 1119 2700 
L 3500 2700 
L 3500 4581 
L 4106 4581 
L 4106 0 
L 3500 0 
L 3500 2159 
L 1119 2159 
L 1119 0 
L 513 0 
z
" transform="scale(0.015625)"/>
       <path id="ArialMT-7a" d="M 125 0 
L 125 456 
L 2238 2881 
Q 1878 2863 1603 2863 
L 250 2863 
L 250 3319 
L 2963 3319 
L 2963 2947 
L 1166 841 
L 819 456 
Q 1197 484 1528 484 
L 3063 484 
L 3063 0 
L 125 0 
z
" transform="scale(0.015625)"/>
       <path id="ArialMT-5d" d="M 1363 -1272 
L 122 -1272 
L 122 -806 
L 800 -806 
L 800 4116 
L 122 4116 
L 122 4581 
L 1363 4581 
L 1363 -1272 
z
" transform="scale(0.015625)"/>
      </defs>
      <use xlink:href="#ArialMT-46"/>
      <use xlink:href="#ArialMT-72" x="61.083984"/>
      <use xlink:href="#ArialMT-65" x="94.384766"/>
      <use xlink:href="#ArialMT-71" x="150"/>
      <use xlink:href="#ArialMT-75" x="205.615234"/>
      <use xlink:href="#ArialMT-65" x="261.230469"/>
      <use xlink:href="#ArialMT-6e" x="316.845703"/>
      <use xlink:href="#ArialMT-63" x="372.460938"/>
      <use xlink:href="#ArialMT-79" x="422.460938"/>
      <use xlink:href="#ArialMT-20" x="472.460938"/>
      <use xlink:href="#ArialMT-5b" x="500.244141"/>
      <use xlink:href="#ArialMT-48" x="528.027344"/>
      <use xlink:href="#ArialMT-7a" x="600.244141"/>
      <use xlink:href="#ArialMT-5d" x="650.244141"/>
     </g>
    </g>
   </g>
   <g id="matplotlib.axis_2">
    <g id="ytick_1">
     <g id="line2d_7">
      <path d="M 108 484.232727 
L 777.6 484.232727 
" clip-path="url(#p50b79f057c)" style="fill: none; stroke-dasharray: 1.85,0.8; stroke-dashoffset: 0; stroke: #cccccc; stroke-opacity: 0.7; stroke-width: 0.5"/>
     </g>
     <g id="text_8">
      <!-- 0 -->
      <g style="fill: #262626" transform="translate(92.382969 488.169524)scale(0.11 -0.11)">
       <use xlink:href="#ArialMT-30"/>
      </g>
     </g>
    </g>
    <g id="ytick_2">
     <g id="line2d_8">
      <path d="M 108 433.006428 
L 777.6 433.006428 
" clip-path="url(#p50b79f057c)" style="fill: none; stroke-dasharray: 1.85,0.8; stroke-dashoffset: 0; stroke: #cccccc; stroke-opacity: 0.7; stroke-width: 0.5"/>
     </g>
     <g id="text_9">
      <!-- 500 -->
      <g style="fill: #262626" transform="translate(80.148906 436.943224)scale(0.11 -0.11)">
       <defs>
        <path id="ArialMT-35" d="M 266 1200 
L 856 1250 
Q 922 819 1161 601 
Q 1400 384 1738 384 
Q 2144 384 2425 690 
Q 2706 997 2706 1503 
Q 2706 1984 2436 2262 
Q 2166 2541 1728 2541 
Q 1456 2541 1237 2417 
Q 1019 2294 894 2097 
L 366 2166 
L 809 4519 
L 3088 4519 
L 3088 3981 
L 1259 3981 
L 1013 2750 
Q 1425 3038 1878 3038 
Q 2478 3038 2890 2622 
Q 3303 2206 3303 1553 
Q 3303 931 2941 478 
Q 2500 -78 1738 -78 
Q 1113 -78 717 272 
Q 322 622 266 1200 
z
" transform="scale(0.015625)"/>
       </defs>
       <use xlink:href="#ArialMT-35"/>
       <use xlink:href="#ArialMT-30" x="55.615234"/>
       <use xlink:href="#ArialMT-30" x="111.230469"/>
      </g>
     </g>
    </g>
    <g id="ytick_3">
     <g id="line2d_9">
      <path d="M 108 381.780128 
L 777.6 381.780128 
" clip-path="url(#p50b79f057c)" style="fill: none; stroke-dasharray: 1.85,0.8; stroke-dashoffset: 0; stroke: #cccccc; stroke-opacity: 0.7; stroke-width: 0.5"/>
     </g>
     <g id="text_10">
      <!-- 1000 -->
      <g style="fill: #262626" transform="translate(74.031875 385.716925)scale(0.11 -0.11)">
       <use xlink:href="#ArialMT-31"/>
       <use xlink:href="#ArialMT-30" x="55.615234"/>
       <use xlink:href="#ArialMT-30" x="111.230469"/>
       <use xlink:href="#ArialMT-30" x="166.845703"/>
      </g>
     </g>
    </g>
    <g id="ytick_4">
     <g id="line2d_10">
      <path d="M 108 330.553828 
L 777.6 330.553828 
" clip-path="url(#p50b79f057c)" style="fill: none; stroke-dasharray: 1.85,0.8; stroke-dashoffset: 0; stroke: #cccccc; stroke-opacity: 0.7; stroke-width: 0.5"/>
     </g>
     <g id="text_11">
      <!-- 1500 -->
      <g style="fill: #262626" transform="translate(74.031875 334.490625)scale(0.11 -0.11)">
       <use xlink:href="#ArialMT-31"/>
       <use xlink:href="#ArialMT-35" x="55.615234"/>
       <use xlink:href="#ArialMT-30" x="111.230469"/>
       <use xlink:href="#ArialMT-30" x="166.845703"/>
      </g>
     </g>
    </g>
    <g id="ytick_5">
     <g id="line2d_11">
      <path d="M 108 279.327529 
L 777.6 279.327529 
" clip-path="url(#p50b79f057c)" style="fill: none; stroke-dasharray: 1.85,0.8; stroke-dashoffset: 0; stroke: #cccccc; stroke-opacity: 0.7; stroke-width: 0.5"/>
     </g>
     <g id="text_12">
      <!-- 2000 -->
      <g style="fill: #262626" transform="translate(74.031875 283.264325)scale(0.11 -0.11)">
       <use xlink:href="#ArialMT-32"/>
       <use xlink:href="#ArialMT-30" x="55.615234"/>
       <use xlink:href="#ArialMT-30" x="111.230469"/>
       <use xlink:href="#ArialMT-30" x="166.845703"/>
      </g>
     </g>
    </g>
    <g id="ytick_6">
     <g id="line2d_12">
      <path d="M 108 228.101229 
L 777.6 228.101229 
" clip-path="url(#p50b79f057c)" style="fill: none; stroke-dasharray: 1.85,0.8; stroke-dashoffset: 0; stroke: #cccccc; stroke-opacity: 0.7; stroke-width: 0.5"/>
     </g>
     <g id="text_13">
      <!-- 2500 -->
      <g style="fill: #262626" transform="translate(74.031875 232.038026)scale(0.11 -0.11)">
       <use xlink:href="#ArialMT-32"/>
       <use xlink:href="#ArialMT-35" x="55.615234"/>
       <use xlink:href="#ArialMT-30" x="111.230469"/>
       <use xlink:href="#ArialMT-30" x="166.845703"/>
      </g>
     </g>
    </g>
    <g id="ytick_7">
     <g id="line2d_13">
      <path d="M 108 176.874929 
L 777.6 176.874929 
" clip-path="url(#p50b79f057c)" style="fill: none; stroke-dasharray: 1.85,0.8; stroke-dashoffset: 0; stroke: #cccccc; stroke-opacity: 0.7; stroke-width: 0.5"/>
     </g>
     <g id="text_14">
      <!-- 3000 -->
      <g style="fill: #262626" transform="translate(74.031875 180.811726)scale(0.11 -0.11)">
       <defs>
        <path id="ArialMT-33" d="M 269 1209 
L 831 1284 
Q 928 806 1161 595 
Q 1394 384 1728 384 
Q 2125 384 2398 659 
Q 2672 934 2672 1341 
Q 2672 1728 2419 1979 
Q 2166 2231 1775 2231 
Q 1616 2231 1378 2169 
L 1441 2663 
Q 1497 2656 1531 2656 
Q 1891 2656 2178 2843 
Q 2466 3031 2466 3422 
Q 2466 3731 2256 3934 
Q 2047 4138 1716 4138 
Q 1388 4138 1169 3931 
Q 950 3725 888 3313 
L 325 3413 
Q 428 3978 793 4289 
Q 1159 4600 1703 4600 
Q 2078 4600 2393 4439 
Q 2709 4278 2876 4000 
Q 3044 3722 3044 3409 
Q 3044 3113 2884 2869 
Q 2725 2625 2413 2481 
Q 2819 2388 3044 2092 
Q 3269 1797 3269 1353 
Q 3269 753 2831 336 
Q 2394 -81 1725 -81 
Q 1122 -81 723 278 
Q 325 638 269 1209 
z
" transform="scale(0.015625)"/>
       </defs>
       <use xlink:href="#ArialMT-33"/>
       <use xlink:href="#ArialMT-30" x="55.615234"/>
       <use xlink:href="#ArialMT-30" x="111.230469"/>
       <use xlink:href="#ArialMT-30" x="166.845703"/>
      </g>
     </g>
    </g>
    <g id="ytick_8">
     <g id="line2d_14">
      <path d="M 108 125.64863 
L 777.6 125.64863 
" clip-path="url(#p50b79f057c)" style="fill: none; stroke-dasharray: 1.85,0.8; stroke-dashoffset: 0; stroke: #cccccc; stroke-opacity: 0.7; stroke-width: 0.5"/>
     </g>
     <g id="text_15">
      <!-- 3500 -->
      <g style="fill: #262626" transform="translate(74.031875 129.585426)scale(0.11 -0.11)">
       <use xlink:href="#ArialMT-33"/>
       <use xlink:href="#ArialMT-35" x="55.615234"/>
       <use xlink:href="#ArialMT-30" x="111.230469"/>
       <use xlink:href="#ArialMT-30" x="166.845703"/>
      </g>
     </g>
    </g>
    <g id="ytick_9">
     <g id="line2d_15">
      <path d="M 108 74.42233 
L 777.6 74.42233 
" clip-path="url(#p50b79f057c)" style="fill: none; stroke-dasharray: 1.85,0.8; stroke-dashoffset: 0; stroke: #cccccc; stroke-opacity: 0.7; stroke-width: 0.5"/>
     </g>
     <g id="text_16">
      <!-- 4000 -->
      <g style="fill: #262626" transform="translate(74.031875 78.359127)scale(0.11 -0.11)">
       <use xlink:href="#ArialMT-34"/>
       <use xlink:href="#ArialMT-30" x="55.615234"/>
       <use xlink:href="#ArialMT-30" x="111.230469"/>
       <use xlink:href="#ArialMT-30" x="166.845703"/>
      </g>
     </g>
    </g>
    <g id="text_17">
     <!-- Magnitude -->
     <g style="fill: #262626" transform="translate(67.50625 314.577187)rotate(-90)scale(0.12 -0.12)">
      <defs>
       <path id="ArialMT-4d" d="M 475 0 
L 475 4581 
L 1388 4581 
L 2472 1338 
Q 2622 884 2691 659 
Q 2769 909 2934 1394 
L 4031 4581 
L 4847 4581 
L 4847 0 
L 4263 0 
L 4263 3834 
L 2931 0 
L 2384 0 
L 1059 3900 
L 1059 0 
L 475 0 
z
" transform="scale(0.015625)"/>
       <path id="ArialMT-61" d="M 2588 409 
Q 2275 144 1986 34 
Q 1697 -75 1366 -75 
Q 819 -75 525 192 
Q 231 459 231 875 
Q 231 1119 342 1320 
Q 453 1522 633 1644 
Q 813 1766 1038 1828 
Q 1203 1872 1538 1913 
Q 2219 1994 2541 2106 
Q 2544 2222 2544 2253 
Q 2544 2597 2384 2738 
Q 2169 2928 1744 2928 
Q 1347 2928 1158 2789 
Q 969 2650 878 2297 
L 328 2372 
Q 403 2725 575 2942 
Q 747 3159 1072 3276 
Q 1397 3394 1825 3394 
Q 2250 3394 2515 3294 
Q 2781 3194 2906 3042 
Q 3031 2891 3081 2659 
Q 3109 2516 3109 2141 
L 3109 1391 
Q 3109 606 3145 398 
Q 3181 191 3288 0 
L 2700 0 
Q 2613 175 2588 409 
z
M 2541 1666 
Q 2234 1541 1622 1453 
Q 1275 1403 1131 1340 
Q 988 1278 909 1158 
Q 831 1038 831 891 
Q 831 666 1001 516 
Q 1172 366 1500 366 
Q 1825 366 2078 508 
Q 2331 650 2450 897 
Q 2541 1088 2541 1459 
L 2541 1666 
z
" transform="scale(0.015625)"/>
       <path id="ArialMT-67" d="M 319 -275 
L 866 -356 
Q 900 -609 1056 -725 
Q 1266 -881 1628 -881 
Q 2019 -881 2231 -725 
Q 2444 -569 2519 -288 
Q 2563 -116 2559 434 
Q 2191 0 1641 0 
Q 956 0 581 494 
Q 206 988 206 1678 
Q 206 2153 378 2554 
Q 550 2956 876 3175 
Q 1203 3394 1644 3394 
Q 2231 3394 2613 2919 
L 2613 3319 
L 3131 3319 
L 3131 450 
Q 3131 -325 2973 -648 
Q 2816 -972 2473 -1159 
Q 2131 -1347 1631 -1347 
Q 1038 -1347 672 -1080 
Q 306 -813 319 -275 
z
M 784 1719 
Q 784 1066 1043 766 
Q 1303 466 1694 466 
Q 2081 466 2343 764 
Q 2606 1063 2606 1700 
Q 2606 2309 2336 2618 
Q 2066 2928 1684 2928 
Q 1309 2928 1046 2623 
Q 784 2319 784 1719 
z
" transform="scale(0.015625)"/>
       <path id="ArialMT-69" d="M 425 3934 
L 425 4581 
L 988 4581 
L 988 3934 
L 425 3934 
z
M 425 0 
L 425 3319 
L 988 3319 
L 988 0 
L 425 0 
z
" transform="scale(0.015625)"/>
       <path id="ArialMT-74" d="M 1650 503 
L 1731 6 
Q 1494 -44 1306 -44 
Q 1000 -44 831 53 
Q 663 150 594 308 
Q 525 466 525 972 
L 525 2881 
L 113 2881 
L 113 3319 
L 525 3319 
L 525 4141 
L 1084 4478 
L 1084 3319 
L 1650 3319 
L 1650 2881 
L 1084 2881 
L 1084 941 
Q 1084 700 1114 631 
Q 1144 563 1211 522 
Q 1278 481 1403 481 
Q 1497 481 1650 503 
z
" transform="scale(0.015625)"/>
       <path id="ArialMT-64" d="M 2575 0 
L 2575 419 
Q 2259 -75 1647 -75 
Q 1250 -75 917 144 
Q 584 363 401 755 
Q 219 1147 219 1656 
Q 219 2153 384 2558 
Q 550 2963 881 3178 
Q 1213 3394 1622 3394 
Q 1922 3394 2156 3267 
Q 2391 3141 2538 2938 
L 2538 4581 
L 3097 4581 
L 3097 0 
L 2575 0 
z
M 797 1656 
Q 797 1019 1065 703 
Q 1334 388 1700 388 
Q 2069 388 2326 689 
Q 2584 991 2584 1609 
Q 2584 2291 2321 2609 
Q 2059 2928 1675 2928 
Q 1300 2928 1048 2622 
Q 797 2316 797 1656 
z
" transform="scale(0.015625)"/>
      </defs>
      <use xlink:href="#ArialMT-4d"/>
      <use xlink:href="#ArialMT-61" x="83.300781"/>
      <use xlink:href="#ArialMT-67" x="138.916016"/>
      <use xlink:href="#ArialMT-6e" x="194.53125"/>
      <use xlink:href="#ArialMT-69" x="250.146484"/>
      <use xlink:href="#ArialMT-74" x="272.363281"/>
      <use xlink:href="#ArialMT-75" x="300.146484"/>
      <use xlink:href="#ArialMT-64" x="355.761719"/>
      <use xlink:href="#ArialMT-65" x="411.376953"/>
     </g>
    </g>
   </g>
   <g id="line2d_16">
    <path d="M 150.920028 326.885825 
L 151.514489 248.895139 
L 152.108949 364.834881 
L 152.703409 397.857121 
L 153.297869 367.453653 
L 153.89233 410.635076 
L 154.48679 378.163226 
L 155.08125 332.747041 
L 155.67571 447.471242 
L 156.27017 430.567277 
L 156.864631 373.711698 
L 157.459091 388.395652 
L 158.053551 439.184654 
L 159.836932 275.652371 
L 160.431392 342.606632 
L 161.025852 392.59695 
L 161.620313 353.602846 
L 162.214773 247.093113 
L 162.809233 237.193571 
L 163.403693 344.057379 
L 163.998153 323.820814 
L 164.592614 363.242576 
L 165.187074 322.647256 
L 165.781534 319.088417 
L 166.375994 428.225551 
L 166.970455 430.925364 
L 167.564915 360.113173 
L 168.159375 383.34335 
L 168.753835 314.875525 
L 169.348295 428.738189 
L 169.942756 384.400239 
L 170.537216 409.545487 
L 171.131676 294.84961 
L 171.726136 408.660541 
L 172.320597 394.108267 
L 172.915057 314.911805 
L 173.509517 278.382561 
L 174.103977 272.22498 
L 174.698438 404.055744 
L 175.292898 449.667523 
L 175.887358 415.666317 
L 176.481818 326.728392 
L 177.076278 259.959824 
L 177.670739 310.57553 
L 178.265199 320.093154 
L 178.859659 422.302239 
L 179.454119 341.805939 
L 180.04858 342.751497 
L 180.64304 403.203789 
L 181.2375 384.270117 
L 181.83196 271.416128 
L 182.42642 282.077309 
L 183.020881 297.940173 
L 183.615341 375.76396 
L 184.209801 395.103614 
L 184.804261 408.658605 
L 185.398722 326.10569 
L 185.993182 398.2496 
L 186.587642 409.814253 
L 187.182102 407.901977 
L 187.776563 308.765598 
L 188.371023 184.565014 
L 188.965483 260.097508 
L 189.559943 286.563391 
L 190.154403 357.3762 
L 190.748864 388.512383 
L 191.343324 386.958957 
L 191.937784 430.119983 
L 192.532244 364.236329 
L 193.126705 378.192668 
L 193.721165 456.798515 
L 194.315625 352.932503 
L 194.910085 457.553461 
L 195.504545 421.764848 
L 196.099006 405.787471 
L 196.693466 353.60566 
L 197.287926 345.156525 
L 197.882386 324.926103 
L 198.476847 464.154617 
L 199.071307 256.901209 
L 199.665767 332.996491 
L 200.260227 379.012522 
L 200.854688 361.248211 
L 201.449148 370.412063 
L 202.043608 350.88346 
L 202.638068 266.197589 
L 203.232528 382.577634 
L 203.826989 392.031695 
L 204.421449 422.310191 
L 205.015909 425.662916 
L 205.610369 383.404965 
L 206.20483 412.726852 
L 207.39375 240.125579 
L 207.98821 279.139484 
L 208.58267 259.736355 
L 209.177131 406.820317 
L 209.771591 311.980746 
L 210.366051 328.303851 
L 210.960511 276.662361 
L 211.554972 332.830658 
L 212.149432 319.199161 
L 212.743892 378.718136 
L 213.338352 334.632753 
L 213.932813 361.498534 
L 214.527273 255.555714 
L 215.121733 412.69055 
L 215.716193 411.097791 
L 216.310653 384.132571 
L 216.905114 371.754323 
L 217.499574 434.585514 
L 218.094034 386.81949 
L 218.688494 436.642508 
L 219.282955 388.410879 
L 219.877415 278.120902 
L 220.471875 417.735683 
L 221.066335 272.574804 
L 221.660795 187.057805 
L 222.849716 311.145574 
L 223.444176 442.625928 
L 224.038636 376.243932 
L 224.633097 417.642216 
L 225.227557 402.385009 
L 225.822017 355.726799 
L 226.416477 369.14114 
L 227.010938 373.856276 
L 227.605398 266.210259 
L 228.199858 309.648907 
L 228.794318 327.941717 
L 229.388778 380.598718 
L 229.983239 271.735348 
L 230.577699 325.276916 
L 231.172159 321.048235 
L 231.766619 395.138423 
L 232.36108 369.880895 
L 232.95554 369.8569 
L 233.55 437.468486 
L 234.14446 345.426149 
L 234.73892 424.492589 
L 235.333381 387.477736 
L 235.927841 436.725381 
L 236.522301 220.171502 
L 237.116761 175.499152 
L 237.711222 273.6935 
L 238.305682 345.66028 
L 238.900142 329.108378 
L 239.494602 380.337519 
L 240.089063 360.104777 
L 240.683523 386.479643 
L 241.277983 388.454312 
L 241.872443 360.365269 
L 242.466903 349.721365 
L 243.061364 357.699021 
L 243.655824 433.035624 
L 244.250284 228.828187 
L 244.844744 447.037729 
L 245.439205 244.50733 
L 246.033665 307.784274 
L 246.628125 259.786721 
L 247.222585 354.259598 
L 247.817045 333.227118 
L 248.411506 340.332492 
L 249.600426 430.005874 
L 250.194886 364.941607 
L 250.789347 410.103413 
L 251.383807 400.799771 
L 251.978267 420.397183 
L 253.167188 472.9362 
L 253.761648 346.937675 
L 254.356108 373.371375 
L 254.950568 319.115449 
L 255.545028 348.306561 
L 256.139489 353.181554 
L 256.733949 371.020616 
L 257.328409 367.008869 
L 257.922869 259.994891 
L 258.51733 198.414913 
L 259.11179 283.101408 
L 259.70625 243.03104 
L 260.30071 343.610361 
L 260.89517 231.737629 
L 261.489631 436.750025 
L 262.084091 335.500854 
L 262.678551 340.627155 
L 263.867472 190.452783 
L 264.461932 424.07192 
L 265.056392 420.139752 
L 265.650852 376.607762 
L 266.245313 388.05159 
L 266.839773 468.758794 
L 268.028693 336.587928 
L 268.623153 374.717576 
L 269.217614 393.478328 
L 269.812074 203.703977 
L 270.406534 254.265119 
L 271.000994 272.696768 
L 271.595455 356.306929 
L 272.189915 397.911194 
L 272.784375 402.369778 
L 273.378835 455.316892 
L 273.973295 412.258542 
L 274.567756 402.052075 
L 275.162216 351.748685 
L 275.756676 433.969624 
L 276.351136 373.339561 
L 276.945597 350.167723 
L 277.540057 446.852014 
L 278.134517 323.894273 
L 278.728977 307.543363 
L 279.323438 149.935993 
L 279.917898 342.257272 
L 280.512358 335.221225 
L 281.106818 446.895683 
L 281.701278 405.833493 
L 282.295739 330.337416 
L 282.890199 451.95753 
L 283.484659 430.573509 
L 284.079119 435.999786 
L 284.67358 364.186534 
L 285.26804 213.899009 
L 285.8625 326.6382 
L 286.45696 412.514508 
L 287.645881 317.299624 
L 288.240341 425.358992 
L 288.834801 315.424596 
L 289.429261 263.516634 
L 290.023722 293.205737 
L 290.618182 378.73623 
L 291.212642 256.577322 
L 291.807102 248.854539 
L 292.401563 441.674235 
L 292.996023 405.590772 
L 293.590483 408.929218 
L 294.184943 440.816895 
L 294.779403 428.734331 
L 295.373864 461.353321 
L 295.968324 358.725029 
L 296.562784 330.211709 
L 297.157244 394.147582 
L 297.751705 396.635538 
L 298.346165 432.735323 
L 298.940625 406.145386 
L 299.535085 275.314873 
L 300.129545 393.51354 
L 300.724006 233.808053 
L 301.318466 237.152942 
L 301.912926 375.269228 
L 302.507386 400.815222 
L 303.101847 310.945061 
L 303.696307 385.365883 
L 304.885227 288.88733 
L 306.074148 390.285675 
L 306.668608 242.576092 
L 307.263068 346.040042 
L 307.857528 426.737873 
L 308.451989 322.273305 
L 309.046449 426.566861 
L 309.640909 378.1201 
L 310.235369 420.510969 
L 310.82983 331.117169 
L 311.42429 272.468994 
L 312.01875 407.053782 
L 312.61321 400.920459 
L 313.20767 143.807561 
L 314.396591 451.529859 
L 314.991051 222.767418 
L 315.585511 300.200315 
L 316.179972 437.861169 
L 316.774432 307.426463 
L 317.368892 455.33927 
L 317.963352 396.112371 
L 318.557813 237.244992 
L 319.152273 259.139495 
L 319.746733 257.669481 
L 320.341193 300.999493 
L 320.935653 357.174974 
L 321.530114 448.752626 
L 322.124574 312.374148 
L 322.719034 338.381149 
L 323.313494 440.812803 
L 323.907955 425.082234 
L 324.502415 387.840927 
L 325.096875 385.233881 
L 325.691335 329.825726 
L 326.285795 439.582769 
L 326.880256 390.791131 
L 327.474716 310.570313 
L 328.069176 368.925317 
L 328.663636 251.518194 
L 329.258097 431.432319 
L 329.852557 325.037388 
L 330.447017 296.480623 
L 331.041477 333.576119 
L 331.635938 333.841742 
L 332.230398 113.235357 
L 332.824858 257.984699 
L 333.419318 300.491713 
L 334.013778 263.544572 
L 334.608239 292.603065 
L 335.797159 438.37043 
L 336.98608 307.157473 
L 337.58054 340.842998 
L 338.175 345.84203 
L 338.76946 370.563709 
L 339.36392 368.976578 
L 339.958381 281.722022 
L 340.552841 395.740967 
L 341.147301 384.723852 
L 341.741761 368.437787 
L 342.336222 342.307386 
L 342.930682 360.68792 
L 343.525142 316.682003 
L 344.119602 130.27136 
L 344.714063 99.569616 
L 345.308523 318.038774 
L 345.902983 452.338148 
L 346.497443 238.347994 
L 347.091903 409.20614 
L 347.686364 408.555655 
L 348.280824 458.67138 
L 348.875284 429.105917 
L 349.469744 419.436346 
L 350.064205 388.452659 
L 351.253125 270.198764 
L 351.847585 287.20008 
L 353.036506 385.106265 
L 353.630966 299.676277 
L 354.225426 412.759178 
L 354.819886 390.068511 
L 355.414347 237.117931 
L 356.008807 307.878488 
L 356.603267 254.309612 
L 357.197727 429.779869 
L 357.792188 465.782873 
L 358.386648 394.085416 
L 358.981108 284.89226 
L 359.575568 286.239284 
L 360.170028 285.289051 
L 360.764489 345.704299 
L 361.358949 389.6013 
L 361.953409 353.363688 
L 362.547869 351.598451 
L 363.14233 268.059149 
L 363.73679 151.836888 
L 364.33125 264.2241 
L 364.92571 308.585021 
L 365.52017 425.057528 
L 366.114631 310.59201 
L 366.709091 391.907955 
L 367.303551 450.748374 
L 367.898011 330.440683 
L 368.492472 322.459891 
L 369.086932 302.41095 
L 369.681392 302.115881 
L 370.275852 275.938943 
L 370.870313 271.052644 
L 371.464773 338.514439 
L 372.059233 427.806937 
L 372.653693 400.244598 
L 373.248153 399.509634 
L 373.842614 432.695987 
L 374.437074 310.033179 
L 375.031534 337.469745 
L 375.625994 208.718301 
L 376.220455 394.933591 
L 376.814915 438.57339 
L 377.409375 405.107952 
L 378.003835 339.946716 
L 378.598295 376.426089 
L 379.192756 274.892063 
L 379.787216 393.627113 
L 380.381676 404.984279 
L 380.976136 339.317469 
L 382.759517 248.024601 
L 383.353977 188.119278 
L 383.948438 334.875329 
L 384.542898 410.023785 
L 385.137358 348.745231 
L 385.731818 429.201051 
L 386.326278 418.922495 
L 386.920739 200.956608 
L 387.515199 336.285612 
L 388.109659 267.74009 
L 388.704119 389.832118 
L 389.29858 426.430884 
L 389.89304 356.619947 
L 390.4875 397.277192 
L 391.08196 370.217204 
L 391.67642 451.968032 
L 392.270881 367.475157 
L 392.865341 369.115899 
L 393.459801 437.564432 
L 394.054261 383.260864 
L 394.648722 378.088856 
L 395.243182 208.669758 
L 395.837642 297.214644 
L 396.432102 405.840468 
L 397.026563 397.263654 
L 397.621023 329.257033 
L 398.215483 413.890479 
L 398.809943 371.74115 
L 399.404403 392.429495 
L 399.998864 360.120685 
L 400.593324 227.469702 
L 401.187784 245.533684 
L 401.782244 343.901184 
L 402.376705 216.887911 
L 402.971165 343.546639 
L 403.565625 366.894559 
L 404.160085 436.414978 
L 404.754545 464.859025 
L 405.349006 327.387764 
L 405.943466 256.556072 
L 406.537926 345.136999 
L 407.132386 340.566415 
L 407.726847 444.265742 
L 408.321307 335.600429 
L 408.915767 350.647964 
L 409.510227 338.12119 
L 410.104688 386.389039 
L 410.699148 259.587216 
L 411.293608 358.890244 
L 411.888068 374.211693 
L 412.482528 253.66178 
L 413.076989 306.962266 
L 413.671449 333.193104 
L 414.265909 328.511339 
L 414.860369 230.947593 
L 415.45483 362.839851 
L 416.04929 388.867244 
L 416.64375 451.809685 
L 417.23821 434.793279 
L 417.83267 406.311743 
L 418.427131 476.557848 
L 419.021591 450.118139 
L 419.616051 385.650763 
L 420.210511 391.70994 
L 420.804972 364.111835 
L 421.399432 246.906582 
L 421.993892 367.090806 
L 422.588352 449.134924 
L 423.182813 419.775895 
L 423.777273 382.186599 
L 424.371733 352.777552 
L 424.966193 413.028963 
L 425.560653 453.832742 
L 426.155114 477.766259 
L 426.749574 316.773296 
L 427.344034 298.474807 
L 427.938494 287.622348 
L 428.532955 366.215233 
L 429.127415 329.933846 
L 429.721875 321.444086 
L 430.316335 296.940271 
L 430.910795 446.528127 
L 431.505256 309.25547 
L 432.099716 246.195017 
L 432.694176 258.223689 
L 433.288636 334.249494 
L 433.883097 329.079214 
L 434.477557 437.084651 
L 435.072017 446.43379 
L 435.666477 330.015063 
L 436.260938 360.666765 
L 436.855398 430.042943 
L 437.449858 393.307738 
L 438.044318 434.873717 
L 438.638778 437.377669 
L 439.233239 430.866728 
L 439.827699 348.366312 
L 440.422159 354.072608 
L 441.016619 425.206124 
L 442.8 375.769919 
L 442.8 375.769919 
" clip-path="url(#p50b79f057c)" style="fill: none; stroke: #1f77b4; stroke-width: 0.7; stroke-linecap: round"/>
   </g>
   <g id="line2d_17">
    <path d="M 138.436364 484.232727 
L 139.030824 335.302694 
L 139.625284 335.071801 
L 140.219744 311.775378 
L 140.814205 260.346217 
L 141.408665 465.877958 
L 142.003125 450.080067 
L 142.597585 244.113529 
L 143.192045 300.978994 
L 143.786506 422.279418 
L 144.380966 478.184308 
L 144.975426 400.63608 
L 145.569886 342.109043 
L 146.164347 378.424729 
L 146.758807 442.51945 
L 147.353267 416.326049 
L 147.947727 294.451058 
L 148.542188 256.560135 
L 149.136648 378.850876 
L 149.731108 387.24477 
L 150.325568 343.430949 
L 150.920028 326.885825 
L 151.514489 248.895139 
L 152.108949 364.834881 
L 152.703409 397.857121 
L 153.297869 367.453653 
L 153.89233 410.635076 
L 154.48679 378.163226 
L 155.08125 332.747041 
L 155.67571 447.471242 
L 156.27017 430.567277 
L 156.864631 373.711698 
L 157.459091 388.395652 
L 158.053551 439.184654 
L 159.836932 275.652371 
L 160.431392 342.606632 
L 161.025852 392.59695 
L 161.620313 353.602846 
L 162.214773 247.093113 
L 162.809233 237.193571 
L 163.403693 344.057379 
L 163.998153 323.820814 
L 164.592614 363.242576 
L 165.187074 322.647256 
L 165.781534 319.088417 
L 166.375994 428.225551 
L 166.970455 430.925364 
L 167.564915 360.113173 
L 168.159375 383.34335 
L 168.753835 314.875525 
L 169.348295 428.738189 
L 169.942756 384.400239 
L 170.537216 409.545487 
L 171.131676 294.84961 
L 171.726136 408.660541 
L 172.320597 394.108267 
L 172.915057 314.911805 
L 173.509517 278.382561 
L 174.103977 272.22498 
L 174.698438 404.055744 
L 175.292898 449.667523 
L 175.887358 415.666317 
L 176.481818 326.728392 
L 177.076278 259.959824 
L 177.670739 310.57553 
L 178.265199 320.093154 
L 178.859659 422.302239 
L 179.454119 341.805939 
L 180.04858 342.751497 
L 180.64304 403.203789 
L 181.2375 384.270117 
L 181.83196 271.416128 
L 182.42642 282.077309 
L 183.020881 297.940173 
L 183.615341 375.76396 
L 184.209801 395.103614 
L 184.804261 408.658605 
L 185.398722 326.10569 
L 185.993182 398.2496 
L 186.587642 409.814253 
L 187.182102 407.901977 
L 187.776563 308.765598 
L 188.371023 184.565014 
L 188.965483 260.097508 
L 189.559943 286.563391 
L 190.154403 357.3762 
L 190.748864 388.512383 
L 191.343324 386.958957 
L 191.937784 430.119983 
L 192.532244 364.236329 
L 193.126705 378.192668 
L 193.721165 456.798515 
L 194.315625 352.932503 
L 194.910085 457.553461 
L 195.504545 421.764848 
L 196.099006 405.787471 
L 196.693466 353.60566 
L 197.287926 345.156525 
L 197.882386 324.926103 
L 198.476847 464.154617 
L 199.071307 256.901209 
L 199.665767 332.996491 
L 200.260227 379.012522 
L 200.854688 361.248211 
L 201.449148 370.412063 
L 202.043608 350.88346 
L 202.638068 266.197589 
L 203.232528 382.577634 
L 203.826989 392.031695 
L 204.421449 422.310191 
L 205.015909 425.662916 
L 205.610369 383.404965 
L 206.20483 412.726852 
L 207.39375 240.125579 
L 207.98821 279.139484 
L 208.58267 259.736355 
L 209.177131 406.820317 
L 209.771591 311.980746 
L 210.366051 328.303851 
L 210.960511 276.662361 
L 211.554972 332.830658 
L 212.149432 319.199161 
L 212.743892 378.718136 
L 213.338352 334.632753 
L 213.932813 361.498534 
L 214.527273 255.555714 
L 215.121733 412.69055 
L 215.716193 411.097791 
L 216.310653 384.132571 
L 216.905114 371.754323 
L 217.499574 434.585514 
L 218.094034 386.81949 
L 218.688494 436.642508 
L 219.282955 388.410879 
L 219.877415 278.120902 
L 220.471875 417.735683 
L 221.066335 272.574804 
L 221.660795 187.057805 
L 222.849716 311.145574 
L 223.444176 442.625928 
L 224.038636 376.243932 
L 224.633097 417.642216 
L 225.227557 402.385009 
L 225.822017 355.726799 
L 226.416477 369.14114 
L 227.010938 373.856276 
L 227.605398 266.210259 
L 228.199858 309.648907 
L 228.794318 327.941717 
L 229.388778 380.598718 
L 229.983239 271.735348 
L 230.577699 325.276916 
L 231.172159 321.048235 
L 231.766619 395.138423 
L 232.36108 369.880895 
L 232.95554 369.8569 
L 233.55 437.468486 
L 234.14446 345.426149 
L 234.73892 424.492589 
L 235.333381 387.477736 
L 235.927841 436.725381 
L 236.522301 220.171502 
L 237.116761 175.499152 
L 237.711222 273.6935 
L 238.305682 345.66028 
L 238.900142 329.108378 
L 239.494602 380.337519 
L 240.089063 360.104777 
L 240.683523 386.479643 
L 241.277983 388.454312 
L 241.872443 360.365269 
L 242.466903 349.721365 
L 243.061364 357.699021 
L 243.655824 433.035624 
L 244.250284 228.828187 
L 244.844744 447.037729 
L 245.439205 244.50733 
L 246.033665 307.784274 
L 246.628125 259.786721 
L 247.222585 354.259598 
L 247.817045 333.227118 
L 248.411506 340.332492 
L 249.600426 430.005874 
L 250.194886 364.941607 
L 250.789347 410.103413 
L 251.383807 400.799771 
L 251.978267 420.397183 
L 253.167188 472.9362 
L 253.761648 346.937675 
L 254.356108 373.371375 
L 254.950568 319.115449 
L 255.545028 348.306561 
L 256.139489 353.181554 
L 256.733949 371.020616 
L 257.328409 367.008869 
L 257.922869 259.994891 
L 258.51733 198.414913 
L 259.11179 283.101408 
L 259.70625 243.03104 
L 260.30071 343.610361 
L 260.89517 231.737629 
L 261.489631 436.750025 
L 262.084091 335.500854 
L 262.678551 340.627155 
L 263.867472 190.452783 
L 264.461932 424.07192 
L 265.056392 420.139752 
L 265.650852 376.607762 
L 266.245313 388.05159 
L 266.839773 468.758794 
L 268.028693 336.587928 
L 268.623153 374.717576 
L 269.217614 393.478328 
L 269.812074 203.703977 
L 270.406534 254.265119 
L 271.000994 272.696768 
L 271.595455 356.306929 
L 272.189915 397.911194 
L 272.784375 402.369778 
L 273.378835 455.316892 
L 273.973295 412.258542 
L 274.567756 402.052075 
L 275.162216 351.748685 
L 275.756676 433.969624 
L 276.351136 373.339561 
L 276.945597 350.167723 
L 277.540057 446.852014 
L 278.134517 323.894273 
L 278.728977 307.543363 
L 279.323438 149.935993 
L 279.917898 342.257272 
L 280.512358 335.221225 
L 281.106818 446.895683 
L 281.701278 405.833493 
L 282.295739 330.337416 
L 282.890199 451.95753 
L 283.484659 430.573509 
L 284.079119 435.999786 
L 284.67358 364.186534 
L 285.26804 213.899009 
L 285.8625 326.6382 
L 286.45696 412.514508 
L 287.645881 317.299624 
L 288.240341 425.358992 
L 288.834801 315.424596 
L 289.429261 263.516634 
L 290.023722 293.205737 
L 290.618182 378.73623 
L 291.212642 256.577322 
L 291.807102 248.854539 
L 292.401563 441.674235 
L 292.996023 405.590772 
L 293.590483 408.929218 
L 294.184943 440.816895 
L 294.779403 428.734331 
L 295.373864 461.353321 
L 295.968324 358.725029 
L 296.562784 330.211709 
L 297.157244 394.147582 
L 297.751705 396.635538 
L 298.346165 432.735323 
L 298.940625 406.145386 
L 299.535085 275.314873 
L 300.129545 393.51354 
L 300.724006 233.808053 
L 301.318466 237.152942 
L 301.912926 375.269228 
L 302.507386 400.815222 
L 303.101847 310.945061 
L 303.696307 385.365883 
L 304.885227 288.88733 
L 306.074148 390.285675 
L 306.668608 242.576092 
L 307.263068 346.040042 
L 307.857528 426.737873 
L 308.451989 322.273305 
L 309.046449 426.566861 
L 309.640909 378.1201 
L 310.235369 420.510969 
L 310.82983 331.117169 
L 311.42429 272.468994 
L 312.01875 407.053782 
L 312.61321 400.920459 
L 313.20767 143.807561 
L 314.396591 451.529859 
L 314.991051 222.767418 
L 315.585511 300.200315 
L 316.179972 437.861169 
L 316.774432 307.426463 
L 317.368892 455.33927 
L 317.963352 396.112371 
L 318.557813 237.244992 
L 319.152273 259.139495 
L 319.746733 257.669481 
L 320.341193 300.999493 
L 320.935653 357.174974 
L 321.530114 448.752626 
L 322.124574 312.374148 
L 322.719034 338.381149 
L 323.313494 440.812803 
L 323.907955 425.082234 
L 324.502415 387.840927 
L 325.096875 385.233881 
L 325.691335 329.825726 
L 326.285795 439.582769 
L 326.880256 390.791131 
L 327.474716 310.570313 
L 328.069176 368.925317 
L 328.663636 251.518194 
L 329.258097 431.432319 
L 329.852557 325.037388 
L 330.447017 296.480623 
L 331.041477 333.576119 
L 331.635938 333.841742 
L 332.230398 113.235357 
L 332.824858 257.984699 
L 333.419318 300.491713 
L 334.013778 263.544572 
L 334.608239 292.603065 
L 335.797159 438.37043 
L 336.98608 307.157473 
L 337.58054 340.842998 
L 338.175 345.84203 
L 338.76946 370.563709 
L 339.36392 368.976578 
L 339.958381 281.722022 
L 340.552841 395.740967 
L 341.147301 384.723852 
L 341.741761 368.437787 
L 342.336222 342.307386 
L 342.930682 360.68792 
L 343.525142 316.682003 
L 344.119602 130.27136 
L 344.714063 99.569616 
L 345.308523 318.038774 
L 345.902983 452.338148 
L 346.497443 238.347994 
L 347.091903 409.20614 
L 347.686364 408.555655 
L 348.280824 458.67138 
L 348.875284 429.105917 
L 349.469744 419.436346 
L 350.064205 388.452659 
L 351.253125 270.198764 
L 351.847585 287.20008 
L 353.036506 385.106265 
L 353.630966 299.676277 
L 354.225426 412.759178 
L 354.819886 390.068511 
L 355.414347 237.117931 
L 356.008807 307.878488 
L 356.603267 254.309612 
L 357.197727 429.779869 
L 357.792188 465.782873 
L 358.386648 394.085416 
L 358.981108 284.89226 
L 359.575568 286.239284 
L 360.170028 285.289051 
L 360.764489 345.704299 
L 361.358949 389.6013 
L 361.953409 353.363688 
L 362.547869 351.598451 
L 363.14233 268.059149 
L 363.73679 151.836888 
L 364.33125 264.2241 
L 364.92571 308.585021 
L 365.52017 425.057528 
L 366.114631 310.59201 
L 366.709091 391.907955 
L 367.303551 450.748374 
L 367.898011 330.440683 
L 368.492472 322.459891 
L 369.086932 302.41095 
L 369.681392 302.115881 
L 370.275852 275.938943 
L 370.870313 271.052644 
L 371.464773 338.514439 
L 372.059233 427.806937 
L 372.653693 400.244598 
L 373.248153 399.509634 
L 373.842614 432.695987 
L 374.437074 310.033179 
L 375.031534 337.469745 
L 375.625994 208.718301 
L 376.220455 394.933591 
L 376.814915 438.57339 
L 377.409375 405.107952 
L 378.003835 339.946716 
L 378.598295 376.426089 
L 379.192756 274.892063 
L 379.787216 393.627113 
L 380.381676 404.984279 
L 380.976136 339.317469 
L 382.759517 248.024601 
L 383.353977 188.119278 
L 383.948438 334.875329 
L 384.542898 410.023785 
L 385.137358 348.745231 
L 385.731818 429.201051 
L 386.326278 418.922495 
L 386.920739 200.956608 
L 387.515199 336.285612 
L 388.109659 267.74009 
L 388.704119 389.832118 
L 389.29858 426.430884 
L 389.89304 356.619947 
L 390.4875 397.277192 
L 391.08196 370.217204 
L 391.67642 451.968032 
L 392.270881 367.475157 
L 392.865341 369.115899 
L 393.459801 437.564432 
L 394.054261 383.260864 
L 394.648722 378.088856 
L 395.243182 208.669758 
L 395.837642 297.214644 
L 396.432102 405.840468 
L 397.026563 397.263654 
L 397.621023 329.257033 
L 398.215483 413.890479 
L 398.809943 371.74115 
L 399.404403 392.429495 
L 399.998864 360.120685 
L 400.593324 227.469702 
L 401.187784 245.533684 
L 401.782244 343.901184 
L 402.376705 216.887911 
L 402.971165 343.546639 
L 403.565625 366.894559 
L 404.160085 436.414978 
L 404.754545 464.859025 
L 405.349006 327.387764 
L 405.943466 256.556072 
L 406.537926 345.136999 
L 407.132386 340.566415 
L 407.726847 444.265742 
L 408.321307 335.600429 
L 408.915767 350.647964 
L 409.510227 338.12119 
L 410.104688 386.389039 
L 410.699148 259.587216 
L 411.293608 358.890244 
L 411.888068 374.211693 
L 412.482528 253.66178 
L 413.076989 306.962266 
L 413.671449 333.193104 
L 414.265909 328.511339 
L 414.860369 230.947593 
L 415.45483 362.839851 
L 416.04929 388.867244 
L 416.64375 451.809685 
L 417.23821 434.793279 
L 417.83267 406.311743 
L 418.427131 476.557848 
L 419.021591 450.118139 
L 419.616051 385.650763 
L 420.210511 391.70994 
L 420.804972 364.111835 
L 421.399432 246.906582 
L 421.993892 367.090806 
L 422.588352 449.134924 
L 423.182813 419.775895 
L 423.777273 382.186599 
L 424.371733 352.777552 
L 424.966193 413.028963 
L 425.560653 453.832742 
L 426.155114 477.766259 
L 426.749574 316.773296 
L 427.344034 298.474807 
L 427.938494 287.622348 
L 428.532955 366.215233 
L 429.127415 329.933846 
L 429.721875 321.444086 
L 430.316335 296.940271 
L 430.910795 446.528127 
L 431.505256 309.25547 
L 432.099716 246.195017 
L 432.694176 258.223689 
L 433.288636 334.249494 
L 433.883097 329.079214 
L 434.477557 437.084651 
L 435.072017 446.43379 
L 435.666477 330.015063 
L 436.260938 360.666765 
L 436.855398 430.042943 
L 437.449858 393.307738 
L 438.044318 434.873717 
L 438.638778 437.377669 
L 439.233239 430.866728 
L 439.827699 348.366312 
L 440.422159 354.072608 
L 441.016619 425.206124 
L 442.8 375.769919 
L 443.39446 440.931617 
L 443.98892 358.959791 
L 444.583381 470.06567 
L 445.177841 345.712933 
L 445.772301 407.354468 
L 446.366761 307.027943 
L 446.961222 287.577441 
L 447.555682 350.395989 
L 448.150142 381.273709 
L 448.744602 267.883854 
L 449.339063 280.853304 
L 449.933523 404.805309 
L 450.527983 323.992563 
L 451.122443 324.891879 
L 451.716903 298.223132 
L 452.311364 208.632673 
L 452.905824 385.776935 
L 453.500284 360.43629 
L 454.094744 324.517108 
L 454.689205 341.267244 
L 455.283665 364.584693 
L 455.878125 360.152614 
L 457.067045 409.669916 
L 457.661506 443.154972 
L 458.255966 305.226433 
L 458.850426 327.468115 
L 459.444886 382.69603 
L 460.039347 422.402883 
L 460.633807 239.109284 
L 461.228267 241.689042 
L 461.822727 346.594079 
L 462.417188 412.824722 
L 463.011648 368.584089 
L 463.606108 357.091067 
L 464.200568 387.784624 
L 464.795028 345.102688 
L 465.389489 364.670014 
L 465.983949 313.820878 
L 466.578409 297.468859 
L 467.172869 299.331294 
L 467.76733 379.750857 
L 468.36179 401.371846 
L 468.95625 418.083009 
L 469.55071 255.580181 
L 470.14517 401.55507 
L 470.739631 327.587138 
L 471.334091 343.098223 
L 473.117472 451.825593 
L 474.306392 349.746133 
L 474.900852 465.426949 
L 475.495313 429.606358 
L 476.089773 429.480604 
L 476.684233 356.078697 
L 477.278693 366.968336 
L 477.873153 335.207728 
L 478.467614 288.513903 
L 479.062074 347.32063 
L 479.656534 388.656565 
L 480.250994 246.873543 
L 480.845455 320.601322 
L 481.439915 304.51289 
L 482.034375 354.889287 
L 482.628835 322.641955 
L 483.223295 438.549887 
L 483.817756 278.175412 
L 484.412216 243.615344 
L 485.006676 442.183026 
L 485.601136 373.312839 
L 486.195597 466.692911 
L 486.790057 413.697421 
L 487.384517 370.905802 
L 487.978977 440.917427 
L 488.573438 403.892465 
L 489.167898 399.466389 
L 489.762358 364.193442 
L 490.356818 384.67749 
L 490.951278 409.821072 
L 491.545739 299.587527 
L 492.140199 361.744931 
L 492.734659 401.287651 
L 493.329119 389.430171 
L 493.92358 364.372924 
L 494.51804 393.335067 
L 495.1125 304.601795 
L 495.70696 294.26075 
L 496.30142 314.762979 
L 496.895881 346.5463 
L 497.490341 277.640837 
L 498.084801 444.802832 
L 498.679261 325.622646 
L 499.273722 424.965252 
L 499.868182 239.383838 
L 500.462642 247.84206 
L 501.057102 251.672664 
L 501.651563 398.432566 
L 502.246023 338.243425 
L 502.840483 163.158962 
L 503.434943 421.254666 
L 504.029403 415.972694 
L 504.623864 429.965435 
L 505.218324 303.26341 
L 505.812784 460.101075 
L 506.407244 352.76517 
L 507.001705 300.177851 
L 507.596165 294.324424 
L 508.190625 367.25724 
L 509.379545 152.159199 
L 509.974006 305.020179 
L 510.568466 374.398903 
L 511.162926 224.293183 
L 511.757386 244.906792 
L 512.351847 362.419575 
L 512.946307 402.327161 
L 513.540767 405.401119 
L 514.135227 399.338434 
L 514.729687 319.982752 
L 515.324148 417.102044 
L 515.918608 438.305833 
L 516.513068 268.20563 
L 517.107528 345.723984 
L 517.701989 459.823031 
L 518.296449 268.857903 
L 518.890909 326.252299 
L 519.485369 326.691247 
L 520.07983 388.640525 
L 520.67429 379.979693 
L 521.26875 328.943195 
L 521.86321 461.168889 
L 522.45767 322.575905 
L 523.052131 382.725718 
L 523.646591 341.901914 
L 524.241051 426.152317 
L 524.835511 294.971795 
L 525.429972 376.478666 
L 526.024432 415.63821 
L 526.618892 296.154636 
L 527.213352 357.674034 
L 527.807812 365.759293 
L 528.402273 333.198944 
L 528.996733 318.857232 
L 529.591193 408.923128 
L 530.185653 288.811068 
L 530.780114 342.395365 
L 531.374574 222.129898 
L 532.563494 378.02972 
L 533.157955 326.489444 
L 533.752415 420.603309 
L 534.346875 423.844443 
L 534.941335 258.832278 
L 535.535795 361.365624 
L 536.130256 348.139801 
L 536.724716 372.001049 
L 537.319176 434.939866 
L 537.913636 251.068283 
L 539.102557 419.580378 
L 539.697017 441.665278 
L 540.291477 301.335223 
L 540.885937 382.197985 
L 541.480398 437.364026 
L 542.074858 347.942214 
L 542.669318 285.544294 
L 543.263778 283.446364 
L 544.452699 404.504175 
L 545.047159 420.928603 
L 545.641619 356.78997 
L 546.23608 449.061442 
L 546.83054 321.553545 
L 547.425 373.082596 
L 548.01946 370.126334 
L 548.61392 401.333436 
L 549.208381 439.881126 
L 549.802841 288.358387 
L 550.397301 248.667946 
L 550.991761 364.058005 
L 551.586222 382.352756 
L 552.180682 307.974907 
L 552.775142 372.240975 
L 553.369602 331.954135 
L 553.964062 370.400381 
L 554.558523 425.72566 
L 555.152983 427.558515 
L 555.747443 392.154793 
L 556.341903 407.837478 
L 556.936364 295.248502 
L 557.530824 230.920462 
L 558.125284 206.257042 
L 558.719744 323.056182 
L 559.314205 393.1428 
L 559.908665 389.590548 
L 560.503125 408.191534 
L 561.097585 321.632941 
L 561.692045 255.430428 
L 562.286506 214.178759 
L 562.880966 294.640016 
L 563.475426 422.702491 
L 564.069886 405.388182 
L 564.664347 329.132268 
L 565.258807 454.093288 
L 565.853267 363.419837 
L 566.447727 228.946826 
L 567.042188 385.445559 
L 567.636648 241.589096 
L 568.231108 476.278724 
L 568.825568 335.235016 
L 569.420028 266.292207 
L 570.014489 310.39675 
L 570.608949 372.460516 
L 571.203409 358.235236 
L 571.797869 435.324821 
L 572.39233 418.44798 
L 572.98679 305.978871 
L 573.58125 145.446013 
L 574.17571 190.120273 
L 574.77017 248.526286 
L 575.364631 247.80339 
L 575.959091 403.054049 
L 576.553551 354.806801 
L 577.148011 265.899766 
L 577.742472 229.096764 
L 578.336932 286.194064 
L 578.931392 389.722352 
L 579.525852 409.781798 
L 580.120313 421.153102 
L 580.714773 417.839638 
L 581.309233 320.063 
L 581.903693 362.91555 
L 582.498153 345.782346 
L 583.092614 250.806461 
L 583.687074 361.818247 
L 584.281534 377.547789 
L 584.875994 331.762438 
L 585.470455 401.92682 
L 586.064915 424.071928 
L 586.659375 379.637564 
L 587.253835 320.770361 
L 587.848295 276.393415 
L 588.442756 348.046042 
L 589.037216 258.377769 
L 589.631676 216.404981 
L 590.226136 368.118211 
L 590.820597 329.078476 
L 591.415057 391.481986 
L 592.009517 317.30019 
L 592.603977 259.93138 
L 593.198438 259.546423 
L 594.387358 435.798341 
L 594.981818 395.400299 
L 595.576278 453.798734 
L 596.170739 349.377965 
L 596.765199 408.568541 
L 597.359659 356.332968 
L 597.954119 380.05971 
L 599.14304 267.876796 
L 599.7375 146.610516 
L 600.33196 283.19541 
L 600.92642 361.05867 
L 601.520881 373.766182 
L 602.115341 410.309782 
L 602.709801 359.547179 
L 603.304261 186.142336 
L 603.898722 243.420257 
L 604.493182 184.997172 
L 605.087642 274.610846 
L 605.682102 442.979453 
L 606.276563 343.829741 
L 606.871023 392.08539 
L 607.465483 416.395966 
L 608.654403 200.502052 
L 609.248864 262.344176 
L 609.843324 344.833077 
L 610.437784 407.236079 
L 611.032244 376.264654 
L 611.626705 326.716927 
L 612.221165 345.128451 
L 612.815625 394.687728 
L 613.410085 246.654349 
L 614.004545 446.140915 
L 614.599006 350.848876 
L 615.193466 158.657637 
L 615.787926 126.140533 
L 616.382386 288.775516 
L 616.976847 363.159727 
L 617.571307 385.292382 
L 618.165767 441.588613 
L 618.760227 417.863724 
L 619.354688 381.721397 
L 619.949148 357.87009 
L 620.543608 303.700966 
L 621.138068 338.411071 
L 621.732528 362.139256 
L 622.326989 326.898889 
L 622.921449 425.181092 
L 623.515909 394.534601 
L 624.110369 408.100264 
L 624.70483 408.084211 
L 625.29929 394.549181 
L 625.89375 330.842086 
L 626.48821 426.51798 
L 627.08267 283.475907 
L 627.677131 338.271838 
L 628.271591 294.349306 
L 629.460511 385.386007 
L 630.054972 401.559997 
L 630.649432 294.300418 
L 631.243892 226.468465 
L 631.838352 436.533865 
L 632.432813 400.212248 
L 633.027273 435.517988 
L 633.621733 420.835552 
L 634.216193 351.834914 
L 634.810653 232.756935 
L 635.405114 308.295744 
L 635.999574 293.16538 
L 636.594034 367.034012 
L 637.188494 309.654137 
L 637.782955 344.563536 
L 638.377415 400.438385 
L 638.971875 417.575324 
L 639.566335 286.58402 
L 640.160795 231.033685 
L 640.755256 328.850568 
L 641.349716 447.587986 
L 641.944176 340.023465 
L 642.538636 407.632452 
L 643.133097 404.392228 
L 643.727557 340.603307 
L 644.322017 374.695537 
L 644.916477 385.904425 
L 645.510938 352.667387 
L 646.105398 348.555379 
L 646.699858 264.468608 
L 647.294318 345.138225 
L 647.888778 407.983905 
L 648.483239 386.315876 
L 649.077699 422.279894 
L 649.672159 409.019021 
L 650.266619 402.080843 
L 650.86108 456.521008 
L 651.45554 356.291727 
L 652.05 302.25697 
L 652.64446 218.286527 
L 653.833381 383.953768 
L 654.427841 285.581752 
L 655.022301 283.598081 
L 655.616761 356.510074 
L 656.211222 365.049905 
L 656.805682 342.496377 
L 657.400142 230.47929 
L 657.994602 434.630815 
L 658.589062 331.503326 
L 659.183523 391.724976 
L 659.777983 372.144905 
L 660.372443 345.853689 
L 660.966903 457.597445 
L 661.561364 363.302267 
L 662.155824 346.612071 
L 662.750284 276.063245 
L 663.344744 382.397218 
L 663.939205 343.233433 
L 664.533665 394.869854 
L 665.128125 344.847889 
L 665.722585 400.726069 
L 666.911506 287.541599 
L 667.505966 284.62478 
L 668.100426 373.056724 
L 668.694886 289.533666 
L 669.289347 343.672959 
L 669.883807 310.446357 
L 670.478267 438.610402 
L 671.072727 408.77496 
L 671.667187 339.932081 
L 672.261648 472.684592 
L 672.856108 400.97223 
L 673.450568 314.630143 
L 674.045028 306.64994 
L 674.639489 293.972305 
L 675.233949 365.805567 
L 675.828409 294.130381 
L 676.422869 360.050333 
L 677.01733 379.712983 
L 677.61179 459.135493 
L 678.20625 380.832386 
L 678.80071 384.302543 
L 679.39517 445.400291 
L 679.989631 331.500403 
L 680.584091 365.20019 
L 681.178551 373.36482 
L 681.773011 332.610689 
L 682.367472 389.1118 
L 682.961932 367.206261 
L 683.556392 380.244401 
L 684.150852 310.185387 
L 684.745312 471.52899 
L 685.339773 346.852203 
L 685.934233 364.208241 
L 686.528693 331.368395 
L 687.123153 465.282763 
L 687.717614 259.46153 
L 688.312074 154.623062 
L 688.906534 88.887273 
L 689.500994 307.944635 
L 690.095455 399.985941 
L 690.689915 373.216077 
L 691.284375 425.438793 
L 691.878835 333.018065 
L 692.473295 387.197251 
L 693.067756 231.298393 
L 693.662216 337.875824 
L 694.256676 331.826119 
L 694.851136 440.708804 
L 695.445597 381.935502 
L 696.040057 414.225795 
L 696.634517 425.329679 
L 697.228977 309.580481 
L 697.823437 350.248323 
L 698.417898 360.0325 
L 699.012358 403.688582 
L 699.606818 375.738749 
L 700.201278 423.414534 
L 700.795739 225.648085 
L 701.390199 240.595486 
L 702.579119 349.955887 
L 703.17358 370.834932 
L 703.76804 383.362354 
L 704.3625 285.676988 
L 704.95696 336.818973 
L 705.55142 310.082143 
L 706.145881 216.831056 
L 706.740341 378.149937 
L 707.334801 248.313238 
L 707.929261 324.896209 
L 708.523722 327.333326 
L 709.118182 390.39767 
L 709.712642 310.171912 
L 710.307102 311.732746 
L 710.901562 372.910596 
L 711.496023 362.130608 
L 712.090483 369.190944 
L 712.684943 424.94775 
L 713.279403 336.757843 
L 713.873864 303.022278 
L 714.468324 256.431423 
L 715.657244 325.76476 
L 716.251705 354.525351 
L 716.846165 335.156302 
L 717.440625 475.281048 
L 718.035085 348.352504 
L 718.629545 423.485947 
L 719.224006 278.339584 
L 719.818466 246.208306 
L 720.412926 281.681626 
L 721.007386 277.899067 
L 721.601847 421.609334 
L 722.196307 357.504402 
L 722.790767 254.714011 
L 723.385227 354.295124 
L 723.979687 321.163594 
L 724.574148 160.30627 
L 725.763068 275.25903 
L 726.357528 255.882014 
L 726.951989 316.638475 
L 727.546449 261.659484 
L 728.140909 266.368686 
L 728.735369 370.336874 
L 729.32983 332.506138 
L 729.92429 236.830776 
L 730.51875 286.005569 
L 731.11321 313.935512 
L 731.70767 283.195429 
L 732.302131 245.2561 
L 732.896591 214.736406 
L 733.491051 254.032756 
L 734.085511 393.326111 
L 734.679972 352.546373 
L 735.274432 328.206296 
L 735.868892 259.780427 
L 736.463352 306.222278 
L 737.057812 291.800098 
L 737.652273 155.829628 
L 738.246733 242.182665 
L 738.841193 394.647922 
L 739.435653 368.809687 
L 740.030114 302.986518 
L 740.624574 453.940544 
L 741.219034 350.867109 
L 741.813494 357.416843 
L 742.407955 405.473374 
L 743.002415 284.686633 
L 743.596875 314.193626 
L 744.191335 407.944033 
L 744.785795 337.544277 
L 745.380256 358.680277 
L 745.974716 337.233568 
L 746.569176 321.292951 
L 747.163636 273.650067 
L 747.163636 273.650067 
" clip-path="url(#p50b79f057c)" style="fill: none; stroke: #1f77b4; stroke-opacity: 0.5; stroke-width: 0.5; stroke-linecap: round"/>
   </g>
   <g id="line2d_18">
    <defs>
     <path id="mde7787493c" d="M 0 1.25 
C 0.331504 1.25 0.649475 1.118292 0.883883 0.883883 
C 1.118292 0.649475 1.25 0.331504 1.25 0 
C 1.25 -0.331504 1.118292 -0.649475 0.883883 -0.883883 
C 0.649475 -1.118292 0.331504 -1.25 0 -1.25 
C -0.331504 -1.25 -0.649475 -1.118292 -0.883883 -0.883883 
C -1.118292 -0.649475 -1.25 -0.331504 -1.25 0 
C -1.25 0.331504 -1.118292 0.649475 -0.883883 0.883883 
C -0.649475 1.118292 -0.331504 1.25 0 1.25 
z
" style="stroke: #ff6d00; stroke-width: 2"/>
    </defs>
    <g clip-path="url(#p50b79f057c)">
     <use xlink:href="#mde7787493c" x="188.371023" y="184.565014" style="fill: #ff6d00; stroke: #ff6d00; stroke-width: 2"/>
     <use xlink:href="#mde7787493c" x="221.660795" y="187.057805" style="fill: #ff6d00; stroke: #ff6d00; stroke-width: 2"/>
     <use xlink:href="#mde7787493c" x="237.116761" y="175.499152" style="fill: #ff6d00; stroke: #ff6d00; stroke-width: 2"/>
     <use xlink:href="#mde7787493c" x="258.51733" y="198.414913" style="fill: #ff6d00; stroke: #ff6d00; stroke-width: 2"/>
     <use xlink:href="#mde7787493c" x="263.867472" y="190.452783" style="fill: #ff6d00; stroke: #ff6d00; stroke-width: 2"/>
     <use xlink:href="#mde7787493c" x="269.812074" y="203.703977" style="fill: #ff6d00; stroke: #ff6d00; stroke-width: 2"/>
     <use xlink:href="#mde7787493c" x="279.323438" y="149.935993" style="fill: #ff6d00; stroke: #ff6d00; stroke-width: 2"/>
     <use xlink:href="#mde7787493c" x="285.26804" y="213.899009" style="fill: #ff6d00; stroke: #ff6d00; stroke-width: 2"/>
     <use xlink:href="#mde7787493c" x="313.20767" y="143.807561" style="fill: #ff6d00; stroke: #ff6d00; stroke-width: 2"/>
     <use xlink:href="#mde7787493c" x="332.230398" y="113.235357" style="fill: #ff6d00; stroke: #ff6d00; stroke-width: 2"/>
     <use xlink:href="#mde7787493c" x="344.714063" y="99.569616" style="fill: #ff6d00; stroke: #ff6d00; stroke-width: 2"/>
     <use xlink:href="#mde7787493c" x="363.73679" y="151.836888" style="fill: #ff6d00; stroke: #ff6d00; stroke-width: 2"/>
     <use xlink:href="#mde7787493c" x="375.625994" y="208.718301" style="fill: #ff6d00; stroke: #ff6d00; stroke-width: 2"/>
     <use xlink:href="#mde7787493c" x="383.353977" y="188.119278" style="fill: #ff6d00; stroke: #ff6d00; stroke-width: 2"/>
     <use xlink:href="#mde7787493c" x="386.920739" y="200.956608" style="fill: #ff6d00; stroke: #ff6d00; stroke-width: 2"/>
     <use xlink:href="#mde7787493c" x="395.243182" y="208.669758" style="fill: #ff6d00; stroke: #ff6d00; stroke-width: 2"/>
     <use xlink:href="#mde7787493c" x="402.376705" y="216.887911" style="fill: #ff6d00; stroke: #ff6d00; stroke-width: 2"/>
    </g>
   </g>
   <g id="patch_3">
    <path d="M 108 504 
L 108 69.12 
" style="fill: none; stroke: #cccccc; stroke-width: 1.25; stroke-linejoin: miter; stroke-linecap: square"/>
   </g>
   <g id="patch_4">
    <path d="M 777.6 504 
L 777.6 69.12 
" style="fill: none; stroke: #cccccc; stroke-width: 1.25; stroke-linejoin: miter; stroke-linecap: square"/>
   </g>
   <g id="patch_5">
    <path d="M 108 504 
L 777.6 504 
" style="fill: none; stroke: #cccccc; stroke-width: 1.25; stroke-linejoin: miter; stroke-linecap: square"/>
   </g>
   <g id="patch_6">
    <path d="M 108 69.12 
L 777.6 69.12 
" style="fill: none; stroke: #cccccc; stroke-width: 1.25; stroke-linejoin: miter; stroke-linecap: square"/>
   </g>
   <g id="text_18">
    <!-- Frequency Spectrum  -->
    <g style="fill: #262626" transform="translate(366.116016 49.12)scale(0.15 -0.15)">
     <defs>
      <path id="Arial-BoldMT-46" d="M 472 0 
L 472 4581 
L 3613 4581 
L 3613 3806 
L 1397 3806 
L 1397 2722 
L 3309 2722 
L 3309 1947 
L 1397 1947 
L 1397 0 
L 472 0 
z
" transform="scale(0.015625)"/>
      <path id="Arial-BoldMT-72" d="M 1300 0 
L 422 0 
L 422 3319 
L 1238 3319 
L 1238 2847 
Q 1447 3181 1614 3287 
Q 1781 3394 1994 3394 
Q 2294 3394 2572 3228 
L 2300 2463 
Q 2078 2606 1888 2606 
Q 1703 2606 1575 2504 
Q 1447 2403 1373 2137 
Q 1300 1872 1300 1025 
L 1300 0 
z
" transform="scale(0.015625)"/>
      <path id="Arial-BoldMT-65" d="M 2381 1056 
L 3256 909 
Q 3088 428 2723 176 
Q 2359 -75 1813 -75 
Q 947 -75 531 491 
Q 203 944 203 1634 
Q 203 2459 634 2926 
Q 1066 3394 1725 3394 
Q 2466 3394 2894 2905 
Q 3322 2416 3303 1406 
L 1103 1406 
Q 1113 1016 1316 798 
Q 1519 581 1822 581 
Q 2028 581 2168 693 
Q 2309 806 2381 1056 
z
M 2431 1944 
Q 2422 2325 2234 2523 
Q 2047 2722 1778 2722 
Q 1491 2722 1303 2513 
Q 1116 2303 1119 1944 
L 2431 1944 
z
" transform="scale(0.015625)"/>
      <path id="Arial-BoldMT-71" d="M 2628 -1263 
L 2628 406 
Q 2456 184 2200 54 
Q 1944 -75 1647 -75 
Q 1081 -75 716 350 
Q 284 847 284 1697 
Q 284 2497 689 2945 
Q 1094 3394 1694 3394 
Q 2025 3394 2267 3253 
Q 2509 3113 2697 2828 
L 2697 3319 
L 3506 3319 
L 3506 -1263 
L 2628 -1263 
z
M 2656 1700 
Q 2656 2209 2448 2457 
Q 2241 2706 1928 2706 
Q 1609 2706 1395 2453 
Q 1181 2200 1181 1650 
Q 1181 1103 1387 861 
Q 1594 619 1897 619 
Q 2200 619 2428 891 
Q 2656 1163 2656 1700 
z
" transform="scale(0.015625)"/>
      <path id="Arial-BoldMT-75" d="M 2644 0 
L 2644 497 
Q 2463 231 2167 78 
Q 1872 -75 1544 -75 
Q 1209 -75 943 72 
Q 678 219 559 484 
Q 441 750 441 1219 
L 441 3319 
L 1319 3319 
L 1319 1794 
Q 1319 1094 1367 936 
Q 1416 778 1544 686 
Q 1672 594 1869 594 
Q 2094 594 2272 717 
Q 2450 841 2515 1023 
Q 2581 1206 2581 1919 
L 2581 3319 
L 3459 3319 
L 3459 0 
L 2644 0 
z
" transform="scale(0.015625)"/>
      <path id="Arial-BoldMT-6e" d="M 3478 0 
L 2600 0 
L 2600 1694 
Q 2600 2231 2544 2389 
Q 2488 2547 2361 2634 
Q 2234 2722 2056 2722 
Q 1828 2722 1647 2597 
Q 1466 2472 1398 2265 
Q 1331 2059 1331 1503 
L 1331 0 
L 453 0 
L 453 3319 
L 1269 3319 
L 1269 2831 
Q 1703 3394 2363 3394 
Q 2653 3394 2893 3289 
Q 3134 3184 3257 3021 
Q 3381 2859 3429 2653 
Q 3478 2447 3478 2063 
L 3478 0 
z
" transform="scale(0.015625)"/>
      <path id="Arial-BoldMT-63" d="M 3353 2338 
L 2488 2181 
Q 2444 2441 2289 2572 
Q 2134 2703 1888 2703 
Q 1559 2703 1364 2476 
Q 1169 2250 1169 1719 
Q 1169 1128 1367 884 
Q 1566 641 1900 641 
Q 2150 641 2309 783 
Q 2469 925 2534 1272 
L 3397 1125 
Q 3263 531 2881 228 
Q 2500 -75 1859 -75 
Q 1131 -75 698 384 
Q 266 844 266 1656 
Q 266 2478 700 2936 
Q 1134 3394 1875 3394 
Q 2481 3394 2839 3133 
Q 3197 2872 3353 2338 
z
" transform="scale(0.015625)"/>
      <path id="Arial-BoldMT-79" d="M 44 3319 
L 978 3319 
L 1772 963 
L 2547 3319 
L 3456 3319 
L 2284 125 
L 2075 -453 
Q 1959 -744 1854 -897 
Q 1750 -1050 1614 -1145 
Q 1478 -1241 1279 -1294 
Q 1081 -1347 831 -1347 
Q 578 -1347 334 -1294 
L 256 -606 
Q 463 -647 628 -647 
Q 934 -647 1081 -467 
Q 1228 -288 1306 -9 
L 44 3319 
z
" transform="scale(0.015625)"/>
      <path id="Arial-BoldMT-20" transform="scale(0.015625)"/>
      <path id="Arial-BoldMT-53" d="M 231 1491 
L 1131 1578 
Q 1213 1125 1461 912 
Q 1709 700 2131 700 
Q 2578 700 2804 889 
Q 3031 1078 3031 1331 
Q 3031 1494 2936 1608 
Q 2841 1722 2603 1806 
Q 2441 1863 1863 2006 
Q 1119 2191 819 2459 
Q 397 2838 397 3381 
Q 397 3731 595 4036 
Q 794 4341 1167 4500 
Q 1541 4659 2069 4659 
Q 2931 4659 3367 4281 
Q 3803 3903 3825 3272 
L 2900 3231 
Q 2841 3584 2645 3739 
Q 2450 3894 2059 3894 
Q 1656 3894 1428 3728 
Q 1281 3622 1281 3444 
Q 1281 3281 1419 3166 
Q 1594 3019 2269 2859 
Q 2944 2700 3267 2529 
Q 3591 2359 3773 2064 
Q 3956 1769 3956 1334 
Q 3956 941 3737 597 
Q 3519 253 3119 86 
Q 2719 -81 2122 -81 
Q 1253 -81 787 320 
Q 322 722 231 1491 
z
" transform="scale(0.015625)"/>
      <path id="Arial-BoldMT-70" d="M 434 3319 
L 1253 3319 
L 1253 2831 
Q 1413 3081 1684 3237 
Q 1956 3394 2288 3394 
Q 2866 3394 3269 2941 
Q 3672 2488 3672 1678 
Q 3672 847 3265 386 
Q 2859 -75 2281 -75 
Q 2006 -75 1782 34 
Q 1559 144 1313 409 
L 1313 -1263 
L 434 -1263 
L 434 3319 
z
M 1303 1716 
Q 1303 1156 1525 889 
Q 1747 622 2066 622 
Q 2372 622 2575 867 
Q 2778 1113 2778 1672 
Q 2778 2194 2568 2447 
Q 2359 2700 2050 2700 
Q 1728 2700 1515 2451 
Q 1303 2203 1303 1716 
z
" transform="scale(0.015625)"/>
      <path id="Arial-BoldMT-74" d="M 1981 3319 
L 1981 2619 
L 1381 2619 
L 1381 1281 
Q 1381 875 1398 808 
Q 1416 741 1477 697 
Q 1538 653 1625 653 
Q 1747 653 1978 738 
L 2053 56 
Q 1747 -75 1359 -75 
Q 1122 -75 931 4 
Q 741 84 652 211 
Q 563 338 528 553 
Q 500 706 500 1172 
L 500 2619 
L 97 2619 
L 97 3319 
L 500 3319 
L 500 3978 
L 1381 4491 
L 1381 3319 
L 1981 3319 
z
" transform="scale(0.015625)"/>
      <path id="Arial-BoldMT-6d" d="M 394 3319 
L 1203 3319 
L 1203 2866 
Q 1638 3394 2238 3394 
Q 2556 3394 2790 3262 
Q 3025 3131 3175 2866 
Q 3394 3131 3647 3262 
Q 3900 3394 4188 3394 
Q 4553 3394 4806 3245 
Q 5059 3097 5184 2809 
Q 5275 2597 5275 2122 
L 5275 0 
L 4397 0 
L 4397 1897 
Q 4397 2391 4306 2534 
Q 4184 2722 3931 2722 
Q 3747 2722 3584 2609 
Q 3422 2497 3350 2280 
Q 3278 2063 3278 1594 
L 3278 0 
L 2400 0 
L 2400 1819 
Q 2400 2303 2353 2443 
Q 2306 2584 2207 2653 
Q 2109 2722 1941 2722 
Q 1738 2722 1575 2612 
Q 1413 2503 1342 2297 
Q 1272 2091 1272 1613 
L 1272 0 
L 394 0 
L 394 3319 
z
" transform="scale(0.015625)"/>
     </defs>
     <use xlink:href="#Arial-BoldMT-46"/>
     <use xlink:href="#Arial-BoldMT-72" x="61.083984"/>
     <use xlink:href="#Arial-BoldMT-65" x="100"/>
     <use xlink:href="#Arial-BoldMT-71" x="155.615234"/>
     <use xlink:href="#Arial-BoldMT-75" x="216.699219"/>
     <use xlink:href="#Arial-BoldMT-65" x="277.783203"/>
     <use xlink:href="#Arial-BoldMT-6e" x="333.398438"/>
     <use xlink:href="#Arial-BoldMT-63" x="394.482422"/>
     <use xlink:href="#Arial-BoldMT-79" x="450.097656"/>
     <use xlink:href="#Arial-BoldMT-20" x="505.712891"/>
     <use xlink:href="#Arial-BoldMT-53" x="533.496094"/>
     <use xlink:href="#Arial-BoldMT-70" x="600.195312"/>
     <use xlink:href="#Arial-BoldMT-65" x="661.279297"/>
     <use xlink:href="#Arial-BoldMT-63" x="716.894531"/>
     <use xlink:href="#Arial-BoldMT-74" x="772.509766"/>
     <use xlink:href="#Arial-BoldMT-72" x="805.810547"/>
     <use xlink:href="#Arial-BoldMT-75" x="844.726562"/>
     <use xlink:href="#Arial-BoldMT-6d" x="905.810547"/>
     <use xlink:href="#Arial-BoldMT-20" x="994.726562"/>
    </g>
   </g>
   <g id="legend_1">
    <g id="patch_7">
     <path d="M 582.477188 63.62 
L 769.9 63.62 
Q 772.1 63.62 772.1 61.42 
L 772.1 15.051563 
Q 772.1 12.851562 769.9 12.851562 
L 582.477188 12.851562 
Q 580.277187 12.851562 580.277187 15.051563 
L 580.277187 61.42 
Q 580.277187 63.62 582.477188 63.62 
z
" style="fill: #ffffff; opacity: 0.8; stroke: #cccccc; stroke-linejoin: miter"/>
    </g>
    <g id="line2d_19">
     <path d="M 584.677187 21.409219 
L 595.677187 21.409219 
L 606.677187 21.409219 
" style="fill: none; stroke: #1f77b4; stroke-width: 0.7; stroke-linecap: round"/>
    </g>
    <g id="text_19">
     <!-- Snoring Frequency Spectrum -->
     <g style="fill: #262626" transform="translate(615.477187 25.259219)scale(0.11 -0.11)">
      <defs>
       <path id="ArialMT-53" d="M 288 1472 
L 859 1522 
Q 900 1178 1048 958 
Q 1197 738 1509 602 
Q 1822 466 2213 466 
Q 2559 466 2825 569 
Q 3091 672 3220 851 
Q 3350 1031 3350 1244 
Q 3350 1459 3225 1620 
Q 3100 1781 2813 1891 
Q 2628 1963 1997 2114 
Q 1366 2266 1113 2400 
Q 784 2572 623 2826 
Q 463 3081 463 3397 
Q 463 3744 659 4045 
Q 856 4347 1234 4503 
Q 1613 4659 2075 4659 
Q 2584 4659 2973 4495 
Q 3363 4331 3572 4012 
Q 3781 3694 3797 3291 
L 3216 3247 
Q 3169 3681 2898 3903 
Q 2628 4125 2100 4125 
Q 1550 4125 1298 3923 
Q 1047 3722 1047 3438 
Q 1047 3191 1225 3031 
Q 1400 2872 2139 2705 
Q 2878 2538 3153 2413 
Q 3553 2228 3743 1945 
Q 3934 1663 3934 1294 
Q 3934 928 3725 604 
Q 3516 281 3123 101 
Q 2731 -78 2241 -78 
Q 1619 -78 1198 103 
Q 778 284 539 648 
Q 300 1013 288 1472 
z
" transform="scale(0.015625)"/>
       <path id="ArialMT-6f" d="M 213 1659 
Q 213 2581 725 3025 
Q 1153 3394 1769 3394 
Q 2453 3394 2887 2945 
Q 3322 2497 3322 1706 
Q 3322 1066 3130 698 
Q 2938 331 2570 128 
Q 2203 -75 1769 -75 
Q 1072 -75 642 372 
Q 213 819 213 1659 
z
M 791 1659 
Q 791 1022 1069 705 
Q 1347 388 1769 388 
Q 2188 388 2466 706 
Q 2744 1025 2744 1678 
Q 2744 2294 2464 2611 
Q 2184 2928 1769 2928 
Q 1347 2928 1069 2612 
Q 791 2297 791 1659 
z
" transform="scale(0.015625)"/>
       <path id="ArialMT-70" d="M 422 -1272 
L 422 3319 
L 934 3319 
L 934 2888 
Q 1116 3141 1344 3267 
Q 1572 3394 1897 3394 
Q 2322 3394 2647 3175 
Q 2972 2956 3137 2557 
Q 3303 2159 3303 1684 
Q 3303 1175 3120 767 
Q 2938 359 2589 142 
Q 2241 -75 1856 -75 
Q 1575 -75 1351 44 
Q 1128 163 984 344 
L 984 -1272 
L 422 -1272 
z
M 931 1641 
Q 931 1000 1190 694 
Q 1450 388 1819 388 
Q 2194 388 2461 705 
Q 2728 1022 2728 1688 
Q 2728 2322 2467 2637 
Q 2206 2953 1844 2953 
Q 1484 2953 1207 2617 
Q 931 2281 931 1641 
z
" transform="scale(0.015625)"/>
       <path id="ArialMT-6d" d="M 422 0 
L 422 3319 
L 925 3319 
L 925 2853 
Q 1081 3097 1340 3245 
Q 1600 3394 1931 3394 
Q 2300 3394 2536 3241 
Q 2772 3088 2869 2813 
Q 3263 3394 3894 3394 
Q 4388 3394 4653 3120 
Q 4919 2847 4919 2278 
L 4919 0 
L 4359 0 
L 4359 2091 
Q 4359 2428 4304 2576 
Q 4250 2725 4106 2815 
Q 3963 2906 3769 2906 
Q 3419 2906 3187 2673 
Q 2956 2441 2956 1928 
L 2956 0 
L 2394 0 
L 2394 2156 
Q 2394 2531 2256 2718 
Q 2119 2906 1806 2906 
Q 1569 2906 1367 2781 
Q 1166 2656 1075 2415 
Q 984 2175 984 1722 
L 984 0 
L 422 0 
z
" transform="scale(0.015625)"/>
      </defs>
      <use xlink:href="#ArialMT-53"/>
      <use xlink:href="#ArialMT-6e" x="66.699219"/>
      <use xlink:href="#ArialMT-6f" x="122.314453"/>
      <use xlink:href="#ArialMT-72" x="177.929688"/>
      <use xlink:href="#ArialMT-69" x="211.230469"/>
      <use xlink:href="#ArialMT-6e" x="233.447266"/>
      <use xlink:href="#ArialMT-67" x="289.0625"/>
      <use xlink:href="#ArialMT-20" x="344.677734"/>
      <use xlink:href="#ArialMT-46" x="372.460938"/>
      <use xlink:href="#ArialMT-72" x="433.544922"/>
      <use xlink:href="#ArialMT-65" x="466.845703"/>
      <use xlink:href="#ArialMT-71" x="522.460938"/>
      <use xlink:href="#ArialMT-75" x="578.076172"/>
      <use xlink:href="#ArialMT-65" x="633.691406"/>
      <use xlink:href="#ArialMT-6e" x="689.306641"/>
      <use xlink:href="#ArialMT-63" x="744.921875"/>
      <use xlink:href="#ArialMT-79" x="794.921875"/>
      <use xlink:href="#ArialMT-20" x="844.921875"/>
      <use xlink:href="#ArialMT-53" x="872.705078"/>
      <use xlink:href="#ArialMT-70" x="939.404297"/>
      <use xlink:href="#ArialMT-65" x="995.019531"/>
      <use xlink:href="#ArialMT-63" x="1050.634766"/>
      <use xlink:href="#ArialMT-74" x="1100.634766"/>
      <use xlink:href="#ArialMT-72" x="1128.417969"/>
      <use xlink:href="#ArialMT-75" x="1161.71875"/>
      <use xlink:href="#ArialMT-6d" x="1217.333984"/>
     </g>
    </g>
    <g id="line2d_20">
     <path d="M 584.677187 37.232031 
L 595.677187 37.232031 
L 606.677187 37.232031 
" style="fill: none; stroke: #1f77b4; stroke-opacity: 0.5; stroke-width: 0.5; stroke-linecap: round"/>
    </g>
    <g id="text_20">
     <!-- Complete Frequency Spectrum -->
     <g style="fill: #262626" transform="translate(615.477187 41.082031)scale(0.11 -0.11)">
      <defs>
       <path id="ArialMT-43" d="M 3763 1606 
L 4369 1453 
Q 4178 706 3683 314 
Q 3188 -78 2472 -78 
Q 1731 -78 1267 223 
Q 803 525 561 1097 
Q 319 1669 319 2325 
Q 319 3041 592 3573 
Q 866 4106 1370 4382 
Q 1875 4659 2481 4659 
Q 3169 4659 3637 4309 
Q 4106 3959 4291 3325 
L 3694 3184 
Q 3534 3684 3231 3912 
Q 2928 4141 2469 4141 
Q 1941 4141 1586 3887 
Q 1231 3634 1087 3207 
Q 944 2781 944 2328 
Q 944 1744 1114 1308 
Q 1284 872 1643 656 
Q 2003 441 2422 441 
Q 2931 441 3284 734 
Q 3638 1028 3763 1606 
z
" transform="scale(0.015625)"/>
       <path id="ArialMT-6c" d="M 409 0 
L 409 4581 
L 972 4581 
L 972 0 
L 409 0 
z
" transform="scale(0.015625)"/>
      </defs>
      <use xlink:href="#ArialMT-43"/>
      <use xlink:href="#ArialMT-6f" x="72.216797"/>
      <use xlink:href="#ArialMT-6d" x="127.832031"/>
      <use xlink:href="#ArialMT-70" x="211.132812"/>
      <use xlink:href="#ArialMT-6c" x="266.748047"/>
      <use xlink:href="#ArialMT-65" x="288.964844"/>
      <use xlink:href="#ArialMT-74" x="344.580078"/>
      <use xlink:href="#ArialMT-65" x="372.363281"/>
      <use xlink:href="#ArialMT-20" x="427.978516"/>
      <use xlink:href="#ArialMT-46" x="455.761719"/>
      <use xlink:href="#ArialMT-72" x="516.845703"/>
      <use xlink:href="#ArialMT-65" x="550.146484"/>
      <use xlink:href="#ArialMT-71" x="605.761719"/>
      <use xlink:href="#ArialMT-75" x="661.376953"/>
      <use xlink:href="#ArialMT-65" x="716.992188"/>
      <use xlink:href="#ArialMT-6e" x="772.607422"/>
      <use xlink:href="#ArialMT-63" x="828.222656"/>
      <use xlink:href="#ArialMT-79" x="878.222656"/>
      <use xlink:href="#ArialMT-20" x="928.222656"/>
      <use xlink:href="#ArialMT-53" x="956.005859"/>
      <use xlink:href="#ArialMT-70" x="1022.705078"/>
      <use xlink:href="#ArialMT-65" x="1078.320312"/>
      <use xlink:href="#ArialMT-63" x="1133.935547"/>
      <use xlink:href="#ArialMT-74" x="1183.935547"/>
      <use xlink:href="#ArialMT-72" x="1211.71875"/>
      <use xlink:href="#ArialMT-75" x="1245.019531"/>
      <use xlink:href="#ArialMT-6d" x="1300.634766"/>
     </g>
    </g>
    <g id="line2d_21">
     <g>
      <use xlink:href="#mde7787493c" x="595.677187" y="53.054844" style="fill: #ff6d00; stroke: #ff6d00; stroke-width: 2"/>
     </g>
    </g>
    <g id="text_21">
     <!-- Snoring Peaks -->
     <g style="fill: #262626" transform="translate(615.477187 56.904844)scale(0.11 -0.11)">
      <defs>
       <path id="ArialMT-50" d="M 494 0 
L 494 4581 
L 2222 4581 
Q 2678 4581 2919 4538 
Q 3256 4481 3484 4323 
Q 3713 4166 3852 3881 
Q 3991 3597 3991 3256 
Q 3991 2672 3619 2267 
Q 3247 1863 2275 1863 
L 1100 1863 
L 1100 0 
L 494 0 
z
M 1100 2403 
L 2284 2403 
Q 2872 2403 3119 2622 
Q 3366 2841 3366 3238 
Q 3366 3525 3220 3729 
Q 3075 3934 2838 4000 
Q 2684 4041 2272 4041 
L 1100 4041 
L 1100 2403 
z
" transform="scale(0.015625)"/>
       <path id="ArialMT-6b" d="M 425 0 
L 425 4581 
L 988 4581 
L 988 1969 
L 2319 3319 
L 3047 3319 
L 1778 2088 
L 3175 0 
L 2481 0 
L 1384 1697 
L 988 1316 
L 988 0 
L 425 0 
z
" transform="scale(0.015625)"/>
       <path id="ArialMT-73" d="M 197 991 
L 753 1078 
Q 800 744 1014 566 
Q 1228 388 1613 388 
Q 2000 388 2187 545 
Q 2375 703 2375 916 
Q 2375 1106 2209 1216 
Q 2094 1291 1634 1406 
Q 1016 1563 777 1677 
Q 538 1791 414 1992 
Q 291 2194 291 2438 
Q 291 2659 392 2848 
Q 494 3038 669 3163 
Q 800 3259 1026 3326 
Q 1253 3394 1513 3394 
Q 1903 3394 2198 3281 
Q 2494 3169 2634 2976 
Q 2775 2784 2828 2463 
L 2278 2388 
Q 2241 2644 2061 2787 
Q 1881 2931 1553 2931 
Q 1166 2931 1000 2803 
Q 834 2675 834 2503 
Q 834 2394 903 2306 
Q 972 2216 1119 2156 
Q 1203 2125 1616 2013 
Q 2213 1853 2448 1751 
Q 2684 1650 2818 1456 
Q 2953 1263 2953 975 
Q 2953 694 2789 445 
Q 2625 197 2315 61 
Q 2006 -75 1616 -75 
Q 969 -75 630 194 
Q 291 463 197 991 
z
" transform="scale(0.015625)"/>
      </defs>
      <use xlink:href="#ArialMT-53"/>
      <use xlink:href="#ArialMT-6e" x="66.699219"/>
      <use xlink:href="#ArialMT-6f" x="122.314453"/>
      <use xlink:href="#ArialMT-72" x="177.929688"/>
      <use xlink:href="#ArialMT-69" x="211.230469"/>
      <use xlink:href="#ArialMT-6e" x="233.447266"/>
      <use xlink:href="#ArialMT-67" x="289.0625"/>
      <use xlink:href="#ArialMT-20" x="344.677734"/>
      <use xlink:href="#ArialMT-50" x="372.460938"/>
      <use xlink:href="#ArialMT-65" x="439.160156"/>
      <use xlink:href="#ArialMT-61" x="494.775391"/>
      <use xlink:href="#ArialMT-6b" x="550.390625"/>
      <use xlink:href="#ArialMT-73" x="600.390625"/>
     </g>
    </g>
   </g>
  </g>
 </g>
 <defs>
  <clipPath id="p50b79f057c">
   <rect x="108" y="69.12" width="669.6" height="434.88"/>
  </clipPath>
 </defs>
</svg>
