<?xml version="1.0" encoding="utf-8" standalone="no"?>
<!DOCTYPE svg PUBLIC "-//W3C//DTD SVG 1.1//EN"
  "http://www.w3.org/Graphics/SVG/1.1/DTD/svg11.dtd">
<svg xmlns:xlink="http://www.w3.org/1999/xlink" width="648pt" height="432pt" viewBox="0 0 648 432" xmlns="http://www.w3.org/2000/svg" version="1.1">
 <metadata>
  <rdf:RDF xmlns:dc="http://purl.org/dc/elements/1.1/" xmlns:cc="http://creativecommons.org/ns#" xmlns:rdf="http://www.w3.org/1999/02/22-rdf-syntax-ns#">
   <cc:Work>
    <dc:type rdf:resource="http://purl.org/dc/dcmitype/StillImage"/>
    <dc:date>2024-12-13T14:22:44.507984</dc:date>
    <dc:format>image/svg+xml</dc:format>
    <dc:creator>
     <cc:Agent>
      <dc:title>Matplotlib v3.5.1, https://matplotlib.org/</dc:title>
     </cc:Agent>
    </dc:creator>
   </cc:Work>
  </rdf:RDF>
 </metadata>
 <defs>
  <style type="text/css">*{stroke-linejoin: round; stroke-linecap: butt}</style>
 </defs>
 <g id="figure_1">
  <g id="patch_1">
   <path d="M 0 432 
L 648 432 
L 648 0 
L 0 0 
z
" style="fill: #ffffff"/>
  </g>
  <g id="axes_1">
   <g id="patch_2">
    <path d="M 81 378 
L 583.2 378 
L 583.2 51.84 
L 81 51.84 
z
" style="fill: #ffffff"/>
   </g>
   <g id="matplotlib.axis_1">
    <g id="xtick_1">
     <g id="line2d_1">
      <path d="M 103.824595 378 
L 103.824595 51.84 
" clip-path="url(#pb0e8676df9)" style="fill: none; stroke-dasharray: 1.85,0.8; stroke-dashoffset: 0; stroke: #cccccc; stroke-width: 0.5"/>
     </g>
     <g id="text_1">
      <!-- 0 -->
      <g style="fill: #262626" transform="translate(101.044126 394.657812)scale(0.1 -0.1)">
       <defs>
        <path id="ArialMT-30" d="M 266 2259 
Q 266 3072 433 3567 
Q 600 4063 929 4331 
Q 1259 4600 1759 4600 
Q 2128 4600 2406 4451 
Q 2684 4303 2865 4023 
Q 3047 3744 3150 3342 
Q 3253 2941 3253 2259 
Q 3253 1453 3087 958 
Q 2922 463 2592 192 
Q 2263 -78 1759 -78 
Q 1097 -78 719 397 
Q 266 969 266 2259 
z
M 844 2259 
Q 844 1131 1108 757 
Q 1372 384 1759 384 
Q 2147 384 2411 759 
Q 2675 1134 2675 2259 
Q 2675 3391 2411 3762 
Q 2147 4134 1753 4134 
Q 1366 4134 1134 3806 
Q 844 3388 844 2259 
z
" transform="scale(0.015625)"/>
       </defs>
       <use xlink:href="#ArialMT-30"/>
      </g>
     </g>
    </g>
    <g id="xtick_2">
     <g id="line2d_2">
      <path d="M 179.922065 378 
L 179.922065 51.84 
" clip-path="url(#pb0e8676df9)" style="fill: none; stroke-dasharray: 1.85,0.8; stroke-dashoffset: 0; stroke: #cccccc; stroke-width: 0.5"/>
     </g>
     <g id="text_2">
      <!-- 10 -->
      <g style="fill: #262626" transform="translate(174.361127 394.657812)scale(0.1 -0.1)">
       <defs>
        <path id="ArialMT-31" d="M 2384 0 
L 1822 0 
L 1822 3584 
Q 1619 3391 1289 3197 
Q 959 3003 697 2906 
L 697 3450 
Q 1169 3672 1522 3987 
Q 1875 4303 2022 4600 
L 2384 4600 
L 2384 0 
z
" transform="scale(0.015625)"/>
       </defs>
       <use xlink:href="#ArialMT-31"/>
       <use xlink:href="#ArialMT-30" x="55.615234"/>
      </g>
     </g>
    </g>
    <g id="xtick_3">
     <g id="line2d_3">
      <path d="M 256.019535 378 
L 256.019535 51.84 
" clip-path="url(#pb0e8676df9)" style="fill: none; stroke-dasharray: 1.85,0.8; stroke-dashoffset: 0; stroke: #cccccc; stroke-width: 0.5"/>
     </g>
     <g id="text_3">
      <!-- 20 -->
      <g style="fill: #262626" transform="translate(250.458597 394.657812)scale(0.1 -0.1)">
       <defs>
        <path id="ArialMT-32" d="M 3222 541 
L 3222 0 
L 194 0 
Q 188 203 259 391 
Q 375 700 629 1000 
Q 884 1300 1366 1694 
Q 2113 2306 2375 2664 
Q 2638 3022 2638 3341 
Q 2638 3675 2398 3904 
Q 2159 4134 1775 4134 
Q 1369 4134 1125 3890 
Q 881 3647 878 3216 
L 300 3275 
Q 359 3922 746 4261 
Q 1134 4600 1788 4600 
Q 2447 4600 2831 4234 
Q 3216 3869 3216 3328 
Q 3216 3053 3103 2787 
Q 2991 2522 2730 2228 
Q 2469 1934 1863 1422 
Q 1356 997 1212 845 
Q 1069 694 975 541 
L 3222 541 
z
" transform="scale(0.015625)"/>
       </defs>
       <use xlink:href="#ArialMT-32"/>
       <use xlink:href="#ArialMT-30" x="55.615234"/>
      </g>
     </g>
    </g>
    <g id="xtick_4">
     <g id="line2d_4">
      <path d="M 332.117005 378 
L 332.117005 51.84 
" clip-path="url(#pb0e8676df9)" style="fill: none; stroke-dasharray: 1.85,0.8; stroke-dashoffset: 0; stroke: #cccccc; stroke-width: 0.5"/>
     </g>
     <g id="text_4">
      <!-- 30 -->
      <g style="fill: #262626" transform="translate(326.556067 394.657812)scale(0.1 -0.1)">
       <defs>
        <path id="ArialMT-33" d="M 269 1209 
L 831 1284 
Q 928 806 1161 595 
Q 1394 384 1728 384 
Q 2125 384 2398 659 
Q 2672 934 2672 1341 
Q 2672 1728 2419 1979 
Q 2166 2231 1775 2231 
Q 1616 2231 1378 2169 
L 1441 2663 
Q 1497 2656 1531 2656 
Q 1891 2656 2178 2843 
Q 2466 3031 2466 3422 
Q 2466 3731 2256 3934 
Q 2047 4138 1716 4138 
Q 1388 4138 1169 3931 
Q 950 3725 888 3313 
L 325 3413 
Q 428 3978 793 4289 
Q 1159 4600 1703 4600 
Q 2078 4600 2393 4439 
Q 2709 4278 2876 4000 
Q 3044 3722 3044 3409 
Q 3044 3113 2884 2869 
Q 2725 2625 2413 2481 
Q 2819 2388 3044 2092 
Q 3269 1797 3269 1353 
Q 3269 753 2831 336 
Q 2394 -81 1725 -81 
Q 1122 -81 723 278 
Q 325 638 269 1209 
z
" transform="scale(0.015625)"/>
       </defs>
       <use xlink:href="#ArialMT-33"/>
       <use xlink:href="#ArialMT-30" x="55.615234"/>
      </g>
     </g>
    </g>
    <g id="xtick_5">
     <g id="line2d_5">
      <path d="M 408.214474 378 
L 408.214474 51.84 
" clip-path="url(#pb0e8676df9)" style="fill: none; stroke-dasharray: 1.85,0.8; stroke-dashoffset: 0; stroke: #cccccc; stroke-width: 0.5"/>
     </g>
     <g id="text_5">
      <!-- 40 -->
      <g style="fill: #262626" transform="translate(402.653537 394.657812)scale(0.1 -0.1)">
       <defs>
        <path id="ArialMT-34" d="M 2069 0 
L 2069 1097 
L 81 1097 
L 81 1613 
L 2172 4581 
L 2631 4581 
L 2631 1613 
L 3250 1613 
L 3250 1097 
L 2631 1097 
L 2631 0 
L 2069 0 
z
M 2069 1613 
L 2069 3678 
L 634 1613 
L 2069 1613 
z
" transform="scale(0.015625)"/>
       </defs>
       <use xlink:href="#ArialMT-34"/>
       <use xlink:href="#ArialMT-30" x="55.615234"/>
      </g>
     </g>
    </g>
    <g id="xtick_6">
     <g id="line2d_6">
      <path d="M 484.311944 378 
L 484.311944 51.84 
" clip-path="url(#pb0e8676df9)" style="fill: none; stroke-dasharray: 1.85,0.8; stroke-dashoffset: 0; stroke: #cccccc; stroke-width: 0.5"/>
     </g>
     <g id="text_6">
      <!-- 50 -->
      <g style="fill: #262626" transform="translate(478.751007 394.657812)scale(0.1 -0.1)">
       <defs>
        <path id="ArialMT-35" d="M 266 1200 
L 856 1250 
Q 922 819 1161 601 
Q 1400 384 1738 384 
Q 2144 384 2425 690 
Q 2706 997 2706 1503 
Q 2706 1984 2436 2262 
Q 2166 2541 1728 2541 
Q 1456 2541 1237 2417 
Q 1019 2294 894 2097 
L 366 2166 
L 809 4519 
L 3088 4519 
L 3088 3981 
L 1259 3981 
L 1013 2750 
Q 1425 3038 1878 3038 
Q 2478 3038 2890 2622 
Q 3303 2206 3303 1553 
Q 3303 931 2941 478 
Q 2500 -78 1738 -78 
Q 1113 -78 717 272 
Q 322 622 266 1200 
z
" transform="scale(0.015625)"/>
       </defs>
       <use xlink:href="#ArialMT-35"/>
       <use xlink:href="#ArialMT-30" x="55.615234"/>
      </g>
     </g>
    </g>
    <g id="xtick_7">
     <g id="line2d_7">
      <path d="M 560.409414 378 
L 560.409414 51.84 
" clip-path="url(#pb0e8676df9)" style="fill: none; stroke-dasharray: 1.85,0.8; stroke-dashoffset: 0; stroke: #cccccc; stroke-width: 0.5"/>
     </g>
     <g id="text_7">
      <!-- 60 -->
      <g style="fill: #262626" transform="translate(554.848477 394.657812)scale(0.1 -0.1)">
       <defs>
        <path id="ArialMT-36" d="M 3184 3459 
L 2625 3416 
Q 2550 3747 2413 3897 
Q 2184 4138 1850 4138 
Q 1581 4138 1378 3988 
Q 1113 3794 959 3422 
Q 806 3050 800 2363 
Q 1003 2672 1297 2822 
Q 1591 2972 1913 2972 
Q 2475 2972 2870 2558 
Q 3266 2144 3266 1488 
Q 3266 1056 3080 686 
Q 2894 316 2569 119 
Q 2244 -78 1831 -78 
Q 1128 -78 684 439 
Q 241 956 241 2144 
Q 241 3472 731 4075 
Q 1159 4600 1884 4600 
Q 2425 4600 2770 4297 
Q 3116 3994 3184 3459 
z
M 888 1484 
Q 888 1194 1011 928 
Q 1134 663 1356 523 
Q 1578 384 1822 384 
Q 2178 384 2434 671 
Q 2691 959 2691 1453 
Q 2691 1928 2437 2201 
Q 2184 2475 1800 2475 
Q 1419 2475 1153 2201 
Q 888 1928 888 1484 
z
" transform="scale(0.015625)"/>
       </defs>
       <use xlink:href="#ArialMT-36"/>
       <use xlink:href="#ArialMT-30" x="55.615234"/>
      </g>
     </g>
    </g>
    <g id="xtick_8">
     <g id="line2d_8">
      <path d="M 88.605101 378 
L 88.605101 51.84 
" clip-path="url(#pb0e8676df9)" style="fill: none; stroke-dasharray: 1.85,0.8; stroke-dashoffset: 0; stroke: #cccccc; stroke-width: 0.5"/>
     </g>
    </g>
    <g id="xtick_9">
     <g id="line2d_9">
      <path d="M 119.044089 378 
L 119.044089 51.84 
" clip-path="url(#pb0e8676df9)" style="fill: none; stroke-dasharray: 1.85,0.8; stroke-dashoffset: 0; stroke: #cccccc; stroke-width: 0.5"/>
     </g>
    </g>
    <g id="xtick_10">
     <g id="line2d_10">
      <path d="M 134.263583 378 
L 134.263583 51.84 
" clip-path="url(#pb0e8676df9)" style="fill: none; stroke-dasharray: 1.85,0.8; stroke-dashoffset: 0; stroke: #cccccc; stroke-width: 0.5"/>
     </g>
    </g>
    <g id="xtick_11">
     <g id="line2d_11">
      <path d="M 149.483077 378 
L 149.483077 51.84 
" clip-path="url(#pb0e8676df9)" style="fill: none; stroke-dasharray: 1.85,0.8; stroke-dashoffset: 0; stroke: #cccccc; stroke-width: 0.5"/>
     </g>
    </g>
    <g id="xtick_12">
     <g id="line2d_12">
      <path d="M 164.702571 378 
L 164.702571 51.84 
" clip-path="url(#pb0e8676df9)" style="fill: none; stroke-dasharray: 1.85,0.8; stroke-dashoffset: 0; stroke: #cccccc; stroke-width: 0.5"/>
     </g>
    </g>
    <g id="xtick_13">
     <g id="line2d_13">
      <path d="M 195.141559 378 
L 195.141559 51.84 
" clip-path="url(#pb0e8676df9)" style="fill: none; stroke-dasharray: 1.85,0.8; stroke-dashoffset: 0; stroke: #cccccc; stroke-width: 0.5"/>
     </g>
    </g>
    <g id="xtick_14">
     <g id="line2d_14">
      <path d="M 210.361053 378 
L 210.361053 51.84 
" clip-path="url(#pb0e8676df9)" style="fill: none; stroke-dasharray: 1.85,0.8; stroke-dashoffset: 0; stroke: #cccccc; stroke-width: 0.5"/>
     </g>
    </g>
    <g id="xtick_15">
     <g id="line2d_15">
      <path d="M 225.580547 378 
L 225.580547 51.84 
" clip-path="url(#pb0e8676df9)" style="fill: none; stroke-dasharray: 1.85,0.8; stroke-dashoffset: 0; stroke: #cccccc; stroke-width: 0.5"/>
     </g>
    </g>
    <g id="xtick_16">
     <g id="line2d_16">
      <path d="M 240.800041 378 
L 240.800041 51.84 
" clip-path="url(#pb0e8676df9)" style="fill: none; stroke-dasharray: 1.85,0.8; stroke-dashoffset: 0; stroke: #cccccc; stroke-width: 0.5"/>
     </g>
    </g>
    <g id="xtick_17">
     <g id="line2d_17">
      <path d="M 271.239029 378 
L 271.239029 51.84 
" clip-path="url(#pb0e8676df9)" style="fill: none; stroke-dasharray: 1.85,0.8; stroke-dashoffset: 0; stroke: #cccccc; stroke-width: 0.5"/>
     </g>
    </g>
    <g id="xtick_18">
     <g id="line2d_18">
      <path d="M 286.458523 378 
L 286.458523 51.84 
" clip-path="url(#pb0e8676df9)" style="fill: none; stroke-dasharray: 1.85,0.8; stroke-dashoffset: 0; stroke: #cccccc; stroke-width: 0.5"/>
     </g>
    </g>
    <g id="xtick_19">
     <g id="line2d_19">
      <path d="M 301.678017 378 
L 301.678017 51.84 
" clip-path="url(#pb0e8676df9)" style="fill: none; stroke-dasharray: 1.85,0.8; stroke-dashoffset: 0; stroke: #cccccc; stroke-width: 0.5"/>
     </g>
    </g>
    <g id="xtick_20">
     <g id="line2d_20">
      <path d="M 316.897511 378 
L 316.897511 51.84 
" clip-path="url(#pb0e8676df9)" style="fill: none; stroke-dasharray: 1.85,0.8; stroke-dashoffset: 0; stroke: #cccccc; stroke-width: 0.5"/>
     </g>
    </g>
    <g id="xtick_21">
     <g id="line2d_21">
      <path d="M 347.336499 378 
L 347.336499 51.84 
" clip-path="url(#pb0e8676df9)" style="fill: none; stroke-dasharray: 1.85,0.8; stroke-dashoffset: 0; stroke: #cccccc; stroke-width: 0.5"/>
     </g>
    </g>
    <g id="xtick_22">
     <g id="line2d_22">
      <path d="M 362.555993 378 
L 362.555993 51.84 
" clip-path="url(#pb0e8676df9)" style="fill: none; stroke-dasharray: 1.85,0.8; stroke-dashoffset: 0; stroke: #cccccc; stroke-width: 0.5"/>
     </g>
    </g>
    <g id="xtick_23">
     <g id="line2d_23">
      <path d="M 377.775487 378 
L 377.775487 51.84 
" clip-path="url(#pb0e8676df9)" style="fill: none; stroke-dasharray: 1.85,0.8; stroke-dashoffset: 0; stroke: #cccccc; stroke-width: 0.5"/>
     </g>
    </g>
    <g id="xtick_24">
     <g id="line2d_24">
      <path d="M 392.994981 378 
L 392.994981 51.84 
" clip-path="url(#pb0e8676df9)" style="fill: none; stroke-dasharray: 1.85,0.8; stroke-dashoffset: 0; stroke: #cccccc; stroke-width: 0.5"/>
     </g>
    </g>
    <g id="xtick_25">
     <g id="line2d_25">
      <path d="M 423.433968 378 
L 423.433968 51.84 
" clip-path="url(#pb0e8676df9)" style="fill: none; stroke-dasharray: 1.85,0.8; stroke-dashoffset: 0; stroke: #cccccc; stroke-width: 0.5"/>
     </g>
    </g>
    <g id="xtick_26">
     <g id="line2d_26">
      <path d="M 438.653462 378 
L 438.653462 51.84 
" clip-path="url(#pb0e8676df9)" style="fill: none; stroke-dasharray: 1.85,0.8; stroke-dashoffset: 0; stroke: #cccccc; stroke-width: 0.5"/>
     </g>
    </g>
    <g id="xtick_27">
     <g id="line2d_27">
      <path d="M 453.872956 378 
L 453.872956 51.84 
" clip-path="url(#pb0e8676df9)" style="fill: none; stroke-dasharray: 1.85,0.8; stroke-dashoffset: 0; stroke: #cccccc; stroke-width: 0.5"/>
     </g>
    </g>
    <g id="xtick_28">
     <g id="line2d_28">
      <path d="M 469.09245 378 
L 469.09245 51.84 
" clip-path="url(#pb0e8676df9)" style="fill: none; stroke-dasharray: 1.85,0.8; stroke-dashoffset: 0; stroke: #cccccc; stroke-width: 0.5"/>
     </g>
    </g>
    <g id="xtick_29">
     <g id="line2d_29">
      <path d="M 499.531438 378 
L 499.531438 51.84 
" clip-path="url(#pb0e8676df9)" style="fill: none; stroke-dasharray: 1.85,0.8; stroke-dashoffset: 0; stroke: #cccccc; stroke-width: 0.5"/>
     </g>
    </g>
    <g id="xtick_30">
     <g id="line2d_30">
      <path d="M 514.750932 378 
L 514.750932 51.84 
" clip-path="url(#pb0e8676df9)" style="fill: none; stroke-dasharray: 1.85,0.8; stroke-dashoffset: 0; stroke: #cccccc; stroke-width: 0.5"/>
     </g>
    </g>
    <g id="xtick_31">
     <g id="line2d_31">
      <path d="M 529.970426 378 
L 529.970426 51.84 
" clip-path="url(#pb0e8676df9)" style="fill: none; stroke-dasharray: 1.85,0.8; stroke-dashoffset: 0; stroke: #cccccc; stroke-width: 0.5"/>
     </g>
    </g>
    <g id="xtick_32">
     <g id="line2d_32">
      <path d="M 545.18992 378 
L 545.18992 51.84 
" clip-path="url(#pb0e8676df9)" style="fill: none; stroke-dasharray: 1.85,0.8; stroke-dashoffset: 0; stroke: #cccccc; stroke-width: 0.5"/>
     </g>
    </g>
    <g id="xtick_33">
     <g id="line2d_33">
      <path d="M 575.628908 378 
L 575.628908 51.84 
" clip-path="url(#pb0e8676df9)" style="fill: none; stroke-dasharray: 1.85,0.8; stroke-dashoffset: 0; stroke: #cccccc; stroke-width: 0.5"/>
     </g>
    </g>
    <g id="text_8">
     <!-- Time [s] -->
     <g style="fill: #262626" transform="translate(296.920313 420.960938)scale(0.2 -0.2)">
      <defs>
       <path id="ArialMT-54" d="M 1659 0 
L 1659 4041 
L 150 4041 
L 150 4581 
L 3781 4581 
L 3781 4041 
L 2266 4041 
L 2266 0 
L 1659 0 
z
" transform="scale(0.015625)"/>
       <path id="ArialMT-69" d="M 425 3934 
L 425 4581 
L 988 4581 
L 988 3934 
L 425 3934 
z
M 425 0 
L 425 3319 
L 988 3319 
L 988 0 
L 425 0 
z
" transform="scale(0.015625)"/>
       <path id="ArialMT-6d" d="M 422 0 
L 422 3319 
L 925 3319 
L 925 2853 
Q 1081 3097 1340 3245 
Q 1600 3394 1931 3394 
Q 2300 3394 2536 3241 
Q 2772 3088 2869 2813 
Q 3263 3394 3894 3394 
Q 4388 3394 4653 3120 
Q 4919 2847 4919 2278 
L 4919 0 
L 4359 0 
L 4359 2091 
Q 4359 2428 4304 2576 
Q 4250 2725 4106 2815 
Q 3963 2906 3769 2906 
Q 3419 2906 3187 2673 
Q 2956 2441 2956 1928 
L 2956 0 
L 2394 0 
L 2394 2156 
Q 2394 2531 2256 2718 
Q 2119 2906 1806 2906 
Q 1569 2906 1367 2781 
Q 1166 2656 1075 2415 
Q 984 2175 984 1722 
L 984 0 
L 422 0 
z
" transform="scale(0.015625)"/>
       <path id="ArialMT-65" d="M 2694 1069 
L 3275 997 
Q 3138 488 2766 206 
Q 2394 -75 1816 -75 
Q 1088 -75 661 373 
Q 234 822 234 1631 
Q 234 2469 665 2931 
Q 1097 3394 1784 3394 
Q 2450 3394 2872 2941 
Q 3294 2488 3294 1666 
Q 3294 1616 3291 1516 
L 816 1516 
Q 847 969 1125 678 
Q 1403 388 1819 388 
Q 2128 388 2347 550 
Q 2566 713 2694 1069 
z
M 847 1978 
L 2700 1978 
Q 2663 2397 2488 2606 
Q 2219 2931 1791 2931 
Q 1403 2931 1139 2672 
Q 875 2413 847 1978 
z
" transform="scale(0.015625)"/>
       <path id="ArialMT-20" transform="scale(0.015625)"/>
       <path id="ArialMT-5b" d="M 434 -1272 
L 434 4581 
L 1675 4581 
L 1675 4116 
L 997 4116 
L 997 -806 
L 1675 -806 
L 1675 -1272 
L 434 -1272 
z
" transform="scale(0.015625)"/>
       <path id="ArialMT-73" d="M 197 991 
L 753 1078 
Q 800 744 1014 566 
Q 1228 388 1613 388 
Q 2000 388 2187 545 
Q 2375 703 2375 916 
Q 2375 1106 2209 1216 
Q 2094 1291 1634 1406 
Q 1016 1563 777 1677 
Q 538 1791 414 1992 
Q 291 2194 291 2438 
Q 291 2659 392 2848 
Q 494 3038 669 3163 
Q 800 3259 1026 3326 
Q 1253 3394 1513 3394 
Q 1903 3394 2198 3281 
Q 2494 3169 2634 2976 
Q 2775 2784 2828 2463 
L 2278 2388 
Q 2241 2644 2061 2787 
Q 1881 2931 1553 2931 
Q 1166 2931 1000 2803 
Q 834 2675 834 2503 
Q 834 2394 903 2306 
Q 972 2216 1119 2156 
Q 1203 2125 1616 2013 
Q 2213 1853 2448 1751 
Q 2684 1650 2818 1456 
Q 2953 1263 2953 975 
Q 2953 694 2789 445 
Q 2625 197 2315 61 
Q 2006 -75 1616 -75 
Q 969 -75 630 194 
Q 291 463 197 991 
z
" transform="scale(0.015625)"/>
       <path id="ArialMT-5d" d="M 1363 -1272 
L 122 -1272 
L 122 -806 
L 800 -806 
L 800 4116 
L 122 4116 
L 122 4581 
L 1363 4581 
L 1363 -1272 
z
" transform="scale(0.015625)"/>
      </defs>
      <use xlink:href="#ArialMT-54"/>
      <use xlink:href="#ArialMT-69" x="57.333984"/>
      <use xlink:href="#ArialMT-6d" x="79.550781"/>
      <use xlink:href="#ArialMT-65" x="162.851562"/>
      <use xlink:href="#ArialMT-20" x="218.466797"/>
      <use xlink:href="#ArialMT-5b" x="246.25"/>
      <use xlink:href="#ArialMT-73" x="274.033203"/>
      <use xlink:href="#ArialMT-5d" x="324.033203"/>
     </g>
    </g>
   </g>
   <g id="matplotlib.axis_2">
    <g id="ytick_1">
     <g id="line2d_34">
      <path d="M 81 362.891257 
L 583.2 362.891257 
" clip-path="url(#pb0e8676df9)" style="fill: none; stroke-dasharray: 1.85,0.8; stroke-dashoffset: 0; stroke: #cccccc; stroke-width: 0.5"/>
     </g>
     <g id="text_9">
      <!-- 1.0 -->
      <g style="fill: #262626" transform="translate(57.6 366.470163)scale(0.1 -0.1)">
       <defs>
        <path id="ArialMT-2e" d="M 581 0 
L 581 641 
L 1222 641 
L 1222 0 
L 581 0 
z
" transform="scale(0.015625)"/>
       </defs>
       <use xlink:href="#ArialMT-31"/>
       <use xlink:href="#ArialMT-2e" x="55.615234"/>
       <use xlink:href="#ArialMT-30" x="83.398438"/>
      </g>
     </g>
    </g>
    <g id="ytick_2">
     <g id="line2d_35">
      <path d="M 81 314.590492 
L 583.2 314.590492 
" clip-path="url(#pb0e8676df9)" style="fill: none; stroke-dasharray: 1.85,0.8; stroke-dashoffset: 0; stroke: #cccccc; stroke-width: 0.5"/>
     </g>
     <g id="text_10">
      <!-- 1.5 -->
      <g style="fill: #262626" transform="translate(57.6 318.169398)scale(0.1 -0.1)">
       <use xlink:href="#ArialMT-31"/>
       <use xlink:href="#ArialMT-2e" x="55.615234"/>
       <use xlink:href="#ArialMT-35" x="83.398438"/>
      </g>
     </g>
    </g>
    <g id="ytick_3">
     <g id="line2d_36">
      <path d="M 81 266.289728 
L 583.2 266.289728 
" clip-path="url(#pb0e8676df9)" style="fill: none; stroke-dasharray: 1.85,0.8; stroke-dashoffset: 0; stroke: #cccccc; stroke-width: 0.5"/>
     </g>
     <g id="text_11">
      <!-- 2.0 -->
      <g style="fill: #262626" transform="translate(57.6 269.868634)scale(0.1 -0.1)">
       <use xlink:href="#ArialMT-32"/>
       <use xlink:href="#ArialMT-2e" x="55.615234"/>
       <use xlink:href="#ArialMT-30" x="83.398438"/>
      </g>
     </g>
    </g>
    <g id="ytick_4">
     <g id="line2d_37">
      <path d="M 81 217.988964 
L 583.2 217.988964 
" clip-path="url(#pb0e8676df9)" style="fill: none; stroke-dasharray: 1.85,0.8; stroke-dashoffset: 0; stroke: #cccccc; stroke-width: 0.5"/>
     </g>
     <g id="text_12">
      <!-- 2.5 -->
      <g style="fill: #262626" transform="translate(57.6 221.56787)scale(0.1 -0.1)">
       <use xlink:href="#ArialMT-32"/>
       <use xlink:href="#ArialMT-2e" x="55.615234"/>
       <use xlink:href="#ArialMT-35" x="83.398438"/>
      </g>
     </g>
    </g>
    <g id="ytick_5">
     <g id="line2d_38">
      <path d="M 81 169.688199 
L 583.2 169.688199 
" clip-path="url(#pb0e8676df9)" style="fill: none; stroke-dasharray: 1.85,0.8; stroke-dashoffset: 0; stroke: #cccccc; stroke-width: 0.5"/>
     </g>
     <g id="text_13">
      <!-- 3.0 -->
      <g style="fill: #262626" transform="translate(57.6 173.267105)scale(0.1 -0.1)">
       <use xlink:href="#ArialMT-33"/>
       <use xlink:href="#ArialMT-2e" x="55.615234"/>
       <use xlink:href="#ArialMT-30" x="83.398438"/>
      </g>
     </g>
    </g>
    <g id="ytick_6">
     <g id="line2d_39">
      <path d="M 81 121.387435 
L 583.2 121.387435 
" clip-path="url(#pb0e8676df9)" style="fill: none; stroke-dasharray: 1.85,0.8; stroke-dashoffset: 0; stroke: #cccccc; stroke-width: 0.5"/>
     </g>
     <g id="text_14">
      <!-- 3.5 -->
      <g style="fill: #262626" transform="translate(57.6 124.966341)scale(0.1 -0.1)">
       <use xlink:href="#ArialMT-33"/>
       <use xlink:href="#ArialMT-2e" x="55.615234"/>
       <use xlink:href="#ArialMT-35" x="83.398438"/>
      </g>
     </g>
    </g>
    <g id="ytick_7">
     <g id="line2d_40">
      <path d="M 81 73.086671 
L 583.2 73.086671 
" clip-path="url(#pb0e8676df9)" style="fill: none; stroke-dasharray: 1.85,0.8; stroke-dashoffset: 0; stroke: #cccccc; stroke-width: 0.5"/>
     </g>
     <g id="text_15">
      <!-- 4.0 -->
      <g style="fill: #262626" transform="translate(57.6 76.665577)scale(0.1 -0.1)">
       <use xlink:href="#ArialMT-34"/>
       <use xlink:href="#ArialMT-2e" x="55.615234"/>
       <use xlink:href="#ArialMT-30" x="83.398438"/>
      </g>
     </g>
    </g>
    <g id="text_16">
     <!-- Voltage Level [V] -->
     <g style="fill: #262626" transform="translate(43.390625 289.971563)rotate(-90)scale(0.2 -0.2)">
      <defs>
       <path id="ArialMT-56" d="M 1803 0 
L 28 4581 
L 684 4581 
L 1875 1253 
Q 2019 853 2116 503 
Q 2222 878 2363 1253 
L 3600 4581 
L 4219 4581 
L 2425 0 
L 1803 0 
z
" transform="scale(0.015625)"/>
       <path id="ArialMT-6f" d="M 213 1659 
Q 213 2581 725 3025 
Q 1153 3394 1769 3394 
Q 2453 3394 2887 2945 
Q 3322 2497 3322 1706 
Q 3322 1066 3130 698 
Q 2938 331 2570 128 
Q 2203 -75 1769 -75 
Q 1072 -75 642 372 
Q 213 819 213 1659 
z
M 791 1659 
Q 791 1022 1069 705 
Q 1347 388 1769 388 
Q 2188 388 2466 706 
Q 2744 1025 2744 1678 
Q 2744 2294 2464 2611 
Q 2184 2928 1769 2928 
Q 1347 2928 1069 2612 
Q 791 2297 791 1659 
z
" transform="scale(0.015625)"/>
       <path id="ArialMT-6c" d="M 409 0 
L 409 4581 
L 972 4581 
L 972 0 
L 409 0 
z
" transform="scale(0.015625)"/>
       <path id="ArialMT-74" d="M 1650 503 
L 1731 6 
Q 1494 -44 1306 -44 
Q 1000 -44 831 53 
Q 663 150 594 308 
Q 525 466 525 972 
L 525 2881 
L 113 2881 
L 113 3319 
L 525 3319 
L 525 4141 
L 1084 4478 
L 1084 3319 
L 1650 3319 
L 1650 2881 
L 1084 2881 
L 1084 941 
Q 1084 700 1114 631 
Q 1144 563 1211 522 
Q 1278 481 1403 481 
Q 1497 481 1650 503 
z
" transform="scale(0.015625)"/>
       <path id="ArialMT-61" d="M 2588 409 
Q 2275 144 1986 34 
Q 1697 -75 1366 -75 
Q 819 -75 525 192 
Q 231 459 231 875 
Q 231 1119 342 1320 
Q 453 1522 633 1644 
Q 813 1766 1038 1828 
Q 1203 1872 1538 1913 
Q 2219 1994 2541 2106 
Q 2544 2222 2544 2253 
Q 2544 2597 2384 2738 
Q 2169 2928 1744 2928 
Q 1347 2928 1158 2789 
Q 969 2650 878 2297 
L 328 2372 
Q 403 2725 575 2942 
Q 747 3159 1072 3276 
Q 1397 3394 1825 3394 
Q 2250 3394 2515 3294 
Q 2781 3194 2906 3042 
Q 3031 2891 3081 2659 
Q 3109 2516 3109 2141 
L 3109 1391 
Q 3109 606 3145 398 
Q 3181 191 3288 0 
L 2700 0 
Q 2613 175 2588 409 
z
M 2541 1666 
Q 2234 1541 1622 1453 
Q 1275 1403 1131 1340 
Q 988 1278 909 1158 
Q 831 1038 831 891 
Q 831 666 1001 516 
Q 1172 366 1500 366 
Q 1825 366 2078 508 
Q 2331 650 2450 897 
Q 2541 1088 2541 1459 
L 2541 1666 
z
" transform="scale(0.015625)"/>
       <path id="ArialMT-67" d="M 319 -275 
L 866 -356 
Q 900 -609 1056 -725 
Q 1266 -881 1628 -881 
Q 2019 -881 2231 -725 
Q 2444 -569 2519 -288 
Q 2563 -116 2559 434 
Q 2191 0 1641 0 
Q 956 0 581 494 
Q 206 988 206 1678 
Q 206 2153 378 2554 
Q 550 2956 876 3175 
Q 1203 3394 1644 3394 
Q 2231 3394 2613 2919 
L 2613 3319 
L 3131 3319 
L 3131 450 
Q 3131 -325 2973 -648 
Q 2816 -972 2473 -1159 
Q 2131 -1347 1631 -1347 
Q 1038 -1347 672 -1080 
Q 306 -813 319 -275 
z
M 784 1719 
Q 784 1066 1043 766 
Q 1303 466 1694 466 
Q 2081 466 2343 764 
Q 2606 1063 2606 1700 
Q 2606 2309 2336 2618 
Q 2066 2928 1684 2928 
Q 1309 2928 1046 2623 
Q 784 2319 784 1719 
z
" transform="scale(0.015625)"/>
       <path id="ArialMT-4c" d="M 469 0 
L 469 4581 
L 1075 4581 
L 1075 541 
L 3331 541 
L 3331 0 
L 469 0 
z
" transform="scale(0.015625)"/>
       <path id="ArialMT-76" d="M 1344 0 
L 81 3319 
L 675 3319 
L 1388 1331 
Q 1503 1009 1600 663 
Q 1675 925 1809 1294 
L 2547 3319 
L 3125 3319 
L 1869 0 
L 1344 0 
z
" transform="scale(0.015625)"/>
      </defs>
      <use xlink:href="#ArialMT-56"/>
      <use xlink:href="#ArialMT-6f" x="61.199219"/>
      <use xlink:href="#ArialMT-6c" x="116.814453"/>
      <use xlink:href="#ArialMT-74" x="139.03125"/>
      <use xlink:href="#ArialMT-61" x="166.814453"/>
      <use xlink:href="#ArialMT-67" x="222.429688"/>
      <use xlink:href="#ArialMT-65" x="278.044922"/>
      <use xlink:href="#ArialMT-20" x="333.660156"/>
      <use xlink:href="#ArialMT-4c" x="361.443359"/>
      <use xlink:href="#ArialMT-65" x="417.058594"/>
      <use xlink:href="#ArialMT-76" x="472.673828"/>
      <use xlink:href="#ArialMT-65" x="522.673828"/>
      <use xlink:href="#ArialMT-6c" x="578.289062"/>
      <use xlink:href="#ArialMT-20" x="600.505859"/>
      <use xlink:href="#ArialMT-5b" x="628.289062"/>
      <use xlink:href="#ArialMT-56" x="656.072266"/>
      <use xlink:href="#ArialMT-5d" x="722.771484"/>
     </g>
    </g>
   </g>
   <g id="line2d_41">
    <path d="M 103.827273 228.612299 
L 103.863748 228.612299 
L 116.8068 223.890816 
L 117.025771 223.418668 
L 117.243355 223.418668 
L 118.08549 226.723706 
L 118.522668 225.307261 
L 118.740178 226.723706 
L 118.958319 227.195854 
L 119.145868 226.251558 
L 119.364163 227.195854 
L 119.583088 227.195854 
L 119.801616 225.307261 
L 120.45451 228.140151 
L 120.641496 227.195854 
L 120.860185 227.668002 
L 121.076887 225.779409 
L 121.294618 226.251558 
L 121.519418 226.251558 
L 121.730855 226.723706 
L 121.950023 225.779409 
L 122.168765 227.195854 
L 122.356284 222.474372 
L 122.57444 222.474372 
L 122.79239 228.612299 
L 123.228742 224.362965 
L 123.447043 225.779409 
L 123.665534 228.140151 
L 123.853046 226.723706 
L 124.288657 226.723706 
L 124.50701 227.195854 
L 124.723424 226.723706 
L 124.941489 225.779409 
L 125.348529 227.195854 
L 125.566911 226.251558 
L 125.785176 226.723706 
L 126.003041 226.723706 
L 126.221351 227.195854 
L 126.437794 226.723706 
L 126.657221 226.723706 
L 126.843485 227.195854 
L 127.062105 226.251558 
L 127.280742 226.723706 
L 127.498023 226.251558 
L 127.717205 226.251558 
L 127.935287 227.195854 
L 128.340855 226.251558 
L 128.558609 227.195854 
L 128.777001 227.195854 
L 128.995423 226.723706 
L 131.55328 226.723706 
L 131.769069 227.195854 
L 132.42413 227.195854 
L 132.640812 226.723706 
L 132.864407 227.195854 
L 133.047781 226.723706 
L 133.482564 226.723706 
L 133.702728 226.251558 
L 133.920108 226.723706 
L 135.633229 226.723706 
L 135.852123 227.195854 
L 136.069611 226.723706 
L 137.348246 226.723706 
L 137.568358 227.195854 
L 137.753997 228.140151 
L 137.972695 226.251558 
L 138.190575 226.723706 
L 138.40778 226.723706 
L 138.627415 228.140151 
L 138.845441 227.668002 
L 139.249177 227.668002 
L 139.468207 224.362965 
L 139.687011 226.251558 
L 139.905295 226.251558 
L 140.123552 225.779409 
L 140.341624 226.251558 
L 140.55898 227.195854 
L 140.745518 229.084447 
L 140.965836 225.779409 
L 141.182608 227.195854 
L 141.401311 225.779409 
L 141.619819 228.140151 
L 141.837365 229.084447 
L 142.056056 222.94652 
L 142.243261 226.723706 
L 142.460633 224.835113 
L 142.680746 228.612299 
L 142.897518 225.779409 
L 143.114706 229.556595 
L 143.332916 225.779409 
L 143.550738 226.723706 
L 143.77085 226.251558 
L 143.957799 225.307261 
L 144.394918 227.668002 
L 144.830917 223.418668 
L 145.049075 226.251558 
L 145.26729 225.779409 
L 145.454216 228.612299 
L 145.67229 230.028743 
L 145.891466 226.723706 
L 146.108852 228.612299 
L 146.327414 222.94652 
L 146.544222 228.140151 
L 146.950165 224.362965 
L 147.168229 228.612299 
L 147.385481 225.307261 
L 147.822614 227.195854 
L 148.040655 226.723706 
L 148.882643 226.723706 
L 149.101051 226.251558 
L 149.318576 226.723706 
L 150.815111 226.723706 
L 151.033469 227.195854 
L 151.250219 226.723706 
L 151.655529 226.723706 
L 151.873609 227.668002 
L 152.092071 226.723706 
L 152.746348 226.723706 
L 152.96516 228.140151 
L 153.153013 228.612299 
L 153.371483 226.251558 
L 153.588307 226.723706 
L 154.024322 226.723706 
L 154.242502 227.195854 
L 154.460643 228.140151 
L 154.649691 226.723706 
L 161.287361 226.723706 
L 161.72413 224.362965 
L 162.159759 234.750226 
L 162.347742 236.638819 
L 162.564817 217.280741 
L 162.782989 238.055263 
L 163.001054 182.341772 
L 163.375056 221.530075 
L 163.56193 266.384157 
L 163.780526 241.360301 
L 163.999101 233.805929 
L 164.216473 254.108303 
L 164.653046 191.784737 
L 164.996886 234.750226 
L 165.214644 230.028743 
L 165.433046 207.365628 
L 165.651293 239.471708 
L 165.868567 216.336445 
L 166.058018 213.031407 
L 166.276312 230.028743 
L 166.494141 236.166671 
L 166.711839 235.694522 
L 166.929578 236.166671 
L 167.148548 229.556595 
L 167.366901 233.333781 
L 167.773543 222.94652 
L 167.991374 225.307261 
L 168.208699 223.890816 
L 168.427755 227.195854 
L 168.644676 225.779409 
L 169.269826 227.195854 
L 169.487289 227.195854 
L 169.704632 226.723706 
L 169.923745 227.195854 
L 170.140578 226.723706 
L 170.357244 226.723706 
L 170.577423 227.195854 
L 170.765583 226.723706 
L 170.982842 227.195854 
L 171.201927 226.723706 
L 171.419048 226.723706 
L 171.638383 227.195854 
L 171.856236 227.195854 
L 172.071735 226.723706 
L 172.695713 226.723706 
L 172.914059 227.195854 
L 173.132046 227.195854 
L 173.350369 226.723706 
L 173.568009 227.195854 
L 173.759769 227.195854 
L 173.973768 226.723706 
L 174.191675 227.195854 
L 174.410759 226.723706 
L 174.628563 227.195854 
L 175.064123 227.195854 
L 175.251323 226.723706 
L 176.561304 226.723706 
L 176.747673 227.195854 
L 176.966827 232.389485 
L 177.18391 205.949184 
L 177.401815 248.914673 
L 177.6209 243.721042 
L 178.057387 209.726369 
L 178.275352 228.612299 
L 178.463846 207.365628 
L 178.682314 199.811257 
L 179.056828 281.492901 
L 179.46267 208.309925 
L 179.680844 257.413341 
L 179.898125 188.951847 
L 180.271732 238.527412 
L 180.458794 241.832449 
L 180.678441 279.13216 
L 181.113947 204.532739 
L 181.331823 255.524748 
L 181.55007 196.506219 
L 181.892638 194.617626 
L 182.267176 238.527412 
L 182.454337 221.530075 
L 182.672555 236.638819 
L 182.891249 219.169334 
L 183.108302 233.805929 
L 183.327526 235.222374 
L 183.545529 231.917336 
L 183.763342 230.97304 
L 183.982098 223.890816 
L 184.389062 238.99956 
L 184.823312 223.890816 
L 185.259458 227.668002 
L 185.477864 225.307261 
L 185.665329 228.140151 
L 186.101878 226.723706 
L 186.320057 227.195854 
L 186.536479 227.195854 
L 186.755403 226.723706 
L 186.974109 227.195854 
L 187.161833 226.723706 
L 187.378886 229.084447 
L 187.597361 226.723706 
L 187.816538 227.195854 
L 188.034808 226.723706 
L 188.252263 227.195854 
L 188.470755 226.723706 
L 188.657483 227.195854 
L 188.876019 226.723706 
L 189.093908 228.612299 
L 189.530078 226.251558 
L 189.96582 227.195854 
L 190.371571 227.195854 
L 190.589758 228.612299 
L 190.807906 227.195854 
L 191.245155 227.195854 
L 191.462999 226.723706 
L 191.866132 226.723706 
L 192.304098 228.140151 
L 192.522664 226.723706 
L 192.740272 227.195854 
L 192.958184 226.251558 
L 193.176813 227.195854 
L 193.583241 227.195854 
L 193.79881 228.140151 
L 194.01827 226.723706 
L 194.673521 226.723706 
L 194.860204 227.668002 
L 195.079386 228.140151 
L 195.297611 224.835113 
L 195.515525 227.195854 
L 195.731868 225.779409 
L 196.169499 227.195854 
L 196.357344 226.723706 
L 196.793048 226.723706 
L 197.011494 241.832449 
L 197.229445 233.333781 
L 197.447457 208.309925 
L 197.665582 266.856306 
L 197.883342 186.591106 
L 198.226131 145.042061 
L 198.47576 277.243567 
L 198.694289 272.049936 
L 198.912864 304.628164 
L 199.130862 202.644146 
L 199.349397 249.386821 
L 199.566589 150.70784 
L 199.816927 279.604308 
L 200.252721 218.697186 
L 200.47131 251.275414 
L 200.65842 206.89348 
L 200.877261 239.471708 
L 201.095507 198.86696 
L 201.468781 230.500892 
L 201.656095 234.278078 
L 202.09263 211.614962 
L 202.31029 248.914673 
L 202.529155 188.951847 
L 202.872035 243.248894 
L 203.090167 226.723706 
L 203.307866 230.028743 
L 203.526676 222.94652 
L 203.743457 226.723706 
L 203.961612 224.362965 
L 204.180604 227.195854 
L 204.58574 226.251558 
L 205.022525 227.195854 
L 205.241017 228.612299 
L 205.458708 227.195854 
L 209.511615 227.195854 
L 209.729047 228.612299 
L 209.947393 226.723706 
L 210.165625 227.668002 
L 210.382853 227.195854 
L 211.007584 227.195854 
L 211.225146 228.612299 
L 211.440836 227.195854 
L 211.661338 226.723706 
L 211.8797 226.723706 
L 212.066997 227.195854 
L 212.285335 227.195854 
L 212.503012 229.084447 
L 212.7225 227.668002 
L 212.939554 232.389485 
L 213.375267 228.140151 
L 214.061763 144.569913 
L 214.310791 165.816584 
L 214.561153 321.625501 
L 214.77855 95.466497 
L 222.135232 226.251558 
L 222.541031 226.251558 
L 222.7593 226.723706 
L 222.976932 226.723706 
L 223.195683 227.195854 
L 223.413686 226.723706 
L 223.631446 227.668002 
L 224.036306 226.723706 
L 224.254502 227.195854 
L 224.473398 226.723706 
L 224.690594 227.195854 
L 225.75146 227.195854 
L 225.969069 226.723706 
L 226.186046 228.140151 
L 226.40513 233.333781 
L 226.623416 304.156016 
L 226.841815 173.843104 
L 227.309336 242.304598 
L 227.527523 181.869624 
L 227.870593 173.843104 
L 228.120057 228.140151 
L 228.337944 199.811257 
L 228.711607 291.408014 
L 228.929734 149.291395 
L 229.179622 279.13216 
L 229.397496 197.450515 
L 229.741541 208.782073 
L 229.959553 225.307261 
L 230.177526 264.023416 
L 230.39591 130.877614 
L 230.645343 264.967713 
L 230.862638 202.644146 
L 231.080803 265.439861 
L 231.299788 283.853642 
L 231.735834 188.479699 
L 232.297151 224.362965 
L 232.515476 224.835113 
L 232.73259 228.140151 
L 232.920917 225.307261 
L 233.13831 228.140151 
L 233.35703 228.612299 
L 233.793113 227.195854 
L 234.01092 227.668002 
L 234.229542 227.195854 
L 235.505521 227.195854 
L 235.723639 229.084447 
L 235.941627 227.195854 
L 237.00216 227.195854 
L 237.220415 228.140151 
L 237.625275 226.723706 
L 237.843106 227.195854 
L 238.279668 227.195854 
L 238.497559 229.556595 
L 239.121398 227.195854 
L 241.926412 227.195854 
L 242.145139 226.723706 
L 242.332325 227.195854 
L 242.76862 227.195854 
L 242.986434 226.251558 
L 243.423067 205.004887 
L 243.828589 248.914673 
L 244.046988 224.362965 
L 244.4856 209.254221 
L 244.703422 239.943856 
L 244.921373 206.89348 
L 245.138456 211.142814 
L 245.545943 252.21971 
L 245.762622 222.94652 
L 245.981647 231.917336 
L 246.198638 236.166671 
L 246.63578 213.975704 
L 246.823299 221.530075 
L 247.041038 223.890816 
L 247.259658 230.97304 
L 247.478049 222.002224 
L 247.695383 224.362965 
L 247.914034 228.612299 
L 248.13188 228.612299 
L 248.34958 229.084447 
L 248.538369 227.668002 
L 248.75597 227.195854 
L 249.19206 227.195854 
L 249.409328 227.668002 
L 249.625818 227.195854 
L 250.031484 229.084447 
L 250.251353 227.195854 
L 250.469251 227.668002 
L 250.688114 227.195854 
L 251.123605 227.195854 
L 251.342621 229.084447 
L 251.530178 226.723706 
L 251.748267 227.195854 
L 252.184702 227.195854 
L 252.402636 227.668002 
L 252.837739 229.084447 
L 253.026361 226.723706 
L 253.243742 227.195854 
L 253.898019 227.195854 
L 254.117074 228.140151 
L 254.333922 226.723706 
L 254.553409 226.723706 
L 254.740016 227.195854 
L 256.671364 227.195854 
L 256.889572 226.723706 
L 257.10925 227.195854 
L 257.327079 226.723706 
L 257.545204 226.723706 
L 257.9511 208.309925 
L 258.169165 222.474372 
L 258.387094 259.301934 
L 258.605926 204.532739 
L 258.823284 264.967713 
L 259.228641 185.646809 
L 259.602134 187.063254 
L 259.945629 215.864296 
L 260.164091 190.368292 
L 260.537259 212.087111 
L 260.755635 292.824459 
L 260.943054 250.331118 
L 261.161341 266.856306 
L 261.379513 217.752889 
L 261.597115 248.442525 
L 261.816426 246.553932 
L 262.034377 221.530075 
L 262.252425 227.195854 
L 262.439156 229.084447 
L 262.657973 226.251558 
L 262.876334 225.779409 
L 263.094285 225.779409 
L 263.312509 226.251558 
L 263.748632 228.140151 
L 263.935763 226.723706 
L 264.154405 226.723706 
L 264.370904 227.195854 
L 264.589884 226.723706 
L 265.026728 226.723706 
L 265.244267 227.668002 
L 265.432075 226.723706 
L 265.650263 226.251558 
L 265.868541 226.723706 
L 266.30473 226.723706 
L 266.741143 227.668002 
L 266.928655 226.723706 
L 268.237324 226.723706 
L 268.455132 226.251558 
L 268.643008 226.723706 
L 270.792183 226.723706 
L 271.009412 226.251558 
L 271.227987 210.670666 
L 271.446912 224.362965 
L 271.635641 223.418668 
L 271.851598 177.148141 
L 272.227016 274.882826 
L 272.445188 191.784737 
L 272.787772 352.315136 
L 273.006135 144.097765 
L 273.255839 193.673329 
L 273.84768 264.023416 
L 274.033387 318.320463 
L 274.252831 267.328454 
L 274.471434 114.352426 
L 281.796486 225.779409 
L 282.232952 225.779409 
L 282.451207 226.251558 
L 282.669577 226.251558 
L 283.105774 227.668002 
L 283.293293 226.723706 
L 283.946947 226.723706 
L 284.166101 227.195854 
L 284.383594 226.723706 
L 284.602231 228.140151 
L 284.820167 226.251558 
L 285.007382 228.140151 
L 285.227014 226.723706 
L 285.444136 226.723706 
L 285.661507 222.94652 
L 285.880409 229.084447 
L 286.098329 221.530075 
L 286.316112 225.307261 
L 286.504227 206.421332 
L 286.722366 230.500892 
L 286.939549 228.140151 
L 287.156375 231.917336 
L 287.376494 222.94652 
L 287.594397 233.805929 
L 287.812304 231.445188 
L 288.218146 217.752889 
L 288.654253 234.278078 
L 288.872143 224.835113 
L 289.090339 229.084447 
L 289.307139 228.140151 
L 289.496524 225.307261 
L 289.71391 226.251558 
L 290.151053 226.251558 
L 290.368873 226.723706 
L 290.587373 226.251558 
L 292.519374 226.251558 
L 292.707182 228.140151 
L 292.925315 226.251558 
L 295.29343 226.251558 
L 295.512964 228.140151 
L 295.697728 226.251558 
L 295.917431 225.779409 
L 296.135708 226.251558 
L 296.790466 226.251558 
L 297.195845 229.556595 
L 297.413596 222.94652 
L 297.631046 212.087111 
L 297.850588 208.309925 
L 298.068393 316.904019 
L 298.286092 141.737024 
L 298.536096 270.161343 
L 298.971396 199.811257 
L 299.314589 210.670666 
L 299.533459 185.646809 
L 299.90668 181.869624 
L 300.250032 328.707724 
L 300.468394 270.633492 
L 300.685985 281.492901 
L 300.904029 323.041946 
L 301.122817 215.392148 
L 301.31048 255.996896 
L 301.528104 205.949184 
L 301.746724 225.307261 
L 302.182063 226.723706 
L 302.400881 224.362965 
L 302.618407 224.835113 
L 302.805331 224.362965 
L 303.024394 225.779409 
L 303.242421 226.251558 
L 303.460181 227.668002 
L 303.678732 227.195854 
L 303.89663 226.251558 
L 304.957291 226.251558 
L 305.175182 227.668002 
L 305.393064 226.251558 
L 306.452729 226.251558 
L 306.671813 228.140151 
L 306.889673 225.779409 
L 307.106802 225.779409 
L 307.325956 227.668002 
L 307.513939 226.723706 
L 307.730527 226.251558 
L 307.948759 227.668002 
L 308.168156 225.779409 
L 308.603205 225.779409 
L 308.822184 226.251558 
L 309.009346 225.779409 
L 309.227668 226.251558 
L 309.663357 226.251558 
L 309.880479 225.779409 
L 310.100393 227.195854 
L 310.317491 227.195854 
L 310.504988 238.055263 
L 310.726743 229.556595 
L 311.158216 238.055263 
L 311.377741 228.140151 
L 311.595837 232.861633 
L 312.001657 221.057927 
L 312.219922 225.307261 
L 312.437071 225.307261 
L 312.654361 221.530075 
L 312.872555 230.500892 
L 313.090696 231.917336 
L 313.308601 231.917336 
L 313.495816 222.002224 
L 313.714111 228.612299 
L 313.932457 226.251558 
L 314.150201 228.612299 
L 314.368213 225.779409 
L 314.586764 225.307261 
L 314.804877 226.251558 
L 315.022492 225.779409 
L 315.209837 226.251558 
L 315.428076 225.779409 
L 315.646398 226.251558 
L 316.519275 226.251558 
L 316.706482 225.779409 
L 317.36102 225.779409 
L 317.579428 227.668002 
L 317.797239 227.195854 
L 318.015199 225.779409 
L 318.202528 225.779409 
L 318.421033 226.251558 
L 318.639055 225.779409 
L 318.857247 226.251558 
L 319.07545 228.140151 
L 319.293667 225.779409 
L 319.698879 225.779409 
L 319.91966 226.251558 
L 320.136729 226.251558 
L 320.354976 225.779409 
L 320.573717 227.668002 
L 321.010076 225.307261 
L 321.415691 226.251558 
L 321.63457 270.161343 
L 321.852033 275.354974 
L 322.069719 363.174545 
L 322.287782 349.954395 
L 322.505406 200.283405 
L 322.912048 322.097649 
L 323.129527 319.26476 
L 323.564508 163.455843 
L 323.814861 221.530075 
L 324.033064 169.121621 
L 324.313733 263.07912 
L 324.50186 251.747562 
L 324.719165 266.856306 
L 324.938166 216.336445 
L 325.154473 218.225038 
L 325.374387 230.028743 
L 325.591548 224.835113 
L 326.02789 224.835113 
L 326.434387 226.723706 
L 326.650093 226.723706 
L 326.868196 227.195854 
L 327.306191 226.251558 
L 327.524302 226.723706 
L 327.711395 226.723706 
L 327.930448 226.251558 
L 329.863362 226.251558 
L 330.080522 226.723706 
L 330.299065 226.251558 
L 333.727204 226.251558 
L 333.91534 226.723706 
L 334.133244 226.251558 
L 334.351035 226.723706 
L 334.569444 226.251558 
L 336.065938 226.251558 
L 336.501922 227.195854 
L 336.720261 227.195854 
L 336.907447 226.251558 
L 337.12586 226.251558 
L 337.344155 226.723706 
L 337.561763 225.307261 
L 337.779494 205.477035 
L 337.998708 308.40535 
L 338.215729 245.137487 
L 338.402989 286.214383 
L 338.621283 72.803382 
L 345.97749 225.779409 
L 346.383081 225.779409 
L 346.602211 225.307261 
L 347.038005 226.251558 
L 347.256283 226.251558 
L 347.474202 228.140151 
L 347.692453 226.251558 
L 347.880017 226.251558 
L 348.09828 225.779409 
L 348.314518 226.251558 
L 348.749681 226.251558 
L 348.969968 226.723706 
L 349.37569 225.779409 
L 349.593989 226.251558 
L 349.812056 226.251558 
L 350.028826 226.723706 
L 350.872291 226.723706 
L 351.090294 226.251558 
L 351.308528 226.723706 
L 351.526348 226.251558 
L 351.744482 226.723706 
L 352.181647 226.723706 
L 352.368824 226.251558 
L 352.586751 226.251558 
L 352.804253 228.612299 
L 353.023088 226.251558 
L 353.24122 226.723706 
L 354.737121 226.723706 
L 354.955689 224.835113 
L 355.173745 226.251558 
L 355.391233 274.882826 
L 355.580298 267.328454 
L 355.796748 221.057927 
L 356.015985 359.869508 
L 356.233729 141.737024 
L 356.483292 66.665455 
L 363.836888 226.251558 
L 364.680861 226.251558 
L 364.899148 226.723706 
L 365.116915 228.140151 
L 365.335238 226.251558 
L 365.552482 226.723706 
L 366.832077 226.723706 
L 367.049533 226.251558 
L 367.236147 226.723706 
L 367.455732 226.251558 
L 367.673714 226.723706 
L 367.890639 226.723706 
L 368.10935 227.195854 
L 368.327932 226.723706 
L 371.757181 226.723706 
L 371.944214 227.195854 
L 372.161891 226.723706 
L 373.03411 226.723706 
L 373.252373 227.195854 
L 373.440411 227.195854 
L 373.658719 226.723706 
L 373.876206 227.195854 
L 374.094904 226.723706 
L 374.312883 226.723706 
L 374.530127 227.195854 
L 374.748937 226.723706 
L 374.936623 226.723706 
L 375.154765 227.195854 
L 375.372679 227.195854 
L 375.591054 226.723706 
L 375.808413 226.723706 
L 376.027055 227.195854 
L 376.24528 228.612299 
L 376.432921 226.723706 
L 376.65005 226.723706 
L 376.868114 227.195854 
L 377.305393 227.195854 
L 377.523343 228.612299 
L 377.741477 229.084447 
L 377.959466 227.195854 
L 378.146323 226.723706 
L 378.365439 227.195854 
L 378.581883 230.500892 
L 379.237372 211.614962 
L 379.454896 210.670666 
L 379.643147 240.416005 
L 379.861126 216.808593 
L 380.079436 247.970376 
L 380.515657 216.336445 
L 380.7329 214.92 
L 380.951177 221.530075 
L 381.139763 221.057927 
L 381.357288 220.113631 
L 381.575977 238.99956 
L 382.011444 227.195854 
L 382.23011 226.251558 
L 382.448227 227.195854 
L 382.635306 226.723706 
L 385.658689 226.723706 
L 385.846337 226.251558 
L 386.064607 226.723706 
L 386.93508 226.723706 
L 387.154796 228.612299 
L 387.340976 226.723706 
L 387.559596 226.251558 
L 387.778705 226.723706 
L 388.432792 226.723706 
L 388.651351 228.612299 
L 388.838208 226.723706 
L 389.056335 226.251558 
L 389.274574 226.723706 
L 389.492601 226.251558 
L 389.710551 226.723706 
L 389.927544 226.723706 
L 390.146598 228.140151 
L 390.334286 226.251558 
L 390.989279 226.251558 
L 391.207611 226.723706 
L 391.424975 228.140151 
L 391.643724 226.251558 
L 392.267335 226.251558 
L 392.486117 226.723706 
L 392.922283 226.723706 
L 393.140061 226.251558 
L 393.357629 226.251558 
L 393.545773 226.723706 
L 393.763032 226.251558 
L 393.980473 226.723706 
L 395.25846 226.723706 
L 395.478102 238.055263 
L 395.696005 218.697186 
L 395.914161 214.447852 
L 396.132288 233.333781 
L 396.34925 239.471708 
L 396.537188 206.89348 
L 396.756478 253.164007 
L 396.975143 248.442525 
L 397.192562 247.970376 
L 397.410634 195.089774 
L 397.754139 246.081783 
L 397.97177 242.304598 
L 398.189744 214.447852 
L 398.408317 226.723706 
L 398.625455 224.362965 
L 398.843992 224.835113 
L 399.249864 229.556595 
L 399.468158 226.723706 
L 399.686361 226.251558 
L 399.903504 226.251558 
L 400.122665 227.195854 
L 400.340973 226.723706 
L 400.558468 226.723706 
L 400.74639 226.251558 
L 400.964257 226.251558 
L 401.400533 228.140151 
L 401.836606 226.723706 
L 402.678749 226.723706 
L 402.89679 227.668002 
L 403.114474 227.668002 
L 403.330888 226.251558 
L 403.54931 226.723706 
L 403.736517 226.723706 
L 403.95472 227.195854 
L 404.174077 228.140151 
L 404.393049 227.668002 
L 404.610347 228.140151 
L 404.829415 226.251558 
L 405.04656 226.723706 
L 405.889423 226.723706 
L 406.10739 226.251558 
L 406.325081 226.723706 
L 411.249963 226.723706 
L 411.438025 225.307261 
L 411.656247 219.169334 
L 411.873247 224.362965 
L 412.092513 226.723706 
L 412.310807 221.530075 
L 412.52891 238.99956 
L 412.746451 231.917336 
L 412.963982 230.500892 
L 413.151761 235.222374 
L 413.370405 224.362965 
L 413.588667 234.750226 
L 413.805927 223.418668 
L 414.242748 227.195854 
L 414.459701 226.723706 
L 414.648568 226.723706 
L 414.866969 227.668002 
L 415.083929 225.779409 
L 415.302983 227.668002 
L 415.738574 226.251558 
L 415.957186 226.251558 
L 416.145063 226.723706 
L 416.362785 226.723706 
L 416.579883 228.140151 
L 416.798124 227.668002 
L 417.016249 227.668002 
L 417.235274 226.251558 
L 417.453827 226.723706 
L 417.858892 226.723706 
L 418.077276 227.668002 
L 418.295036 227.195854 
L 418.513232 226.251558 
L 418.949217 226.251558 
L 419.16792 226.723706 
L 419.790786 226.723706 
L 420.009217 226.251558 
L 420.22795 226.251558 
L 420.445841 226.723706 
L 423.656622 226.723706 
L 423.843412 226.251558 
L 424.062366 226.723706 
L 425.994236 226.723706 
L 426.647876 217.752889 
L 426.866541 231.917336 
L 427.053522 223.890816 
L 427.272514 235.694522 
L 427.490602 206.421332 
L 427.709016 192.256885 
L 428.051576 227.668002 
L 428.270274 231.917336 
L 428.488285 191.784737 
L 428.862304 253.164007 
L 429.049001 250.803266 
L 429.267828 215.392148 
L 429.485917 223.418668 
L 429.70335 222.94652 
L 429.922 228.140151 
L 430.140163 227.195854 
L 430.357727 228.140151 
L 430.545992 227.668002 
L 430.764507 227.668002 
L 430.981376 226.723706 
L 431.200277 227.195854 
L 431.417437 227.195854 
L 431.636081 227.668002 
L 431.854487 226.723706 
L 432.040812 226.723706 
L 432.260018 228.140151 
L 432.477505 226.723706 
L 433.132828 226.723706 
L 433.350755 227.195854 
L 433.567907 226.723706 
L 433.974433 226.723706 
L 434.192293 227.195854 
L 434.409719 226.723706 
L 434.628809 226.723706 
L 434.84629 227.195854 
L 435.252575 227.195854 
L 435.470769 226.723706 
L 436.125254 226.723706 
L 436.342974 227.195854 
L 436.561863 226.723706 
L 436.748887 226.723706 
L 436.967111 227.195854 
L 437.184224 226.251558 
L 437.403363 226.723706 
L 439.116713 226.723706 
L 439.336102 226.251558 
L 439.771234 227.195854 
L 439.959241 226.723706 
L 440.831768 226.723706 
L 441.049595 227.668002 
L 441.455234 226.723706 
L 442.327517 226.723706 
L 442.545292 227.668002 
L 442.764482 227.668002 
L 442.952027 226.251558 
L 443.170249 226.723706 
L 443.824627 226.723706 
L 444.041246 227.195854 
L 444.259821 226.251558 
L 444.448277 226.251558 
L 444.666478 226.723706 
L 445.539057 226.723706 
L 445.755926 228.612299 
L 445.944703 211.142814 
L 446.162532 207.365628 
L 446.380711 259.774082 
L 446.599172 279.604308 
L 446.816924 226.723706 
L 447.033696 217.280741 
L 447.252051 247.02608 
L 447.471408 219.169334 
L 447.658038 219.641482 
L 447.875949 229.556595 
L 448.094723 263.551268 
L 448.312574 245.609635 
L 448.530744 241.360301 
L 448.748651 216.808593 
L 448.967134 224.835113 
L 449.154646 225.307261 
L 449.591195 227.195854 
L 449.80853 225.779409 
L 450.027553 226.723706 
L 450.245473 226.251558 
L 450.462928 226.251558 
L 450.651246 226.723706 
L 451.523636 226.723706 
L 451.741063 227.195854 
L 451.959873 226.723706 
L 454.732598 226.723706 
L 454.952551 228.140151 
L 455.170455 227.195854 
L 455.357238 228.612299 
L 455.575774 226.723706 
L 456.012345 226.723706 
L 456.230523 228.140151 
L 456.448177 227.195854 
L 456.666183 227.195854 
L 456.853921 226.723706 
L 457.727087 226.723706 
L 457.944923 227.195854 
L 458.16283 226.723706 
L 461.56115 226.723706 
L 461.778608 224.362965 
L 461.996377 219.641482 
L 462.215147 223.890816 
L 462.432285 243.248894 
L 462.651804 179.036734 
L 462.99486 289.991569 
L 463.430882 199.811257 
L 463.773655 223.418668 
L 463.991956 206.421332 
L 464.210212 233.333781 
L 464.428025 213.031407 
L 464.64657 242.304598 
L 464.863401 237.583115 
L 465.051721 229.084447 
L 465.270804 227.668002 
L 465.487165 225.307261 
L 465.924612 226.251558 
L 466.14232 225.779409 
L 466.360111 226.251558 
L 466.548512 227.195854 
L 466.765686 226.723706 
L 467.203133 228.612299 
L 467.418921 226.723706 
L 467.636795 226.251558 
L 467.855294 226.723706 
L 468.072782 226.723706 
L 468.26037 227.668002 
L 468.478753 227.668002 
L 468.697046 226.251558 
L 468.914786 226.251558 
L 469.133056 226.723706 
L 469.350924 226.251558 
L 469.569163 228.140151 
L 469.756615 227.195854 
L 469.974861 227.668002 
L 470.193117 226.251558 
L 470.410343 226.251558 
L 470.62949 226.723706 
L 470.847121 226.723706 
L 471.065596 226.251558 
L 471.253634 226.723706 
L 471.471166 226.251558 
L 473.840233 226.251558 
L 474.058212 226.723706 
L 474.276468 226.251558 
L 475.773549 226.251558 
L 475.961326 225.779409 
L 476.180639 226.251558 
L 478.954347 226.251558 
L 479.17267 227.195854 
L 479.390546 226.251558 
L 480.44881 226.251558 
L 480.667225 228.140151 
L 480.886981 226.251558 
L 481.105227 225.779409 
L 481.322942 226.251558 
L 481.75942 226.251558 
L 481.977866 228.140151 
L 482.165311 226.251558 
L 482.60071 226.251558 
L 482.819475 225.779409 
L 483.037814 226.251558 
L 483.254524 226.251558 
L 483.47297 228.140151 
L 483.660163 225.779409 
L 483.878904 225.779409 
L 484.097722 226.723706 
L 484.314806 218.697186 
L 484.533052 205.004887 
L 484.751041 199.339108 
L 485.095262 186.591106 
L 485.468419 221.530075 
L 485.65342 206.421332 
L 485.874424 230.97304 
L 486.091841 215.392148 
L 486.309213 234.278078 
L 486.527962 235.694522 
L 486.746644 226.251558 
L 486.965097 204.060591 
L 487.152502 225.307261 
L 487.370605 222.002224 
L 487.588928 227.668002 
L 487.80704 225.307261 
L 488.025029 226.251558 
L 488.243284 226.251558 
L 488.461028 225.779409 
L 488.679459 226.251558 
L 488.867046 225.779409 
L 489.085416 226.251558 
L 489.739551 226.251558 
L 489.957568 227.195854 
L 490.175559 226.251558 
L 492.295435 226.251558 
L 492.513988 228.140151 
L 492.7319 226.251558 
L 493.791726 226.251558 
L 494.009806 227.668002 
L 494.227802 226.251558 
L 494.445896 225.779409 
L 494.882013 225.779409 
L 495.069159 227.195854 
L 495.287169 227.668002 
L 495.505592 226.251558 
L 495.941654 226.251558 
L 496.159841 225.779409 
L 496.378142 226.251558 
L 497.001905 226.251558 
L 497.220395 225.779409 
L 498.062278 225.779409 
L 498.279778 226.251558 
L 498.497988 225.779409 
L 500.430354 225.779409 
L 500.651654 240.416005 
L 500.867124 231.445188 
L 501.054765 266.856306 
L 501.272935 258.357638 
L 501.490826 204.532739 
L 501.709249 206.89348 
L 501.927168 193.673329 
L 502.268229 238.527412 
L 502.487444 213.975704 
L 502.706376 209.726369 
L 502.924548 221.057927 
L 503.142833 205.477035 
L 503.360259 227.195854 
L 503.578583 230.028743 
L 503.766377 222.474372 
L 503.984592 226.723706 
L 504.421651 225.779409 
L 504.63856 226.251558 
L 504.857271 225.307261 
L 505.075427 226.251558 
L 505.479726 225.307261 
L 505.699152 225.779409 
L 505.9168 225.307261 
L 506.135861 225.779409 
L 506.571269 225.779409 
L 506.759465 226.251558 
L 506.977513 225.307261 
L 507.193281 225.779409 
L 507.413736 225.307261 
L 507.631815 225.779409 
L 507.84845 225.779409 
L 508.067345 226.723706 
L 508.285508 225.307261 
L 508.472853 227.195854 
L 508.690787 225.307261 
L 508.908997 225.307261 
L 509.127419 225.779409 
L 509.564068 225.779409 
L 509.782376 226.251558 
L 509.970039 225.307261 
L 510.187298 225.779409 
L 517.262901 225.779409 
L 517.481287 226.251558 
L 517.668767 225.779409 
L 518.541398 225.779409 
L 518.759335 216.808593 
L 518.976846 233.333781 
L 519.165423 232.861633 
L 519.382657 222.002224 
L 519.601239 200.755553 
L 519.819526 198.394812 
L 520.162177 253.164007 
L 520.380137 259.774082 
L 520.599227 233.333781 
L 520.81711 241.832449 
L 521.035388 219.169334 
L 521.253362 241.360301 
L 521.659089 234.278078 
L 521.877018 217.280741 
L 522.09519 224.362965 
L 522.313239 223.418668 
L 522.531799 227.668002 
L 522.749864 225.779409 
L 522.967662 225.307261 
L 523.185773 225.779409 
L 523.371177 225.779409 
L 523.591488 226.251558 
L 523.808952 225.779409 
L 524.028871 226.251558 
L 524.245817 226.251558 
L 524.463571 225.779409 
L 524.68172 226.251558 
L 524.869208 225.779409 
L 525.086992 226.251558 
L 526.178284 226.251558 
L 526.365368 225.779409 
L 526.584178 225.779409 
L 526.802033 226.251558 
L 527.238497 226.251558 
L 527.456629 225.779409 
L 529.794602 225.779409 
L 530.012562 226.251558 
L 530.449566 226.251558 
L 530.666969 225.779409 
L 530.883009 226.251558 
L 531.726694 226.251558 
L 531.94498 227.195854 
L 532.162473 227.195854 
L 532.381293 225.779409 
L 532.786518 226.723706 
L 533.00514 226.251558 
L 533.222512 226.723706 
L 533.441284 226.251558 
L 533.659273 227.195854 
L 533.87746 225.779409 
L 534.06511 226.251558 
L 534.501018 226.251558 
L 534.719684 227.668002 
L 534.937682 226.251558 
L 535.154877 226.251558 
L 535.373552 250.331118 
L 535.561329 237.583115 
L 535.778808 241.360301 
L 535.997633 239.471708 
L 536.215105 233.805929 
L 536.433057 193.201181 
L 536.776271 274.882826 
L 536.994071 177.148141 
L 537.368346 197.450515 
L 537.711335 207.365628 
L 537.930124 243.248894 
L 538.148278 230.028743 
L 538.36512 225.779409 
L 538.585055 228.140151 
L 538.989963 225.307261 
L 539.211444 226.723706 
L 539.423375 225.779409 
L 539.64402 226.251558 
L 539.861863 225.779409 
L 540.080347 227.668002 
L 540.267967 225.779409 
L 540.486168 225.779409 
L 540.70398 226.251558 
L 540.9228 225.779409 
L 541.139882 225.779409 
L 541.359021 227.668002 
L 541.57679 225.779409 
L 541.764385 225.307261 
L 541.981893 225.779409 
L 543.913139 225.779409 
L 544.13084 226.251558 
L 544.349226 227.668002 
L 544.567236 226.251558 
L 544.785332 227.195854 
L 544.97289 225.779409 
L 545.627351 225.779409 
L 545.845178 227.195854 
L 546.282733 225.307261 
L 546.468768 225.779409 
L 546.904907 225.779409 
L 547.123618 227.195854 
L 547.341156 226.251558 
L 547.559107 226.251558 
L 547.777979 225.779409 
L 550.115922 225.779409 
L 550.333873 226.251558 
L 551.393918 226.251558 
L 551.612012 232.861633 
L 551.830442 188.479699 
L 552.175227 205.949184 
L 552.393597 261.662675 
L 552.611636 203.588442 
L 552.829854 198.86696 
L 553.391232 275.354974 
L 553.609831 230.500892 
L 553.8274 287.630828 
L 554.044667 190.368292 
L 554.387895 233.333781 
L 554.605231 224.362965 
L 554.824704 228.140151 
L 555.042419 224.835113 
L 555.260698 228.140151 
L 555.478861 224.835113 
L 555.66613 225.307261 
L 555.884528 226.723706 
L 556.102091 225.779409 
L 556.321304 225.779409 
L 556.538578 226.251558 
L 556.757138 227.668002 
L 556.973202 225.779409 
L 558.035516 225.779409 
L 558.253953 227.668002 
L 558.470793 225.779409 
L 558.689845 225.307261 
L 558.876423 225.779409 
L 559.095447 225.779409 
L 559.31358 226.251558 
L 559.531438 227.668002 
L 559.74961 227.668002 
L 559.96792 225.779409 
L 560.186037 225.307261 
L 560.372727 225.779409 
L 560.372727 225.779409 
" clip-path="url(#pb0e8676df9)" style="fill: none; stroke: #1f77b4; stroke-linecap: round"/>
   </g>
   <g id="line2d_42">
    <defs>
     <path id="m6e689b1f29" d="M 0 1.25 
C 0.331504 1.25 0.649475 1.118292 0.883883 0.883883 
C 1.118292 0.649475 1.25 0.331504 1.25 0 
C 1.25 -0.331504 1.118292 -0.649475 0.883883 -0.883883 
C 0.649475 -1.118292 0.331504 -1.25 0 -1.25 
C -0.331504 -1.25 -0.649475 -1.118292 -0.883883 -0.883883 
C -1.118292 -0.649475 -1.25 -0.331504 -1.25 0 
C -1.25 0.331504 -1.118292 0.649475 -0.883883 0.883883 
C -0.649475 1.118292 -0.331504 1.25 0 1.25 
z
" style="stroke: #ff6d00; stroke-width: 2"/>
    </defs>
    <g clip-path="url(#pb0e8676df9)">
     <use xlink:href="#m6e689b1f29" x="163.001054" y="182.341772" style="fill: #ff6d00; stroke: #ff6d00; stroke-width: 2"/>
     <use xlink:href="#m6e689b1f29" x="164.653046" y="191.784737" style="fill: #ff6d00; stroke: #ff6d00; stroke-width: 2"/>
     <use xlink:href="#m6e689b1f29" x="179.898125" y="188.951847" style="fill: #ff6d00; stroke: #ff6d00; stroke-width: 2"/>
     <use xlink:href="#m6e689b1f29" x="181.892638" y="194.617626" style="fill: #ff6d00; stroke: #ff6d00; stroke-width: 2"/>
     <use xlink:href="#m6e689b1f29" x="198.226131" y="145.042061" style="fill: #ff6d00; stroke: #ff6d00; stroke-width: 2"/>
     <use xlink:href="#m6e689b1f29" x="199.566589" y="150.70784" style="fill: #ff6d00; stroke: #ff6d00; stroke-width: 2"/>
     <use xlink:href="#m6e689b1f29" x="202.529155" y="188.951847" style="fill: #ff6d00; stroke: #ff6d00; stroke-width: 2"/>
     <use xlink:href="#m6e689b1f29" x="214.061763" y="144.569913" style="fill: #ff6d00; stroke: #ff6d00; stroke-width: 2"/>
     <use xlink:href="#m6e689b1f29" x="214.77855" y="95.466497" style="fill: #ff6d00; stroke: #ff6d00; stroke-width: 2"/>
     <use xlink:href="#m6e689b1f29" x="226.841815" y="173.843104" style="fill: #ff6d00; stroke: #ff6d00; stroke-width: 2"/>
     <use xlink:href="#m6e689b1f29" x="227.870593" y="173.843104" style="fill: #ff6d00; stroke: #ff6d00; stroke-width: 2"/>
     <use xlink:href="#m6e689b1f29" x="228.929734" y="149.291395" style="fill: #ff6d00; stroke: #ff6d00; stroke-width: 2"/>
     <use xlink:href="#m6e689b1f29" x="229.397496" y="197.450515" style="fill: #ff6d00; stroke: #ff6d00; stroke-width: 2"/>
     <use xlink:href="#m6e689b1f29" x="230.39591" y="130.877614" style="fill: #ff6d00; stroke: #ff6d00; stroke-width: 2"/>
     <use xlink:href="#m6e689b1f29" x="231.735834" y="188.479699" style="fill: #ff6d00; stroke: #ff6d00; stroke-width: 2"/>
     <use xlink:href="#m6e689b1f29" x="259.228641" y="185.646809" style="fill: #ff6d00; stroke: #ff6d00; stroke-width: 2"/>
     <use xlink:href="#m6e689b1f29" x="260.164091" y="190.368292" style="fill: #ff6d00; stroke: #ff6d00; stroke-width: 2"/>
     <use xlink:href="#m6e689b1f29" x="271.851598" y="177.148141" style="fill: #ff6d00; stroke: #ff6d00; stroke-width: 2"/>
     <use xlink:href="#m6e689b1f29" x="272.445188" y="191.784737" style="fill: #ff6d00; stroke: #ff6d00; stroke-width: 2"/>
     <use xlink:href="#m6e689b1f29" x="273.006135" y="144.097765" style="fill: #ff6d00; stroke: #ff6d00; stroke-width: 2"/>
     <use xlink:href="#m6e689b1f29" x="274.471434" y="114.352426" style="fill: #ff6d00; stroke: #ff6d00; stroke-width: 2"/>
     <use xlink:href="#m6e689b1f29" x="298.286092" y="141.737024" style="fill: #ff6d00; stroke: #ff6d00; stroke-width: 2"/>
     <use xlink:href="#m6e689b1f29" x="299.90668" y="181.869624" style="fill: #ff6d00; stroke: #ff6d00; stroke-width: 2"/>
     <use xlink:href="#m6e689b1f29" x="323.564508" y="163.455843" style="fill: #ff6d00; stroke: #ff6d00; stroke-width: 2"/>
     <use xlink:href="#m6e689b1f29" x="324.033064" y="169.121621" style="fill: #ff6d00; stroke: #ff6d00; stroke-width: 2"/>
     <use xlink:href="#m6e689b1f29" x="338.621283" y="72.803382" style="fill: #ff6d00; stroke: #ff6d00; stroke-width: 2"/>
     <use xlink:href="#m6e689b1f29" x="356.483292" y="66.665455" style="fill: #ff6d00; stroke: #ff6d00; stroke-width: 2"/>
     <use xlink:href="#m6e689b1f29" x="397.410634" y="195.089774" style="fill: #ff6d00; stroke: #ff6d00; stroke-width: 2"/>
     <use xlink:href="#m6e689b1f29" x="427.709016" y="192.256885" style="fill: #ff6d00; stroke: #ff6d00; stroke-width: 2"/>
     <use xlink:href="#m6e689b1f29" x="428.488285" y="191.784737" style="fill: #ff6d00; stroke: #ff6d00; stroke-width: 2"/>
     <use xlink:href="#m6e689b1f29" x="462.651804" y="179.036734" style="fill: #ff6d00; stroke: #ff6d00; stroke-width: 2"/>
     <use xlink:href="#m6e689b1f29" x="485.095262" y="186.591106" style="fill: #ff6d00; stroke: #ff6d00; stroke-width: 2"/>
     <use xlink:href="#m6e689b1f29" x="501.927168" y="193.673329" style="fill: #ff6d00; stroke: #ff6d00; stroke-width: 2"/>
     <use xlink:href="#m6e689b1f29" x="519.819526" y="198.394812" style="fill: #ff6d00; stroke: #ff6d00; stroke-width: 2"/>
     <use xlink:href="#m6e689b1f29" x="536.433057" y="193.201181" style="fill: #ff6d00; stroke: #ff6d00; stroke-width: 2"/>
     <use xlink:href="#m6e689b1f29" x="536.994071" y="177.148141" style="fill: #ff6d00; stroke: #ff6d00; stroke-width: 2"/>
     <use xlink:href="#m6e689b1f29" x="551.830442" y="188.479699" style="fill: #ff6d00; stroke: #ff6d00; stroke-width: 2"/>
     <use xlink:href="#m6e689b1f29" x="554.044667" y="190.368292" style="fill: #ff6d00; stroke: #ff6d00; stroke-width: 2"/>
    </g>
   </g>
   <g id="patch_3">
    <path d="M 81 378 
L 81 51.84 
" style="fill: none; stroke: #cccccc; stroke-width: 1.25; stroke-linejoin: miter; stroke-linecap: square"/>
   </g>
   <g id="patch_4">
    <path d="M 583.2 378 
L 583.2 51.84 
" style="fill: none; stroke: #cccccc; stroke-width: 1.25; stroke-linejoin: miter; stroke-linecap: square"/>
   </g>
   <g id="patch_5">
    <path d="M 81 378 
L 583.2 378 
" style="fill: none; stroke: #cccccc; stroke-width: 1.25; stroke-linejoin: miter; stroke-linecap: square"/>
   </g>
   <g id="patch_6">
    <path d="M 81 51.84 
L 583.2 51.84 
" style="fill: none; stroke: #cccccc; stroke-width: 1.25; stroke-linejoin: miter; stroke-linecap: square"/>
   </g>
   <g id="text_17">
    <!-- Sound $[V]$ vs. Time $[s]$ -->
    <g style="fill: #262626" transform="translate(224.9 31.84)scale(0.2 -0.2)">
     <defs>
      <path id="Arial-BoldMT-53" d="M 231 1491 
L 1131 1578 
Q 1213 1125 1461 912 
Q 1709 700 2131 700 
Q 2578 700 2804 889 
Q 3031 1078 3031 1331 
Q 3031 1494 2936 1608 
Q 2841 1722 2603 1806 
Q 2441 1863 1863 2006 
Q 1119 2191 819 2459 
Q 397 2838 397 3381 
Q 397 3731 595 4036 
Q 794 4341 1167 4500 
Q 1541 4659 2069 4659 
Q 2931 4659 3367 4281 
Q 3803 3903 3825 3272 
L 2900 3231 
Q 2841 3584 2645 3739 
Q 2450 3894 2059 3894 
Q 1656 3894 1428 3728 
Q 1281 3622 1281 3444 
Q 1281 3281 1419 3166 
Q 1594 3019 2269 2859 
Q 2944 2700 3267 2529 
Q 3591 2359 3773 2064 
Q 3956 1769 3956 1334 
Q 3956 941 3737 597 
Q 3519 253 3119 86 
Q 2719 -81 2122 -81 
Q 1253 -81 787 320 
Q 322 722 231 1491 
z
" transform="scale(0.015625)"/>
      <path id="Arial-BoldMT-6f" d="M 256 1706 
Q 256 2144 472 2553 
Q 688 2963 1083 3178 
Q 1478 3394 1966 3394 
Q 2719 3394 3200 2905 
Q 3681 2416 3681 1669 
Q 3681 916 3195 420 
Q 2709 -75 1972 -75 
Q 1516 -75 1102 131 
Q 688 338 472 736 
Q 256 1134 256 1706 
z
M 1156 1659 
Q 1156 1166 1390 903 
Q 1625 641 1969 641 
Q 2313 641 2545 903 
Q 2778 1166 2778 1666 
Q 2778 2153 2545 2415 
Q 2313 2678 1969 2678 
Q 1625 2678 1390 2415 
Q 1156 2153 1156 1659 
z
" transform="scale(0.015625)"/>
      <path id="Arial-BoldMT-75" d="M 2644 0 
L 2644 497 
Q 2463 231 2167 78 
Q 1872 -75 1544 -75 
Q 1209 -75 943 72 
Q 678 219 559 484 
Q 441 750 441 1219 
L 441 3319 
L 1319 3319 
L 1319 1794 
Q 1319 1094 1367 936 
Q 1416 778 1544 686 
Q 1672 594 1869 594 
Q 2094 594 2272 717 
Q 2450 841 2515 1023 
Q 2581 1206 2581 1919 
L 2581 3319 
L 3459 3319 
L 3459 0 
L 2644 0 
z
" transform="scale(0.015625)"/>
      <path id="Arial-BoldMT-6e" d="M 3478 0 
L 2600 0 
L 2600 1694 
Q 2600 2231 2544 2389 
Q 2488 2547 2361 2634 
Q 2234 2722 2056 2722 
Q 1828 2722 1647 2597 
Q 1466 2472 1398 2265 
Q 1331 2059 1331 1503 
L 1331 0 
L 453 0 
L 453 3319 
L 1269 3319 
L 1269 2831 
Q 1703 3394 2363 3394 
Q 2653 3394 2893 3289 
Q 3134 3184 3257 3021 
Q 3381 2859 3429 2653 
Q 3478 2447 3478 2063 
L 3478 0 
z
" transform="scale(0.015625)"/>
      <path id="Arial-BoldMT-64" d="M 3503 0 
L 2688 0 
L 2688 488 
Q 2484 203 2207 64 
Q 1931 -75 1650 -75 
Q 1078 -75 670 386 
Q 263 847 263 1672 
Q 263 2516 659 2955 
Q 1056 3394 1663 3394 
Q 2219 3394 2625 2931 
L 2625 4581 
L 3503 4581 
L 3503 0 
z
M 1159 1731 
Q 1159 1200 1306 963 
Q 1519 619 1900 619 
Q 2203 619 2415 876 
Q 2628 1134 2628 1647 
Q 2628 2219 2422 2470 
Q 2216 2722 1894 2722 
Q 1581 2722 1370 2473 
Q 1159 2225 1159 1731 
z
" transform="scale(0.015625)"/>
      <path id="Arial-BoldMT-20" transform="scale(0.015625)"/>
      <path id="DejaVuSans-5b" d="M 550 4863 
L 1875 4863 
L 1875 4416 
L 1125 4416 
L 1125 -397 
L 1875 -397 
L 1875 -844 
L 550 -844 
L 550 4863 
z
" transform="scale(0.015625)"/>
      <path id="DejaVuSans-Oblique-56" d="M 1319 0 
L 500 4666 
L 1119 4666 
L 1797 653 
L 4063 4666 
L 4750 4666 
L 2053 0 
L 1319 0 
z
" transform="scale(0.015625)"/>
      <path id="DejaVuSans-5d" d="M 1947 4863 
L 1947 -844 
L 622 -844 
L 622 -397 
L 1369 -397 
L 1369 4416 
L 622 4416 
L 622 4863 
L 1947 4863 
z
" transform="scale(0.015625)"/>
      <path id="Arial-BoldMT-76" d="M 1372 0 
L 34 3319 
L 956 3319 
L 1581 1625 
L 1763 1059 
Q 1834 1275 1853 1344 
Q 1897 1484 1947 1625 
L 2578 3319 
L 3481 3319 
L 2163 0 
L 1372 0 
z
" transform="scale(0.015625)"/>
      <path id="Arial-BoldMT-73" d="M 150 947 
L 1031 1081 
Q 1088 825 1259 692 
Q 1431 559 1741 559 
Q 2081 559 2253 684 
Q 2369 772 2369 919 
Q 2369 1019 2306 1084 
Q 2241 1147 2013 1200 
Q 950 1434 666 1628 
Q 272 1897 272 2375 
Q 272 2806 612 3100 
Q 953 3394 1669 3394 
Q 2350 3394 2681 3172 
Q 3013 2950 3138 2516 
L 2309 2363 
Q 2256 2556 2107 2659 
Q 1959 2763 1684 2763 
Q 1338 2763 1188 2666 
Q 1088 2597 1088 2488 
Q 1088 2394 1175 2328 
Q 1294 2241 1995 2081 
Q 2697 1922 2975 1691 
Q 3250 1456 3250 1038 
Q 3250 581 2869 253 
Q 2488 -75 1741 -75 
Q 1063 -75 667 200 
Q 272 475 150 947 
z
" transform="scale(0.015625)"/>
      <path id="Arial-BoldMT-2e" d="M 459 0 
L 459 878 
L 1338 878 
L 1338 0 
L 459 0 
z
" transform="scale(0.015625)"/>
      <path id="Arial-BoldMT-54" d="M 1497 0 
L 1497 3806 
L 138 3806 
L 138 4581 
L 3778 4581 
L 3778 3806 
L 2422 3806 
L 2422 0 
L 1497 0 
z
" transform="scale(0.015625)"/>
      <path id="Arial-BoldMT-69" d="M 459 3769 
L 459 4581 
L 1338 4581 
L 1338 3769 
L 459 3769 
z
M 459 0 
L 459 3319 
L 1338 3319 
L 1338 0 
L 459 0 
z
" transform="scale(0.015625)"/>
      <path id="Arial-BoldMT-6d" d="M 394 3319 
L 1203 3319 
L 1203 2866 
Q 1638 3394 2238 3394 
Q 2556 3394 2790 3262 
Q 3025 3131 3175 2866 
Q 3394 3131 3647 3262 
Q 3900 3394 4188 3394 
Q 4553 3394 4806 3245 
Q 5059 3097 5184 2809 
Q 5275 2597 5275 2122 
L 5275 0 
L 4397 0 
L 4397 1897 
Q 4397 2391 4306 2534 
Q 4184 2722 3931 2722 
Q 3747 2722 3584 2609 
Q 3422 2497 3350 2280 
Q 3278 2063 3278 1594 
L 3278 0 
L 2400 0 
L 2400 1819 
Q 2400 2303 2353 2443 
Q 2306 2584 2207 2653 
Q 2109 2722 1941 2722 
Q 1738 2722 1575 2612 
Q 1413 2503 1342 2297 
Q 1272 2091 1272 1613 
L 1272 0 
L 394 0 
L 394 3319 
z
" transform="scale(0.015625)"/>
      <path id="Arial-BoldMT-65" d="M 2381 1056 
L 3256 909 
Q 3088 428 2723 176 
Q 2359 -75 1813 -75 
Q 947 -75 531 491 
Q 203 944 203 1634 
Q 203 2459 634 2926 
Q 1066 3394 1725 3394 
Q 2466 3394 2894 2905 
Q 3322 2416 3303 1406 
L 1103 1406 
Q 1113 1016 1316 798 
Q 1519 581 1822 581 
Q 2028 581 2168 693 
Q 2309 806 2381 1056 
z
M 2431 1944 
Q 2422 2325 2234 2523 
Q 2047 2722 1778 2722 
Q 1491 2722 1303 2513 
Q 1116 2303 1119 1944 
L 2431 1944 
z
" transform="scale(0.015625)"/>
      <path id="DejaVuSans-Oblique-73" d="M 3200 3397 
L 3091 2853 
Q 2863 2978 2609 3040 
Q 2356 3103 2088 3103 
Q 1634 3103 1373 2948 
Q 1113 2794 1113 2528 
Q 1113 2219 1719 2053 
Q 1766 2041 1788 2034 
L 1972 1978 
Q 2547 1819 2739 1644 
Q 2931 1469 2931 1166 
Q 2931 609 2489 259 
Q 2047 -91 1331 -91 
Q 1053 -91 747 -37 
Q 441 16 72 128 
L 184 722 
Q 500 559 806 475 
Q 1113 391 1394 391 
Q 1816 391 2080 572 
Q 2344 753 2344 1031 
Q 2344 1331 1650 1516 
L 1591 1531 
L 1394 1581 
Q 956 1697 753 1886 
Q 550 2075 550 2369 
Q 550 2928 970 3256 
Q 1391 3584 2113 3584 
Q 2397 3584 2667 3537 
Q 2938 3491 3200 3397 
z
" transform="scale(0.015625)"/>
     </defs>
     <use xlink:href="#Arial-BoldMT-53" transform="translate(0 0.015625)"/>
     <use xlink:href="#Arial-BoldMT-6f" transform="translate(66.699219 0.015625)"/>
     <use xlink:href="#Arial-BoldMT-75" transform="translate(127.783203 0.015625)"/>
     <use xlink:href="#Arial-BoldMT-6e" transform="translate(188.867188 0.015625)"/>
     <use xlink:href="#Arial-BoldMT-64" transform="translate(249.951172 0.015625)"/>
     <use xlink:href="#Arial-BoldMT-20" transform="translate(311.035156 0.015625)"/>
     <use xlink:href="#DejaVuSans-5b" transform="translate(338.818359 0.015625)"/>
     <use xlink:href="#DejaVuSans-Oblique-56" transform="translate(377.832031 0.015625)"/>
     <use xlink:href="#DejaVuSans-5d" transform="translate(446.240234 0.015625)"/>
     <use xlink:href="#Arial-BoldMT-20" transform="translate(485.253906 0.015625)"/>
     <use xlink:href="#Arial-BoldMT-76" transform="translate(513.037109 0.015625)"/>
     <use xlink:href="#Arial-BoldMT-73" transform="translate(568.652344 0.015625)"/>
     <use xlink:href="#Arial-BoldMT-2e" transform="translate(624.267578 0.015625)"/>
     <use xlink:href="#Arial-BoldMT-20" transform="translate(652.050781 0.015625)"/>
     <use xlink:href="#Arial-BoldMT-54" transform="translate(679.833984 0.015625)"/>
     <use xlink:href="#Arial-BoldMT-69" transform="translate(740.917969 0.015625)"/>
     <use xlink:href="#Arial-BoldMT-6d" transform="translate(768.701172 0.015625)"/>
     <use xlink:href="#Arial-BoldMT-65" transform="translate(857.617188 0.015625)"/>
     <use xlink:href="#Arial-BoldMT-20" transform="translate(913.232422 0.015625)"/>
     <use xlink:href="#DejaVuSans-5b" transform="translate(941.015625 0.015625)"/>
     <use xlink:href="#DejaVuSans-Oblique-73" transform="translate(980.029297 0.015625)"/>
     <use xlink:href="#DejaVuSans-5d" transform="translate(1032.128906 0.015625)"/>
    </g>
   </g>
   <g id="legend_1">
    <g id="patch_7">
     <path d="M 488.603125 88.130625 
L 576.2 88.130625 
Q 578.2 88.130625 578.2 86.130625 
L 578.2 58.84 
Q 578.2 56.84 576.2 56.84 
L 488.603125 56.84 
Q 486.603125 56.84 486.603125 58.84 
L 486.603125 86.130625 
Q 486.603125 88.130625 488.603125 88.130625 
z
" style="fill: #ffffff; opacity: 0.8; stroke: #cccccc; stroke-linejoin: miter"/>
    </g>
    <g id="line2d_43">
     <path d="M 490.603125 64.497812 
L 500.603125 64.497812 
L 510.603125 64.497812 
" style="fill: none; stroke: #1f77b4; stroke-linecap: round"/>
    </g>
    <g id="text_18">
     <!-- Sound Level -->
     <g style="fill: #262626" transform="translate(518.603125 67.997812)scale(0.1 -0.1)">
      <defs>
       <path id="ArialMT-53" d="M 288 1472 
L 859 1522 
Q 900 1178 1048 958 
Q 1197 738 1509 602 
Q 1822 466 2213 466 
Q 2559 466 2825 569 
Q 3091 672 3220 851 
Q 3350 1031 3350 1244 
Q 3350 1459 3225 1620 
Q 3100 1781 2813 1891 
Q 2628 1963 1997 2114 
Q 1366 2266 1113 2400 
Q 784 2572 623 2826 
Q 463 3081 463 3397 
Q 463 3744 659 4045 
Q 856 4347 1234 4503 
Q 1613 4659 2075 4659 
Q 2584 4659 2973 4495 
Q 3363 4331 3572 4012 
Q 3781 3694 3797 3291 
L 3216 3247 
Q 3169 3681 2898 3903 
Q 2628 4125 2100 4125 
Q 1550 4125 1298 3923 
Q 1047 3722 1047 3438 
Q 1047 3191 1225 3031 
Q 1400 2872 2139 2705 
Q 2878 2538 3153 2413 
Q 3553 2228 3743 1945 
Q 3934 1663 3934 1294 
Q 3934 928 3725 604 
Q 3516 281 3123 101 
Q 2731 -78 2241 -78 
Q 1619 -78 1198 103 
Q 778 284 539 648 
Q 300 1013 288 1472 
z
" transform="scale(0.015625)"/>
       <path id="ArialMT-75" d="M 2597 0 
L 2597 488 
Q 2209 -75 1544 -75 
Q 1250 -75 995 37 
Q 741 150 617 320 
Q 494 491 444 738 
Q 409 903 409 1263 
L 409 3319 
L 972 3319 
L 972 1478 
Q 972 1038 1006 884 
Q 1059 663 1231 536 
Q 1403 409 1656 409 
Q 1909 409 2131 539 
Q 2353 669 2445 892 
Q 2538 1116 2538 1541 
L 2538 3319 
L 3100 3319 
L 3100 0 
L 2597 0 
z
" transform="scale(0.015625)"/>
       <path id="ArialMT-6e" d="M 422 0 
L 422 3319 
L 928 3319 
L 928 2847 
Q 1294 3394 1984 3394 
Q 2284 3394 2536 3286 
Q 2788 3178 2913 3003 
Q 3038 2828 3088 2588 
Q 3119 2431 3119 2041 
L 3119 0 
L 2556 0 
L 2556 2019 
Q 2556 2363 2490 2533 
Q 2425 2703 2258 2804 
Q 2091 2906 1866 2906 
Q 1506 2906 1245 2678 
Q 984 2450 984 1813 
L 984 0 
L 422 0 
z
" transform="scale(0.015625)"/>
       <path id="ArialMT-64" d="M 2575 0 
L 2575 419 
Q 2259 -75 1647 -75 
Q 1250 -75 917 144 
Q 584 363 401 755 
Q 219 1147 219 1656 
Q 219 2153 384 2558 
Q 550 2963 881 3178 
Q 1213 3394 1622 3394 
Q 1922 3394 2156 3267 
Q 2391 3141 2538 2938 
L 2538 4581 
L 3097 4581 
L 3097 0 
L 2575 0 
z
M 797 1656 
Q 797 1019 1065 703 
Q 1334 388 1700 388 
Q 2069 388 2326 689 
Q 2584 991 2584 1609 
Q 2584 2291 2321 2609 
Q 2059 2928 1675 2928 
Q 1300 2928 1048 2622 
Q 797 2316 797 1656 
z
" transform="scale(0.015625)"/>
      </defs>
      <use xlink:href="#ArialMT-53"/>
      <use xlink:href="#ArialMT-6f" x="66.699219"/>
      <use xlink:href="#ArialMT-75" x="122.314453"/>
      <use xlink:href="#ArialMT-6e" x="177.929688"/>
      <use xlink:href="#ArialMT-64" x="233.544922"/>
      <use xlink:href="#ArialMT-20" x="289.160156"/>
      <use xlink:href="#ArialMT-4c" x="316.943359"/>
      <use xlink:href="#ArialMT-65" x="372.558594"/>
      <use xlink:href="#ArialMT-76" x="428.173828"/>
      <use xlink:href="#ArialMT-65" x="478.173828"/>
      <use xlink:href="#ArialMT-6c" x="533.789062"/>
     </g>
    </g>
    <g id="line2d_44">
     <g>
      <use xlink:href="#m6e689b1f29" x="500.603125" y="78.643125" style="fill: #ff6d00; stroke: #ff6d00; stroke-width: 2"/>
     </g>
    </g>
    <g id="text_19">
     <!-- Peaks -->
     <g style="fill: #262626" transform="translate(518.603125 82.143125)scale(0.1 -0.1)">
      <defs>
       <path id="ArialMT-50" d="M 494 0 
L 494 4581 
L 2222 4581 
Q 2678 4581 2919 4538 
Q 3256 4481 3484 4323 
Q 3713 4166 3852 3881 
Q 3991 3597 3991 3256 
Q 3991 2672 3619 2267 
Q 3247 1863 2275 1863 
L 1100 1863 
L 1100 0 
L 494 0 
z
M 1100 2403 
L 2284 2403 
Q 2872 2403 3119 2622 
Q 3366 2841 3366 3238 
Q 3366 3525 3220 3729 
Q 3075 3934 2838 4000 
Q 2684 4041 2272 4041 
L 1100 4041 
L 1100 2403 
z
" transform="scale(0.015625)"/>
       <path id="ArialMT-6b" d="M 425 0 
L 425 4581 
L 988 4581 
L 988 1969 
L 2319 3319 
L 3047 3319 
L 1778 2088 
L 3175 0 
L 2481 0 
L 1384 1697 
L 988 1316 
L 988 0 
L 425 0 
z
" transform="scale(0.015625)"/>
      </defs>
      <use xlink:href="#ArialMT-50"/>
      <use xlink:href="#ArialMT-65" x="66.699219"/>
      <use xlink:href="#ArialMT-61" x="122.314453"/>
      <use xlink:href="#ArialMT-6b" x="177.929688"/>
      <use xlink:href="#ArialMT-73" x="227.929688"/>
     </g>
    </g>
   </g>
  </g>
 </g>
 <defs>
  <clipPath id="pb0e8676df9">
   <rect x="81" y="51.84" width="502.2" height="326.16"/>
  </clipPath>
 </defs>
</svg>
